%TF.GenerationSoftware,KiCad,Pcbnew,(7.0.0)*%
%TF.CreationDate,2023-12-08T15:04:05-05:00*%
%TF.ProjectId,Coaster,436f6173-7465-4722-9e6b-696361645f70,rev?*%
%TF.SameCoordinates,Original*%
%TF.FileFunction,Soldermask,Top*%
%TF.FilePolarity,Negative*%
%FSLAX46Y46*%
G04 Gerber Fmt 4.6, Leading zero omitted, Abs format (unit mm)*
G04 Created by KiCad (PCBNEW (7.0.0)) date 2023-12-08 15:04:05*
%MOMM*%
%LPD*%
G01*
G04 APERTURE LIST*
G04 Aperture macros list*
%AMRoundRect*
0 Rectangle with rounded corners*
0 $1 Rounding radius*
0 $2 $3 $4 $5 $6 $7 $8 $9 X,Y pos of 4 corners*
0 Add a 4 corners polygon primitive as box body*
4,1,4,$2,$3,$4,$5,$6,$7,$8,$9,$2,$3,0*
0 Add four circle primitives for the rounded corners*
1,1,$1+$1,$2,$3*
1,1,$1+$1,$4,$5*
1,1,$1+$1,$6,$7*
1,1,$1+$1,$8,$9*
0 Add four rect primitives between the rounded corners*
20,1,$1+$1,$2,$3,$4,$5,0*
20,1,$1+$1,$4,$5,$6,$7,0*
20,1,$1+$1,$6,$7,$8,$9,0*
20,1,$1+$1,$8,$9,$2,$3,0*%
G04 Aperture macros list end*
%ADD10C,0.010000*%
%ADD11RoundRect,0.200000X0.275000X-0.200000X0.275000X0.200000X-0.275000X0.200000X-0.275000X-0.200000X0*%
%ADD12RoundRect,0.200000X-0.275000X0.200000X-0.275000X-0.200000X0.275000X-0.200000X0.275000X0.200000X0*%
%ADD13RoundRect,0.150000X0.587500X0.150000X-0.587500X0.150000X-0.587500X-0.150000X0.587500X-0.150000X0*%
%ADD14RoundRect,0.150000X0.150000X-0.587500X0.150000X0.587500X-0.150000X0.587500X-0.150000X-0.587500X0*%
%ADD15O,0.400000X0.700000*%
%ADD16RoundRect,0.050000X0.150000X-0.300000X0.150000X0.300000X-0.150000X0.300000X-0.150000X-0.300000X0*%
%ADD17RoundRect,0.050000X-1.250000X-1.050000X1.250000X-1.050000X1.250000X1.050000X-1.250000X1.050000X0*%
%ADD18RoundRect,0.218750X-0.218750X-0.256250X0.218750X-0.256250X0.218750X0.256250X-0.218750X0.256250X0*%
%ADD19C,3.600000*%
%ADD20C,6.400000*%
%ADD21R,1.600000X1.600000*%
%ADD22RoundRect,0.062500X-0.062500X-0.375000X0.062500X-0.375000X0.062500X0.375000X-0.062500X0.375000X0*%
%ADD23RoundRect,0.062500X-0.375000X-0.062500X0.375000X-0.062500X0.375000X0.062500X-0.375000X0.062500X0*%
%ADD24RoundRect,0.250000X0.350000X0.650000X-0.350000X0.650000X-0.350000X-0.650000X0.350000X-0.650000X0*%
%ADD25RoundRect,0.150000X0.150000X0.625000X-0.150000X0.625000X-0.150000X-0.625000X0.150000X-0.625000X0*%
%ADD26RoundRect,0.225000X-0.225000X-0.250000X0.225000X-0.250000X0.225000X0.250000X-0.225000X0.250000X0*%
%ADD27RoundRect,0.225000X-0.250000X0.225000X-0.250000X-0.225000X0.250000X-0.225000X0.250000X0.225000X0*%
%ADD28R,1.700000X3.500000*%
%ADD29O,1.700000X1.700000*%
%ADD30R,1.700000X1.700000*%
%ADD31R,3.500000X1.700000*%
%ADD32O,1.800000X1.800000*%
%ADD33O,1.500000X1.500000*%
%ADD34C,0.900000*%
%ADD35R,1.200000X1.950000*%
G04 APERTURE END LIST*
%TO.C,J3*%
G36*
X141099933Y-55431000D02*
G01*
X140699933Y-55431000D01*
X140699933Y-53731000D01*
X141099933Y-53731000D01*
X141099933Y-55431000D01*
G37*
D10*
X141099933Y-55431000D02*
X140699933Y-55431000D01*
X140699933Y-53731000D01*
X141099933Y-53731000D01*
X141099933Y-55431000D01*
G36*
X141099933Y-51831000D02*
G01*
X140699933Y-51831000D01*
X140699933Y-50131000D01*
X141099933Y-50131000D01*
X141099933Y-51831000D01*
G37*
X141099933Y-51831000D02*
X140699933Y-51831000D01*
X140699933Y-50131000D01*
X141099933Y-50131000D01*
X141099933Y-51831000D01*
G36*
X140599933Y-55431000D02*
G01*
X140199933Y-55431000D01*
X140199933Y-53731000D01*
X140599933Y-53731000D01*
X140599933Y-55431000D01*
G37*
X140599933Y-55431000D02*
X140199933Y-55431000D01*
X140199933Y-53731000D01*
X140599933Y-53731000D01*
X140599933Y-55431000D01*
G36*
X140599933Y-51831000D02*
G01*
X140199933Y-51831000D01*
X140199933Y-50131000D01*
X140599933Y-50131000D01*
X140599933Y-51831000D01*
G37*
X140599933Y-51831000D02*
X140199933Y-51831000D01*
X140199933Y-50131000D01*
X140599933Y-50131000D01*
X140599933Y-51831000D01*
G36*
X140099933Y-55431000D02*
G01*
X139699933Y-55431000D01*
X139699933Y-53731000D01*
X140099933Y-53731000D01*
X140099933Y-55431000D01*
G37*
X140099933Y-55431000D02*
X139699933Y-55431000D01*
X139699933Y-53731000D01*
X140099933Y-53731000D01*
X140099933Y-55431000D01*
G36*
X140099933Y-51831000D02*
G01*
X139699933Y-51831000D01*
X139699933Y-50131000D01*
X140099933Y-50131000D01*
X140099933Y-51831000D01*
G37*
X140099933Y-51831000D02*
X139699933Y-51831000D01*
X139699933Y-50131000D01*
X140099933Y-50131000D01*
X140099933Y-51831000D01*
G36*
X139599933Y-55431000D02*
G01*
X139199933Y-55431000D01*
X139199933Y-53731000D01*
X139599933Y-53731000D01*
X139599933Y-55431000D01*
G37*
X139599933Y-55431000D02*
X139199933Y-55431000D01*
X139199933Y-53731000D01*
X139599933Y-53731000D01*
X139599933Y-55431000D01*
G36*
X139599933Y-51831000D02*
G01*
X139199933Y-51831000D01*
X139199933Y-50131000D01*
X139599933Y-50131000D01*
X139599933Y-51831000D01*
G37*
X139599933Y-51831000D02*
X139199933Y-51831000D01*
X139199933Y-50131000D01*
X139599933Y-50131000D01*
X139599933Y-51831000D01*
G36*
X139099933Y-55431000D02*
G01*
X138699933Y-55431000D01*
X138699933Y-53731000D01*
X139099933Y-53731000D01*
X139099933Y-55431000D01*
G37*
X139099933Y-55431000D02*
X138699933Y-55431000D01*
X138699933Y-53731000D01*
X139099933Y-53731000D01*
X139099933Y-55431000D01*
G36*
X139099933Y-51831000D02*
G01*
X138699933Y-51831000D01*
X138699933Y-50131000D01*
X139099933Y-50131000D01*
X139099933Y-51831000D01*
G37*
X139099933Y-51831000D02*
X138699933Y-51831000D01*
X138699933Y-50131000D01*
X139099933Y-50131000D01*
X139099933Y-51831000D01*
G36*
X138599933Y-55431000D02*
G01*
X138199933Y-55431000D01*
X138199933Y-53731000D01*
X138599933Y-53731000D01*
X138599933Y-55431000D01*
G37*
X138599933Y-55431000D02*
X138199933Y-55431000D01*
X138199933Y-53731000D01*
X138599933Y-53731000D01*
X138599933Y-55431000D01*
G36*
X138599933Y-51831000D02*
G01*
X138199933Y-51831000D01*
X138199933Y-50131000D01*
X138599933Y-50131000D01*
X138599933Y-51831000D01*
G37*
X138599933Y-51831000D02*
X138199933Y-51831000D01*
X138199933Y-50131000D01*
X138599933Y-50131000D01*
X138599933Y-51831000D01*
G36*
X138099933Y-55431000D02*
G01*
X137699933Y-55431000D01*
X137699933Y-53731000D01*
X138099933Y-53731000D01*
X138099933Y-55431000D01*
G37*
X138099933Y-55431000D02*
X137699933Y-55431000D01*
X137699933Y-53731000D01*
X138099933Y-53731000D01*
X138099933Y-55431000D01*
G36*
X138099933Y-51831000D02*
G01*
X137699933Y-51831000D01*
X137699933Y-50131000D01*
X138099933Y-50131000D01*
X138099933Y-51831000D01*
G37*
X138099933Y-51831000D02*
X137699933Y-51831000D01*
X137699933Y-50131000D01*
X138099933Y-50131000D01*
X138099933Y-51831000D01*
G36*
X137599933Y-55431000D02*
G01*
X137199933Y-55431000D01*
X137199933Y-53731000D01*
X137599933Y-53731000D01*
X137599933Y-55431000D01*
G37*
X137599933Y-55431000D02*
X137199933Y-55431000D01*
X137199933Y-53731000D01*
X137599933Y-53731000D01*
X137599933Y-55431000D01*
G36*
X137599933Y-51831000D02*
G01*
X137199933Y-51831000D01*
X137199933Y-50131000D01*
X137599933Y-50131000D01*
X137599933Y-51831000D01*
G37*
X137599933Y-51831000D02*
X137199933Y-51831000D01*
X137199933Y-50131000D01*
X137599933Y-50131000D01*
X137599933Y-51831000D01*
G36*
X137099933Y-55431000D02*
G01*
X136699933Y-55431000D01*
X136699933Y-53731000D01*
X137099933Y-53731000D01*
X137099933Y-55431000D01*
G37*
X137099933Y-55431000D02*
X136699933Y-55431000D01*
X136699933Y-53731000D01*
X137099933Y-53731000D01*
X137099933Y-55431000D01*
G36*
X137099933Y-51831000D02*
G01*
X136699933Y-51831000D01*
X136699933Y-50131000D01*
X137099933Y-50131000D01*
X137099933Y-51831000D01*
G37*
X137099933Y-51831000D02*
X136699933Y-51831000D01*
X136699933Y-50131000D01*
X137099933Y-50131000D01*
X137099933Y-51831000D01*
G36*
X136599933Y-55431000D02*
G01*
X136199933Y-55431000D01*
X136199933Y-53731000D01*
X136599933Y-53731000D01*
X136599933Y-55431000D01*
G37*
X136599933Y-55431000D02*
X136199933Y-55431000D01*
X136199933Y-53731000D01*
X136599933Y-53731000D01*
X136599933Y-55431000D01*
G36*
X136599933Y-51831000D02*
G01*
X136199933Y-51831000D01*
X136199933Y-50131000D01*
X136599933Y-50131000D01*
X136599933Y-51831000D01*
G37*
X136599933Y-51831000D02*
X136199933Y-51831000D01*
X136199933Y-50131000D01*
X136599933Y-50131000D01*
X136599933Y-51831000D01*
%TO.C,J1*%
G36*
X182100000Y-95713055D02*
G01*
X181700000Y-95713055D01*
X181700000Y-94013055D01*
X182100000Y-94013055D01*
X182100000Y-95713055D01*
G37*
X182100000Y-95713055D02*
X181700000Y-95713055D01*
X181700000Y-94013055D01*
X182100000Y-94013055D01*
X182100000Y-95713055D01*
G36*
X182100000Y-92113055D02*
G01*
X181700000Y-92113055D01*
X181700000Y-90413055D01*
X182100000Y-90413055D01*
X182100000Y-92113055D01*
G37*
X182100000Y-92113055D02*
X181700000Y-92113055D01*
X181700000Y-90413055D01*
X182100000Y-90413055D01*
X182100000Y-92113055D01*
G36*
X181600000Y-95713055D02*
G01*
X181200000Y-95713055D01*
X181200000Y-94013055D01*
X181600000Y-94013055D01*
X181600000Y-95713055D01*
G37*
X181600000Y-95713055D02*
X181200000Y-95713055D01*
X181200000Y-94013055D01*
X181600000Y-94013055D01*
X181600000Y-95713055D01*
G36*
X181600000Y-92113055D02*
G01*
X181200000Y-92113055D01*
X181200000Y-90413055D01*
X181600000Y-90413055D01*
X181600000Y-92113055D01*
G37*
X181600000Y-92113055D02*
X181200000Y-92113055D01*
X181200000Y-90413055D01*
X181600000Y-90413055D01*
X181600000Y-92113055D01*
G36*
X181100000Y-95713055D02*
G01*
X180700000Y-95713055D01*
X180700000Y-94013055D01*
X181100000Y-94013055D01*
X181100000Y-95713055D01*
G37*
X181100000Y-95713055D02*
X180700000Y-95713055D01*
X180700000Y-94013055D01*
X181100000Y-94013055D01*
X181100000Y-95713055D01*
G36*
X181100000Y-92113055D02*
G01*
X180700000Y-92113055D01*
X180700000Y-90413055D01*
X181100000Y-90413055D01*
X181100000Y-92113055D01*
G37*
X181100000Y-92113055D02*
X180700000Y-92113055D01*
X180700000Y-90413055D01*
X181100000Y-90413055D01*
X181100000Y-92113055D01*
G36*
X180600000Y-95713055D02*
G01*
X180200000Y-95713055D01*
X180200000Y-94013055D01*
X180600000Y-94013055D01*
X180600000Y-95713055D01*
G37*
X180600000Y-95713055D02*
X180200000Y-95713055D01*
X180200000Y-94013055D01*
X180600000Y-94013055D01*
X180600000Y-95713055D01*
G36*
X180600000Y-92113055D02*
G01*
X180200000Y-92113055D01*
X180200000Y-90413055D01*
X180600000Y-90413055D01*
X180600000Y-92113055D01*
G37*
X180600000Y-92113055D02*
X180200000Y-92113055D01*
X180200000Y-90413055D01*
X180600000Y-90413055D01*
X180600000Y-92113055D01*
G36*
X180100000Y-95713055D02*
G01*
X179700000Y-95713055D01*
X179700000Y-94013055D01*
X180100000Y-94013055D01*
X180100000Y-95713055D01*
G37*
X180100000Y-95713055D02*
X179700000Y-95713055D01*
X179700000Y-94013055D01*
X180100000Y-94013055D01*
X180100000Y-95713055D01*
G36*
X180100000Y-92113055D02*
G01*
X179700000Y-92113055D01*
X179700000Y-90413055D01*
X180100000Y-90413055D01*
X180100000Y-92113055D01*
G37*
X180100000Y-92113055D02*
X179700000Y-92113055D01*
X179700000Y-90413055D01*
X180100000Y-90413055D01*
X180100000Y-92113055D01*
G36*
X179600000Y-95713055D02*
G01*
X179200000Y-95713055D01*
X179200000Y-94013055D01*
X179600000Y-94013055D01*
X179600000Y-95713055D01*
G37*
X179600000Y-95713055D02*
X179200000Y-95713055D01*
X179200000Y-94013055D01*
X179600000Y-94013055D01*
X179600000Y-95713055D01*
G36*
X179600000Y-92113055D02*
G01*
X179200000Y-92113055D01*
X179200000Y-90413055D01*
X179600000Y-90413055D01*
X179600000Y-92113055D01*
G37*
X179600000Y-92113055D02*
X179200000Y-92113055D01*
X179200000Y-90413055D01*
X179600000Y-90413055D01*
X179600000Y-92113055D01*
G36*
X179100000Y-95713055D02*
G01*
X178700000Y-95713055D01*
X178700000Y-94013055D01*
X179100000Y-94013055D01*
X179100000Y-95713055D01*
G37*
X179100000Y-95713055D02*
X178700000Y-95713055D01*
X178700000Y-94013055D01*
X179100000Y-94013055D01*
X179100000Y-95713055D01*
G36*
X179100000Y-92113055D02*
G01*
X178700000Y-92113055D01*
X178700000Y-90413055D01*
X179100000Y-90413055D01*
X179100000Y-92113055D01*
G37*
X179100000Y-92113055D02*
X178700000Y-92113055D01*
X178700000Y-90413055D01*
X179100000Y-90413055D01*
X179100000Y-92113055D01*
G36*
X178600000Y-95713055D02*
G01*
X178200000Y-95713055D01*
X178200000Y-94013055D01*
X178600000Y-94013055D01*
X178600000Y-95713055D01*
G37*
X178600000Y-95713055D02*
X178200000Y-95713055D01*
X178200000Y-94013055D01*
X178600000Y-94013055D01*
X178600000Y-95713055D01*
G36*
X178600000Y-92113055D02*
G01*
X178200000Y-92113055D01*
X178200000Y-90413055D01*
X178600000Y-90413055D01*
X178600000Y-92113055D01*
G37*
X178600000Y-92113055D02*
X178200000Y-92113055D01*
X178200000Y-90413055D01*
X178600000Y-90413055D01*
X178600000Y-92113055D01*
G36*
X178100000Y-95713055D02*
G01*
X177700000Y-95713055D01*
X177700000Y-94013055D01*
X178100000Y-94013055D01*
X178100000Y-95713055D01*
G37*
X178100000Y-95713055D02*
X177700000Y-95713055D01*
X177700000Y-94013055D01*
X178100000Y-94013055D01*
X178100000Y-95713055D01*
G36*
X178100000Y-92113055D02*
G01*
X177700000Y-92113055D01*
X177700000Y-90413055D01*
X178100000Y-90413055D01*
X178100000Y-92113055D01*
G37*
X178100000Y-92113055D02*
X177700000Y-92113055D01*
X177700000Y-90413055D01*
X178100000Y-90413055D01*
X178100000Y-92113055D01*
G36*
X177600000Y-95713055D02*
G01*
X177200000Y-95713055D01*
X177200000Y-94013055D01*
X177600000Y-94013055D01*
X177600000Y-95713055D01*
G37*
X177600000Y-95713055D02*
X177200000Y-95713055D01*
X177200000Y-94013055D01*
X177600000Y-94013055D01*
X177600000Y-95713055D01*
G36*
X177600000Y-92113055D02*
G01*
X177200000Y-92113055D01*
X177200000Y-90413055D01*
X177600000Y-90413055D01*
X177600000Y-92113055D01*
G37*
X177600000Y-92113055D02*
X177200000Y-92113055D01*
X177200000Y-90413055D01*
X177600000Y-90413055D01*
X177600000Y-92113055D01*
%TD*%
D11*
%TO.C,R9*%
X120650000Y-127500000D03*
X120650000Y-129150000D03*
%TD*%
D12*
%TO.C,R8*%
X122450000Y-129150000D03*
X122450000Y-127500000D03*
%TD*%
D11*
%TO.C,R7*%
X112200000Y-132750000D03*
X112200000Y-131100000D03*
%TD*%
D13*
%TO.C,Q2*%
X114462500Y-131800000D03*
X116337500Y-130850000D03*
X116337500Y-132750000D03*
%TD*%
D14*
%TO.C,Q1*%
X137200000Y-132825000D03*
X138150000Y-134700000D03*
X136250000Y-134700000D03*
%TD*%
D15*
%TO.C,U1*%
X137649932Y-62941254D03*
D16*
X138149933Y-62941255D03*
X138649933Y-62941255D03*
X139149933Y-62941255D03*
X139649933Y-62941255D03*
D17*
X138649933Y-61391255D03*
%TD*%
D18*
%TO.C,D3*%
X131737500Y-140975000D03*
X130162500Y-140975000D03*
%TD*%
D19*
%TO.C,H4*%
X182899933Y-49150555D03*
D20*
X182899933Y-49150555D03*
%TD*%
%TO.C,H3*%
X182899933Y-137650555D03*
D19*
X182899933Y-137650555D03*
%TD*%
%TO.C,H2*%
X94399933Y-137650555D03*
D20*
X94399933Y-137650555D03*
%TD*%
%TO.C,H1*%
X94399933Y-49150555D03*
D19*
X94399933Y-49150555D03*
%TD*%
D12*
%TO.C,R6*%
X133500000Y-138725000D03*
X133500000Y-137075000D03*
%TD*%
%TO.C,R5*%
X135150000Y-138725000D03*
X135150000Y-137075000D03*
%TD*%
D11*
%TO.C,R4*%
X131850000Y-126725000D03*
X131850000Y-125075000D03*
%TD*%
%TO.C,R3*%
X125300000Y-126712500D03*
X125300000Y-125062500D03*
%TD*%
%TO.C,R2*%
X137300000Y-125062500D03*
X137300000Y-126712500D03*
%TD*%
%TO.C,R1*%
X128650000Y-126712500D03*
X128650000Y-125062500D03*
%TD*%
D18*
%TO.C,D2*%
X127237500Y-140975000D03*
X125662500Y-140975000D03*
%TD*%
D21*
%TO.C,U3*%
X130849999Y-132549999D03*
D22*
X130100000Y-131112500D03*
X130600000Y-131112500D03*
X131100000Y-131112500D03*
X131600000Y-131112500D03*
D23*
X132287500Y-131800000D03*
X132287500Y-132300000D03*
X132287500Y-132800000D03*
X132287500Y-133300000D03*
D22*
X131600000Y-133987500D03*
X131100000Y-133987500D03*
X130600000Y-133987500D03*
X130100000Y-133987500D03*
D23*
X129412500Y-133300000D03*
X129412500Y-132800000D03*
X129412500Y-132300000D03*
X129412500Y-131800000D03*
%TD*%
D24*
%TO.C,J2*%
X114750000Y-124625000D03*
X118350000Y-124625000D03*
D25*
X116050000Y-128500000D03*
X117050000Y-128500000D03*
%TD*%
D26*
%TO.C,C4*%
X132075000Y-129550000D03*
X133625000Y-129550000D03*
%TD*%
D27*
%TO.C,C3*%
X134600000Y-134350000D03*
X134600000Y-132800000D03*
%TD*%
%TO.C,C2*%
X127051992Y-132800000D03*
X127051992Y-134350000D03*
%TD*%
D28*
%TO.C,U2*%
X154399999Y-92469999D03*
D29*
X154399999Y-93369999D03*
D28*
X156939999Y-92469999D03*
D30*
X156939999Y-93369999D03*
D28*
X159479999Y-92469999D03*
D29*
X159479999Y-93369999D03*
D31*
X147149999Y-141399999D03*
D29*
X148049999Y-141399999D03*
D31*
X147149999Y-138859999D03*
D29*
X148049999Y-138859999D03*
D31*
X147149999Y-136319999D03*
D30*
X148049999Y-136319999D03*
D31*
X147149999Y-133779999D03*
D29*
X148049999Y-133779999D03*
D31*
X147149999Y-131239999D03*
D29*
X148049999Y-131239999D03*
D31*
X147149999Y-128699999D03*
D29*
X148049999Y-128699999D03*
D31*
X147149999Y-126159999D03*
D29*
X148049999Y-126159999D03*
D31*
X147149999Y-123619999D03*
D30*
X148049999Y-123619999D03*
D31*
X147149999Y-121079999D03*
D29*
X148049999Y-121079999D03*
D31*
X147149999Y-118539999D03*
D29*
X148049999Y-118539999D03*
D31*
X147149999Y-115999999D03*
D29*
X148049999Y-115999999D03*
D31*
X147149999Y-113459999D03*
D29*
X148049999Y-113459999D03*
D31*
X147149999Y-110919999D03*
D30*
X148049999Y-110919999D03*
D31*
X147149999Y-108379999D03*
D29*
X148049999Y-108379999D03*
D31*
X147149999Y-105839999D03*
D29*
X148049999Y-105839999D03*
D31*
X147149999Y-103299999D03*
D29*
X148049999Y-103299999D03*
D31*
X147149999Y-100759999D03*
D29*
X148049999Y-100759999D03*
D31*
X147149999Y-98219999D03*
D30*
X148049999Y-98219999D03*
D31*
X147149999Y-95679999D03*
D29*
X148049999Y-95679999D03*
D31*
X147149999Y-93139999D03*
D29*
X148049999Y-93139999D03*
D31*
X166729999Y-93139999D03*
D29*
X165829999Y-93139999D03*
D31*
X166729999Y-95679999D03*
D29*
X165829999Y-95679999D03*
D31*
X166729999Y-98219999D03*
D30*
X165829999Y-98219999D03*
D31*
X166729999Y-100759999D03*
D29*
X165829999Y-100759999D03*
D31*
X166729999Y-103299999D03*
D29*
X165829999Y-103299999D03*
D31*
X166729999Y-105839999D03*
D29*
X165829999Y-105839999D03*
D31*
X166729999Y-108379999D03*
D29*
X165829999Y-108379999D03*
D31*
X166729999Y-110919999D03*
D30*
X165829999Y-110919999D03*
D31*
X166729999Y-113459999D03*
D29*
X165829999Y-113459999D03*
D31*
X166729999Y-115999999D03*
D29*
X165829999Y-115999999D03*
D31*
X166729999Y-118539999D03*
D29*
X165829999Y-118539999D03*
D31*
X166729999Y-121079999D03*
D29*
X165829999Y-121079999D03*
D31*
X166729999Y-123619999D03*
D30*
X165829999Y-123619999D03*
D31*
X166729999Y-126159999D03*
D29*
X165829999Y-126159999D03*
D31*
X166729999Y-128699999D03*
D29*
X165829999Y-128699999D03*
D31*
X166729999Y-131239999D03*
D29*
X165829999Y-131239999D03*
D31*
X166729999Y-133779999D03*
D29*
X165829999Y-133779999D03*
D31*
X166729999Y-136319999D03*
D30*
X165829999Y-136319999D03*
D31*
X166729999Y-138859999D03*
D29*
X165829999Y-138859999D03*
D31*
X166729999Y-141399999D03*
D29*
X165829999Y-141399999D03*
D32*
X154214999Y-141269999D03*
D33*
X154514999Y-138239999D03*
X159364999Y-138239999D03*
D32*
X159664999Y-141269999D03*
%TD*%
D34*
%TO.C,SW1*%
X113150000Y-138875000D03*
X119950000Y-138875000D03*
D35*
X114049999Y-136049999D03*
X116549999Y-136049999D03*
X119049999Y-136049999D03*
X114049999Y-141699999D03*
X116549999Y-141699999D03*
X119049999Y-141699999D03*
%TD*%
D26*
%TO.C,C1*%
X138175000Y-64953200D03*
X139725000Y-64953200D03*
%TD*%
M02*
