M48
; DRILL file {KiCad (7.0.0)} date Fri Dec  8 15:04:05 2023
; FORMAT={-:-/ absolute / metric / decimal}
; #@! TF.CreationDate,2023-12-08T15:04:05-05:00
; #@! TF.GenerationSoftware,Kicad,Pcbnew,(7.0.0)
; #@! TF.FileFunction,Plated,1,2,PTH
FMAT,2
METRIC
; #@! TA.AperFunction,Plated,PTH,ViaDrill
T1C0.300
; #@! TA.AperFunction,Plated,PTH,ComponentDrill
T2C1.020
; #@! TA.AperFunction,Plated,PTH,ComponentDrill
T3C3.200
%
G90
G05
T1
X114.85Y-128.87
X114.9Y-127.52
X116.05Y-127.319
X120.552Y-141.702
X120.602Y-136.052
X123.852Y-129.227
X125.3Y-123.711
X127.05Y-135.55
X128.65Y-123.711
X129.15Y-134.0
X130.1Y-135.15
X130.35Y-132.05
X130.35Y-133.05
X130.6Y-130.044
X131.35Y-132.05
X131.35Y-133.05
X131.85Y-123.723
X132.05Y-135.4
X133.637Y-130.65
X134.6Y-135.4
X137.1Y-138.3
X137.1Y-139.55
X137.295Y-123.705
X137.8Y-60.753
X137.8Y-61.953
X137.95Y-138.3
X137.95Y-139.55
X138.65Y-60.753
X138.65Y-61.953
X138.8Y-138.3
X138.8Y-139.55
X139.55Y-60.753
X139.55Y-61.953
X139.725Y-66.305
X176.35Y-95.5
X176.45Y-90.65
X178.775Y-89.15
X179.6Y-99.15
X181.6Y-88.95
T2
X148.05Y-93.14
X148.05Y-95.68
X148.05Y-98.22
X148.05Y-100.76
X148.05Y-103.3
X148.05Y-105.84
X148.05Y-108.38
X148.05Y-110.92
X148.05Y-113.46
X148.05Y-116.0
X148.05Y-118.54
X148.05Y-121.08
X148.05Y-123.62
X148.05Y-126.16
X148.05Y-128.7
X148.05Y-131.24
X148.05Y-133.78
X148.05Y-136.32
X148.05Y-138.86
X148.05Y-141.4
X154.4Y-93.37
X156.94Y-93.37
X159.48Y-93.37
X165.83Y-93.14
X165.83Y-95.68
X165.83Y-98.22
X165.83Y-100.76
X165.83Y-103.3
X165.83Y-105.84
X165.83Y-108.38
X165.83Y-110.92
X165.83Y-113.46
X165.83Y-116.0
X165.83Y-118.54
X165.83Y-121.08
X165.83Y-123.62
X165.83Y-126.16
X165.83Y-128.7
X165.83Y-131.24
X165.83Y-133.78
X165.83Y-136.32
X165.83Y-138.86
X165.83Y-141.4
T3
X94.4Y-49.151
X94.4Y-137.651
X182.9Y-49.151
X182.9Y-137.651
T0
M30
