%TF.GenerationSoftware,KiCad,Pcbnew,(7.0.0)*%
%TF.CreationDate,2023-12-08T15:04:05-05:00*%
%TF.ProjectId,Coaster,436f6173-7465-4722-9e6b-696361645f70,rev?*%
%TF.SameCoordinates,Original*%
%TF.FileFunction,Copper,L1,Top*%
%TF.FilePolarity,Positive*%
%FSLAX46Y46*%
G04 Gerber Fmt 4.6, Leading zero omitted, Abs format (unit mm)*
G04 Created by KiCad (PCBNEW (7.0.0)) date 2023-12-08 15:04:05*
%MOMM*%
%LPD*%
G01*
G04 APERTURE LIST*
G04 Aperture macros list*
%AMRoundRect*
0 Rectangle with rounded corners*
0 $1 Rounding radius*
0 $2 $3 $4 $5 $6 $7 $8 $9 X,Y pos of 4 corners*
0 Add a 4 corners polygon primitive as box body*
4,1,4,$2,$3,$4,$5,$6,$7,$8,$9,$2,$3,0*
0 Add four circle primitives for the rounded corners*
1,1,$1+$1,$2,$3*
1,1,$1+$1,$4,$5*
1,1,$1+$1,$6,$7*
1,1,$1+$1,$8,$9*
0 Add four rect primitives between the rounded corners*
20,1,$1+$1,$2,$3,$4,$5,0*
20,1,$1+$1,$4,$5,$6,$7,0*
20,1,$1+$1,$6,$7,$8,$9,0*
20,1,$1+$1,$8,$9,$2,$3,0*%
G04 Aperture macros list end*
%TA.AperFunction,SMDPad,CuDef*%
%ADD10RoundRect,0.200000X0.275000X-0.200000X0.275000X0.200000X-0.275000X0.200000X-0.275000X-0.200000X0*%
%TD*%
%TA.AperFunction,SMDPad,CuDef*%
%ADD11RoundRect,0.200000X-0.275000X0.200000X-0.275000X-0.200000X0.275000X-0.200000X0.275000X0.200000X0*%
%TD*%
%TA.AperFunction,SMDPad,CuDef*%
%ADD12RoundRect,0.150000X0.587500X0.150000X-0.587500X0.150000X-0.587500X-0.150000X0.587500X-0.150000X0*%
%TD*%
%TA.AperFunction,SMDPad,CuDef*%
%ADD13RoundRect,0.150000X0.150000X-0.587500X0.150000X0.587500X-0.150000X0.587500X-0.150000X-0.587500X0*%
%TD*%
%TA.AperFunction,SMDPad,CuDef*%
%ADD14R,0.300000X1.600000*%
%TD*%
%TA.AperFunction,SMDPad,CuDef*%
%ADD15O,0.300000X0.600000*%
%TD*%
%TA.AperFunction,SMDPad,CuDef*%
%ADD16R,0.300000X0.600000*%
%TD*%
%TA.AperFunction,SMDPad,CuDef*%
%ADD17R,2.500000X2.100000*%
%TD*%
%TA.AperFunction,SMDPad,CuDef*%
%ADD18RoundRect,0.218750X-0.218750X-0.256250X0.218750X-0.256250X0.218750X0.256250X-0.218750X0.256250X0*%
%TD*%
%TA.AperFunction,ComponentPad*%
%ADD19C,3.600000*%
%TD*%
%TA.AperFunction,ConnectorPad*%
%ADD20C,6.400000*%
%TD*%
%TA.AperFunction,SMDPad,CuDef*%
%ADD21R,1.600000X1.600000*%
%TD*%
%TA.AperFunction,SMDPad,CuDef*%
%ADD22RoundRect,0.062500X-0.062500X-0.375000X0.062500X-0.375000X0.062500X0.375000X-0.062500X0.375000X0*%
%TD*%
%TA.AperFunction,SMDPad,CuDef*%
%ADD23RoundRect,0.062500X-0.375000X-0.062500X0.375000X-0.062500X0.375000X0.062500X-0.375000X0.062500X0*%
%TD*%
%TA.AperFunction,SMDPad,CuDef*%
%ADD24RoundRect,0.250000X0.350000X0.650000X-0.350000X0.650000X-0.350000X-0.650000X0.350000X-0.650000X0*%
%TD*%
%TA.AperFunction,SMDPad,CuDef*%
%ADD25RoundRect,0.150000X0.150000X0.625000X-0.150000X0.625000X-0.150000X-0.625000X0.150000X-0.625000X0*%
%TD*%
%TA.AperFunction,SMDPad,CuDef*%
%ADD26RoundRect,0.225000X-0.225000X-0.250000X0.225000X-0.250000X0.225000X0.250000X-0.225000X0.250000X0*%
%TD*%
%TA.AperFunction,SMDPad,CuDef*%
%ADD27RoundRect,0.225000X-0.250000X0.225000X-0.250000X-0.225000X0.250000X-0.225000X0.250000X0.225000X0*%
%TD*%
%TA.AperFunction,SMDPad,CuDef*%
%ADD28R,1.700000X3.500000*%
%TD*%
%TA.AperFunction,ComponentPad*%
%ADD29O,1.700000X1.700000*%
%TD*%
%TA.AperFunction,ComponentPad*%
%ADD30R,1.700000X1.700000*%
%TD*%
%TA.AperFunction,SMDPad,CuDef*%
%ADD31R,3.500000X1.700000*%
%TD*%
%TA.AperFunction,SMDPad,CuDef*%
%ADD32R,1.200000X1.950000*%
%TD*%
%TA.AperFunction,ViaPad*%
%ADD33C,0.600000*%
%TD*%
%TA.AperFunction,Conductor*%
%ADD34C,0.250000*%
%TD*%
%TA.AperFunction,Conductor*%
%ADD35C,1.000000*%
%TD*%
%TA.AperFunction,Conductor*%
%ADD36C,0.200000*%
%TD*%
%TA.AperFunction,Conductor*%
%ADD37C,0.500000*%
%TD*%
%TA.AperFunction,Conductor*%
%ADD38C,0.300000*%
%TD*%
G04 APERTURE END LIST*
D10*
%TO.P,R9,2*%
%TO.N,/BATT_VSENSE*%
X120650000Y-127500000D03*
%TO.P,R9,1*%
%TO.N,+BATT*%
X120650000Y-129150000D03*
%TD*%
D11*
%TO.P,R8,2*%
%TO.N,GND*%
X122450000Y-129150000D03*
%TO.P,R8,1*%
%TO.N,/BATT_VSENSE*%
X122450000Y-127500000D03*
%TD*%
D10*
%TO.P,R7,1*%
%TO.N,Net-(Q2-G)*%
X112200000Y-132750000D03*
%TO.P,R7,2*%
%TO.N,+BATT*%
X112200000Y-131100000D03*
%TD*%
D12*
%TO.P,Q2,3,D*%
%TO.N,/Vbatt*%
X114462500Y-131800000D03*
%TO.P,Q2,2,S*%
%TO.N,+BATT*%
X116337500Y-130850000D03*
%TO.P,Q2,1,G*%
%TO.N,Net-(Q2-G)*%
X116337500Y-132750000D03*
%TD*%
D13*
%TO.P,Q1,3,D*%
%TO.N,/Vout*%
X137200000Y-132825000D03*
%TO.P,Q1,2,S*%
%TO.N,+VDC*%
X138150000Y-134700000D03*
%TO.P,Q1,1,G*%
%TO.N,VBUS*%
X136250000Y-134700000D03*
%TD*%
D14*
%TO.P,J3,20,Pin_20*%
%TO.N,unconnected-(J3-Pin_20-Pad20)*%
X136399932Y-50980999D03*
%TO.P,J3,19,Pin_19*%
%TO.N,unconnected-(J3-Pin_19-Pad19)*%
X136399932Y-54580999D03*
%TO.P,J3,18,Pin_18*%
%TO.N,unconnected-(J3-Pin_18-Pad18)*%
X136899932Y-50980999D03*
%TO.P,J3,17,Pin_17*%
%TO.N,unconnected-(J3-Pin_17-Pad17)*%
X136899932Y-54580999D03*
%TO.P,J3,16,Pin_16*%
%TO.N,unconnected-(J3-Pin_16-Pad16)*%
X137399932Y-50980999D03*
%TO.P,J3,15,Pin_15*%
%TO.N,unconnected-(J3-Pin_15-Pad15)*%
X137399932Y-54580999D03*
%TO.P,J3,14,Pin_14*%
%TO.N,unconnected-(J3-Pin_14-Pad14)*%
X137899932Y-50980999D03*
%TO.P,J3,13,Pin_13*%
%TO.N,unconnected-(J3-Pin_13-Pad13)*%
X137899932Y-54580999D03*
%TO.P,J3,12,Pin_12*%
%TO.N,unconnected-(J3-Pin_12-Pad12)*%
X138399932Y-50980999D03*
%TO.P,J3,11,Pin_11*%
%TO.N,unconnected-(J3-Pin_11-Pad11)*%
X138399932Y-54580999D03*
%TO.P,J3,10,Pin_10*%
%TO.N,unconnected-(J3-Pin_10-Pad10)*%
X138899932Y-50980999D03*
%TO.P,J3,9,Pin_9*%
%TO.N,unconnected-(J3-Pin_9-Pad9)*%
X138899932Y-54580999D03*
%TO.P,J3,8,Pin_8*%
%TO.N,unconnected-(J3-Pin_8-Pad8)*%
X139399932Y-50980999D03*
%TO.P,J3,7,Pin_7*%
%TO.N,unconnected-(J3-Pin_7-Pad7)*%
X139399932Y-54580999D03*
%TO.P,J3,6,Pin_6*%
%TO.N,unconnected-(J3-Pin_6-Pad6)*%
X139899932Y-50980999D03*
%TO.P,J3,5,Pin_5*%
%TO.N,unconnected-(J3-Pin_5-Pad5)*%
X139899932Y-54580999D03*
%TO.P,J3,4,Pin_4*%
%TO.N,unconnected-(J3-Pin_4-Pad4)*%
X140399932Y-50980999D03*
%TO.P,J3,3,Pin_3*%
%TO.N,unconnected-(J3-Pin_3-Pad3)*%
X140399932Y-54580999D03*
%TO.P,J3,2,Pin_2*%
%TO.N,unconnected-(J3-Pin_2-Pad2)*%
X140899932Y-50980999D03*
%TO.P,J3,1,Pin_1*%
%TO.N,unconnected-(J3-Pin_1-Pad1)*%
X140899932Y-54580999D03*
%TD*%
D15*
%TO.P,U1,1,SDA*%
%TO.N,/I2C_SDA*%
X137649932Y-62941254D03*
D16*
%TO.P,U1,2,VDD*%
%TO.N,+3.3V*%
X138149932Y-62941254D03*
%TO.P,U1,3,GND*%
%TO.N,GND*%
X138649932Y-62941254D03*
%TO.P,U1,4,SCL*%
%TO.N,/I2C_SCL*%
X139149932Y-62941254D03*
%TO.P,U1,5,ADDR*%
%TO.N,GND*%
X139649932Y-62941254D03*
D17*
%TO.P,U1,6,EP*%
X138649932Y-61391254D03*
%TD*%
D18*
%TO.P,D3,2,A*%
%TO.N,Net-(D3-A)*%
X131737500Y-140975000D03*
%TO.P,D3,1,K*%
%TO.N,/CHG_n*%
X130162500Y-140975000D03*
%TD*%
D19*
%TO.P,H4,1*%
%TO.N,N/C*%
X182899933Y-49150555D03*
D20*
X182899933Y-49150555D03*
%TD*%
%TO.P,H3,1*%
%TO.N,N/C*%
X182899933Y-137650555D03*
D19*
X182899933Y-137650555D03*
%TD*%
%TO.P,H2,1*%
%TO.N,N/C*%
X94399933Y-137650555D03*
D20*
X94399933Y-137650555D03*
%TD*%
%TO.P,H1,1*%
%TO.N,N/C*%
X94399933Y-49150555D03*
D19*
X94399933Y-49150555D03*
%TD*%
D11*
%TO.P,R6,2*%
%TO.N,Net-(D3-A)*%
X133500000Y-138725000D03*
%TO.P,R6,1*%
%TO.N,/Vout*%
X133500000Y-137075000D03*
%TD*%
%TO.P,R5,2*%
%TO.N,Net-(D2-A)*%
X135150000Y-138725000D03*
%TO.P,R5,1*%
%TO.N,/Vout*%
X135150000Y-137075000D03*
%TD*%
D10*
%TO.P,R4,1*%
%TO.N,Net-(U3-TMR)*%
X131850000Y-126725000D03*
%TO.P,R4,2*%
%TO.N,GND*%
X131850000Y-125075000D03*
%TD*%
%TO.P,R3,1*%
%TO.N,Net-(U3-TS)*%
X125300000Y-126712500D03*
%TO.P,R3,2*%
%TO.N,GND*%
X125300000Y-125062500D03*
%TD*%
%TO.P,R2,2*%
%TO.N,GND*%
X137300000Y-125062500D03*
%TO.P,R2,1*%
%TO.N,Net-(U3-ILIM)*%
X137300000Y-126712500D03*
%TD*%
%TO.P,R1,1*%
%TO.N,Net-(U3-ISET)*%
X128650000Y-126712500D03*
%TO.P,R1,2*%
%TO.N,GND*%
X128650000Y-125062500D03*
%TD*%
D18*
%TO.P,D2,2,A*%
%TO.N,Net-(D2-A)*%
X127237500Y-140975000D03*
%TO.P,D2,1,K*%
%TO.N,/PGOOD_n*%
X125662500Y-140975000D03*
%TD*%
D21*
%TO.P,U3,17,VSS*%
%TO.N,GND*%
X130849999Y-132549999D03*
D22*
%TO.P,U3,16,ISET*%
%TO.N,Net-(U3-ISET)*%
X130100000Y-131112500D03*
%TO.P,U3,15,TD*%
%TO.N,GND*%
X130600000Y-131112500D03*
%TO.P,U3,14,TMR*%
%TO.N,Net-(U3-TMR)*%
X131100000Y-131112500D03*
%TO.P,U3,13,IN*%
%TO.N,VBUS*%
X131600000Y-131112500D03*
D23*
%TO.P,U3,12,ILIM*%
%TO.N,Net-(U3-ILIM)*%
X132287500Y-131800000D03*
%TO.P,U3,11,OUT*%
%TO.N,/Vout*%
X132287500Y-132300000D03*
%TO.P,U3,10,OUT*%
X132287500Y-132800000D03*
%TO.P,U3,9,~{CHG}*%
%TO.N,/CHG_n*%
X132287500Y-133300000D03*
D22*
%TO.P,U3,8,VSS*%
%TO.N,GND*%
X131600000Y-133987500D03*
%TO.P,U3,7,~{PGOOD}*%
%TO.N,/PGOOD_n*%
X131100000Y-133987500D03*
%TO.P,U3,6,EN1*%
%TO.N,GND*%
X130600000Y-133987500D03*
%TO.P,U3,5,EN2*%
%TO.N,/Vout*%
X130100000Y-133987500D03*
D23*
%TO.P,U3,4,~{CE}*%
%TO.N,GND*%
X129412500Y-133300000D03*
%TO.P,U3,3,BAT*%
%TO.N,/Vbatt*%
X129412500Y-132800000D03*
%TO.P,U3,2,BAT*%
X129412500Y-132300000D03*
%TO.P,U3,1,TS*%
%TO.N,Net-(U3-TS)*%
X129412500Y-131800000D03*
%TD*%
D24*
%TO.P,J2,MP*%
%TO.N,N/C*%
X114750000Y-124625000D03*
X118350000Y-124625000D03*
D25*
%TO.P,J2,2,Pin_2*%
%TO.N,GND*%
X116050000Y-128500000D03*
%TO.P,J2,1,Pin_1*%
%TO.N,+BATT*%
X117050000Y-128500000D03*
%TD*%
D14*
%TO.P,J1,20,Pin_20*%
%TO.N,GND*%
X177399999Y-91263054D03*
%TO.P,J1,19,Pin_19*%
X177399999Y-94863054D03*
%TO.P,J1,18,Pin_18*%
%TO.N,/RESET*%
X177899999Y-91263054D03*
%TO.P,J1,17,Pin_17*%
%TO.N,/SWY*%
X177899999Y-94863054D03*
%TO.P,J1,16,Pin_16*%
%TO.N,/BACKLIGHT_EN*%
X178399999Y-91263054D03*
%TO.P,J1,15,Pin_15*%
%TO.N,/SWX*%
X178399999Y-94863054D03*
%TO.P,J1,14,Pin_14*%
%TO.N,GND*%
X178899999Y-91263054D03*
%TO.P,J1,13,Pin_13*%
%TO.N,/SWB*%
X178899999Y-94863054D03*
%TO.P,J1,12,Pin_12*%
%TO.N,/LCD_MOSI*%
X179399999Y-91263054D03*
%TO.P,J1,11,Pin_11*%
%TO.N,/SWA*%
X179399999Y-94863054D03*
%TO.P,J1,10,Pin_10*%
%TO.N,/LCD_SCLK*%
X179899999Y-91263054D03*
%TO.P,J1,9,Pin_9*%
%TO.N,GND*%
X179899999Y-94863054D03*
%TO.P,J1,8,Pin_8*%
%TO.N,/LCD_CS_n*%
X180399999Y-91263054D03*
%TO.P,J1,7,Pin_7*%
%TO.N,/LED_B*%
X180399999Y-94863054D03*
%TO.P,J1,6,Pin_6*%
%TO.N,/LCD_DC*%
X180899999Y-91263054D03*
%TO.P,J1,5,Pin_5*%
%TO.N,/LED_G*%
X180899999Y-94863054D03*
%TO.P,J1,4,Pin_4*%
%TO.N,GND*%
X181399999Y-91263054D03*
%TO.P,J1,3,Pin_3*%
%TO.N,/LED_R*%
X181399999Y-94863054D03*
%TO.P,J1,2,Pin_2*%
%TO.N,+3.3V*%
X181899999Y-91263054D03*
%TO.P,J1,1,Pin_1*%
X181899999Y-94863054D03*
%TD*%
D26*
%TO.P,C4,1*%
%TO.N,VBUS*%
X132075000Y-129550000D03*
%TO.P,C4,2*%
%TO.N,GND*%
X133625000Y-129550000D03*
%TD*%
D27*
%TO.P,C3,2*%
%TO.N,GND*%
X134600000Y-134350000D03*
%TO.P,C3,1*%
%TO.N,/Vout*%
X134600000Y-132800000D03*
%TD*%
%TO.P,C2,1*%
%TO.N,/Vbatt*%
X127051992Y-132800000D03*
%TO.P,C2,2*%
%TO.N,GND*%
X127051992Y-134350000D03*
%TD*%
D28*
%TO.P,U2,43,SWDIO*%
%TO.N,unconnected-(U2-SWDIO-Pad43)*%
X154399999Y-92469999D03*
D29*
X154399999Y-93369999D03*
D28*
%TO.P,U2,42,GND*%
%TO.N,GND*%
X156939999Y-92469999D03*
D30*
X156939999Y-93369999D03*
D28*
%TO.P,U2,41,SWCLK*%
%TO.N,unconnected-(U2-SWCLK-Pad41)*%
X159479999Y-92469999D03*
D29*
X159479999Y-93369999D03*
D31*
%TO.P,U2,40,VBUS*%
%TO.N,VBUS*%
X147149999Y-141399999D03*
D29*
X148049999Y-141399999D03*
D31*
%TO.P,U2,39,VSYS*%
%TO.N,+VDC*%
X147149999Y-138859999D03*
D29*
X148049999Y-138859999D03*
D31*
%TO.P,U2,38,GND*%
%TO.N,GND*%
X147149999Y-136319999D03*
D30*
X148049999Y-136319999D03*
D31*
%TO.P,U2,37,3V3_EN*%
%TO.N,unconnected-(U2-3V3_EN-Pad37)*%
X147149999Y-133779999D03*
D29*
X148049999Y-133779999D03*
D31*
%TO.P,U2,36,3V3*%
%TO.N,+3.3V*%
X147149999Y-131239999D03*
D29*
X148049999Y-131239999D03*
D31*
%TO.P,U2,35,ADC_VREF*%
%TO.N,unconnected-(U2-ADC_VREF-Pad35)*%
X147149999Y-128699999D03*
D29*
X148049999Y-128699999D03*
D31*
%TO.P,U2,34,GPIO28_ADC2*%
%TO.N,unconnected-(U2-GPIO28_ADC2-Pad34)*%
X147149999Y-126159999D03*
D29*
X148049999Y-126159999D03*
D31*
%TO.P,U2,33,AGND*%
%TO.N,GND*%
X147149999Y-123619999D03*
D30*
X148049999Y-123619999D03*
D31*
%TO.P,U2,32,GPIO27_ADC1*%
%TO.N,unconnected-(U2-GPIO27_ADC1-Pad32)*%
X147149999Y-121079999D03*
D29*
X148049999Y-121079999D03*
D31*
%TO.P,U2,31,GPIO26_ADC0*%
%TO.N,/BATT_VSENSE*%
X147149999Y-118539999D03*
D29*
X148049999Y-118539999D03*
D31*
%TO.P,U2,30,RUN*%
%TO.N,/RESET*%
X147149999Y-115999999D03*
D29*
X148049999Y-115999999D03*
D31*
%TO.P,U2,29,GPIO22*%
%TO.N,unconnected-(U2-GPIO22-Pad29)*%
X147149999Y-113459999D03*
D29*
X148049999Y-113459999D03*
D31*
%TO.P,U2,28,GND*%
%TO.N,GND*%
X147149999Y-110919999D03*
D30*
X148049999Y-110919999D03*
D31*
%TO.P,U2,27,GPIO21*%
%TO.N,unconnected-(U2-GPIO21-Pad27)*%
X147149999Y-108379999D03*
D29*
X148049999Y-108379999D03*
D31*
%TO.P,U2,26,GPIO20*%
%TO.N,/BACKLIGHT_EN*%
X147149999Y-105839999D03*
D29*
X148049999Y-105839999D03*
D31*
%TO.P,U2,25,GPIO19*%
%TO.N,/LCD_MOSI*%
X147149999Y-103299999D03*
D29*
X148049999Y-103299999D03*
D31*
%TO.P,U2,24,GPIO18*%
%TO.N,/LCD_SCLK*%
X147149999Y-100759999D03*
D29*
X148049999Y-100759999D03*
D31*
%TO.P,U2,23,GND*%
%TO.N,GND*%
X147149999Y-98219999D03*
D30*
X148049999Y-98219999D03*
D31*
%TO.P,U2,22,GPIO17*%
%TO.N,/LCD_CS_n*%
X147149999Y-95679999D03*
D29*
X148049999Y-95679999D03*
D31*
%TO.P,U2,21,GPIO16*%
%TO.N,/LCD_DC*%
X147149999Y-93139999D03*
D29*
X148049999Y-93139999D03*
D31*
%TO.P,U2,20,GPIO15*%
%TO.N,/SWY*%
X166729999Y-93139999D03*
D29*
X165829999Y-93139999D03*
D31*
%TO.P,U2,19,GPIO14*%
%TO.N,/SWX*%
X166729999Y-95679999D03*
D29*
X165829999Y-95679999D03*
D31*
%TO.P,U2,18,GND*%
%TO.N,GND*%
X166729999Y-98219999D03*
D30*
X165829999Y-98219999D03*
D31*
%TO.P,U2,17,GPIO13*%
%TO.N,/SWB*%
X166729999Y-100759999D03*
D29*
X165829999Y-100759999D03*
D31*
%TO.P,U2,16,GPIO12*%
%TO.N,/SWA*%
X166729999Y-103299999D03*
D29*
X165829999Y-103299999D03*
D31*
%TO.P,U2,15,GPIO11*%
%TO.N,unconnected-(U2-GPIO11-Pad15)*%
X166729999Y-105839999D03*
D29*
X165829999Y-105839999D03*
D31*
%TO.P,U2,14,GPIO10*%
%TO.N,unconnected-(U2-GPIO10-Pad14)*%
X166729999Y-108379999D03*
D29*
X165829999Y-108379999D03*
D31*
%TO.P,U2,13,GND*%
%TO.N,GND*%
X166729999Y-110919999D03*
D30*
X165829999Y-110919999D03*
D31*
%TO.P,U2,12,GPIO9*%
%TO.N,unconnected-(U2-GPIO9-Pad12)*%
X166729999Y-113459999D03*
D29*
X165829999Y-113459999D03*
D31*
%TO.P,U2,11,GPIO8*%
%TO.N,/LED_B*%
X166729999Y-115999999D03*
D29*
X165829999Y-115999999D03*
D31*
%TO.P,U2,10,GPIO7*%
%TO.N,/LED_G*%
X166729999Y-118539999D03*
D29*
X165829999Y-118539999D03*
D31*
%TO.P,U2,9,GPIO6*%
%TO.N,/LED_R*%
X166729999Y-121079999D03*
D29*
X165829999Y-121079999D03*
D31*
%TO.P,U2,8,GND*%
%TO.N,GND*%
X166729999Y-123619999D03*
D30*
X165829999Y-123619999D03*
D31*
%TO.P,U2,7,GPIO5*%
%TO.N,unconnected-(U2-GPIO5-Pad7)*%
X166729999Y-126159999D03*
D29*
X165829999Y-126159999D03*
D31*
%TO.P,U2,6,GPIO4*%
%TO.N,unconnected-(U2-GPIO4-Pad6)*%
X166729999Y-128699999D03*
D29*
X165829999Y-128699999D03*
D31*
%TO.P,U2,5,GPIO3*%
%TO.N,unconnected-(U2-GPIO3-Pad5)*%
X166729999Y-131239999D03*
D29*
X165829999Y-131239999D03*
D31*
%TO.P,U2,4,GPIO2*%
%TO.N,unconnected-(U2-GPIO2-Pad4)*%
X166729999Y-133779999D03*
D29*
X165829999Y-133779999D03*
D31*
%TO.P,U2,3,GND*%
%TO.N,GND*%
X166729999Y-136319999D03*
D30*
X165829999Y-136319999D03*
D31*
%TO.P,U2,2,GPIO1*%
%TO.N,/I2C_SCL*%
X166729999Y-138859999D03*
D29*
X165829999Y-138859999D03*
D31*
%TO.P,U2,1,GPIO0*%
%TO.N,/I2C_SDA*%
X166729999Y-141399999D03*
D29*
X165829999Y-141399999D03*
%TD*%
D32*
%TO.P,SW1,1,A*%
%TO.N,unconnected-(SW1A-A-Pad1)*%
X114049999Y-136049999D03*
%TO.P,SW1,2,B*%
%TO.N,Net-(Q2-G)*%
X116549999Y-136049999D03*
%TO.P,SW1,3,C*%
%TO.N,GND*%
X119049999Y-136049999D03*
%TO.P,SW1,4,A*%
%TO.N,unconnected-(SW1B-A-Pad4)*%
X114049999Y-141699999D03*
%TO.P,SW1,5,B*%
%TO.N,Net-(Q2-G)*%
X116549999Y-141699999D03*
%TO.P,SW1,6,C*%
%TO.N,GND*%
X119049999Y-141699999D03*
%TD*%
D26*
%TO.P,C1,1*%
%TO.N,+3.3V*%
X138175000Y-64953200D03*
%TO.P,C1,2*%
%TO.N,GND*%
X139725000Y-64953200D03*
%TD*%
D33*
%TO.N,GND*%
X114850000Y-128870000D03*
X114900000Y-127520000D03*
X116050001Y-127319129D03*
X123851992Y-129226992D03*
X120551992Y-141701992D03*
X120601992Y-136051992D03*
X178775500Y-89150000D03*
X179600000Y-99150000D03*
X176350000Y-95500000D03*
X181600000Y-88950000D03*
X176450000Y-90650000D03*
X139550000Y-61953200D03*
X139550000Y-60753200D03*
X138650000Y-61953200D03*
X138650000Y-60753200D03*
X137800000Y-61953200D03*
X137800000Y-60753200D03*
%TO.N,+VDC*%
X138800000Y-138300000D03*
X138800000Y-139550000D03*
X137950000Y-138300000D03*
X137950000Y-139550000D03*
X137100000Y-138300000D03*
X137100000Y-139550000D03*
%TO.N,GND*%
X130600000Y-130043750D03*
X131350000Y-132050000D03*
X131350000Y-133050000D03*
X130350000Y-133050000D03*
X130350000Y-132050000D03*
X129150000Y-134000000D03*
X132050000Y-135400000D03*
X130100000Y-135150000D03*
X134600000Y-135400000D03*
X133637500Y-130650000D03*
X139725000Y-66304942D03*
X125300000Y-123710758D03*
X128650000Y-123710758D03*
X131850000Y-123723258D03*
X137294621Y-123705379D03*
X127050000Y-135550000D03*
%TD*%
D34*
%TO.N,/BATT_VSENSE*%
X125150000Y-118540000D02*
X148050000Y-118540000D01*
X122450000Y-121240000D02*
X125150000Y-118540000D01*
X122450000Y-127500000D02*
X122450000Y-121240000D01*
%TO.N,+BATT*%
X112450000Y-130850000D02*
X116337500Y-130850000D01*
X112200000Y-131100000D02*
X112450000Y-130850000D01*
X118950000Y-130850000D02*
X116537500Y-130850000D01*
X120650000Y-129150000D02*
X118950000Y-130850000D01*
%TO.N,Net-(Q2-G)*%
X116550000Y-135750000D02*
X116550000Y-132962500D01*
D35*
%TO.N,+3.3V*%
X151610000Y-131240000D02*
X148050000Y-131240000D01*
X155700000Y-127150000D02*
X151610000Y-131240000D01*
X160900000Y-127150000D02*
X155700000Y-127150000D01*
X163700000Y-129950000D02*
X160900000Y-127150000D01*
D36*
X163700000Y-129950000D02*
X169600000Y-129950000D01*
D35*
X150450000Y-117250000D02*
X150450000Y-131240000D01*
X150450000Y-131240000D02*
X148110000Y-131240000D01*
D36*
X144200000Y-116650000D02*
X144150000Y-116650000D01*
X144800000Y-117250000D02*
X144200000Y-116650000D01*
X150450000Y-117250000D02*
X144800000Y-117250000D01*
D37*
X138075067Y-65053133D02*
X138175000Y-64953200D01*
D35*
X138075067Y-105775067D02*
X138075067Y-65053133D01*
X144150000Y-116650000D02*
X144150000Y-111850000D01*
X144150000Y-111850000D02*
X138075067Y-105775067D01*
D37*
X148050000Y-131240000D02*
X148110000Y-131240000D01*
D34*
%TO.N,/BATT_VSENSE*%
X122450000Y-127500000D02*
X120650000Y-127500000D01*
D35*
%TO.N,GND*%
X122439492Y-129225000D02*
X123850000Y-129225000D01*
D36*
%TO.N,/I2C_SDA*%
X135988055Y-62941255D02*
X137649933Y-62941255D01*
X135400000Y-60300000D02*
X135400000Y-62353200D01*
X143550000Y-58600000D02*
X137100000Y-58600000D01*
X137100000Y-58600000D02*
X135400000Y-60300000D01*
X167950000Y-83000000D02*
X143550000Y-58600000D01*
X179850000Y-83000000D02*
X167950000Y-83000000D01*
X135400000Y-62353200D02*
X135988055Y-62941255D01*
X172800000Y-141400000D02*
X187000000Y-127200000D01*
X187000000Y-90150000D02*
X179850000Y-83000000D01*
X187000000Y-127200000D02*
X187000000Y-90150000D01*
X165830000Y-141400000D02*
X172800000Y-141400000D01*
%TO.N,/I2C_SCL*%
X161496800Y-84350000D02*
X141000000Y-63853200D01*
X178900000Y-84350000D02*
X161496800Y-84350000D01*
D37*
%TO.N,+3.3V*%
X148050000Y-131240000D02*
X146190000Y-131240000D01*
D35*
%TO.N,GND*%
X119139492Y-141700000D02*
X120550000Y-141700000D01*
X119189492Y-136050000D02*
X120600000Y-136050000D01*
D34*
%TO.N,Net-(Q2-G)*%
X116550000Y-141700000D02*
X116550000Y-136050000D01*
X116550000Y-132962500D02*
X116337500Y-132750000D01*
X112200000Y-132750000D02*
X116337500Y-132750000D01*
%TO.N,VBUS*%
X139287500Y-132300000D02*
X140150000Y-132300000D01*
X137950000Y-133637500D02*
X139287500Y-132300000D01*
X137796751Y-133637500D02*
X137950000Y-133637500D01*
X136734251Y-134700000D02*
X137796751Y-133637500D01*
X136250000Y-134700000D02*
X136734251Y-134700000D01*
%TO.N,GND*%
X139649933Y-62053133D02*
X139550000Y-61953200D01*
X139649933Y-62941255D02*
X139649933Y-62053133D01*
X138649933Y-61953267D02*
X138650000Y-61953200D01*
X138649933Y-62941255D02*
X138649933Y-61953267D01*
D38*
X178900000Y-91263055D02*
X178900000Y-89150000D01*
D34*
%TO.N,/LCD_MOSI*%
X179040812Y-88100000D02*
X179400000Y-88459188D01*
X179400000Y-88459188D02*
X179400000Y-91263055D01*
X151850000Y-90850000D02*
X154600000Y-88100000D01*
X154600000Y-88100000D02*
X179040812Y-88100000D01*
X149800000Y-103300000D02*
X151850000Y-101250000D01*
X151850000Y-101250000D02*
X151850000Y-90850000D01*
X148050000Y-103300000D02*
X149800000Y-103300000D01*
%TO.N,/LCD_SCLK*%
X178977208Y-87400000D02*
X179900000Y-88322792D01*
X150650000Y-91050000D02*
X154300000Y-87400000D01*
X154300000Y-87400000D02*
X178977208Y-87400000D01*
X149940000Y-100760000D02*
X150650000Y-100050000D01*
X150650000Y-100050000D02*
X150650000Y-91050000D01*
X148050000Y-100760000D02*
X149940000Y-100760000D01*
X179900000Y-88322792D02*
X179900000Y-91263055D01*
%TO.N,/LCD_CS_n*%
X179013604Y-86800000D02*
X180400000Y-88186396D01*
X180400000Y-88186396D02*
X180400000Y-91263055D01*
X150050000Y-95150000D02*
X150050000Y-90750000D01*
X150050000Y-90750000D02*
X154000000Y-86800000D01*
X149520000Y-95680000D02*
X150050000Y-95150000D01*
X154000000Y-86800000D02*
X179013604Y-86800000D01*
X148050000Y-95680000D02*
X149520000Y-95680000D01*
%TO.N,/LCD_DC*%
X179150000Y-86300000D02*
X180900000Y-88050000D01*
X148050000Y-91937919D02*
X153687919Y-86300000D01*
X180900000Y-88050000D02*
X180900000Y-91263055D01*
X148050000Y-93140000D02*
X148050000Y-91937919D01*
X153687919Y-86300000D02*
X179150000Y-86300000D01*
%TO.N,Net-(U3-ISET)*%
X129975000Y-128037500D02*
X128650000Y-126712500D01*
X129975000Y-130987500D02*
X129975000Y-128037500D01*
X130100000Y-131112500D02*
X129975000Y-130987500D01*
%TO.N,Net-(U3-TMR)*%
X131250000Y-127325000D02*
X131850000Y-126725000D01*
X131250000Y-130277634D02*
X131250000Y-127325000D01*
X131100000Y-131112500D02*
X131100000Y-130427634D01*
X131100000Y-130427634D02*
X131250000Y-130277634D01*
D38*
%TO.N,GND*%
X179900000Y-98850000D02*
X179600000Y-99150000D01*
X179900000Y-94863055D02*
X179900000Y-98850000D01*
X181400000Y-91263055D02*
X181400000Y-89150000D01*
X181400000Y-89150000D02*
X181600000Y-88950000D01*
D37*
X176986945Y-94863055D02*
X177300000Y-94863055D01*
X176350000Y-95500000D02*
X176986945Y-94863055D01*
X177063055Y-91263055D02*
X177300000Y-91263055D01*
X176450000Y-90650000D02*
X177063055Y-91263055D01*
%TO.N,+3.3V*%
X182000000Y-94863055D02*
X183136945Y-94863055D01*
D36*
X183136945Y-94863055D02*
X183150000Y-94850000D01*
D35*
X183150000Y-94850000D02*
X183150000Y-92100000D01*
X183150000Y-118100000D02*
X183150000Y-94850000D01*
X171300000Y-129950000D02*
X183150000Y-118100000D01*
D37*
X183150000Y-92100000D02*
X182313055Y-91263055D01*
D35*
X169600000Y-129950000D02*
X171300000Y-129950000D01*
D37*
X182313055Y-91263055D02*
X182000000Y-91263055D01*
D36*
%TO.N,/I2C_SCL*%
X139149933Y-63491255D02*
X139149933Y-62941255D01*
X141000000Y-63853200D02*
X139511878Y-63853200D01*
X139511878Y-63853200D02*
X139149933Y-63491255D01*
X184950000Y-90400000D02*
X178900000Y-84350000D01*
X184950000Y-124850000D02*
X184950000Y-90400000D01*
X170940000Y-138860000D02*
X184950000Y-124850000D01*
X165830000Y-138860000D02*
X170940000Y-138860000D01*
D34*
%TO.N,/BACKLIGHT_EN*%
X165750000Y-88800000D02*
X177300000Y-88800000D01*
X177300000Y-88800000D02*
X178400000Y-89900000D01*
X161000000Y-93550000D02*
X165750000Y-88800000D01*
X178400000Y-89900000D02*
X178400000Y-91263055D01*
X161000000Y-97000000D02*
X161000000Y-93550000D01*
X152160000Y-105840000D02*
X161000000Y-97000000D01*
X148050000Y-105840000D02*
X152160000Y-105840000D01*
%TO.N,/RESET*%
X166050000Y-89500000D02*
X177236945Y-89500000D01*
X177236945Y-89500000D02*
X177900000Y-90163055D01*
X177900000Y-90163055D02*
X177900000Y-91263055D01*
X162700000Y-104450000D02*
X162700000Y-92850000D01*
X151150000Y-116000000D02*
X162700000Y-104450000D01*
X162700000Y-92850000D02*
X166050000Y-89500000D01*
X148050000Y-116000000D02*
X151150000Y-116000000D01*
%TO.N,/SWY*%
X177900000Y-96100000D02*
X177900000Y-94863055D01*
X176950000Y-97050000D02*
X177900000Y-96100000D01*
X171600000Y-97050000D02*
X176950000Y-97050000D01*
X165830000Y-93140000D02*
X167690000Y-93140000D01*
X167690000Y-93140000D02*
X171600000Y-97050000D01*
%TO.N,/SWX*%
X178400000Y-96600000D02*
X178400000Y-94863055D01*
X176350000Y-98650000D02*
X178400000Y-96600000D01*
X171150000Y-98650000D02*
X176350000Y-98650000D01*
X168180000Y-95680000D02*
X171150000Y-98650000D01*
X165830000Y-95680000D02*
X168180000Y-95680000D01*
%TO.N,/SWB*%
X178900000Y-97350000D02*
X178900000Y-94863055D01*
X175490000Y-100760000D02*
X178900000Y-97350000D01*
X165830000Y-100760000D02*
X175490000Y-100760000D01*
%TO.N,/SWA*%
X179400000Y-98000000D02*
X179400000Y-94863055D01*
X174100000Y-103300000D02*
X179400000Y-98000000D01*
X165830000Y-103300000D02*
X174100000Y-103300000D01*
%TO.N,/LED_B*%
X180400000Y-103040000D02*
X180400000Y-94863055D01*
X167440000Y-116000000D02*
X180400000Y-103040000D01*
X165830000Y-116000000D02*
X167440000Y-116000000D01*
%TO.N,/LED_G*%
X180900000Y-111713604D02*
X180900000Y-94863055D01*
X174073604Y-118540000D02*
X180900000Y-111713604D01*
X165830000Y-118540000D02*
X174073604Y-118540000D01*
%TO.N,/LED_R*%
X181400000Y-111850000D02*
X181400000Y-94863055D01*
X172170000Y-121080000D02*
X181400000Y-111850000D01*
X165830000Y-121080000D02*
X172170000Y-121080000D01*
D38*
%TO.N,+3.3V*%
X138149933Y-62941255D02*
X138149933Y-66153200D01*
D34*
%TO.N,Net-(D2-A)*%
X132700000Y-142150000D02*
X128412500Y-142150000D01*
X135150000Y-139700000D02*
X132700000Y-142150000D01*
X135150000Y-138725000D02*
X135150000Y-139700000D01*
X128412500Y-142150000D02*
X127237500Y-140975000D01*
%TO.N,/Vout*%
X124450000Y-141300000D02*
X124450000Y-139637500D01*
X124450000Y-139637500D02*
X130100000Y-133987500D01*
X125925622Y-142775622D02*
X124450000Y-141300000D01*
X136250000Y-139950000D02*
X133424378Y-142775622D01*
X136250000Y-138175000D02*
X136250000Y-139950000D01*
X135150000Y-137075000D02*
X136250000Y-138175000D01*
X133424378Y-142775622D02*
X125925622Y-142775622D01*
X133500000Y-137075000D02*
X135150000Y-137075000D01*
X133600000Y-136975000D02*
X133600000Y-132800000D01*
X133500000Y-137075000D02*
X133600000Y-136975000D01*
%TO.N,Net-(D3-A)*%
X133500000Y-139212500D02*
X131737500Y-140975000D01*
X133500000Y-138725000D02*
X133500000Y-139212500D01*
%TO.N,/CHG_n*%
X130162500Y-138171384D02*
X130162500Y-140975000D01*
X133100000Y-133650000D02*
X133100000Y-135233884D01*
X133100000Y-135233884D02*
X130162500Y-138171384D01*
X132750000Y-133300000D02*
X133100000Y-133650000D01*
X132287500Y-133300000D02*
X132750000Y-133300000D01*
%TO.N,/PGOOD_n*%
X125675000Y-140975000D02*
X125662500Y-140975000D01*
X131100000Y-135550000D02*
X125675000Y-140975000D01*
X131100000Y-133987500D02*
X131100000Y-135550000D01*
%TO.N,GND*%
X131600000Y-134950000D02*
X132050000Y-135400000D01*
X131600000Y-133968750D02*
X131600000Y-134950000D01*
X130600000Y-134650000D02*
X130600000Y-133987500D01*
X130100000Y-135150000D02*
X130600000Y-134650000D01*
X129412500Y-133737500D02*
X129150000Y-134000000D01*
X129412500Y-133300000D02*
X129412500Y-133737500D01*
X130600000Y-131306250D02*
X130600000Y-130043750D01*
%TO.N,Net-(U3-ILIM)*%
X136950000Y-127062500D02*
X137300000Y-126712500D01*
X136950000Y-130050000D02*
X136950000Y-127062500D01*
X135200000Y-131800000D02*
X136950000Y-130050000D01*
X132287500Y-131800000D02*
X135200000Y-131800000D01*
%TO.N,Net-(U3-TS)*%
X125300000Y-128600000D02*
X125300000Y-126712500D01*
X128500000Y-131800000D02*
X125300000Y-128600000D01*
X129412500Y-131800000D02*
X128500000Y-131800000D01*
D35*
%TO.N,GND*%
X133637500Y-130650000D02*
X133637500Y-129562500D01*
X133637500Y-129562500D02*
X133625000Y-129550000D01*
X134600000Y-135400000D02*
X134600000Y-134350000D01*
X139725000Y-66304942D02*
X139725000Y-64953200D01*
X125300000Y-123710758D02*
X125300000Y-125062500D01*
X128650000Y-123710758D02*
X128650000Y-125062500D01*
X131850000Y-123723258D02*
X131850000Y-125075000D01*
X137294621Y-125057121D02*
X137300000Y-125062500D01*
X137294621Y-123705379D02*
X137294621Y-125057121D01*
D34*
X127051992Y-135548008D02*
X127050000Y-135550000D01*
D35*
X127051992Y-134137500D02*
X127051992Y-135548008D01*
%TD*%
%TA.AperFunction,Conductor*%
%TO.N,VBUS*%
G36*
X141196091Y-119909439D02*
G01*
X141236319Y-119936319D01*
X143463681Y-122163681D01*
X143490561Y-122203909D01*
X143500000Y-122251362D01*
X143500000Y-138450000D01*
X145450000Y-140400000D01*
X148776000Y-140400000D01*
X148838000Y-140416613D01*
X148883387Y-140462000D01*
X148900000Y-140524000D01*
X148900000Y-142176000D01*
X148883387Y-142238000D01*
X148838000Y-142283387D01*
X148776000Y-142300000D01*
X144301362Y-142300000D01*
X144253909Y-142290561D01*
X144213681Y-142263681D01*
X140036319Y-138086319D01*
X140009439Y-138046091D01*
X140000000Y-137998638D01*
X140000000Y-124809512D01*
X140000000Y-124800000D01*
X138700000Y-122950000D01*
X138685074Y-122950000D01*
X137580649Y-122950000D01*
X137539695Y-122943042D01*
X137473876Y-122920011D01*
X137466959Y-122919231D01*
X137466952Y-122919230D01*
X137301544Y-122900594D01*
X137294621Y-122899814D01*
X137287698Y-122900594D01*
X137122289Y-122919230D01*
X137122280Y-122919231D01*
X137115366Y-122920011D01*
X137049546Y-122943042D01*
X137024138Y-122947358D01*
X137024190Y-122947618D01*
X137012212Y-122950000D01*
X137000000Y-122950000D01*
X136991366Y-122958633D01*
X136989471Y-122959900D01*
X136961539Y-122973837D01*
X136945099Y-122979590D01*
X136939211Y-122983289D01*
X136939206Y-122983292D01*
X136798259Y-123071855D01*
X136798254Y-123071858D01*
X136792359Y-123075563D01*
X136787434Y-123080487D01*
X136787430Y-123080491D01*
X136669733Y-123198188D01*
X136669729Y-123198192D01*
X136664805Y-123203117D01*
X136661100Y-123209012D01*
X136661097Y-123209017D01*
X136572534Y-123349964D01*
X136572531Y-123349969D01*
X136568832Y-123355857D01*
X136566534Y-123362422D01*
X136566530Y-123362432D01*
X136564553Y-123368082D01*
X136535195Y-123414803D01*
X135658638Y-124291361D01*
X135658635Y-124291364D01*
X135650000Y-124300000D01*
X135650000Y-124312211D01*
X135650000Y-128076000D01*
X135633387Y-128138000D01*
X135588000Y-128183387D01*
X135526000Y-128200000D01*
X133950000Y-128200000D01*
X133941364Y-128208635D01*
X133941361Y-128208638D01*
X133408092Y-128741907D01*
X133374621Y-128765748D01*
X133335196Y-128777341D01*
X133282306Y-128783692D01*
X133282300Y-128783693D01*
X133274410Y-128784641D01*
X133267016Y-128787556D01*
X133267011Y-128787558D01*
X133147920Y-128834522D01*
X133147916Y-128834523D01*
X133140025Y-128837636D01*
X133133266Y-128842761D01*
X133133265Y-128842762D01*
X133031674Y-128919801D01*
X133031670Y-128919804D01*
X133024922Y-128924922D01*
X133019804Y-128931670D01*
X133019801Y-128931674D01*
X132942762Y-129033265D01*
X132937636Y-129040025D01*
X132934523Y-129047916D01*
X132934522Y-129047920D01*
X132887558Y-129167011D01*
X132887556Y-129167016D01*
X132884641Y-129174410D01*
X132883693Y-129182298D01*
X132883692Y-129182305D01*
X132876752Y-129240096D01*
X132857292Y-129292707D01*
X132850000Y-129300000D01*
X132850000Y-129312214D01*
X132850000Y-129334112D01*
X132846891Y-129361702D01*
X132824500Y-129459806D01*
X132824500Y-129640194D01*
X132826048Y-129646980D01*
X132826049Y-129646981D01*
X132833891Y-129681339D01*
X132837000Y-129708931D01*
X132837000Y-130386638D01*
X132827561Y-130434091D01*
X132800681Y-130474319D01*
X131933418Y-131341580D01*
X131901345Y-131364731D01*
X131863613Y-131376604D01*
X131817020Y-131383391D01*
X131817014Y-131383392D01*
X131807491Y-131384780D01*
X131798841Y-131389008D01*
X131798840Y-131389009D01*
X131703959Y-131435394D01*
X131643094Y-131447827D01*
X131583837Y-131429181D01*
X131541060Y-131384134D01*
X131525499Y-131323992D01*
X131525500Y-131279816D01*
X131525500Y-131126944D01*
X131525500Y-130655244D01*
X131534939Y-130607791D01*
X131561819Y-130567563D01*
X131561818Y-130567563D01*
X131574554Y-130554828D01*
X131574554Y-130554827D01*
X131598528Y-130530854D01*
X131609488Y-130509340D01*
X131619660Y-130492743D01*
X131633849Y-130473215D01*
X131641312Y-130450241D01*
X131648756Y-130432273D01*
X131659719Y-130410760D01*
X131663496Y-130386906D01*
X131668038Y-130367988D01*
X131675500Y-130345027D01*
X131675500Y-130210241D01*
X131675500Y-128024000D01*
X131692113Y-127962000D01*
X131737500Y-127916613D01*
X131799500Y-127900000D01*
X132437789Y-127900000D01*
X132450000Y-127900000D01*
X133150000Y-127200000D01*
X133150000Y-121000000D01*
X133150000Y-120024000D01*
X133166613Y-119962000D01*
X133212000Y-119916613D01*
X133274000Y-119900000D01*
X141148638Y-119900000D01*
X141196091Y-119909439D01*
G37*
%TD.AperFunction*%
%TD*%
%TA.AperFunction,Conductor*%
%TO.N,/Vout*%
G36*
X137638000Y-132116613D02*
G01*
X137683387Y-132162000D01*
X137700000Y-132224000D01*
X137700000Y-133126000D01*
X137683387Y-133188000D01*
X137638000Y-133233387D01*
X137576000Y-133250000D01*
X133353110Y-133250000D01*
X133305657Y-133240561D01*
X133265429Y-133213681D01*
X133010120Y-132958372D01*
X133003220Y-132951472D01*
X132981700Y-132940507D01*
X132965113Y-132930342D01*
X132962552Y-132928481D01*
X132945581Y-132916151D01*
X132936299Y-132913135D01*
X132936297Y-132913134D01*
X132922615Y-132908689D01*
X132904643Y-132901244D01*
X132897917Y-132897817D01*
X132891819Y-132894710D01*
X132891816Y-132894709D01*
X132883126Y-132890281D01*
X132873487Y-132888754D01*
X132873486Y-132888754D01*
X132859279Y-132886504D01*
X132840360Y-132881962D01*
X132826673Y-132877514D01*
X132826664Y-132877512D01*
X132817393Y-132874500D01*
X132807637Y-132874500D01*
X132074499Y-132874500D01*
X132012499Y-132857887D01*
X131967112Y-132812500D01*
X131950499Y-132750500D01*
X131950499Y-132349499D01*
X131967112Y-132287499D01*
X132012499Y-132242112D01*
X132074499Y-132225499D01*
X132254006Y-132225499D01*
X132254010Y-132225499D01*
X132254012Y-132225500D01*
X135132607Y-132225500D01*
X135233488Y-132225500D01*
X135257634Y-132225500D01*
X135267393Y-132225500D01*
X135290354Y-132218038D01*
X135309272Y-132213496D01*
X135333126Y-132209719D01*
X135354639Y-132198756D01*
X135372607Y-132191312D01*
X135395581Y-132183849D01*
X135415109Y-132169659D01*
X135431706Y-132159488D01*
X135453220Y-132148528D01*
X135465429Y-132136319D01*
X135505657Y-132109439D01*
X135553110Y-132100000D01*
X137576000Y-132100000D01*
X137638000Y-132116613D01*
G37*
%TD.AperFunction*%
%TD*%
%TA.AperFunction,Conductor*%
%TO.N,+VDC*%
G36*
X139063000Y-133954113D02*
G01*
X139108387Y-133999500D01*
X139125000Y-134061500D01*
X139125000Y-139876000D01*
X139108387Y-139938000D01*
X139063000Y-139983387D01*
X139001000Y-140000000D01*
X136849000Y-140000000D01*
X136787000Y-139983387D01*
X136741613Y-139938000D01*
X136725000Y-139876000D01*
X136725000Y-135646591D01*
X136731213Y-135607832D01*
X136749228Y-135572959D01*
X136802793Y-135500382D01*
X136847646Y-135372199D01*
X136850500Y-135341766D01*
X136850500Y-135198544D01*
X136868773Y-135133754D01*
X136918206Y-135088059D01*
X136920549Y-135086864D01*
X136929832Y-135083849D01*
X136949360Y-135069659D01*
X136965957Y-135059488D01*
X136987471Y-135048528D01*
X137082779Y-134953220D01*
X137937994Y-134098004D01*
X137969378Y-134075203D01*
X138006275Y-134063214D01*
X138007626Y-134063000D01*
X138017393Y-134063000D01*
X138040354Y-134055538D01*
X138059272Y-134050996D01*
X138083126Y-134047219D01*
X138104639Y-134036256D01*
X138122607Y-134028812D01*
X138145581Y-134021349D01*
X138165109Y-134007159D01*
X138181706Y-133996988D01*
X138203220Y-133986028D01*
X138215429Y-133973819D01*
X138255657Y-133946939D01*
X138303110Y-133937500D01*
X139001000Y-133937500D01*
X139063000Y-133954113D01*
G37*
%TD.AperFunction*%
%TD*%
%TA.AperFunction,Conductor*%
%TO.N,+BATT*%
G36*
X117363000Y-127741613D02*
G01*
X117408387Y-127787000D01*
X117425000Y-127849000D01*
X117425000Y-131026000D01*
X117408387Y-131088000D01*
X117363000Y-131133387D01*
X117301000Y-131150000D01*
X116074000Y-131150000D01*
X116012000Y-131133387D01*
X115966613Y-131088000D01*
X115950000Y-131026000D01*
X115950000Y-130051362D01*
X115959439Y-130003909D01*
X115986319Y-129963681D01*
X115986319Y-129963680D01*
X116441916Y-129508083D01*
X116455944Y-129496011D01*
X116522150Y-129447150D01*
X116571009Y-129380947D01*
X116583087Y-129366912D01*
X116675000Y-129275000D01*
X116675000Y-128954944D01*
X116684439Y-128907492D01*
X116691381Y-128890731D01*
X116721162Y-128818834D01*
X116737775Y-128756834D01*
X116755000Y-128626000D01*
X116755000Y-127872011D01*
X116759923Y-127837418D01*
X116766609Y-127814403D01*
X116791817Y-127767977D01*
X116834066Y-127736255D01*
X116885685Y-127725000D01*
X117301000Y-127725000D01*
X117363000Y-127741613D01*
G37*
%TD.AperFunction*%
%TD*%
%TA.AperFunction,Conductor*%
%TO.N,/Vbatt*%
G36*
X126046091Y-131559439D02*
G01*
X126086318Y-131586318D01*
X126675000Y-132175000D01*
X128260645Y-132175000D01*
X128303915Y-132185388D01*
X128304416Y-132183848D01*
X128304418Y-132183848D01*
X128304419Y-132183849D01*
X128327383Y-132191310D01*
X128345356Y-132198754D01*
X128366874Y-132209719D01*
X128376511Y-132211245D01*
X128390719Y-132213495D01*
X128409646Y-132218039D01*
X128413121Y-132219168D01*
X128432607Y-132225500D01*
X128466512Y-132225500D01*
X128567393Y-132225500D01*
X129003051Y-132225500D01*
X129445982Y-132225500D01*
X129445988Y-132225500D01*
X129445990Y-132225499D01*
X129445994Y-132225499D01*
X129625500Y-132225499D01*
X129687500Y-132242112D01*
X129732887Y-132287499D01*
X129749500Y-132349499D01*
X129749500Y-132750500D01*
X129732887Y-132812500D01*
X129687500Y-132857887D01*
X129625500Y-132874500D01*
X129455751Y-132874500D01*
X129436356Y-132872974D01*
X129412500Y-132869196D01*
X129402864Y-132870722D01*
X129402863Y-132870722D01*
X129388642Y-132872974D01*
X129369247Y-132874500D01*
X129007539Y-132874500D01*
X129007525Y-132874500D01*
X129003052Y-132874501D01*
X128998622Y-132875146D01*
X128998612Y-132875147D01*
X128942020Y-132883391D01*
X128942014Y-132883392D01*
X128932491Y-132884780D01*
X128923839Y-132889009D01*
X128923838Y-132889010D01*
X128832885Y-132933474D01*
X128832881Y-132933476D01*
X128823653Y-132937988D01*
X128816389Y-132945251D01*
X128816386Y-132945254D01*
X128745254Y-133016386D01*
X128745251Y-133016389D01*
X128737988Y-133023653D01*
X128733476Y-133032881D01*
X128733474Y-133032885D01*
X128689009Y-133123839D01*
X128689007Y-133123843D01*
X128684780Y-133132491D01*
X128683392Y-133142015D01*
X128681465Y-133148253D01*
X128650680Y-133199317D01*
X128636324Y-133213675D01*
X128596094Y-133240559D01*
X128548637Y-133250000D01*
X118301362Y-133250000D01*
X118253909Y-133240561D01*
X118213681Y-133213681D01*
X117108638Y-132108638D01*
X117108637Y-132108637D01*
X117100000Y-132100000D01*
X117087789Y-132100000D01*
X113849000Y-132100000D01*
X113787000Y-132083387D01*
X113741613Y-132038000D01*
X113725000Y-131976000D01*
X113725000Y-131674000D01*
X113741613Y-131612000D01*
X113787000Y-131566613D01*
X113849000Y-131550000D01*
X125998638Y-131550000D01*
X126046091Y-131559439D01*
G37*
%TD.AperFunction*%
%TD*%
%TA.AperFunction,Conductor*%
%TO.N,GND*%
G36*
X116288000Y-126986613D02*
G01*
X116333387Y-127032000D01*
X116350000Y-127094000D01*
X116350000Y-127133586D01*
X116339607Y-127183279D01*
X116310171Y-127224642D01*
X116304124Y-127230231D01*
X116300000Y-127244856D01*
X116300000Y-127590953D01*
X116295076Y-127625548D01*
X116254170Y-127766342D01*
X116254168Y-127766351D01*
X116252402Y-127772431D01*
X116251905Y-127778739D01*
X116251904Y-127778748D01*
X116249691Y-127806871D01*
X116249690Y-127806886D01*
X116249500Y-127809306D01*
X116249500Y-127811751D01*
X116249500Y-128626000D01*
X116232887Y-128688000D01*
X116187500Y-128733387D01*
X116125500Y-128750000D01*
X115266326Y-128750000D01*
X115253450Y-128753450D01*
X115250000Y-128766326D01*
X115250000Y-129188197D01*
X115250191Y-129193076D01*
X115252402Y-129221173D01*
X115254668Y-129233579D01*
X115298718Y-129385198D01*
X115296268Y-129385909D01*
X115303700Y-129431720D01*
X115283797Y-129489090D01*
X115239040Y-129530131D01*
X115180164Y-129545000D01*
X114574000Y-129545000D01*
X114512000Y-129528387D01*
X114466613Y-129483000D01*
X114450000Y-129421000D01*
X114450000Y-128233674D01*
X115250000Y-128233674D01*
X115253450Y-128246549D01*
X115266326Y-128250000D01*
X115783674Y-128250000D01*
X115796549Y-128246549D01*
X115800000Y-128233674D01*
X115800000Y-127244856D01*
X115796293Y-127231713D01*
X115789223Y-127230307D01*
X115647294Y-127271541D01*
X115633087Y-127277689D01*
X115505161Y-127353344D01*
X115492925Y-127362835D01*
X115387835Y-127467925D01*
X115378344Y-127480161D01*
X115302689Y-127608087D01*
X115296541Y-127622294D01*
X115254668Y-127766420D01*
X115252402Y-127778826D01*
X115250191Y-127806923D01*
X115250000Y-127811803D01*
X115250000Y-128233674D01*
X114450000Y-128233674D01*
X114450000Y-127094000D01*
X114466613Y-127032000D01*
X114512000Y-126986613D01*
X114574000Y-126970000D01*
X116226000Y-126970000D01*
X116288000Y-126986613D01*
G37*
%TD.AperFunction*%
%TD*%
M02*
