%TF.GenerationSoftware,KiCad,Pcbnew,(7.0.0)*%
%TF.CreationDate,2023-12-08T15:04:05-05:00*%
%TF.ProjectId,Coaster,436f6173-7465-4722-9e6b-696361645f70,rev?*%
%TF.SameCoordinates,Original*%
%TF.FileFunction,Copper,L2,Bot*%
%TF.FilePolarity,Positive*%
%FSLAX46Y46*%
G04 Gerber Fmt 4.6, Leading zero omitted, Abs format (unit mm)*
G04 Created by KiCad (PCBNEW (7.0.0)) date 2023-12-08 15:04:05*
%MOMM*%
%LPD*%
G01*
G04 APERTURE LIST*
%TA.AperFunction,ConnectorPad*%
%ADD10C,6.400000*%
%TD*%
%TA.AperFunction,ComponentPad*%
%ADD11C,3.600000*%
%TD*%
%TA.AperFunction,ComponentPad*%
%ADD12O,1.700000X1.700000*%
%TD*%
%TA.AperFunction,ComponentPad*%
%ADD13R,1.700000X1.700000*%
%TD*%
%TA.AperFunction,ViaPad*%
%ADD14C,0.600000*%
%TD*%
G04 APERTURE END LIST*
D10*
%TO.P,H4,1*%
%TO.N,N/C*%
X182899933Y-49150555D03*
D11*
X182899933Y-49150555D03*
%TD*%
%TO.P,H3,1*%
%TO.N,N/C*%
X182899933Y-137650555D03*
D10*
X182899933Y-137650555D03*
%TD*%
%TO.P,H2,1*%
%TO.N,N/C*%
X94399933Y-137650555D03*
D11*
X94399933Y-137650555D03*
%TD*%
%TO.P,H1,1*%
%TO.N,N/C*%
X94399933Y-49150555D03*
D10*
X94399933Y-49150555D03*
%TD*%
D12*
%TO.P,U2,43,SWDIO*%
%TO.N,unconnected-(U2-SWDIO-Pad43)*%
X154399999Y-93369999D03*
D13*
%TO.P,U2,42,GND*%
%TO.N,GND*%
X156939999Y-93369999D03*
D12*
%TO.P,U2,41,SWCLK*%
%TO.N,unconnected-(U2-SWCLK-Pad41)*%
X159479999Y-93369999D03*
%TO.P,U2,40,VBUS*%
%TO.N,VBUS*%
X148049999Y-141399999D03*
%TO.P,U2,39,VSYS*%
%TO.N,+VDC*%
X148049999Y-138859999D03*
D13*
%TO.P,U2,38,GND*%
%TO.N,GND*%
X148049999Y-136319999D03*
D12*
%TO.P,U2,37,3V3_EN*%
%TO.N,unconnected-(U2-3V3_EN-Pad37)*%
X148049999Y-133779999D03*
%TO.P,U2,36,3V3*%
%TO.N,+3.3V*%
X148049999Y-131239999D03*
%TO.P,U2,35,ADC_VREF*%
%TO.N,unconnected-(U2-ADC_VREF-Pad35)*%
X148049999Y-128699999D03*
%TO.P,U2,34,GPIO28_ADC2*%
%TO.N,unconnected-(U2-GPIO28_ADC2-Pad34)*%
X148049999Y-126159999D03*
D13*
%TO.P,U2,33,AGND*%
%TO.N,GND*%
X148049999Y-123619999D03*
D12*
%TO.P,U2,32,GPIO27_ADC1*%
%TO.N,unconnected-(U2-GPIO27_ADC1-Pad32)*%
X148049999Y-121079999D03*
%TO.P,U2,31,GPIO26_ADC0*%
%TO.N,/BATT_VSENSE*%
X148049999Y-118539999D03*
%TO.P,U2,30,RUN*%
%TO.N,/RESET*%
X148049999Y-115999999D03*
%TO.P,U2,29,GPIO22*%
%TO.N,unconnected-(U2-GPIO22-Pad29)*%
X148049999Y-113459999D03*
D13*
%TO.P,U2,28,GND*%
%TO.N,GND*%
X148049999Y-110919999D03*
D12*
%TO.P,U2,27,GPIO21*%
%TO.N,unconnected-(U2-GPIO21-Pad27)*%
X148049999Y-108379999D03*
%TO.P,U2,26,GPIO20*%
%TO.N,/BACKLIGHT_EN*%
X148049999Y-105839999D03*
%TO.P,U2,25,GPIO19*%
%TO.N,/LCD_MOSI*%
X148049999Y-103299999D03*
%TO.P,U2,24,GPIO18*%
%TO.N,/LCD_SCLK*%
X148049999Y-100759999D03*
D13*
%TO.P,U2,23,GND*%
%TO.N,GND*%
X148049999Y-98219999D03*
D12*
%TO.P,U2,22,GPIO17*%
%TO.N,/LCD_CS_n*%
X148049999Y-95679999D03*
%TO.P,U2,21,GPIO16*%
%TO.N,/LCD_DC*%
X148049999Y-93139999D03*
%TO.P,U2,20,GPIO15*%
%TO.N,/SWY*%
X165829999Y-93139999D03*
%TO.P,U2,19,GPIO14*%
%TO.N,/SWX*%
X165829999Y-95679999D03*
D13*
%TO.P,U2,18,GND*%
%TO.N,GND*%
X165829999Y-98219999D03*
D12*
%TO.P,U2,17,GPIO13*%
%TO.N,/SWB*%
X165829999Y-100759999D03*
%TO.P,U2,16,GPIO12*%
%TO.N,/SWA*%
X165829999Y-103299999D03*
%TO.P,U2,15,GPIO11*%
%TO.N,unconnected-(U2-GPIO11-Pad15)*%
X165829999Y-105839999D03*
%TO.P,U2,14,GPIO10*%
%TO.N,unconnected-(U2-GPIO10-Pad14)*%
X165829999Y-108379999D03*
D13*
%TO.P,U2,13,GND*%
%TO.N,GND*%
X165829999Y-110919999D03*
D12*
%TO.P,U2,12,GPIO9*%
%TO.N,unconnected-(U2-GPIO9-Pad12)*%
X165829999Y-113459999D03*
%TO.P,U2,11,GPIO8*%
%TO.N,/LED_B*%
X165829999Y-115999999D03*
%TO.P,U2,10,GPIO7*%
%TO.N,/LED_G*%
X165829999Y-118539999D03*
%TO.P,U2,9,GPIO6*%
%TO.N,/LED_R*%
X165829999Y-121079999D03*
D13*
%TO.P,U2,8,GND*%
%TO.N,GND*%
X165829999Y-123619999D03*
D12*
%TO.P,U2,7,GPIO5*%
%TO.N,unconnected-(U2-GPIO5-Pad7)*%
X165829999Y-126159999D03*
%TO.P,U2,6,GPIO4*%
%TO.N,unconnected-(U2-GPIO4-Pad6)*%
X165829999Y-128699999D03*
%TO.P,U2,5,GPIO3*%
%TO.N,unconnected-(U2-GPIO3-Pad5)*%
X165829999Y-131239999D03*
%TO.P,U2,4,GPIO2*%
%TO.N,unconnected-(U2-GPIO2-Pad4)*%
X165829999Y-133779999D03*
D13*
%TO.P,U2,3,GND*%
%TO.N,GND*%
X165829999Y-136319999D03*
D12*
%TO.P,U2,2,GPIO1*%
%TO.N,/I2C_SCL*%
X165829999Y-138859999D03*
%TO.P,U2,1,GPIO0*%
%TO.N,/I2C_SDA*%
X165829999Y-141399999D03*
%TD*%
D14*
%TO.N,GND*%
X114850000Y-128870000D03*
X114900000Y-127520000D03*
X116050001Y-127319129D03*
X123851992Y-129226992D03*
X120551992Y-141701992D03*
X120601992Y-136051992D03*
X178775500Y-89150000D03*
X179600000Y-99150000D03*
X176350000Y-95500000D03*
X181600000Y-88950000D03*
X176450000Y-90650000D03*
X139550000Y-61953200D03*
X139550000Y-60753200D03*
X138650000Y-61953200D03*
X138650000Y-60753200D03*
X137800000Y-61953200D03*
X137800000Y-60753200D03*
%TO.N,+VDC*%
X138800000Y-138300000D03*
X138800000Y-139550000D03*
X137950000Y-138300000D03*
X137950000Y-139550000D03*
X137100000Y-138300000D03*
X137100000Y-139550000D03*
%TO.N,GND*%
X130600000Y-130043750D03*
X131350000Y-132050000D03*
X131350000Y-133050000D03*
X130350000Y-133050000D03*
X130350000Y-132050000D03*
X129150000Y-134000000D03*
X132050000Y-135400000D03*
X130100000Y-135150000D03*
X134600000Y-135400000D03*
X133637500Y-130650000D03*
X139725000Y-66304942D03*
X125300000Y-123710758D03*
X128650000Y-123710758D03*
X131850000Y-123723258D03*
X137294621Y-123705379D03*
X127050000Y-135550000D03*
%TD*%
%TA.AperFunction,Conductor*%
%TO.N,+VDC*%
G36*
X148838000Y-137766613D02*
G01*
X148883387Y-137812000D01*
X148900000Y-137874000D01*
X148900000Y-139876000D01*
X148883387Y-139938000D01*
X148838000Y-139983387D01*
X148776000Y-140000000D01*
X136774000Y-140000000D01*
X136712000Y-139983387D01*
X136666613Y-139938000D01*
X136650000Y-139876000D01*
X136650000Y-137874000D01*
X136666613Y-137812000D01*
X136712000Y-137766613D01*
X136774000Y-137750000D01*
X148776000Y-137750000D01*
X148838000Y-137766613D01*
G37*
%TD.AperFunction*%
%TD*%
%TA.AperFunction,Conductor*%
%TO.N,GND*%
G36*
X187083986Y-43900991D02*
G01*
X187144470Y-43900989D01*
X187155273Y-43901460D01*
X187312658Y-43915226D01*
X187333936Y-43918978D01*
X187481293Y-43958459D01*
X187501602Y-43965851D01*
X187562043Y-43994034D01*
X187639869Y-44030324D01*
X187658581Y-44041127D01*
X187778421Y-44125039D01*
X187783544Y-44128626D01*
X187800102Y-44142519D01*
X187907973Y-44250389D01*
X187921867Y-44266948D01*
X188009366Y-44391910D01*
X188020173Y-44410629D01*
X188084644Y-44548889D01*
X188092037Y-44569200D01*
X188131519Y-44716552D01*
X188135272Y-44737840D01*
X188149027Y-44895092D01*
X188149499Y-44905897D01*
X188149499Y-44966499D01*
X188149499Y-44966507D01*
X188149500Y-44966511D01*
X188149500Y-141834597D01*
X188149499Y-141834601D01*
X188149499Y-141834608D01*
X188149499Y-141834609D01*
X188149499Y-141895083D01*
X188149027Y-141905889D01*
X188135260Y-142063263D01*
X188131507Y-142084550D01*
X188092024Y-142231905D01*
X188084631Y-142252217D01*
X188020161Y-142390471D01*
X188009354Y-142409190D01*
X187947711Y-142497225D01*
X187927882Y-142525544D01*
X187921859Y-142534145D01*
X187907965Y-142550703D01*
X187800094Y-142658573D01*
X187783535Y-142672467D01*
X187658575Y-142759962D01*
X187639856Y-142770769D01*
X187501598Y-142835238D01*
X187481287Y-142842630D01*
X187333940Y-142882109D01*
X187312652Y-142885862D01*
X187155023Y-142899649D01*
X187144217Y-142900121D01*
X187084003Y-142900120D01*
X187083986Y-142900120D01*
X187083980Y-142900121D01*
X187083976Y-142900122D01*
X166367863Y-142900122D01*
X166303998Y-142882411D01*
X166258378Y-142834337D01*
X166244033Y-142769632D01*
X166265062Y-142706782D01*
X166315458Y-142663740D01*
X166391126Y-142628455D01*
X166507830Y-142574035D01*
X166701401Y-142438495D01*
X166868495Y-142271401D01*
X167004035Y-142077830D01*
X167103903Y-141863663D01*
X167165063Y-141635408D01*
X167185659Y-141400000D01*
X167165063Y-141164592D01*
X167103903Y-140936337D01*
X167004035Y-140722171D01*
X166868495Y-140528599D01*
X166701401Y-140361505D01*
X166696968Y-140358401D01*
X166696961Y-140358395D01*
X166515842Y-140231575D01*
X166476976Y-140187257D01*
X166462965Y-140130000D01*
X166476976Y-140072743D01*
X166515842Y-140028425D01*
X166696961Y-139901604D01*
X166696961Y-139901603D01*
X166701401Y-139898495D01*
X166868495Y-139731401D01*
X167004035Y-139537830D01*
X167103903Y-139323663D01*
X167165063Y-139095408D01*
X167185659Y-138860000D01*
X167165063Y-138624592D01*
X167103903Y-138396337D01*
X167004035Y-138182171D01*
X166868495Y-137988599D01*
X166701401Y-137821505D01*
X166696970Y-137818402D01*
X166696966Y-137818399D01*
X166512259Y-137689066D01*
X166512257Y-137689064D01*
X166507830Y-137685965D01*
X166502933Y-137683681D01*
X166502927Y-137683678D01*
X166431894Y-137650555D01*
X179194355Y-137650555D01*
X179194525Y-137653799D01*
X179212714Y-138000868D01*
X179214655Y-138037893D01*
X179215160Y-138041086D01*
X179215162Y-138041098D01*
X179274822Y-138417779D01*
X179274824Y-138417792D01*
X179275331Y-138420988D01*
X179276168Y-138424112D01*
X179276170Y-138424121D01*
X179372241Y-138782662D01*
X179375719Y-138795642D01*
X179376876Y-138798657D01*
X179376879Y-138798665D01*
X179493824Y-139103315D01*
X179514719Y-139157749D01*
X179516188Y-139160632D01*
X179516192Y-139160641D01*
X179689011Y-139499818D01*
X179690808Y-139503344D01*
X179902057Y-139828639D01*
X179965661Y-139907183D01*
X180122747Y-140101169D01*
X180146152Y-140130071D01*
X180420417Y-140404336D01*
X180721849Y-140648431D01*
X181047144Y-140859680D01*
X181106399Y-140889872D01*
X181352864Y-141015452D01*
X181392739Y-141035769D01*
X181754846Y-141174769D01*
X182129500Y-141275157D01*
X182512595Y-141335833D01*
X182899933Y-141356133D01*
X183287271Y-141335833D01*
X183670366Y-141275157D01*
X184045020Y-141174769D01*
X184407127Y-141035769D01*
X184752722Y-140859680D01*
X185078017Y-140648431D01*
X185379449Y-140404336D01*
X185653714Y-140130071D01*
X185897809Y-139828639D01*
X186109058Y-139503344D01*
X186285147Y-139157749D01*
X186424147Y-138795642D01*
X186524535Y-138420988D01*
X186585211Y-138037893D01*
X186605511Y-137650555D01*
X186585211Y-137263217D01*
X186524535Y-136880122D01*
X186424147Y-136505468D01*
X186285147Y-136143361D01*
X186109058Y-135797766D01*
X185897809Y-135472471D01*
X185653714Y-135171039D01*
X185379449Y-134896774D01*
X185078017Y-134652679D01*
X184752722Y-134441430D01*
X184749834Y-134439958D01*
X184749828Y-134439955D01*
X184410019Y-134266814D01*
X184410010Y-134266810D01*
X184407127Y-134265341D01*
X184404095Y-134264177D01*
X184048043Y-134127501D01*
X184048035Y-134127498D01*
X184045020Y-134126341D01*
X184041895Y-134125503D01*
X184041890Y-134125502D01*
X183673499Y-134026792D01*
X183673490Y-134026790D01*
X183670366Y-134025953D01*
X183667170Y-134025446D01*
X183667157Y-134025444D01*
X183290476Y-133965784D01*
X183290464Y-133965782D01*
X183287271Y-133965277D01*
X183284036Y-133965107D01*
X183284032Y-133965107D01*
X182903177Y-133945147D01*
X182899933Y-133944977D01*
X182896689Y-133945147D01*
X182515833Y-133965107D01*
X182515827Y-133965107D01*
X182512595Y-133965277D01*
X182509403Y-133965782D01*
X182509389Y-133965784D01*
X182132708Y-134025444D01*
X182132691Y-134025447D01*
X182129500Y-134025953D01*
X182126379Y-134026789D01*
X182126366Y-134026792D01*
X181757975Y-134125502D01*
X181757964Y-134125505D01*
X181754846Y-134126341D01*
X181751835Y-134127496D01*
X181751822Y-134127501D01*
X181395770Y-134264177D01*
X181395761Y-134264180D01*
X181392739Y-134265341D01*
X181389862Y-134266806D01*
X181389846Y-134266814D01*
X181050037Y-134439955D01*
X181050023Y-134439963D01*
X181047144Y-134441430D01*
X181044424Y-134443196D01*
X181044416Y-134443201D01*
X180724577Y-134650907D01*
X180724571Y-134650910D01*
X180721849Y-134652679D01*
X180719329Y-134654719D01*
X180719323Y-134654724D01*
X180422935Y-134894734D01*
X180422924Y-134894743D01*
X180420417Y-134896774D01*
X180418132Y-134899058D01*
X180418122Y-134899068D01*
X180148446Y-135168744D01*
X180148436Y-135168754D01*
X180146152Y-135171039D01*
X180144121Y-135173546D01*
X180144112Y-135173557D01*
X179904102Y-135469945D01*
X179904097Y-135469951D01*
X179902057Y-135472471D01*
X179900288Y-135475193D01*
X179900285Y-135475199D01*
X179692579Y-135795038D01*
X179692574Y-135795046D01*
X179690808Y-135797766D01*
X179689341Y-135800645D01*
X179689333Y-135800659D01*
X179516192Y-136140468D01*
X179516184Y-136140484D01*
X179514719Y-136143361D01*
X179513558Y-136146383D01*
X179513555Y-136146392D01*
X179376879Y-136502444D01*
X179376874Y-136502457D01*
X179375719Y-136505468D01*
X179374883Y-136508586D01*
X179374880Y-136508597D01*
X179276170Y-136876988D01*
X179276167Y-136877001D01*
X179275331Y-136880122D01*
X179274825Y-136883313D01*
X179274822Y-136883330D01*
X179215162Y-137260011D01*
X179215160Y-137260025D01*
X179214655Y-137263217D01*
X179214485Y-137266449D01*
X179214485Y-137266455D01*
X179197807Y-137584694D01*
X179194355Y-137650555D01*
X166431894Y-137650555D01*
X166298572Y-137588386D01*
X166298570Y-137588385D01*
X166293663Y-137586097D01*
X166288438Y-137584697D01*
X166288430Y-137584694D01*
X166070634Y-137526337D01*
X166070630Y-137526336D01*
X166065408Y-137524937D01*
X166060020Y-137524465D01*
X166060017Y-137524465D01*
X165835395Y-137504813D01*
X165830000Y-137504341D01*
X165824605Y-137504813D01*
X165599982Y-137524465D01*
X165599977Y-137524465D01*
X165594592Y-137524937D01*
X165589371Y-137526335D01*
X165589365Y-137526337D01*
X165371569Y-137584694D01*
X165371557Y-137584698D01*
X165366337Y-137586097D01*
X165361432Y-137588383D01*
X165361427Y-137588386D01*
X165157081Y-137683675D01*
X165157077Y-137683677D01*
X165152171Y-137685965D01*
X165147738Y-137689068D01*
X165147731Y-137689073D01*
X164963034Y-137818399D01*
X164963029Y-137818402D01*
X164958599Y-137821505D01*
X164954775Y-137825328D01*
X164954769Y-137825334D01*
X164795334Y-137984769D01*
X164795328Y-137984775D01*
X164791505Y-137988599D01*
X164788402Y-137993029D01*
X164788399Y-137993034D01*
X164659073Y-138177731D01*
X164659068Y-138177738D01*
X164655965Y-138182171D01*
X164653677Y-138187077D01*
X164653675Y-138187081D01*
X164558386Y-138391427D01*
X164558383Y-138391432D01*
X164556097Y-138396337D01*
X164554698Y-138401557D01*
X164554694Y-138401569D01*
X164496337Y-138619365D01*
X164496335Y-138619371D01*
X164494937Y-138624592D01*
X164494465Y-138629977D01*
X164494465Y-138629982D01*
X164476531Y-138834968D01*
X164474341Y-138860000D01*
X164474813Y-138865395D01*
X164488938Y-139026849D01*
X164494937Y-139095408D01*
X164496336Y-139100630D01*
X164496337Y-139100634D01*
X164554694Y-139318430D01*
X164554697Y-139318438D01*
X164556097Y-139323663D01*
X164558385Y-139328570D01*
X164558386Y-139328572D01*
X164653678Y-139532927D01*
X164653681Y-139532933D01*
X164655965Y-139537830D01*
X164659064Y-139542257D01*
X164659066Y-139542259D01*
X164788399Y-139726966D01*
X164788402Y-139726970D01*
X164791505Y-139731401D01*
X164958599Y-139898495D01*
X164963032Y-139901599D01*
X164963038Y-139901604D01*
X165144158Y-140028425D01*
X165183024Y-140072743D01*
X165197035Y-140130000D01*
X165183024Y-140187257D01*
X165144159Y-140231575D01*
X164963041Y-140358395D01*
X164958599Y-140361505D01*
X164954775Y-140365328D01*
X164954769Y-140365334D01*
X164795334Y-140524769D01*
X164795328Y-140524775D01*
X164791505Y-140528599D01*
X164788402Y-140533029D01*
X164788399Y-140533034D01*
X164659073Y-140717731D01*
X164659068Y-140717738D01*
X164655965Y-140722171D01*
X164653677Y-140727077D01*
X164653675Y-140727081D01*
X164558386Y-140931427D01*
X164558383Y-140931432D01*
X164556097Y-140936337D01*
X164554698Y-140941557D01*
X164554694Y-140941569D01*
X164496337Y-141159365D01*
X164496335Y-141159371D01*
X164494937Y-141164592D01*
X164494465Y-141169977D01*
X164494465Y-141169982D01*
X164480038Y-141334880D01*
X164474341Y-141400000D01*
X164474813Y-141405395D01*
X164491111Y-141591685D01*
X164494937Y-141635408D01*
X164496336Y-141640630D01*
X164496337Y-141640634D01*
X164554694Y-141858430D01*
X164554697Y-141858438D01*
X164556097Y-141863663D01*
X164558385Y-141868570D01*
X164558386Y-141868572D01*
X164653678Y-142072927D01*
X164653681Y-142072933D01*
X164655965Y-142077830D01*
X164659064Y-142082257D01*
X164659066Y-142082259D01*
X164788399Y-142266966D01*
X164788402Y-142266970D01*
X164791505Y-142271401D01*
X164958599Y-142438495D01*
X164963031Y-142441598D01*
X164963033Y-142441600D01*
X164969988Y-142446470D01*
X165152170Y-142574035D01*
X165157070Y-142576320D01*
X165157072Y-142576321D01*
X165344542Y-142663740D01*
X165394938Y-142706782D01*
X165415967Y-142769632D01*
X165401622Y-142834337D01*
X165356002Y-142882411D01*
X165292137Y-142900122D01*
X159929255Y-142900122D01*
X159870318Y-142885220D01*
X159825547Y-142844097D01*
X159805702Y-142786637D01*
X159815552Y-142726649D01*
X159852730Y-142678552D01*
X159902799Y-142656344D01*
X159902540Y-142655347D01*
X159951926Y-142642487D01*
X159962760Y-142640177D01*
X160009981Y-142632298D01*
X160021175Y-142628455D01*
X160064945Y-142613428D01*
X160073941Y-142610716D01*
X160133249Y-142595275D01*
X160176649Y-142575656D01*
X160187454Y-142571371D01*
X160224650Y-142558602D01*
X160224649Y-142558602D01*
X160229503Y-142556936D01*
X160283611Y-142527653D01*
X160291541Y-142523721D01*
X160350486Y-142497077D01*
X160387120Y-142472316D01*
X160397503Y-142466018D01*
X160433626Y-142446470D01*
X160453229Y-142431212D01*
X160484879Y-142406578D01*
X160491608Y-142401694D01*
X160493668Y-142400302D01*
X160548003Y-142363579D01*
X160577454Y-142335351D01*
X160587067Y-142327041D01*
X160616784Y-142303913D01*
X160620262Y-142300134D01*
X160620266Y-142300131D01*
X160663070Y-142253632D01*
X160668490Y-142248100D01*
X160720118Y-142198621D01*
X160742343Y-142168569D01*
X160750805Y-142158324D01*
X160773979Y-142133153D01*
X160813233Y-142073067D01*
X160817312Y-142067203D01*
X160861879Y-142006947D01*
X160877166Y-141976624D01*
X160884071Y-141964643D01*
X160900924Y-141938849D01*
X160931130Y-141869984D01*
X160933927Y-141864045D01*
X160969207Y-141794074D01*
X160978152Y-141764864D01*
X160983156Y-141751378D01*
X160994157Y-141726300D01*
X161013450Y-141650110D01*
X161015088Y-141644255D01*
X161019448Y-141630017D01*
X161039016Y-141566123D01*
X161042459Y-141539228D01*
X161045251Y-141524535D01*
X161051134Y-141501305D01*
X161057903Y-141419600D01*
X161058485Y-141414094D01*
X161068629Y-141334880D01*
X161068629Y-141334876D01*
X161069298Y-141329654D01*
X161068291Y-141305961D01*
X161068602Y-141290481D01*
X161070300Y-141270000D01*
X161063248Y-141184905D01*
X161062938Y-141179944D01*
X161060642Y-141125885D01*
X161059180Y-141091468D01*
X161054908Y-141071646D01*
X161052547Y-141055753D01*
X161051134Y-141038695D01*
X161029328Y-140952589D01*
X161028336Y-140948354D01*
X161008954Y-140858419D01*
X161002667Y-140842773D01*
X160997521Y-140826988D01*
X160994157Y-140813700D01*
X160957102Y-140729224D01*
X160955621Y-140725696D01*
X160945546Y-140700623D01*
X160920064Y-140637210D01*
X160913019Y-140625768D01*
X160905054Y-140610567D01*
X160900924Y-140601151D01*
X160848628Y-140521106D01*
X160846879Y-140518350D01*
X160795069Y-140434205D01*
X160788454Y-140426689D01*
X160777733Y-140412592D01*
X160776790Y-140411150D01*
X160773979Y-140406847D01*
X160706876Y-140333953D01*
X160705068Y-140331944D01*
X160670097Y-140292210D01*
X160637564Y-140255245D01*
X160632441Y-140251108D01*
X160624083Y-140243275D01*
X160624031Y-140243333D01*
X160620250Y-140239852D01*
X160616784Y-140236087D01*
X160612748Y-140232946D01*
X160612743Y-140232941D01*
X160535936Y-140173161D01*
X160534198Y-140171783D01*
X160456178Y-140108786D01*
X160452080Y-140105477D01*
X160447482Y-140102908D01*
X160444909Y-140101169D01*
X160442039Y-140099369D01*
X160441965Y-140099484D01*
X160437673Y-140096680D01*
X160433626Y-140093530D01*
X160429119Y-140091091D01*
X160429113Y-140091087D01*
X160340552Y-140043161D01*
X160339094Y-140042359D01*
X160248553Y-139991779D01*
X160248551Y-139991778D01*
X160243954Y-139989210D01*
X160238987Y-139987454D01*
X160237804Y-139986920D01*
X160233441Y-139985194D01*
X160229503Y-139983064D01*
X160224656Y-139981400D01*
X160126278Y-139947626D01*
X160125234Y-139947262D01*
X160024143Y-139911545D01*
X160024135Y-139911543D01*
X160019171Y-139909789D01*
X160013980Y-139908898D01*
X160012557Y-139908528D01*
X160012114Y-139908434D01*
X160009981Y-139907702D01*
X160004940Y-139906860D01*
X160004933Y-139906859D01*
X159898772Y-139889144D01*
X159898533Y-139889103D01*
X159784200Y-139869500D01*
X159781049Y-139869500D01*
X159548951Y-139869500D01*
X159543888Y-139870344D01*
X159543885Y-139870345D01*
X159494992Y-139878503D01*
X159485102Y-139879747D01*
X159432704Y-139884207D01*
X159432697Y-139884208D01*
X159427459Y-139884654D01*
X159422373Y-139885977D01*
X159422368Y-139885979D01*
X159378078Y-139897511D01*
X159367248Y-139899819D01*
X159325083Y-139906855D01*
X159325060Y-139906860D01*
X159320019Y-139907702D01*
X159315179Y-139909363D01*
X159315173Y-139909365D01*
X159265067Y-139926567D01*
X159256052Y-139929284D01*
X159201846Y-139943398D01*
X159201842Y-139943399D01*
X159196751Y-139944725D01*
X159191962Y-139946889D01*
X159191944Y-139946896D01*
X159153361Y-139964337D01*
X159142554Y-139968624D01*
X159105358Y-139981394D01*
X159105346Y-139981399D01*
X159100497Y-139983064D01*
X159095985Y-139985505D01*
X159095982Y-139985507D01*
X159046396Y-140012341D01*
X159038459Y-140016276D01*
X158984316Y-140040751D01*
X158984303Y-140040757D01*
X158979514Y-140042923D01*
X158975160Y-140045864D01*
X158975152Y-140045870D01*
X158942881Y-140067680D01*
X158932472Y-140073993D01*
X158900888Y-140091087D01*
X158896374Y-140093530D01*
X158892330Y-140096677D01*
X158892320Y-140096684D01*
X158845124Y-140133417D01*
X158838403Y-140138296D01*
X158788859Y-140171783D01*
X158781997Y-140176421D01*
X158778200Y-140180059D01*
X158778190Y-140180068D01*
X158752549Y-140204643D01*
X158742916Y-140212969D01*
X158717267Y-140232932D01*
X158717253Y-140232944D01*
X158713216Y-140236087D01*
X158709745Y-140239856D01*
X158709741Y-140239861D01*
X158666927Y-140286369D01*
X158661499Y-140291907D01*
X158613685Y-140337733D01*
X158613678Y-140337739D01*
X158609882Y-140341379D01*
X158606751Y-140345612D01*
X158606746Y-140345618D01*
X158587659Y-140371425D01*
X158579197Y-140381670D01*
X158559492Y-140403075D01*
X158559484Y-140403084D01*
X158556021Y-140406847D01*
X158553221Y-140411132D01*
X158553216Y-140411139D01*
X158516781Y-140466906D01*
X158512671Y-140472814D01*
X158471253Y-140528816D01*
X158471245Y-140528828D01*
X158468121Y-140533053D01*
X158465758Y-140537739D01*
X158465749Y-140537754D01*
X158452827Y-140563383D01*
X158445918Y-140575370D01*
X158429076Y-140601151D01*
X158427017Y-140605845D01*
X158427016Y-140605847D01*
X158398886Y-140669975D01*
X158396055Y-140675986D01*
X158363164Y-140741222D01*
X158363161Y-140741228D01*
X158360793Y-140745926D01*
X158359250Y-140750961D01*
X158359249Y-140750966D01*
X158351847Y-140775132D01*
X158346843Y-140788619D01*
X158337902Y-140809004D01*
X158337899Y-140809011D01*
X158335843Y-140813700D01*
X158334585Y-140818665D01*
X158334585Y-140818667D01*
X158316552Y-140889872D01*
X158314912Y-140895737D01*
X158292528Y-140968833D01*
X158292526Y-140968840D01*
X158290984Y-140973877D01*
X158290315Y-140979101D01*
X158287538Y-141000778D01*
X158284751Y-141015452D01*
X158278866Y-141038695D01*
X158278443Y-141043805D01*
X158278442Y-141043810D01*
X158272097Y-141120377D01*
X158271517Y-141125885D01*
X158263958Y-141184922D01*
X158260702Y-141210346D01*
X158260925Y-141215602D01*
X158260925Y-141215606D01*
X158261707Y-141234026D01*
X158261396Y-141249518D01*
X158260123Y-141264889D01*
X158259700Y-141270000D01*
X158260123Y-141275106D01*
X158266750Y-141355097D01*
X158267061Y-141360071D01*
X158269591Y-141419607D01*
X158270820Y-141448532D01*
X158271928Y-141453676D01*
X158271929Y-141453679D01*
X158275093Y-141468358D01*
X158277451Y-141484234D01*
X158278442Y-141496197D01*
X158278443Y-141496204D01*
X158278866Y-141501305D01*
X158280123Y-141506270D01*
X158280124Y-141506274D01*
X158300660Y-141587372D01*
X158301671Y-141591685D01*
X158319935Y-141676429D01*
X158319937Y-141676436D01*
X158321046Y-141681581D01*
X158323012Y-141686473D01*
X158327334Y-141697230D01*
X158332478Y-141713013D01*
X158334583Y-141721327D01*
X158334584Y-141721330D01*
X158335843Y-141726300D01*
X158337901Y-141730993D01*
X158337905Y-141731003D01*
X158372875Y-141810727D01*
X158374370Y-141814284D01*
X158409936Y-141902790D01*
X158412694Y-141907270D01*
X158412695Y-141907271D01*
X158416980Y-141914231D01*
X158424943Y-141929430D01*
X158427008Y-141934137D01*
X158427013Y-141934147D01*
X158429076Y-141938849D01*
X158431881Y-141943142D01*
X158431883Y-141943146D01*
X158481366Y-142018886D01*
X158483146Y-142021692D01*
X158511150Y-142067173D01*
X158534931Y-142105795D01*
X158541539Y-142113303D01*
X158552267Y-142127408D01*
X158553213Y-142128856D01*
X158553216Y-142128860D01*
X158556021Y-142133153D01*
X158559496Y-142136928D01*
X158559497Y-142136929D01*
X158623077Y-142205996D01*
X158624930Y-142208054D01*
X158692436Y-142284755D01*
X158696532Y-142288063D01*
X158696538Y-142288068D01*
X158697567Y-142288899D01*
X158705920Y-142296727D01*
X158705973Y-142296670D01*
X158709744Y-142300141D01*
X158713216Y-142303913D01*
X158753617Y-142335358D01*
X158794062Y-142366837D01*
X158795795Y-142368211D01*
X158877920Y-142434523D01*
X158882523Y-142437094D01*
X158886881Y-142440040D01*
X158886789Y-142440174D01*
X158887809Y-142440860D01*
X158888035Y-142440516D01*
X158892324Y-142443318D01*
X158896374Y-142446470D01*
X158989504Y-142496869D01*
X158990844Y-142497606D01*
X159086046Y-142550790D01*
X159091021Y-142552547D01*
X159092190Y-142553076D01*
X159096552Y-142554801D01*
X159100497Y-142556936D01*
X159203944Y-142592449D01*
X159204697Y-142592712D01*
X159305858Y-142628455D01*
X159305862Y-142628456D01*
X159310829Y-142630211D01*
X159316021Y-142631100D01*
X159317439Y-142631470D01*
X159317880Y-142631563D01*
X159320019Y-142632298D01*
X159431197Y-142650849D01*
X159431528Y-142650906D01*
X159449025Y-142653906D01*
X159504595Y-142678553D01*
X159541772Y-142726651D01*
X159551621Y-142786638D01*
X159531775Y-142844098D01*
X159487004Y-142885221D01*
X159428068Y-142900122D01*
X154479255Y-142900122D01*
X154420318Y-142885220D01*
X154375547Y-142844097D01*
X154355702Y-142786637D01*
X154365552Y-142726649D01*
X154402730Y-142678552D01*
X154452799Y-142656344D01*
X154452540Y-142655347D01*
X154501926Y-142642487D01*
X154512760Y-142640177D01*
X154559981Y-142632298D01*
X154571175Y-142628455D01*
X154614945Y-142613428D01*
X154623941Y-142610716D01*
X154683249Y-142595275D01*
X154726649Y-142575656D01*
X154737454Y-142571371D01*
X154774650Y-142558602D01*
X154774649Y-142558602D01*
X154779503Y-142556936D01*
X154833611Y-142527653D01*
X154841541Y-142523721D01*
X154900486Y-142497077D01*
X154937120Y-142472316D01*
X154947503Y-142466018D01*
X154983626Y-142446470D01*
X155003229Y-142431212D01*
X155034879Y-142406578D01*
X155041608Y-142401694D01*
X155043668Y-142400302D01*
X155098003Y-142363579D01*
X155127454Y-142335351D01*
X155137067Y-142327041D01*
X155166784Y-142303913D01*
X155170262Y-142300134D01*
X155170266Y-142300131D01*
X155213070Y-142253632D01*
X155218490Y-142248100D01*
X155270118Y-142198621D01*
X155292343Y-142168569D01*
X155300805Y-142158324D01*
X155323979Y-142133153D01*
X155363233Y-142073067D01*
X155367312Y-142067203D01*
X155411879Y-142006947D01*
X155427166Y-141976624D01*
X155434071Y-141964643D01*
X155450924Y-141938849D01*
X155481130Y-141869984D01*
X155483927Y-141864045D01*
X155519207Y-141794074D01*
X155528152Y-141764864D01*
X155533156Y-141751378D01*
X155544157Y-141726300D01*
X155563450Y-141650110D01*
X155565088Y-141644255D01*
X155569448Y-141630017D01*
X155589016Y-141566123D01*
X155592459Y-141539228D01*
X155595251Y-141524535D01*
X155601134Y-141501305D01*
X155607903Y-141419600D01*
X155608485Y-141414094D01*
X155618629Y-141334880D01*
X155618629Y-141334876D01*
X155619298Y-141329654D01*
X155618291Y-141305961D01*
X155618602Y-141290481D01*
X155620300Y-141270000D01*
X155613248Y-141184905D01*
X155612938Y-141179944D01*
X155610642Y-141125885D01*
X155609180Y-141091468D01*
X155604908Y-141071646D01*
X155602547Y-141055753D01*
X155601134Y-141038695D01*
X155579328Y-140952589D01*
X155578336Y-140948354D01*
X155558954Y-140858419D01*
X155552667Y-140842773D01*
X155547521Y-140826988D01*
X155544157Y-140813700D01*
X155507102Y-140729224D01*
X155505621Y-140725696D01*
X155495546Y-140700623D01*
X155470064Y-140637210D01*
X155463019Y-140625768D01*
X155455054Y-140610567D01*
X155450924Y-140601151D01*
X155398628Y-140521106D01*
X155396879Y-140518350D01*
X155345069Y-140434205D01*
X155338454Y-140426689D01*
X155327733Y-140412592D01*
X155326790Y-140411150D01*
X155323979Y-140406847D01*
X155256876Y-140333953D01*
X155255068Y-140331944D01*
X155220097Y-140292210D01*
X155187564Y-140255245D01*
X155182441Y-140251108D01*
X155174083Y-140243275D01*
X155174031Y-140243333D01*
X155170250Y-140239852D01*
X155166784Y-140236087D01*
X155162748Y-140232946D01*
X155162743Y-140232941D01*
X155085936Y-140173161D01*
X155084198Y-140171783D01*
X155006178Y-140108786D01*
X155002080Y-140105477D01*
X154997482Y-140102908D01*
X154994909Y-140101169D01*
X154992039Y-140099369D01*
X154991965Y-140099484D01*
X154987673Y-140096680D01*
X154983626Y-140093530D01*
X154979119Y-140091091D01*
X154979113Y-140091087D01*
X154890552Y-140043161D01*
X154889094Y-140042359D01*
X154798553Y-139991779D01*
X154798551Y-139991778D01*
X154793954Y-139989210D01*
X154788987Y-139987454D01*
X154787804Y-139986920D01*
X154783441Y-139985194D01*
X154779503Y-139983064D01*
X154774656Y-139981400D01*
X154676278Y-139947626D01*
X154675234Y-139947262D01*
X154574143Y-139911545D01*
X154574135Y-139911543D01*
X154569171Y-139909789D01*
X154563980Y-139908898D01*
X154562557Y-139908528D01*
X154562114Y-139908434D01*
X154559981Y-139907702D01*
X154554940Y-139906860D01*
X154554933Y-139906859D01*
X154448772Y-139889144D01*
X154448533Y-139889103D01*
X154334200Y-139869500D01*
X154331049Y-139869500D01*
X154098951Y-139869500D01*
X154093888Y-139870344D01*
X154093885Y-139870345D01*
X154044992Y-139878503D01*
X154035102Y-139879747D01*
X153982704Y-139884207D01*
X153982697Y-139884208D01*
X153977459Y-139884654D01*
X153972373Y-139885977D01*
X153972368Y-139885979D01*
X153928078Y-139897511D01*
X153917248Y-139899819D01*
X153875083Y-139906855D01*
X153875060Y-139906860D01*
X153870019Y-139907702D01*
X153865179Y-139909363D01*
X153865173Y-139909365D01*
X153815067Y-139926567D01*
X153806052Y-139929284D01*
X153751846Y-139943398D01*
X153751842Y-139943399D01*
X153746751Y-139944725D01*
X153741962Y-139946889D01*
X153741944Y-139946896D01*
X153703361Y-139964337D01*
X153692554Y-139968624D01*
X153655358Y-139981394D01*
X153655346Y-139981399D01*
X153650497Y-139983064D01*
X153645985Y-139985505D01*
X153645982Y-139985507D01*
X153596396Y-140012341D01*
X153588459Y-140016276D01*
X153534316Y-140040751D01*
X153534303Y-140040757D01*
X153529514Y-140042923D01*
X153525160Y-140045864D01*
X153525152Y-140045870D01*
X153492881Y-140067680D01*
X153482472Y-140073993D01*
X153450888Y-140091087D01*
X153446374Y-140093530D01*
X153442330Y-140096677D01*
X153442320Y-140096684D01*
X153395124Y-140133417D01*
X153388403Y-140138296D01*
X153338859Y-140171783D01*
X153331997Y-140176421D01*
X153328200Y-140180059D01*
X153328190Y-140180068D01*
X153302549Y-140204643D01*
X153292916Y-140212969D01*
X153267267Y-140232932D01*
X153267253Y-140232944D01*
X153263216Y-140236087D01*
X153259745Y-140239856D01*
X153259741Y-140239861D01*
X153216927Y-140286369D01*
X153211499Y-140291907D01*
X153163685Y-140337733D01*
X153163678Y-140337739D01*
X153159882Y-140341379D01*
X153156751Y-140345612D01*
X153156746Y-140345618D01*
X153137659Y-140371425D01*
X153129197Y-140381670D01*
X153109492Y-140403075D01*
X153109484Y-140403084D01*
X153106021Y-140406847D01*
X153103221Y-140411132D01*
X153103216Y-140411139D01*
X153066781Y-140466906D01*
X153062671Y-140472814D01*
X153021253Y-140528816D01*
X153021245Y-140528828D01*
X153018121Y-140533053D01*
X153015758Y-140537739D01*
X153015749Y-140537754D01*
X153002827Y-140563383D01*
X152995918Y-140575370D01*
X152979076Y-140601151D01*
X152977017Y-140605845D01*
X152977016Y-140605847D01*
X152948886Y-140669975D01*
X152946055Y-140675986D01*
X152913164Y-140741222D01*
X152913161Y-140741228D01*
X152910793Y-140745926D01*
X152909250Y-140750961D01*
X152909249Y-140750966D01*
X152901847Y-140775132D01*
X152896843Y-140788619D01*
X152887902Y-140809004D01*
X152887899Y-140809011D01*
X152885843Y-140813700D01*
X152884585Y-140818665D01*
X152884585Y-140818667D01*
X152866552Y-140889872D01*
X152864912Y-140895737D01*
X152842528Y-140968833D01*
X152842526Y-140968840D01*
X152840984Y-140973877D01*
X152840315Y-140979101D01*
X152837538Y-141000778D01*
X152834751Y-141015452D01*
X152828866Y-141038695D01*
X152828443Y-141043805D01*
X152828442Y-141043810D01*
X152822097Y-141120377D01*
X152821517Y-141125885D01*
X152813958Y-141184922D01*
X152810702Y-141210346D01*
X152810925Y-141215602D01*
X152810925Y-141215606D01*
X152811707Y-141234026D01*
X152811396Y-141249518D01*
X152810123Y-141264889D01*
X152809700Y-141270000D01*
X152810123Y-141275106D01*
X152816750Y-141355097D01*
X152817061Y-141360071D01*
X152819591Y-141419607D01*
X152820820Y-141448532D01*
X152821928Y-141453676D01*
X152821929Y-141453679D01*
X152825093Y-141468358D01*
X152827451Y-141484234D01*
X152828442Y-141496197D01*
X152828443Y-141496204D01*
X152828866Y-141501305D01*
X152830123Y-141506270D01*
X152830124Y-141506274D01*
X152850660Y-141587372D01*
X152851671Y-141591685D01*
X152869935Y-141676429D01*
X152869937Y-141676436D01*
X152871046Y-141681581D01*
X152873012Y-141686473D01*
X152877334Y-141697230D01*
X152882478Y-141713013D01*
X152884583Y-141721327D01*
X152884584Y-141721330D01*
X152885843Y-141726300D01*
X152887901Y-141730993D01*
X152887905Y-141731003D01*
X152922875Y-141810727D01*
X152924370Y-141814284D01*
X152959936Y-141902790D01*
X152962694Y-141907270D01*
X152962695Y-141907271D01*
X152966980Y-141914231D01*
X152974943Y-141929430D01*
X152977008Y-141934137D01*
X152977013Y-141934147D01*
X152979076Y-141938849D01*
X152981881Y-141943142D01*
X152981883Y-141943146D01*
X153031366Y-142018886D01*
X153033146Y-142021692D01*
X153061150Y-142067173D01*
X153084931Y-142105795D01*
X153091539Y-142113303D01*
X153102267Y-142127408D01*
X153103213Y-142128856D01*
X153103216Y-142128860D01*
X153106021Y-142133153D01*
X153109496Y-142136928D01*
X153109497Y-142136929D01*
X153173077Y-142205996D01*
X153174930Y-142208054D01*
X153242436Y-142284755D01*
X153246532Y-142288063D01*
X153246538Y-142288068D01*
X153247567Y-142288899D01*
X153255920Y-142296727D01*
X153255973Y-142296670D01*
X153259744Y-142300141D01*
X153263216Y-142303913D01*
X153303617Y-142335358D01*
X153344062Y-142366837D01*
X153345795Y-142368211D01*
X153427920Y-142434523D01*
X153432523Y-142437094D01*
X153436881Y-142440040D01*
X153436789Y-142440174D01*
X153437809Y-142440860D01*
X153438035Y-142440516D01*
X153442324Y-142443318D01*
X153446374Y-142446470D01*
X153539504Y-142496869D01*
X153540844Y-142497606D01*
X153636046Y-142550790D01*
X153641021Y-142552547D01*
X153642190Y-142553076D01*
X153646552Y-142554801D01*
X153650497Y-142556936D01*
X153753944Y-142592449D01*
X153754697Y-142592712D01*
X153855858Y-142628455D01*
X153855862Y-142628456D01*
X153860829Y-142630211D01*
X153866021Y-142631100D01*
X153867439Y-142631470D01*
X153867880Y-142631563D01*
X153870019Y-142632298D01*
X153981197Y-142650849D01*
X153981528Y-142650906D01*
X153999025Y-142653906D01*
X154054595Y-142678553D01*
X154091772Y-142726651D01*
X154101621Y-142786638D01*
X154081775Y-142844098D01*
X154037004Y-142885221D01*
X153978068Y-142900122D01*
X148587863Y-142900122D01*
X148523998Y-142882411D01*
X148478378Y-142834337D01*
X148464033Y-142769632D01*
X148485062Y-142706782D01*
X148535458Y-142663740D01*
X148611126Y-142628455D01*
X148727830Y-142574035D01*
X148921401Y-142438495D01*
X149088495Y-142271401D01*
X149224035Y-142077830D01*
X149323903Y-141863663D01*
X149385063Y-141635408D01*
X149405659Y-141400000D01*
X149385063Y-141164592D01*
X149323903Y-140936337D01*
X149224035Y-140722171D01*
X149151405Y-140618444D01*
X149108433Y-140557073D01*
X149086650Y-140498552D01*
X149096149Y-140436836D01*
X149134519Y-140387576D01*
X149195442Y-140340829D01*
X149240829Y-140295442D01*
X149321163Y-140190750D01*
X149371662Y-140068834D01*
X149388275Y-140006834D01*
X149405500Y-139876000D01*
X149405500Y-138861817D01*
X149405659Y-138860000D01*
X149405500Y-138858183D01*
X149405500Y-138240000D01*
X153259723Y-138240000D01*
X153261332Y-138258399D01*
X153261678Y-138274750D01*
X153260959Y-138290765D01*
X153260959Y-138290773D01*
X153260710Y-138296330D01*
X153261456Y-138301844D01*
X153261457Y-138301845D01*
X153271444Y-138375576D01*
X153272094Y-138381412D01*
X153278321Y-138452585D01*
X153278793Y-138457977D01*
X153280192Y-138463199D01*
X153280193Y-138463203D01*
X153284461Y-138479131D01*
X153287564Y-138494577D01*
X153290178Y-138513878D01*
X153290179Y-138513885D01*
X153290925Y-138519387D01*
X153292641Y-138524668D01*
X153292643Y-138524677D01*
X153314573Y-138592169D01*
X153316417Y-138598393D01*
X153325437Y-138632055D01*
X153335425Y-138669330D01*
X153337710Y-138674230D01*
X153337714Y-138674241D01*
X153346135Y-138692300D01*
X153351682Y-138706381D01*
X153358761Y-138728166D01*
X153358763Y-138728171D01*
X153360483Y-138733464D01*
X153363118Y-138738360D01*
X153363122Y-138738370D01*
X153395127Y-138797846D01*
X153398315Y-138804199D01*
X153427898Y-138867639D01*
X153431004Y-138872076D01*
X153431006Y-138872078D01*
X153444406Y-138891215D01*
X153452025Y-138903578D01*
X153467148Y-138931681D01*
X153495583Y-138967337D01*
X153510587Y-138986152D01*
X153515214Y-138992341D01*
X153550290Y-139042434D01*
X153550295Y-139042440D01*
X153553402Y-139046877D01*
X153557231Y-139050706D01*
X153557233Y-139050708D01*
X153576186Y-139069661D01*
X153585452Y-139080029D01*
X153597716Y-139095408D01*
X153607492Y-139107666D01*
X153611679Y-139111324D01*
X153611680Y-139111325D01*
X153657388Y-139151259D01*
X153663483Y-139156958D01*
X153708123Y-139201598D01*
X153712562Y-139204706D01*
X153712567Y-139204710D01*
X153737329Y-139222048D01*
X153747794Y-139230245D01*
X153772806Y-139252098D01*
X153772811Y-139252101D01*
X153777004Y-139255765D01*
X153781784Y-139258621D01*
X153781787Y-139258623D01*
X153830923Y-139287980D01*
X153838449Y-139292854D01*
X153882923Y-139323995D01*
X153882927Y-139323997D01*
X153887361Y-139327102D01*
X153922799Y-139343627D01*
X153933991Y-139349560D01*
X153970236Y-139371215D01*
X153975452Y-139373172D01*
X153975451Y-139373172D01*
X154025838Y-139392082D01*
X154034660Y-139395787D01*
X154085670Y-139419575D01*
X154115326Y-139427521D01*
X154126757Y-139430584D01*
X154138233Y-139434265D01*
X154180976Y-139450307D01*
X154236024Y-139460296D01*
X154245973Y-139462528D01*
X154291790Y-139474805D01*
X154291792Y-139474805D01*
X154297023Y-139476207D01*
X154341197Y-139480071D01*
X154342814Y-139480213D01*
X154354148Y-139481734D01*
X154371460Y-139484875D01*
X154402453Y-139490500D01*
X154454985Y-139490500D01*
X154465792Y-139490972D01*
X154515000Y-139495277D01*
X154568283Y-139490615D01*
X154570026Y-139490500D01*
X154571155Y-139490500D01*
X154625172Y-139485638D01*
X154625180Y-139485727D01*
X154625479Y-139485611D01*
X154732977Y-139476207D01*
X154734499Y-139475798D01*
X154739188Y-139475377D01*
X154842621Y-139446829D01*
X154843422Y-139446611D01*
X154944330Y-139419575D01*
X154947417Y-139418134D01*
X154949344Y-139417519D01*
X154950783Y-139416978D01*
X154956170Y-139415493D01*
X155049951Y-139370329D01*
X155051007Y-139369830D01*
X155142639Y-139327102D01*
X155147089Y-139323984D01*
X155147602Y-139323689D01*
X155152677Y-139321007D01*
X155153942Y-139320250D01*
X155158973Y-139317829D01*
X155240325Y-139258721D01*
X155241993Y-139257531D01*
X155321877Y-139201598D01*
X155325712Y-139197763D01*
X155329857Y-139194285D01*
X155330039Y-139194502D01*
X155332397Y-139192488D01*
X155332375Y-139192462D01*
X155336568Y-139188797D01*
X155341078Y-139185522D01*
X155408196Y-139115320D01*
X155410054Y-139113419D01*
X155476598Y-139046877D01*
X155479710Y-139042431D01*
X155482953Y-139038567D01*
X155491239Y-139028465D01*
X155496632Y-139022825D01*
X155548256Y-138944616D01*
X155550106Y-138941895D01*
X155602102Y-138867639D01*
X155605535Y-138860277D01*
X155614438Y-138844356D01*
X155614830Y-138843761D01*
X155620635Y-138834968D01*
X155656104Y-138751982D01*
X155657735Y-138748331D01*
X155664668Y-138733464D01*
X155694575Y-138669330D01*
X155697569Y-138658152D01*
X155703325Y-138641505D01*
X155709103Y-138627988D01*
X155728436Y-138543279D01*
X155729533Y-138538863D01*
X155749804Y-138463213D01*
X155749804Y-138463212D01*
X155751207Y-138457977D01*
X155752516Y-138443005D01*
X155755153Y-138426227D01*
X155757081Y-138417779D01*
X155759191Y-138408537D01*
X155762932Y-138325227D01*
X155763279Y-138319984D01*
X155769805Y-138245395D01*
X155770277Y-138240000D01*
X158109723Y-138240000D01*
X158111332Y-138258399D01*
X158111678Y-138274750D01*
X158110959Y-138290765D01*
X158110959Y-138290773D01*
X158110710Y-138296330D01*
X158111456Y-138301844D01*
X158111457Y-138301845D01*
X158121444Y-138375576D01*
X158122094Y-138381412D01*
X158128321Y-138452585D01*
X158128793Y-138457977D01*
X158130192Y-138463199D01*
X158130193Y-138463203D01*
X158134461Y-138479131D01*
X158137564Y-138494577D01*
X158140178Y-138513878D01*
X158140179Y-138513885D01*
X158140925Y-138519387D01*
X158142641Y-138524668D01*
X158142643Y-138524677D01*
X158164573Y-138592169D01*
X158166417Y-138598393D01*
X158175437Y-138632055D01*
X158185425Y-138669330D01*
X158187710Y-138674230D01*
X158187714Y-138674241D01*
X158196135Y-138692300D01*
X158201682Y-138706381D01*
X158208761Y-138728166D01*
X158208763Y-138728171D01*
X158210483Y-138733464D01*
X158213118Y-138738360D01*
X158213122Y-138738370D01*
X158245127Y-138797846D01*
X158248315Y-138804199D01*
X158277898Y-138867639D01*
X158281004Y-138872076D01*
X158281006Y-138872078D01*
X158294406Y-138891215D01*
X158302025Y-138903578D01*
X158317148Y-138931681D01*
X158345583Y-138967337D01*
X158360587Y-138986152D01*
X158365214Y-138992341D01*
X158400290Y-139042434D01*
X158400295Y-139042440D01*
X158403402Y-139046877D01*
X158407231Y-139050706D01*
X158407233Y-139050708D01*
X158426186Y-139069661D01*
X158435452Y-139080029D01*
X158447716Y-139095408D01*
X158457492Y-139107666D01*
X158461679Y-139111324D01*
X158461680Y-139111325D01*
X158507388Y-139151259D01*
X158513483Y-139156958D01*
X158558123Y-139201598D01*
X158562562Y-139204706D01*
X158562567Y-139204710D01*
X158587329Y-139222048D01*
X158597794Y-139230245D01*
X158622806Y-139252098D01*
X158622811Y-139252101D01*
X158627004Y-139255765D01*
X158631784Y-139258621D01*
X158631787Y-139258623D01*
X158680923Y-139287980D01*
X158688449Y-139292854D01*
X158732923Y-139323995D01*
X158732927Y-139323997D01*
X158737361Y-139327102D01*
X158772799Y-139343627D01*
X158783991Y-139349560D01*
X158820236Y-139371215D01*
X158825452Y-139373172D01*
X158825451Y-139373172D01*
X158875838Y-139392082D01*
X158884660Y-139395787D01*
X158935670Y-139419575D01*
X158965326Y-139427521D01*
X158976757Y-139430584D01*
X158988233Y-139434265D01*
X159030976Y-139450307D01*
X159086024Y-139460296D01*
X159095973Y-139462528D01*
X159141790Y-139474805D01*
X159141792Y-139474805D01*
X159147023Y-139476207D01*
X159191197Y-139480071D01*
X159192814Y-139480213D01*
X159204148Y-139481734D01*
X159221460Y-139484875D01*
X159252453Y-139490500D01*
X159304985Y-139490500D01*
X159315792Y-139490972D01*
X159365000Y-139495277D01*
X159418283Y-139490615D01*
X159420026Y-139490500D01*
X159421155Y-139490500D01*
X159475172Y-139485638D01*
X159475180Y-139485727D01*
X159475479Y-139485611D01*
X159582977Y-139476207D01*
X159584499Y-139475798D01*
X159589188Y-139475377D01*
X159692621Y-139446829D01*
X159693422Y-139446611D01*
X159794330Y-139419575D01*
X159797417Y-139418134D01*
X159799344Y-139417519D01*
X159800783Y-139416978D01*
X159806170Y-139415493D01*
X159899951Y-139370329D01*
X159901007Y-139369830D01*
X159992639Y-139327102D01*
X159997089Y-139323984D01*
X159997602Y-139323689D01*
X160002677Y-139321007D01*
X160003942Y-139320250D01*
X160008973Y-139317829D01*
X160090325Y-139258721D01*
X160091993Y-139257531D01*
X160171877Y-139201598D01*
X160175712Y-139197763D01*
X160179857Y-139194285D01*
X160180039Y-139194502D01*
X160182397Y-139192488D01*
X160182375Y-139192462D01*
X160186568Y-139188797D01*
X160191078Y-139185522D01*
X160258196Y-139115320D01*
X160260054Y-139113419D01*
X160326598Y-139046877D01*
X160329710Y-139042431D01*
X160332953Y-139038567D01*
X160341239Y-139028465D01*
X160346632Y-139022825D01*
X160398256Y-138944616D01*
X160400106Y-138941895D01*
X160452102Y-138867639D01*
X160455535Y-138860277D01*
X160464438Y-138844356D01*
X160464830Y-138843761D01*
X160470635Y-138834968D01*
X160506104Y-138751982D01*
X160507735Y-138748331D01*
X160514668Y-138733464D01*
X160544575Y-138669330D01*
X160547569Y-138658152D01*
X160553325Y-138641505D01*
X160559103Y-138627988D01*
X160578436Y-138543279D01*
X160579533Y-138538863D01*
X160599804Y-138463213D01*
X160599804Y-138463212D01*
X160601207Y-138457977D01*
X160602516Y-138443005D01*
X160605153Y-138426227D01*
X160607081Y-138417779D01*
X160609191Y-138408537D01*
X160612932Y-138325227D01*
X160613279Y-138319984D01*
X160619805Y-138245395D01*
X160620277Y-138240000D01*
X160618667Y-138221608D01*
X160618321Y-138205239D01*
X160619040Y-138189229D01*
X160619290Y-138183670D01*
X160608549Y-138104380D01*
X160607905Y-138098600D01*
X160601207Y-138022023D01*
X160595537Y-138000866D01*
X160592434Y-137985414D01*
X160589823Y-137966136D01*
X160589075Y-137960613D01*
X160565421Y-137887816D01*
X160563578Y-137881592D01*
X160555652Y-137852012D01*
X160544575Y-137810670D01*
X160533861Y-137787696D01*
X160528316Y-137773617D01*
X160521239Y-137751834D01*
X160521236Y-137751827D01*
X160519517Y-137746536D01*
X160486922Y-137685965D01*
X160484869Y-137682149D01*
X160481681Y-137675794D01*
X160454390Y-137617269D01*
X160452102Y-137612362D01*
X160435591Y-137588782D01*
X160427975Y-137576423D01*
X160415491Y-137553223D01*
X160415490Y-137553221D01*
X160412852Y-137548319D01*
X160378157Y-137504813D01*
X160369404Y-137493837D01*
X160364776Y-137487647D01*
X160329703Y-137437558D01*
X160326598Y-137433123D01*
X160303812Y-137410337D01*
X160294546Y-137399968D01*
X160275981Y-137376689D01*
X160275980Y-137376688D01*
X160272508Y-137372334D01*
X160268318Y-137368673D01*
X160268313Y-137368668D01*
X160222610Y-137328738D01*
X160216514Y-137323039D01*
X160175706Y-137282231D01*
X160171877Y-137278402D01*
X160149559Y-137262775D01*
X160142664Y-137257947D01*
X160132202Y-137249752D01*
X160126796Y-137245029D01*
X160102996Y-137224235D01*
X160049065Y-137192013D01*
X160041550Y-137187145D01*
X159997073Y-137156002D01*
X159997067Y-137155998D01*
X159992639Y-137152898D01*
X159957200Y-137136372D01*
X159946015Y-137130442D01*
X159914545Y-137111640D01*
X159914532Y-137111634D01*
X159909764Y-137108785D01*
X159854167Y-137087919D01*
X159845349Y-137084216D01*
X159794330Y-137060425D01*
X159753228Y-137049411D01*
X159741768Y-137045735D01*
X159699024Y-137029693D01*
X159693545Y-137028698D01*
X159693543Y-137028698D01*
X159643965Y-137019700D01*
X159634018Y-137017468D01*
X159588212Y-137005195D01*
X159588204Y-137005193D01*
X159582977Y-137003793D01*
X159577583Y-137003321D01*
X159537175Y-136999785D01*
X159525857Y-136998266D01*
X159477547Y-136989500D01*
X159471973Y-136989500D01*
X159425015Y-136989500D01*
X159414208Y-136989028D01*
X159370395Y-136985195D01*
X159365000Y-136984723D01*
X159359605Y-136985195D01*
X159311722Y-136989384D01*
X159309969Y-136989500D01*
X159308845Y-136989500D01*
X159306082Y-136989748D01*
X159306073Y-136989749D01*
X159254916Y-136994352D01*
X159254613Y-136994379D01*
X159150332Y-137003503D01*
X159150321Y-137003504D01*
X159147023Y-137003793D01*
X159145500Y-137004201D01*
X159140812Y-137004623D01*
X159135457Y-137006100D01*
X159135445Y-137006103D01*
X159037521Y-137033129D01*
X159036627Y-137033373D01*
X158940898Y-137059023D01*
X158940886Y-137059027D01*
X158935670Y-137060425D01*
X158932585Y-137061862D01*
X158930616Y-137062492D01*
X158929186Y-137063028D01*
X158923830Y-137064507D01*
X158918826Y-137066916D01*
X158918817Y-137066920D01*
X158830246Y-137109573D01*
X158828852Y-137110233D01*
X158742268Y-137150608D01*
X158742247Y-137150619D01*
X158737362Y-137152898D01*
X158732939Y-137155993D01*
X158732366Y-137156325D01*
X158727291Y-137159008D01*
X158726031Y-137159760D01*
X158721027Y-137162171D01*
X158716539Y-137165431D01*
X158716525Y-137165440D01*
X158639661Y-137221284D01*
X158637903Y-137222538D01*
X158562558Y-137275296D01*
X158562554Y-137275299D01*
X158558123Y-137278402D01*
X158554295Y-137282229D01*
X158550147Y-137285710D01*
X158549968Y-137285497D01*
X158547600Y-137287518D01*
X158547620Y-137287541D01*
X158543425Y-137291205D01*
X158538922Y-137294478D01*
X158535075Y-137298501D01*
X158535071Y-137298505D01*
X158471846Y-137364632D01*
X158469904Y-137366619D01*
X158407225Y-137429299D01*
X158407220Y-137429304D01*
X158403402Y-137433123D01*
X158400300Y-137437551D01*
X158397210Y-137441235D01*
X158388782Y-137451511D01*
X158387217Y-137453147D01*
X158387208Y-137453158D01*
X158383368Y-137457175D01*
X158380304Y-137461815D01*
X158380302Y-137461819D01*
X158331775Y-137535333D01*
X158329865Y-137538141D01*
X158281004Y-137607923D01*
X158280993Y-137607940D01*
X158277898Y-137612362D01*
X158275614Y-137617258D01*
X158275605Y-137617275D01*
X158274454Y-137619744D01*
X158265575Y-137635622D01*
X158262433Y-137640381D01*
X158262424Y-137640396D01*
X158259365Y-137645032D01*
X158257179Y-137650146D01*
X158257177Y-137650150D01*
X158223893Y-137728021D01*
X158222254Y-137731689D01*
X158187712Y-137805763D01*
X158187707Y-137805774D01*
X158185425Y-137810670D01*
X158184026Y-137815886D01*
X158184021Y-137815903D01*
X158182424Y-137821863D01*
X158176682Y-137838473D01*
X158173085Y-137846889D01*
X158173080Y-137846902D01*
X158170897Y-137852012D01*
X158169659Y-137857435D01*
X158169655Y-137857448D01*
X158151574Y-137936660D01*
X158150460Y-137941156D01*
X158128793Y-138022023D01*
X158128321Y-138027415D01*
X158128319Y-138027427D01*
X158127481Y-138036999D01*
X158124848Y-138053761D01*
X158122047Y-138066035D01*
X158122045Y-138066042D01*
X158120809Y-138071463D01*
X158120559Y-138077023D01*
X158120559Y-138077025D01*
X158117066Y-138154776D01*
X158116719Y-138160016D01*
X158110195Y-138234603D01*
X158109723Y-138240000D01*
X155770277Y-138240000D01*
X155768667Y-138221608D01*
X155768321Y-138205239D01*
X155769040Y-138189229D01*
X155769290Y-138183670D01*
X155758549Y-138104380D01*
X155757905Y-138098600D01*
X155751207Y-138022023D01*
X155745537Y-138000866D01*
X155742434Y-137985414D01*
X155739823Y-137966136D01*
X155739075Y-137960613D01*
X155715421Y-137887816D01*
X155713578Y-137881592D01*
X155705652Y-137852012D01*
X155694575Y-137810670D01*
X155683861Y-137787696D01*
X155678316Y-137773617D01*
X155671239Y-137751834D01*
X155671236Y-137751827D01*
X155669517Y-137746536D01*
X155636922Y-137685965D01*
X155634869Y-137682149D01*
X155631681Y-137675794D01*
X155604390Y-137617269D01*
X155602102Y-137612362D01*
X155585591Y-137588782D01*
X155577975Y-137576423D01*
X155565491Y-137553223D01*
X155565490Y-137553221D01*
X155562852Y-137548319D01*
X155528157Y-137504813D01*
X155519404Y-137493837D01*
X155514776Y-137487647D01*
X155479703Y-137437558D01*
X155476598Y-137433123D01*
X155453812Y-137410337D01*
X155444546Y-137399968D01*
X155425981Y-137376689D01*
X155425980Y-137376688D01*
X155422508Y-137372334D01*
X155418318Y-137368673D01*
X155418313Y-137368668D01*
X155372610Y-137328738D01*
X155366514Y-137323039D01*
X155325706Y-137282231D01*
X155321877Y-137278402D01*
X155299559Y-137262775D01*
X155292664Y-137257947D01*
X155282202Y-137249752D01*
X155276796Y-137245029D01*
X155252996Y-137224235D01*
X155199065Y-137192013D01*
X155191550Y-137187145D01*
X155147073Y-137156002D01*
X155147067Y-137155998D01*
X155142639Y-137152898D01*
X155107200Y-137136372D01*
X155096015Y-137130442D01*
X155064545Y-137111640D01*
X155064532Y-137111634D01*
X155059764Y-137108785D01*
X155004167Y-137087919D01*
X154995349Y-137084216D01*
X154944330Y-137060425D01*
X154903228Y-137049411D01*
X154891768Y-137045735D01*
X154849024Y-137029693D01*
X154843545Y-137028698D01*
X154843543Y-137028698D01*
X154793965Y-137019700D01*
X154784018Y-137017468D01*
X154738212Y-137005195D01*
X154738204Y-137005193D01*
X154732977Y-137003793D01*
X154727583Y-137003321D01*
X154687175Y-136999785D01*
X154675857Y-136998266D01*
X154627547Y-136989500D01*
X154621973Y-136989500D01*
X154575015Y-136989500D01*
X154564208Y-136989028D01*
X154520395Y-136985195D01*
X154515000Y-136984723D01*
X154509605Y-136985195D01*
X154461722Y-136989384D01*
X154459969Y-136989500D01*
X154458845Y-136989500D01*
X154456082Y-136989748D01*
X154456073Y-136989749D01*
X154404916Y-136994352D01*
X154404613Y-136994379D01*
X154300332Y-137003503D01*
X154300321Y-137003504D01*
X154297023Y-137003793D01*
X154295500Y-137004201D01*
X154290812Y-137004623D01*
X154285457Y-137006100D01*
X154285445Y-137006103D01*
X154187521Y-137033129D01*
X154186627Y-137033373D01*
X154090898Y-137059023D01*
X154090886Y-137059027D01*
X154085670Y-137060425D01*
X154082585Y-137061862D01*
X154080616Y-137062492D01*
X154079186Y-137063028D01*
X154073830Y-137064507D01*
X154068826Y-137066916D01*
X154068817Y-137066920D01*
X153980246Y-137109573D01*
X153978852Y-137110233D01*
X153892268Y-137150608D01*
X153892247Y-137150619D01*
X153887362Y-137152898D01*
X153882939Y-137155993D01*
X153882366Y-137156325D01*
X153877291Y-137159008D01*
X153876031Y-137159760D01*
X153871027Y-137162171D01*
X153866539Y-137165431D01*
X153866525Y-137165440D01*
X153789661Y-137221284D01*
X153787903Y-137222538D01*
X153712558Y-137275296D01*
X153712554Y-137275299D01*
X153708123Y-137278402D01*
X153704295Y-137282229D01*
X153700147Y-137285710D01*
X153699968Y-137285497D01*
X153697600Y-137287518D01*
X153697620Y-137287541D01*
X153693425Y-137291205D01*
X153688922Y-137294478D01*
X153685075Y-137298501D01*
X153685071Y-137298505D01*
X153621846Y-137364632D01*
X153619904Y-137366619D01*
X153557225Y-137429299D01*
X153557220Y-137429304D01*
X153553402Y-137433123D01*
X153550300Y-137437551D01*
X153547210Y-137441235D01*
X153538782Y-137451511D01*
X153537217Y-137453147D01*
X153537208Y-137453158D01*
X153533368Y-137457175D01*
X153530304Y-137461815D01*
X153530302Y-137461819D01*
X153481775Y-137535333D01*
X153479865Y-137538141D01*
X153431004Y-137607923D01*
X153430993Y-137607940D01*
X153427898Y-137612362D01*
X153425614Y-137617258D01*
X153425605Y-137617275D01*
X153424454Y-137619744D01*
X153415575Y-137635622D01*
X153412433Y-137640381D01*
X153412424Y-137640396D01*
X153409365Y-137645032D01*
X153407179Y-137650146D01*
X153407177Y-137650150D01*
X153373893Y-137728021D01*
X153372254Y-137731689D01*
X153337712Y-137805763D01*
X153337707Y-137805774D01*
X153335425Y-137810670D01*
X153334026Y-137815886D01*
X153334021Y-137815903D01*
X153332424Y-137821863D01*
X153326682Y-137838473D01*
X153323085Y-137846889D01*
X153323080Y-137846902D01*
X153320897Y-137852012D01*
X153319659Y-137857435D01*
X153319655Y-137857448D01*
X153301574Y-137936660D01*
X153300460Y-137941156D01*
X153278793Y-138022023D01*
X153278321Y-138027415D01*
X153278319Y-138027427D01*
X153277481Y-138036999D01*
X153274848Y-138053761D01*
X153272047Y-138066035D01*
X153272045Y-138066042D01*
X153270809Y-138071463D01*
X153270559Y-138077023D01*
X153270559Y-138077025D01*
X153267066Y-138154776D01*
X153266719Y-138160016D01*
X153260195Y-138234603D01*
X153259723Y-138240000D01*
X149405500Y-138240000D01*
X149405500Y-137874000D01*
X149388275Y-137743166D01*
X149371662Y-137681166D01*
X149321163Y-137559250D01*
X149312775Y-137548319D01*
X149266219Y-137487647D01*
X149240829Y-137454558D01*
X149195442Y-137409171D01*
X149138733Y-137365656D01*
X149097199Y-137333785D01*
X149097196Y-137333783D01*
X149090750Y-137328837D01*
X149083241Y-137325726D01*
X149083240Y-137325726D01*
X148972589Y-137279893D01*
X148972584Y-137279891D01*
X148968834Y-137278338D01*
X148964913Y-137277287D01*
X148964909Y-137277286D01*
X148910754Y-137262775D01*
X148910748Y-137262773D01*
X148906834Y-137261725D01*
X148902819Y-137261196D01*
X148902807Y-137261194D01*
X148780019Y-137245029D01*
X148780017Y-137245028D01*
X148776000Y-137244500D01*
X136774000Y-137244500D01*
X136769983Y-137245028D01*
X136769980Y-137245029D01*
X136647192Y-137261194D01*
X136647177Y-137261196D01*
X136643166Y-137261725D01*
X136639254Y-137262773D01*
X136639245Y-137262775D01*
X136585090Y-137277286D01*
X136585082Y-137277288D01*
X136581166Y-137278338D01*
X136577420Y-137279889D01*
X136577410Y-137279893D01*
X136466759Y-137325726D01*
X136466754Y-137325728D01*
X136459250Y-137328837D01*
X136452806Y-137333780D01*
X136452800Y-137333785D01*
X136357789Y-137406691D01*
X136357782Y-137406696D01*
X136354558Y-137409171D01*
X136351685Y-137412043D01*
X136351677Y-137412051D01*
X136312051Y-137451677D01*
X136312043Y-137451685D01*
X136309171Y-137454558D01*
X136306696Y-137457782D01*
X136306691Y-137457789D01*
X136233785Y-137552800D01*
X136233780Y-137552806D01*
X136228837Y-137559250D01*
X136225728Y-137566754D01*
X136225726Y-137566759D01*
X136179893Y-137677410D01*
X136179889Y-137677420D01*
X136178338Y-137681166D01*
X136177288Y-137685082D01*
X136177286Y-137685090D01*
X136162775Y-137739245D01*
X136162773Y-137739254D01*
X136161725Y-137743166D01*
X136161196Y-137747177D01*
X136161194Y-137747192D01*
X136146679Y-137857448D01*
X136144500Y-137874000D01*
X136144500Y-139876000D01*
X136145028Y-139880017D01*
X136145029Y-139880019D01*
X136161194Y-140002807D01*
X136161196Y-140002819D01*
X136161725Y-140006834D01*
X136162773Y-140010748D01*
X136162775Y-140010754D01*
X136177286Y-140064909D01*
X136178338Y-140068834D01*
X136179891Y-140072584D01*
X136179893Y-140072589D01*
X136224412Y-140180068D01*
X136228837Y-140190750D01*
X136233783Y-140197196D01*
X136233785Y-140197199D01*
X136302209Y-140286369D01*
X136309171Y-140295442D01*
X136354558Y-140340829D01*
X136357789Y-140343308D01*
X136446186Y-140411139D01*
X136459250Y-140421163D01*
X136581166Y-140471662D01*
X136643166Y-140488275D01*
X136774000Y-140505500D01*
X146789478Y-140505500D01*
X146853806Y-140523491D01*
X146899467Y-140572243D01*
X146913213Y-140637610D01*
X146891053Y-140700623D01*
X146879073Y-140717731D01*
X146879068Y-140717738D01*
X146875965Y-140722171D01*
X146873677Y-140727077D01*
X146873675Y-140727081D01*
X146778386Y-140931427D01*
X146778383Y-140931432D01*
X146776097Y-140936337D01*
X146774698Y-140941557D01*
X146774694Y-140941569D01*
X146716337Y-141159365D01*
X146716335Y-141159371D01*
X146714937Y-141164592D01*
X146714465Y-141169977D01*
X146714465Y-141169982D01*
X146700038Y-141334880D01*
X146694341Y-141400000D01*
X146694813Y-141405395D01*
X146711111Y-141591685D01*
X146714937Y-141635408D01*
X146716336Y-141640630D01*
X146716337Y-141640634D01*
X146774694Y-141858430D01*
X146774697Y-141858438D01*
X146776097Y-141863663D01*
X146778385Y-141868570D01*
X146778386Y-141868572D01*
X146873678Y-142072927D01*
X146873681Y-142072933D01*
X146875965Y-142077830D01*
X146879064Y-142082257D01*
X146879066Y-142082259D01*
X147008399Y-142266966D01*
X147008402Y-142266970D01*
X147011505Y-142271401D01*
X147178599Y-142438495D01*
X147183031Y-142441598D01*
X147183033Y-142441600D01*
X147189988Y-142446470D01*
X147372170Y-142574035D01*
X147377070Y-142576320D01*
X147377072Y-142576321D01*
X147564542Y-142663740D01*
X147614938Y-142706782D01*
X147635967Y-142769632D01*
X147621622Y-142834337D01*
X147576002Y-142882411D01*
X147512137Y-142900122D01*
X90155413Y-142900122D01*
X90144605Y-142899650D01*
X89987224Y-142885880D01*
X89965938Y-142882127D01*
X89818586Y-142842644D01*
X89798275Y-142835251D01*
X89660021Y-142770782D01*
X89641303Y-142759975D01*
X89516340Y-142672475D01*
X89499781Y-142658581D01*
X89391911Y-142550710D01*
X89378018Y-142534152D01*
X89308258Y-142434523D01*
X89290519Y-142409189D01*
X89279714Y-142390473D01*
X89269009Y-142367515D01*
X89215243Y-142252213D01*
X89207855Y-142231916D01*
X89168369Y-142084550D01*
X89164617Y-142063266D01*
X89160856Y-142020277D01*
X89150838Y-141905762D01*
X89150367Y-141894955D01*
X89150367Y-141868572D01*
X89150368Y-141834601D01*
X89150367Y-141834597D01*
X89150367Y-137650555D01*
X90694355Y-137650555D01*
X90694525Y-137653799D01*
X90712714Y-138000868D01*
X90714655Y-138037893D01*
X90715160Y-138041086D01*
X90715162Y-138041098D01*
X90774822Y-138417779D01*
X90774824Y-138417792D01*
X90775331Y-138420988D01*
X90776168Y-138424112D01*
X90776170Y-138424121D01*
X90872241Y-138782662D01*
X90875719Y-138795642D01*
X90876876Y-138798657D01*
X90876879Y-138798665D01*
X90993824Y-139103315D01*
X91014719Y-139157749D01*
X91016188Y-139160632D01*
X91016192Y-139160641D01*
X91189011Y-139499818D01*
X91190808Y-139503344D01*
X91402057Y-139828639D01*
X91465661Y-139907183D01*
X91622747Y-140101169D01*
X91646152Y-140130071D01*
X91920417Y-140404336D01*
X92221849Y-140648431D01*
X92547144Y-140859680D01*
X92606399Y-140889872D01*
X92852864Y-141015452D01*
X92892739Y-141035769D01*
X93254846Y-141174769D01*
X93629500Y-141275157D01*
X94012595Y-141335833D01*
X94399933Y-141356133D01*
X94787271Y-141335833D01*
X95170366Y-141275157D01*
X95545020Y-141174769D01*
X95907127Y-141035769D01*
X96252722Y-140859680D01*
X96578017Y-140648431D01*
X96879449Y-140404336D01*
X97153714Y-140130071D01*
X97397809Y-139828639D01*
X97609058Y-139503344D01*
X97785147Y-139157749D01*
X97861034Y-138960056D01*
X112449500Y-138960056D01*
X112451293Y-138967332D01*
X112451294Y-138967337D01*
X112487780Y-139115368D01*
X112490210Y-139125225D01*
X112493693Y-139131862D01*
X112493695Y-139131866D01*
X112526214Y-139193824D01*
X112569266Y-139275852D01*
X112574239Y-139281466D01*
X112574241Y-139281468D01*
X112584328Y-139292854D01*
X112682071Y-139403183D01*
X112822070Y-139499818D01*
X112981128Y-139560140D01*
X113107628Y-139575500D01*
X113188623Y-139575500D01*
X113192372Y-139575500D01*
X113318872Y-139560140D01*
X113477930Y-139499818D01*
X113617929Y-139403183D01*
X113730734Y-139275852D01*
X113809790Y-139125225D01*
X113850500Y-138960056D01*
X119249500Y-138960056D01*
X119251293Y-138967332D01*
X119251294Y-138967337D01*
X119287780Y-139115368D01*
X119290210Y-139125225D01*
X119293693Y-139131862D01*
X119293695Y-139131866D01*
X119326214Y-139193824D01*
X119369266Y-139275852D01*
X119374239Y-139281466D01*
X119374241Y-139281468D01*
X119384328Y-139292854D01*
X119482071Y-139403183D01*
X119622070Y-139499818D01*
X119781128Y-139560140D01*
X119907628Y-139575500D01*
X119988623Y-139575500D01*
X119992372Y-139575500D01*
X120118872Y-139560140D01*
X120277930Y-139499818D01*
X120417929Y-139403183D01*
X120530734Y-139275852D01*
X120609790Y-139125225D01*
X120650500Y-138960056D01*
X120650500Y-138789944D01*
X120609790Y-138624775D01*
X120530734Y-138474148D01*
X120521046Y-138463213D01*
X120486414Y-138424121D01*
X120417929Y-138346817D01*
X120411760Y-138342558D01*
X120411758Y-138342557D01*
X120284106Y-138254445D01*
X120284105Y-138254444D01*
X120277930Y-138250182D01*
X120270915Y-138247521D01*
X120270912Y-138247520D01*
X120125888Y-138192520D01*
X120125882Y-138192518D01*
X120118872Y-138189860D01*
X120111427Y-138188956D01*
X120111423Y-138188955D01*
X119996092Y-138174951D01*
X119996080Y-138174950D01*
X119992372Y-138174500D01*
X119907628Y-138174500D01*
X119903920Y-138174950D01*
X119903907Y-138174951D01*
X119788576Y-138188955D01*
X119788570Y-138188956D01*
X119781128Y-138189860D01*
X119774119Y-138192517D01*
X119774111Y-138192520D01*
X119629087Y-138247520D01*
X119629081Y-138247523D01*
X119622070Y-138250182D01*
X119615897Y-138254442D01*
X119615893Y-138254445D01*
X119488241Y-138342557D01*
X119488235Y-138342562D01*
X119482071Y-138346817D01*
X119477099Y-138352428D01*
X119477098Y-138352430D01*
X119374241Y-138468531D01*
X119374236Y-138468537D01*
X119369266Y-138474148D01*
X119365780Y-138480788D01*
X119365779Y-138480791D01*
X119293695Y-138618133D01*
X119293692Y-138618140D01*
X119290210Y-138624775D01*
X119288416Y-138632050D01*
X119288415Y-138632055D01*
X119251294Y-138782662D01*
X119251293Y-138782668D01*
X119249500Y-138789944D01*
X119249500Y-138960056D01*
X113850500Y-138960056D01*
X113850500Y-138789944D01*
X113809790Y-138624775D01*
X113730734Y-138474148D01*
X113721046Y-138463213D01*
X113686414Y-138424121D01*
X113617929Y-138346817D01*
X113611760Y-138342558D01*
X113611758Y-138342557D01*
X113484106Y-138254445D01*
X113484105Y-138254444D01*
X113477930Y-138250182D01*
X113470915Y-138247521D01*
X113470912Y-138247520D01*
X113325888Y-138192520D01*
X113325882Y-138192518D01*
X113318872Y-138189860D01*
X113311427Y-138188956D01*
X113311423Y-138188955D01*
X113196092Y-138174951D01*
X113196080Y-138174950D01*
X113192372Y-138174500D01*
X113107628Y-138174500D01*
X113103920Y-138174950D01*
X113103907Y-138174951D01*
X112988576Y-138188955D01*
X112988570Y-138188956D01*
X112981128Y-138189860D01*
X112974119Y-138192517D01*
X112974111Y-138192520D01*
X112829087Y-138247520D01*
X112829081Y-138247523D01*
X112822070Y-138250182D01*
X112815897Y-138254442D01*
X112815893Y-138254445D01*
X112688241Y-138342557D01*
X112688235Y-138342562D01*
X112682071Y-138346817D01*
X112677099Y-138352428D01*
X112677098Y-138352430D01*
X112574241Y-138468531D01*
X112574236Y-138468537D01*
X112569266Y-138474148D01*
X112565780Y-138480788D01*
X112565779Y-138480791D01*
X112493695Y-138618133D01*
X112493692Y-138618140D01*
X112490210Y-138624775D01*
X112488416Y-138632050D01*
X112488415Y-138632055D01*
X112451294Y-138782662D01*
X112451293Y-138782668D01*
X112449500Y-138789944D01*
X112449500Y-138960056D01*
X97861034Y-138960056D01*
X97924147Y-138795642D01*
X98024535Y-138420988D01*
X98085211Y-138037893D01*
X98105511Y-137650555D01*
X98085211Y-137263217D01*
X98024535Y-136880122D01*
X97924147Y-136505468D01*
X97785147Y-136143361D01*
X97609058Y-135797766D01*
X97397809Y-135472471D01*
X97153714Y-135171039D01*
X96879449Y-134896774D01*
X96578017Y-134652679D01*
X96252722Y-134441430D01*
X96249834Y-134439958D01*
X96249828Y-134439955D01*
X95910019Y-134266814D01*
X95910010Y-134266810D01*
X95907127Y-134265341D01*
X95904095Y-134264177D01*
X95548043Y-134127501D01*
X95548035Y-134127498D01*
X95545020Y-134126341D01*
X95541895Y-134125503D01*
X95541890Y-134125502D01*
X95173499Y-134026792D01*
X95173490Y-134026790D01*
X95170366Y-134025953D01*
X95167170Y-134025446D01*
X95167157Y-134025444D01*
X94790476Y-133965784D01*
X94790464Y-133965782D01*
X94787271Y-133965277D01*
X94784036Y-133965107D01*
X94784032Y-133965107D01*
X94403177Y-133945147D01*
X94399933Y-133944977D01*
X94396689Y-133945147D01*
X94015833Y-133965107D01*
X94015827Y-133965107D01*
X94012595Y-133965277D01*
X94009403Y-133965782D01*
X94009389Y-133965784D01*
X93632708Y-134025444D01*
X93632691Y-134025447D01*
X93629500Y-134025953D01*
X93626379Y-134026789D01*
X93626366Y-134026792D01*
X93257975Y-134125502D01*
X93257964Y-134125505D01*
X93254846Y-134126341D01*
X93251835Y-134127496D01*
X93251822Y-134127501D01*
X92895770Y-134264177D01*
X92895761Y-134264180D01*
X92892739Y-134265341D01*
X92889862Y-134266806D01*
X92889846Y-134266814D01*
X92550037Y-134439955D01*
X92550023Y-134439963D01*
X92547144Y-134441430D01*
X92544424Y-134443196D01*
X92544416Y-134443201D01*
X92224577Y-134650907D01*
X92224571Y-134650910D01*
X92221849Y-134652679D01*
X92219329Y-134654719D01*
X92219323Y-134654724D01*
X91922935Y-134894734D01*
X91922924Y-134894743D01*
X91920417Y-134896774D01*
X91918132Y-134899058D01*
X91918122Y-134899068D01*
X91648446Y-135168744D01*
X91648436Y-135168754D01*
X91646152Y-135171039D01*
X91644121Y-135173546D01*
X91644112Y-135173557D01*
X91404102Y-135469945D01*
X91404097Y-135469951D01*
X91402057Y-135472471D01*
X91400288Y-135475193D01*
X91400285Y-135475199D01*
X91192579Y-135795038D01*
X91192574Y-135795046D01*
X91190808Y-135797766D01*
X91189341Y-135800645D01*
X91189333Y-135800659D01*
X91016192Y-136140468D01*
X91016184Y-136140484D01*
X91014719Y-136143361D01*
X91013558Y-136146383D01*
X91013555Y-136146392D01*
X90876879Y-136502444D01*
X90876874Y-136502457D01*
X90875719Y-136505468D01*
X90874883Y-136508586D01*
X90874880Y-136508597D01*
X90776170Y-136876988D01*
X90776167Y-136877001D01*
X90775331Y-136880122D01*
X90774825Y-136883313D01*
X90774822Y-136883330D01*
X90715162Y-137260011D01*
X90715160Y-137260025D01*
X90714655Y-137263217D01*
X90714485Y-137266449D01*
X90714485Y-137266455D01*
X90697807Y-137584694D01*
X90694355Y-137650555D01*
X89150367Y-137650555D01*
X89150367Y-133780000D01*
X146694341Y-133780000D01*
X146714937Y-134015408D01*
X146716336Y-134020630D01*
X146716337Y-134020634D01*
X146774694Y-134238430D01*
X146774697Y-134238438D01*
X146776097Y-134243663D01*
X146778385Y-134248570D01*
X146778386Y-134248572D01*
X146873678Y-134452927D01*
X146873681Y-134452933D01*
X146875965Y-134457830D01*
X146879064Y-134462257D01*
X146879066Y-134462259D01*
X147008399Y-134646966D01*
X147008402Y-134646970D01*
X147011505Y-134651401D01*
X147178599Y-134818495D01*
X147372170Y-134954035D01*
X147586337Y-135053903D01*
X147814592Y-135115063D01*
X148050000Y-135135659D01*
X148285408Y-135115063D01*
X148513663Y-135053903D01*
X148727830Y-134954035D01*
X148921401Y-134818495D01*
X149088495Y-134651401D01*
X149224035Y-134457830D01*
X149323903Y-134243663D01*
X149385063Y-134015408D01*
X149405659Y-133780000D01*
X164474341Y-133780000D01*
X164494937Y-134015408D01*
X164496336Y-134020630D01*
X164496337Y-134020634D01*
X164554694Y-134238430D01*
X164554697Y-134238438D01*
X164556097Y-134243663D01*
X164558385Y-134248570D01*
X164558386Y-134248572D01*
X164653678Y-134452927D01*
X164653681Y-134452933D01*
X164655965Y-134457830D01*
X164659064Y-134462257D01*
X164659066Y-134462259D01*
X164788399Y-134646966D01*
X164788402Y-134646970D01*
X164791505Y-134651401D01*
X164958599Y-134818495D01*
X165152170Y-134954035D01*
X165366337Y-135053903D01*
X165594592Y-135115063D01*
X165830000Y-135135659D01*
X166065408Y-135115063D01*
X166293663Y-135053903D01*
X166507830Y-134954035D01*
X166701401Y-134818495D01*
X166868495Y-134651401D01*
X167004035Y-134457830D01*
X167103903Y-134243663D01*
X167165063Y-134015408D01*
X167185659Y-133780000D01*
X167165063Y-133544592D01*
X167103903Y-133316337D01*
X167004035Y-133102171D01*
X166868495Y-132908599D01*
X166701401Y-132741505D01*
X166696968Y-132738401D01*
X166696961Y-132738395D01*
X166515842Y-132611575D01*
X166476976Y-132567257D01*
X166462965Y-132510000D01*
X166476976Y-132452743D01*
X166515842Y-132408425D01*
X166696961Y-132281604D01*
X166696961Y-132281603D01*
X166701401Y-132278495D01*
X166868495Y-132111401D01*
X167004035Y-131917830D01*
X167103903Y-131703663D01*
X167165063Y-131475408D01*
X167185659Y-131240000D01*
X167165063Y-131004592D01*
X167103903Y-130776337D01*
X167004035Y-130562171D01*
X166868495Y-130368599D01*
X166701401Y-130201505D01*
X166696968Y-130198401D01*
X166696961Y-130198395D01*
X166515842Y-130071575D01*
X166476976Y-130027257D01*
X166462965Y-129970000D01*
X166476976Y-129912743D01*
X166515842Y-129868425D01*
X166696961Y-129741604D01*
X166696961Y-129741603D01*
X166701401Y-129738495D01*
X166868495Y-129571401D01*
X167004035Y-129377830D01*
X167103903Y-129163663D01*
X167165063Y-128935408D01*
X167185659Y-128700000D01*
X167165063Y-128464592D01*
X167103903Y-128236337D01*
X167004035Y-128022171D01*
X166868495Y-127828599D01*
X166701401Y-127661505D01*
X166696970Y-127658402D01*
X166696966Y-127658399D01*
X166515841Y-127531574D01*
X166476976Y-127487256D01*
X166462965Y-127429999D01*
X166476976Y-127372742D01*
X166515839Y-127328426D01*
X166701401Y-127198495D01*
X166868495Y-127031401D01*
X167004035Y-126837830D01*
X167103903Y-126623663D01*
X167165063Y-126395408D01*
X167185659Y-126160000D01*
X167165063Y-125924592D01*
X167103903Y-125696337D01*
X167004035Y-125482171D01*
X166868495Y-125288599D01*
X166701401Y-125121505D01*
X166696970Y-125118402D01*
X166696966Y-125118399D01*
X166512259Y-124989066D01*
X166512257Y-124989064D01*
X166507830Y-124985965D01*
X166502933Y-124983681D01*
X166502927Y-124983678D01*
X166298572Y-124888386D01*
X166298570Y-124888385D01*
X166293663Y-124886097D01*
X166288438Y-124884697D01*
X166288430Y-124884694D01*
X166070634Y-124826337D01*
X166070630Y-124826336D01*
X166065408Y-124824937D01*
X166060020Y-124824465D01*
X166060017Y-124824465D01*
X165835395Y-124804813D01*
X165830000Y-124804341D01*
X165824605Y-124804813D01*
X165599982Y-124824465D01*
X165599977Y-124824465D01*
X165594592Y-124824937D01*
X165589371Y-124826335D01*
X165589365Y-124826337D01*
X165371569Y-124884694D01*
X165371557Y-124884698D01*
X165366337Y-124886097D01*
X165361432Y-124888383D01*
X165361427Y-124888386D01*
X165157081Y-124983675D01*
X165157077Y-124983677D01*
X165152171Y-124985965D01*
X165147738Y-124989068D01*
X165147731Y-124989073D01*
X164963034Y-125118399D01*
X164963029Y-125118402D01*
X164958599Y-125121505D01*
X164954775Y-125125328D01*
X164954769Y-125125334D01*
X164795334Y-125284769D01*
X164795328Y-125284775D01*
X164791505Y-125288599D01*
X164788402Y-125293029D01*
X164788399Y-125293034D01*
X164659073Y-125477731D01*
X164659068Y-125477738D01*
X164655965Y-125482171D01*
X164653677Y-125487077D01*
X164653675Y-125487081D01*
X164558386Y-125691427D01*
X164558383Y-125691432D01*
X164556097Y-125696337D01*
X164554698Y-125701557D01*
X164554694Y-125701569D01*
X164496337Y-125919365D01*
X164496335Y-125919371D01*
X164494937Y-125924592D01*
X164474341Y-126160000D01*
X164494937Y-126395408D01*
X164496336Y-126400630D01*
X164496337Y-126400634D01*
X164554694Y-126618430D01*
X164554697Y-126618438D01*
X164556097Y-126623663D01*
X164558385Y-126628570D01*
X164558386Y-126628572D01*
X164653678Y-126832927D01*
X164653681Y-126832933D01*
X164655965Y-126837830D01*
X164659064Y-126842257D01*
X164659066Y-126842259D01*
X164788399Y-127026966D01*
X164788402Y-127026970D01*
X164791505Y-127031401D01*
X164958599Y-127198495D01*
X164963032Y-127201599D01*
X164963038Y-127201604D01*
X165144158Y-127328425D01*
X165183024Y-127372743D01*
X165197035Y-127430000D01*
X165183024Y-127487257D01*
X165144160Y-127531574D01*
X164958599Y-127661505D01*
X164954775Y-127665328D01*
X164954769Y-127665334D01*
X164795334Y-127824769D01*
X164795328Y-127824775D01*
X164791505Y-127828599D01*
X164788402Y-127833029D01*
X164788399Y-127833034D01*
X164659073Y-128017731D01*
X164659068Y-128017738D01*
X164655965Y-128022171D01*
X164653677Y-128027077D01*
X164653675Y-128027081D01*
X164558386Y-128231427D01*
X164558383Y-128231432D01*
X164556097Y-128236337D01*
X164554698Y-128241557D01*
X164554694Y-128241569D01*
X164496337Y-128459365D01*
X164496335Y-128459371D01*
X164494937Y-128464592D01*
X164474341Y-128700000D01*
X164494937Y-128935408D01*
X164496336Y-128940630D01*
X164496337Y-128940634D01*
X164554694Y-129158430D01*
X164554697Y-129158438D01*
X164556097Y-129163663D01*
X164558385Y-129168570D01*
X164558386Y-129168572D01*
X164653678Y-129372927D01*
X164653681Y-129372933D01*
X164655965Y-129377830D01*
X164659064Y-129382257D01*
X164659066Y-129382259D01*
X164788399Y-129566966D01*
X164788402Y-129566970D01*
X164791505Y-129571401D01*
X164958599Y-129738495D01*
X164963032Y-129741599D01*
X164963038Y-129741604D01*
X165144158Y-129868425D01*
X165183024Y-129912743D01*
X165197035Y-129970000D01*
X165183024Y-130027257D01*
X165144159Y-130071575D01*
X164963041Y-130198395D01*
X164958599Y-130201505D01*
X164954775Y-130205328D01*
X164954769Y-130205334D01*
X164795334Y-130364769D01*
X164795328Y-130364775D01*
X164791505Y-130368599D01*
X164788402Y-130373029D01*
X164788399Y-130373034D01*
X164659073Y-130557731D01*
X164659068Y-130557738D01*
X164655965Y-130562171D01*
X164653677Y-130567077D01*
X164653675Y-130567081D01*
X164558386Y-130771427D01*
X164558383Y-130771432D01*
X164556097Y-130776337D01*
X164554698Y-130781557D01*
X164554694Y-130781569D01*
X164496337Y-130999365D01*
X164496335Y-130999371D01*
X164494937Y-131004592D01*
X164474341Y-131240000D01*
X164494937Y-131475408D01*
X164496336Y-131480630D01*
X164496337Y-131480634D01*
X164554694Y-131698430D01*
X164554697Y-131698438D01*
X164556097Y-131703663D01*
X164558385Y-131708570D01*
X164558386Y-131708572D01*
X164653678Y-131912927D01*
X164653681Y-131912933D01*
X164655965Y-131917830D01*
X164659064Y-131922257D01*
X164659066Y-131922259D01*
X164788399Y-132106966D01*
X164788402Y-132106970D01*
X164791505Y-132111401D01*
X164958599Y-132278495D01*
X164963032Y-132281599D01*
X164963038Y-132281604D01*
X165144158Y-132408425D01*
X165183024Y-132452743D01*
X165197035Y-132510000D01*
X165183024Y-132567257D01*
X165144159Y-132611575D01*
X164963041Y-132738395D01*
X164958599Y-132741505D01*
X164954775Y-132745328D01*
X164954769Y-132745334D01*
X164795334Y-132904769D01*
X164795328Y-132904775D01*
X164791505Y-132908599D01*
X164788402Y-132913029D01*
X164788399Y-132913034D01*
X164659073Y-133097731D01*
X164659068Y-133097738D01*
X164655965Y-133102171D01*
X164653677Y-133107077D01*
X164653675Y-133107081D01*
X164558386Y-133311427D01*
X164558383Y-133311432D01*
X164556097Y-133316337D01*
X164554698Y-133321557D01*
X164554694Y-133321569D01*
X164496337Y-133539365D01*
X164496335Y-133539371D01*
X164494937Y-133544592D01*
X164474341Y-133780000D01*
X149405659Y-133780000D01*
X149385063Y-133544592D01*
X149323903Y-133316337D01*
X149224035Y-133102171D01*
X149088495Y-132908599D01*
X148921401Y-132741505D01*
X148916968Y-132738401D01*
X148916961Y-132738395D01*
X148735842Y-132611575D01*
X148696976Y-132567257D01*
X148682965Y-132510000D01*
X148696976Y-132452743D01*
X148735842Y-132408425D01*
X148916961Y-132281604D01*
X148916961Y-132281603D01*
X148921401Y-132278495D01*
X149088495Y-132111401D01*
X149224035Y-131917830D01*
X149323903Y-131703663D01*
X149385063Y-131475408D01*
X149405659Y-131240000D01*
X149385063Y-131004592D01*
X149323903Y-130776337D01*
X149224035Y-130562171D01*
X149088495Y-130368599D01*
X148921401Y-130201505D01*
X148916968Y-130198401D01*
X148916961Y-130198395D01*
X148735842Y-130071575D01*
X148696976Y-130027257D01*
X148682965Y-129970000D01*
X148696976Y-129912743D01*
X148735842Y-129868425D01*
X148916961Y-129741604D01*
X148916961Y-129741603D01*
X148921401Y-129738495D01*
X149088495Y-129571401D01*
X149224035Y-129377830D01*
X149323903Y-129163663D01*
X149385063Y-128935408D01*
X149405659Y-128700000D01*
X149385063Y-128464592D01*
X149323903Y-128236337D01*
X149224035Y-128022171D01*
X149088495Y-127828599D01*
X148921401Y-127661505D01*
X148916970Y-127658402D01*
X148916966Y-127658399D01*
X148735841Y-127531574D01*
X148696976Y-127487256D01*
X148682965Y-127429999D01*
X148696976Y-127372742D01*
X148735839Y-127328426D01*
X148921401Y-127198495D01*
X149088495Y-127031401D01*
X149224035Y-126837830D01*
X149323903Y-126623663D01*
X149385063Y-126395408D01*
X149405659Y-126160000D01*
X149385063Y-125924592D01*
X149323903Y-125696337D01*
X149224035Y-125482171D01*
X149088495Y-125288599D01*
X148921401Y-125121505D01*
X148916970Y-125118402D01*
X148916966Y-125118399D01*
X148732259Y-124989066D01*
X148732257Y-124989064D01*
X148727830Y-124985965D01*
X148722933Y-124983681D01*
X148722927Y-124983678D01*
X148518572Y-124888386D01*
X148518570Y-124888385D01*
X148513663Y-124886097D01*
X148508438Y-124884697D01*
X148508430Y-124884694D01*
X148290634Y-124826337D01*
X148290630Y-124826336D01*
X148285408Y-124824937D01*
X148280020Y-124824465D01*
X148280017Y-124824465D01*
X148055395Y-124804813D01*
X148050000Y-124804341D01*
X148044605Y-124804813D01*
X147819982Y-124824465D01*
X147819977Y-124824465D01*
X147814592Y-124824937D01*
X147809371Y-124826335D01*
X147809365Y-124826337D01*
X147591569Y-124884694D01*
X147591557Y-124884698D01*
X147586337Y-124886097D01*
X147581432Y-124888383D01*
X147581427Y-124888386D01*
X147377081Y-124983675D01*
X147377077Y-124983677D01*
X147372171Y-124985965D01*
X147367738Y-124989068D01*
X147367731Y-124989073D01*
X147183034Y-125118399D01*
X147183029Y-125118402D01*
X147178599Y-125121505D01*
X147174775Y-125125328D01*
X147174769Y-125125334D01*
X147015334Y-125284769D01*
X147015328Y-125284775D01*
X147011505Y-125288599D01*
X147008402Y-125293029D01*
X147008399Y-125293034D01*
X146879073Y-125477731D01*
X146879068Y-125477738D01*
X146875965Y-125482171D01*
X146873677Y-125487077D01*
X146873675Y-125487081D01*
X146778386Y-125691427D01*
X146778383Y-125691432D01*
X146776097Y-125696337D01*
X146774698Y-125701557D01*
X146774694Y-125701569D01*
X146716337Y-125919365D01*
X146716335Y-125919371D01*
X146714937Y-125924592D01*
X146694341Y-126160000D01*
X146714937Y-126395408D01*
X146716336Y-126400630D01*
X146716337Y-126400634D01*
X146774694Y-126618430D01*
X146774697Y-126618438D01*
X146776097Y-126623663D01*
X146778385Y-126628570D01*
X146778386Y-126628572D01*
X146873678Y-126832927D01*
X146873681Y-126832933D01*
X146875965Y-126837830D01*
X146879064Y-126842257D01*
X146879066Y-126842259D01*
X147008399Y-127026966D01*
X147008402Y-127026970D01*
X147011505Y-127031401D01*
X147178599Y-127198495D01*
X147183032Y-127201599D01*
X147183038Y-127201604D01*
X147364158Y-127328425D01*
X147403024Y-127372743D01*
X147417035Y-127430000D01*
X147403024Y-127487257D01*
X147364160Y-127531574D01*
X147178599Y-127661505D01*
X147174775Y-127665328D01*
X147174769Y-127665334D01*
X147015334Y-127824769D01*
X147015328Y-127824775D01*
X147011505Y-127828599D01*
X147008402Y-127833029D01*
X147008399Y-127833034D01*
X146879073Y-128017731D01*
X146879068Y-128017738D01*
X146875965Y-128022171D01*
X146873677Y-128027077D01*
X146873675Y-128027081D01*
X146778386Y-128231427D01*
X146778383Y-128231432D01*
X146776097Y-128236337D01*
X146774698Y-128241557D01*
X146774694Y-128241569D01*
X146716337Y-128459365D01*
X146716335Y-128459371D01*
X146714937Y-128464592D01*
X146694341Y-128700000D01*
X146714937Y-128935408D01*
X146716336Y-128940630D01*
X146716337Y-128940634D01*
X146774694Y-129158430D01*
X146774697Y-129158438D01*
X146776097Y-129163663D01*
X146778385Y-129168570D01*
X146778386Y-129168572D01*
X146873678Y-129372927D01*
X146873681Y-129372933D01*
X146875965Y-129377830D01*
X146879064Y-129382257D01*
X146879066Y-129382259D01*
X147008399Y-129566966D01*
X147008402Y-129566970D01*
X147011505Y-129571401D01*
X147178599Y-129738495D01*
X147183032Y-129741599D01*
X147183038Y-129741604D01*
X147364158Y-129868425D01*
X147403024Y-129912743D01*
X147417035Y-129970000D01*
X147403024Y-130027257D01*
X147364159Y-130071575D01*
X147183041Y-130198395D01*
X147178599Y-130201505D01*
X147174775Y-130205328D01*
X147174769Y-130205334D01*
X147015334Y-130364769D01*
X147015328Y-130364775D01*
X147011505Y-130368599D01*
X147008402Y-130373029D01*
X147008399Y-130373034D01*
X146879073Y-130557731D01*
X146879068Y-130557738D01*
X146875965Y-130562171D01*
X146873677Y-130567077D01*
X146873675Y-130567081D01*
X146778386Y-130771427D01*
X146778383Y-130771432D01*
X146776097Y-130776337D01*
X146774698Y-130781557D01*
X146774694Y-130781569D01*
X146716337Y-130999365D01*
X146716335Y-130999371D01*
X146714937Y-131004592D01*
X146694341Y-131240000D01*
X146714937Y-131475408D01*
X146716336Y-131480630D01*
X146716337Y-131480634D01*
X146774694Y-131698430D01*
X146774697Y-131698438D01*
X146776097Y-131703663D01*
X146778385Y-131708570D01*
X146778386Y-131708572D01*
X146873678Y-131912927D01*
X146873681Y-131912933D01*
X146875965Y-131917830D01*
X146879064Y-131922257D01*
X146879066Y-131922259D01*
X147008399Y-132106966D01*
X147008402Y-132106970D01*
X147011505Y-132111401D01*
X147178599Y-132278495D01*
X147183032Y-132281599D01*
X147183038Y-132281604D01*
X147364158Y-132408425D01*
X147403024Y-132452743D01*
X147417035Y-132510000D01*
X147403024Y-132567257D01*
X147364159Y-132611575D01*
X147183041Y-132738395D01*
X147178599Y-132741505D01*
X147174775Y-132745328D01*
X147174769Y-132745334D01*
X147015334Y-132904769D01*
X147015328Y-132904775D01*
X147011505Y-132908599D01*
X147008402Y-132913029D01*
X147008399Y-132913034D01*
X146879073Y-133097731D01*
X146879068Y-133097738D01*
X146875965Y-133102171D01*
X146873677Y-133107077D01*
X146873675Y-133107081D01*
X146778386Y-133311427D01*
X146778383Y-133311432D01*
X146776097Y-133316337D01*
X146774698Y-133321557D01*
X146774694Y-133321569D01*
X146716337Y-133539365D01*
X146716335Y-133539371D01*
X146714937Y-133544592D01*
X146694341Y-133780000D01*
X89150367Y-133780000D01*
X89150367Y-121080000D01*
X146694341Y-121080000D01*
X146714937Y-121315408D01*
X146716336Y-121320630D01*
X146716337Y-121320634D01*
X146774694Y-121538430D01*
X146774697Y-121538438D01*
X146776097Y-121543663D01*
X146778385Y-121548570D01*
X146778386Y-121548572D01*
X146873678Y-121752927D01*
X146873681Y-121752933D01*
X146875965Y-121757830D01*
X146879064Y-121762257D01*
X146879066Y-121762259D01*
X147008399Y-121946966D01*
X147008402Y-121946970D01*
X147011505Y-121951401D01*
X147178599Y-122118495D01*
X147372170Y-122254035D01*
X147586337Y-122353903D01*
X147814592Y-122415063D01*
X148050000Y-122435659D01*
X148285408Y-122415063D01*
X148513663Y-122353903D01*
X148727830Y-122254035D01*
X148921401Y-122118495D01*
X149088495Y-121951401D01*
X149224035Y-121757830D01*
X149323903Y-121543663D01*
X149385063Y-121315408D01*
X149405659Y-121080000D01*
X164474341Y-121080000D01*
X164494937Y-121315408D01*
X164496336Y-121320630D01*
X164496337Y-121320634D01*
X164554694Y-121538430D01*
X164554697Y-121538438D01*
X164556097Y-121543663D01*
X164558385Y-121548570D01*
X164558386Y-121548572D01*
X164653678Y-121752927D01*
X164653681Y-121752933D01*
X164655965Y-121757830D01*
X164659064Y-121762257D01*
X164659066Y-121762259D01*
X164788399Y-121946966D01*
X164788402Y-121946970D01*
X164791505Y-121951401D01*
X164958599Y-122118495D01*
X165152170Y-122254035D01*
X165366337Y-122353903D01*
X165594592Y-122415063D01*
X165830000Y-122435659D01*
X166065408Y-122415063D01*
X166293663Y-122353903D01*
X166507830Y-122254035D01*
X166701401Y-122118495D01*
X166868495Y-121951401D01*
X167004035Y-121757830D01*
X167103903Y-121543663D01*
X167165063Y-121315408D01*
X167185659Y-121080000D01*
X167165063Y-120844592D01*
X167103903Y-120616337D01*
X167004035Y-120402171D01*
X166868495Y-120208599D01*
X166701401Y-120041505D01*
X166696970Y-120038402D01*
X166696966Y-120038399D01*
X166515841Y-119911574D01*
X166476976Y-119867256D01*
X166462965Y-119809999D01*
X166476976Y-119752742D01*
X166515839Y-119708426D01*
X166701401Y-119578495D01*
X166868495Y-119411401D01*
X167004035Y-119217830D01*
X167103903Y-119003663D01*
X167165063Y-118775408D01*
X167185659Y-118540000D01*
X167165063Y-118304592D01*
X167103903Y-118076337D01*
X167004035Y-117862171D01*
X166868495Y-117668599D01*
X166701401Y-117501505D01*
X166696968Y-117498401D01*
X166696961Y-117498395D01*
X166515842Y-117371575D01*
X166476976Y-117327257D01*
X166462965Y-117270000D01*
X166476976Y-117212743D01*
X166515842Y-117168425D01*
X166696961Y-117041604D01*
X166696961Y-117041603D01*
X166701401Y-117038495D01*
X166868495Y-116871401D01*
X167004035Y-116677830D01*
X167103903Y-116463663D01*
X167165063Y-116235408D01*
X167185659Y-116000000D01*
X167165063Y-115764592D01*
X167103903Y-115536337D01*
X167004035Y-115322171D01*
X166868495Y-115128599D01*
X166701401Y-114961505D01*
X166696968Y-114958401D01*
X166696961Y-114958395D01*
X166515842Y-114831575D01*
X166476976Y-114787257D01*
X166462965Y-114730000D01*
X166476976Y-114672743D01*
X166515842Y-114628425D01*
X166696961Y-114501604D01*
X166696961Y-114501603D01*
X166701401Y-114498495D01*
X166868495Y-114331401D01*
X167004035Y-114137830D01*
X167103903Y-113923663D01*
X167165063Y-113695408D01*
X167185659Y-113460000D01*
X167165063Y-113224592D01*
X167103903Y-112996337D01*
X167004035Y-112782171D01*
X166868495Y-112588599D01*
X166701401Y-112421505D01*
X166696970Y-112418402D01*
X166696966Y-112418399D01*
X166512259Y-112289066D01*
X166512257Y-112289064D01*
X166507830Y-112285965D01*
X166502933Y-112283681D01*
X166502927Y-112283678D01*
X166298572Y-112188386D01*
X166298570Y-112188385D01*
X166293663Y-112186097D01*
X166288438Y-112184697D01*
X166288430Y-112184694D01*
X166070634Y-112126337D01*
X166070630Y-112126336D01*
X166065408Y-112124937D01*
X166060020Y-112124465D01*
X166060017Y-112124465D01*
X165835395Y-112104813D01*
X165830000Y-112104341D01*
X165824605Y-112104813D01*
X165599982Y-112124465D01*
X165599977Y-112124465D01*
X165594592Y-112124937D01*
X165589371Y-112126335D01*
X165589365Y-112126337D01*
X165371569Y-112184694D01*
X165371557Y-112184698D01*
X165366337Y-112186097D01*
X165361432Y-112188383D01*
X165361427Y-112188386D01*
X165157081Y-112283675D01*
X165157077Y-112283677D01*
X165152171Y-112285965D01*
X165147738Y-112289068D01*
X165147731Y-112289073D01*
X164963034Y-112418399D01*
X164963029Y-112418402D01*
X164958599Y-112421505D01*
X164954775Y-112425328D01*
X164954769Y-112425334D01*
X164795334Y-112584769D01*
X164795328Y-112584775D01*
X164791505Y-112588599D01*
X164788402Y-112593029D01*
X164788399Y-112593034D01*
X164659073Y-112777731D01*
X164659068Y-112777738D01*
X164655965Y-112782171D01*
X164653677Y-112787077D01*
X164653675Y-112787081D01*
X164558386Y-112991427D01*
X164558383Y-112991432D01*
X164556097Y-112996337D01*
X164554698Y-113001557D01*
X164554694Y-113001569D01*
X164496337Y-113219365D01*
X164496335Y-113219371D01*
X164494937Y-113224592D01*
X164474341Y-113460000D01*
X164494937Y-113695408D01*
X164496336Y-113700630D01*
X164496337Y-113700634D01*
X164554694Y-113918430D01*
X164554697Y-113918438D01*
X164556097Y-113923663D01*
X164558385Y-113928570D01*
X164558386Y-113928572D01*
X164653678Y-114132927D01*
X164653681Y-114132933D01*
X164655965Y-114137830D01*
X164659064Y-114142257D01*
X164659066Y-114142259D01*
X164788399Y-114326966D01*
X164788402Y-114326970D01*
X164791505Y-114331401D01*
X164958599Y-114498495D01*
X164963032Y-114501599D01*
X164963038Y-114501604D01*
X165144158Y-114628425D01*
X165183024Y-114672743D01*
X165197035Y-114730000D01*
X165183024Y-114787257D01*
X165144159Y-114831575D01*
X164963041Y-114958395D01*
X164958599Y-114961505D01*
X164954775Y-114965328D01*
X164954769Y-114965334D01*
X164795334Y-115124769D01*
X164795328Y-115124775D01*
X164791505Y-115128599D01*
X164788402Y-115133029D01*
X164788399Y-115133034D01*
X164659073Y-115317731D01*
X164659068Y-115317738D01*
X164655965Y-115322171D01*
X164653677Y-115327077D01*
X164653675Y-115327081D01*
X164558386Y-115531427D01*
X164558383Y-115531432D01*
X164556097Y-115536337D01*
X164554698Y-115541557D01*
X164554694Y-115541569D01*
X164496337Y-115759365D01*
X164496335Y-115759371D01*
X164494937Y-115764592D01*
X164474341Y-116000000D01*
X164494937Y-116235408D01*
X164496336Y-116240630D01*
X164496337Y-116240634D01*
X164554694Y-116458430D01*
X164554697Y-116458438D01*
X164556097Y-116463663D01*
X164558385Y-116468570D01*
X164558386Y-116468572D01*
X164653678Y-116672927D01*
X164653681Y-116672933D01*
X164655965Y-116677830D01*
X164659064Y-116682257D01*
X164659066Y-116682259D01*
X164788399Y-116866966D01*
X164788402Y-116866970D01*
X164791505Y-116871401D01*
X164958599Y-117038495D01*
X164963032Y-117041599D01*
X164963038Y-117041604D01*
X165144158Y-117168425D01*
X165183024Y-117212743D01*
X165197035Y-117270000D01*
X165183024Y-117327257D01*
X165144159Y-117371575D01*
X164963041Y-117498395D01*
X164958599Y-117501505D01*
X164954775Y-117505328D01*
X164954769Y-117505334D01*
X164795334Y-117664769D01*
X164795328Y-117664775D01*
X164791505Y-117668599D01*
X164788402Y-117673029D01*
X164788399Y-117673034D01*
X164659073Y-117857731D01*
X164659068Y-117857738D01*
X164655965Y-117862171D01*
X164653677Y-117867077D01*
X164653675Y-117867081D01*
X164558386Y-118071427D01*
X164558383Y-118071432D01*
X164556097Y-118076337D01*
X164554698Y-118081557D01*
X164554694Y-118081569D01*
X164496337Y-118299365D01*
X164496335Y-118299371D01*
X164494937Y-118304592D01*
X164474341Y-118540000D01*
X164494937Y-118775408D01*
X164496336Y-118780630D01*
X164496337Y-118780634D01*
X164554694Y-118998430D01*
X164554697Y-118998438D01*
X164556097Y-119003663D01*
X164558385Y-119008570D01*
X164558386Y-119008572D01*
X164653678Y-119212927D01*
X164653681Y-119212933D01*
X164655965Y-119217830D01*
X164659064Y-119222257D01*
X164659066Y-119222259D01*
X164788399Y-119406966D01*
X164788402Y-119406970D01*
X164791505Y-119411401D01*
X164958599Y-119578495D01*
X164963032Y-119581599D01*
X164963038Y-119581604D01*
X165144158Y-119708425D01*
X165183024Y-119752743D01*
X165197035Y-119810000D01*
X165183024Y-119867257D01*
X165144160Y-119911574D01*
X164958599Y-120041505D01*
X164954775Y-120045328D01*
X164954769Y-120045334D01*
X164795334Y-120204769D01*
X164795328Y-120204775D01*
X164791505Y-120208599D01*
X164788402Y-120213029D01*
X164788399Y-120213034D01*
X164659073Y-120397731D01*
X164659068Y-120397738D01*
X164655965Y-120402171D01*
X164653677Y-120407077D01*
X164653675Y-120407081D01*
X164558386Y-120611427D01*
X164558383Y-120611432D01*
X164556097Y-120616337D01*
X164554698Y-120621557D01*
X164554694Y-120621569D01*
X164496337Y-120839365D01*
X164496335Y-120839371D01*
X164494937Y-120844592D01*
X164474341Y-121080000D01*
X149405659Y-121080000D01*
X149385063Y-120844592D01*
X149323903Y-120616337D01*
X149224035Y-120402171D01*
X149088495Y-120208599D01*
X148921401Y-120041505D01*
X148916970Y-120038402D01*
X148916966Y-120038399D01*
X148735841Y-119911574D01*
X148696976Y-119867256D01*
X148682965Y-119809999D01*
X148696976Y-119752742D01*
X148735839Y-119708426D01*
X148921401Y-119578495D01*
X149088495Y-119411401D01*
X149224035Y-119217830D01*
X149323903Y-119003663D01*
X149385063Y-118775408D01*
X149405659Y-118540000D01*
X149385063Y-118304592D01*
X149323903Y-118076337D01*
X149224035Y-117862171D01*
X149088495Y-117668599D01*
X148921401Y-117501505D01*
X148916968Y-117498401D01*
X148916961Y-117498395D01*
X148735842Y-117371575D01*
X148696976Y-117327257D01*
X148682965Y-117270000D01*
X148696976Y-117212743D01*
X148735842Y-117168425D01*
X148916961Y-117041604D01*
X148916961Y-117041603D01*
X148921401Y-117038495D01*
X149088495Y-116871401D01*
X149224035Y-116677830D01*
X149323903Y-116463663D01*
X149385063Y-116235408D01*
X149405659Y-116000000D01*
X149385063Y-115764592D01*
X149323903Y-115536337D01*
X149224035Y-115322171D01*
X149088495Y-115128599D01*
X148921401Y-114961505D01*
X148916968Y-114958401D01*
X148916961Y-114958395D01*
X148735842Y-114831575D01*
X148696976Y-114787257D01*
X148682965Y-114730000D01*
X148696976Y-114672743D01*
X148735842Y-114628425D01*
X148916961Y-114501604D01*
X148916961Y-114501603D01*
X148921401Y-114498495D01*
X149088495Y-114331401D01*
X149224035Y-114137830D01*
X149323903Y-113923663D01*
X149385063Y-113695408D01*
X149405659Y-113460000D01*
X149385063Y-113224592D01*
X149323903Y-112996337D01*
X149224035Y-112782171D01*
X149088495Y-112588599D01*
X148921401Y-112421505D01*
X148916970Y-112418402D01*
X148916966Y-112418399D01*
X148732259Y-112289066D01*
X148732257Y-112289064D01*
X148727830Y-112285965D01*
X148722933Y-112283681D01*
X148722927Y-112283678D01*
X148518572Y-112188386D01*
X148518570Y-112188385D01*
X148513663Y-112186097D01*
X148508438Y-112184697D01*
X148508430Y-112184694D01*
X148290634Y-112126337D01*
X148290630Y-112126336D01*
X148285408Y-112124937D01*
X148280020Y-112124465D01*
X148280017Y-112124465D01*
X148055395Y-112104813D01*
X148050000Y-112104341D01*
X148044605Y-112104813D01*
X147819982Y-112124465D01*
X147819977Y-112124465D01*
X147814592Y-112124937D01*
X147809371Y-112126335D01*
X147809365Y-112126337D01*
X147591569Y-112184694D01*
X147591557Y-112184698D01*
X147586337Y-112186097D01*
X147581432Y-112188383D01*
X147581427Y-112188386D01*
X147377081Y-112283675D01*
X147377077Y-112283677D01*
X147372171Y-112285965D01*
X147367738Y-112289068D01*
X147367731Y-112289073D01*
X147183034Y-112418399D01*
X147183029Y-112418402D01*
X147178599Y-112421505D01*
X147174775Y-112425328D01*
X147174769Y-112425334D01*
X147015334Y-112584769D01*
X147015328Y-112584775D01*
X147011505Y-112588599D01*
X147008402Y-112593029D01*
X147008399Y-112593034D01*
X146879073Y-112777731D01*
X146879068Y-112777738D01*
X146875965Y-112782171D01*
X146873677Y-112787077D01*
X146873675Y-112787081D01*
X146778386Y-112991427D01*
X146778383Y-112991432D01*
X146776097Y-112996337D01*
X146774698Y-113001557D01*
X146774694Y-113001569D01*
X146716337Y-113219365D01*
X146716335Y-113219371D01*
X146714937Y-113224592D01*
X146694341Y-113460000D01*
X146714937Y-113695408D01*
X146716336Y-113700630D01*
X146716337Y-113700634D01*
X146774694Y-113918430D01*
X146774697Y-113918438D01*
X146776097Y-113923663D01*
X146778385Y-113928570D01*
X146778386Y-113928572D01*
X146873678Y-114132927D01*
X146873681Y-114132933D01*
X146875965Y-114137830D01*
X146879064Y-114142257D01*
X146879066Y-114142259D01*
X147008399Y-114326966D01*
X147008402Y-114326970D01*
X147011505Y-114331401D01*
X147178599Y-114498495D01*
X147183032Y-114501599D01*
X147183038Y-114501604D01*
X147364158Y-114628425D01*
X147403024Y-114672743D01*
X147417035Y-114730000D01*
X147403024Y-114787257D01*
X147364159Y-114831575D01*
X147183041Y-114958395D01*
X147178599Y-114961505D01*
X147174775Y-114965328D01*
X147174769Y-114965334D01*
X147015334Y-115124769D01*
X147015328Y-115124775D01*
X147011505Y-115128599D01*
X147008402Y-115133029D01*
X147008399Y-115133034D01*
X146879073Y-115317731D01*
X146879068Y-115317738D01*
X146875965Y-115322171D01*
X146873677Y-115327077D01*
X146873675Y-115327081D01*
X146778386Y-115531427D01*
X146778383Y-115531432D01*
X146776097Y-115536337D01*
X146774698Y-115541557D01*
X146774694Y-115541569D01*
X146716337Y-115759365D01*
X146716335Y-115759371D01*
X146714937Y-115764592D01*
X146694341Y-116000000D01*
X146714937Y-116235408D01*
X146716336Y-116240630D01*
X146716337Y-116240634D01*
X146774694Y-116458430D01*
X146774697Y-116458438D01*
X146776097Y-116463663D01*
X146778385Y-116468570D01*
X146778386Y-116468572D01*
X146873678Y-116672927D01*
X146873681Y-116672933D01*
X146875965Y-116677830D01*
X146879064Y-116682257D01*
X146879066Y-116682259D01*
X147008399Y-116866966D01*
X147008402Y-116866970D01*
X147011505Y-116871401D01*
X147178599Y-117038495D01*
X147183032Y-117041599D01*
X147183038Y-117041604D01*
X147364158Y-117168425D01*
X147403024Y-117212743D01*
X147417035Y-117270000D01*
X147403024Y-117327257D01*
X147364159Y-117371575D01*
X147183041Y-117498395D01*
X147178599Y-117501505D01*
X147174775Y-117505328D01*
X147174769Y-117505334D01*
X147015334Y-117664769D01*
X147015328Y-117664775D01*
X147011505Y-117668599D01*
X147008402Y-117673029D01*
X147008399Y-117673034D01*
X146879073Y-117857731D01*
X146879068Y-117857738D01*
X146875965Y-117862171D01*
X146873677Y-117867077D01*
X146873675Y-117867081D01*
X146778386Y-118071427D01*
X146778383Y-118071432D01*
X146776097Y-118076337D01*
X146774698Y-118081557D01*
X146774694Y-118081569D01*
X146716337Y-118299365D01*
X146716335Y-118299371D01*
X146714937Y-118304592D01*
X146694341Y-118540000D01*
X146714937Y-118775408D01*
X146716336Y-118780630D01*
X146716337Y-118780634D01*
X146774694Y-118998430D01*
X146774697Y-118998438D01*
X146776097Y-119003663D01*
X146778385Y-119008570D01*
X146778386Y-119008572D01*
X146873678Y-119212927D01*
X146873681Y-119212933D01*
X146875965Y-119217830D01*
X146879064Y-119222257D01*
X146879066Y-119222259D01*
X147008399Y-119406966D01*
X147008402Y-119406970D01*
X147011505Y-119411401D01*
X147178599Y-119578495D01*
X147183032Y-119581599D01*
X147183038Y-119581604D01*
X147364158Y-119708425D01*
X147403024Y-119752743D01*
X147417035Y-119810000D01*
X147403024Y-119867257D01*
X147364160Y-119911574D01*
X147178599Y-120041505D01*
X147174775Y-120045328D01*
X147174769Y-120045334D01*
X147015334Y-120204769D01*
X147015328Y-120204775D01*
X147011505Y-120208599D01*
X147008402Y-120213029D01*
X147008399Y-120213034D01*
X146879073Y-120397731D01*
X146879068Y-120397738D01*
X146875965Y-120402171D01*
X146873677Y-120407077D01*
X146873675Y-120407081D01*
X146778386Y-120611427D01*
X146778383Y-120611432D01*
X146776097Y-120616337D01*
X146774698Y-120621557D01*
X146774694Y-120621569D01*
X146716337Y-120839365D01*
X146716335Y-120839371D01*
X146714937Y-120844592D01*
X146694341Y-121080000D01*
X89150367Y-121080000D01*
X89150367Y-81250000D01*
X103750000Y-81250000D01*
X103750000Y-109800000D01*
X129333674Y-109800000D01*
X129350000Y-109800000D01*
X129350000Y-108380000D01*
X146694341Y-108380000D01*
X146714937Y-108615408D01*
X146716336Y-108620630D01*
X146716337Y-108620634D01*
X146774694Y-108838430D01*
X146774697Y-108838438D01*
X146776097Y-108843663D01*
X146778385Y-108848570D01*
X146778386Y-108848572D01*
X146873678Y-109052927D01*
X146873681Y-109052933D01*
X146875965Y-109057830D01*
X146879064Y-109062257D01*
X146879066Y-109062259D01*
X147008399Y-109246966D01*
X147008402Y-109246970D01*
X147011505Y-109251401D01*
X147178599Y-109418495D01*
X147372170Y-109554035D01*
X147586337Y-109653903D01*
X147814592Y-109715063D01*
X148050000Y-109735659D01*
X148285408Y-109715063D01*
X148513663Y-109653903D01*
X148727830Y-109554035D01*
X148921401Y-109418495D01*
X149088495Y-109251401D01*
X149224035Y-109057830D01*
X149323903Y-108843663D01*
X149385063Y-108615408D01*
X149405659Y-108380000D01*
X164474341Y-108380000D01*
X164494937Y-108615408D01*
X164496336Y-108620630D01*
X164496337Y-108620634D01*
X164554694Y-108838430D01*
X164554697Y-108838438D01*
X164556097Y-108843663D01*
X164558385Y-108848570D01*
X164558386Y-108848572D01*
X164653678Y-109052927D01*
X164653681Y-109052933D01*
X164655965Y-109057830D01*
X164659064Y-109062257D01*
X164659066Y-109062259D01*
X164788399Y-109246966D01*
X164788402Y-109246970D01*
X164791505Y-109251401D01*
X164958599Y-109418495D01*
X165152170Y-109554035D01*
X165366337Y-109653903D01*
X165594592Y-109715063D01*
X165830000Y-109735659D01*
X166065408Y-109715063D01*
X166293663Y-109653903D01*
X166507830Y-109554035D01*
X166701401Y-109418495D01*
X166868495Y-109251401D01*
X167004035Y-109057830D01*
X167103903Y-108843663D01*
X167165063Y-108615408D01*
X167185659Y-108380000D01*
X167165063Y-108144592D01*
X167103903Y-107916337D01*
X167004035Y-107702171D01*
X166868495Y-107508599D01*
X166701401Y-107341505D01*
X166696968Y-107338401D01*
X166696961Y-107338395D01*
X166515842Y-107211575D01*
X166476976Y-107167257D01*
X166462965Y-107110000D01*
X166476976Y-107052743D01*
X166515842Y-107008425D01*
X166696961Y-106881604D01*
X166696961Y-106881603D01*
X166701401Y-106878495D01*
X166868495Y-106711401D01*
X167004035Y-106517830D01*
X167103903Y-106303663D01*
X167165063Y-106075408D01*
X167185659Y-105840000D01*
X167165063Y-105604592D01*
X167103903Y-105376337D01*
X167004035Y-105162171D01*
X166868495Y-104968599D01*
X166701401Y-104801505D01*
X166696968Y-104798401D01*
X166696961Y-104798395D01*
X166515842Y-104671575D01*
X166476976Y-104627257D01*
X166462965Y-104570000D01*
X166476976Y-104512743D01*
X166515842Y-104468425D01*
X166696961Y-104341604D01*
X166696961Y-104341603D01*
X166701401Y-104338495D01*
X166868495Y-104171401D01*
X167004035Y-103977830D01*
X167103903Y-103763663D01*
X167165063Y-103535408D01*
X167185659Y-103300000D01*
X167165063Y-103064592D01*
X167103903Y-102836337D01*
X167004035Y-102622171D01*
X166868495Y-102428599D01*
X166701401Y-102261505D01*
X166696968Y-102258401D01*
X166696961Y-102258395D01*
X166515842Y-102131575D01*
X166476976Y-102087257D01*
X166462965Y-102030000D01*
X166476976Y-101972743D01*
X166515842Y-101928425D01*
X166696961Y-101801604D01*
X166696961Y-101801603D01*
X166701401Y-101798495D01*
X166868495Y-101631401D01*
X167004035Y-101437830D01*
X167103903Y-101223663D01*
X167165063Y-100995408D01*
X167185659Y-100760000D01*
X167165063Y-100524592D01*
X167103903Y-100296337D01*
X167004035Y-100082171D01*
X166868495Y-99888599D01*
X166701401Y-99721505D01*
X166696970Y-99718402D01*
X166696966Y-99718399D01*
X166512259Y-99589066D01*
X166512257Y-99589064D01*
X166507830Y-99585965D01*
X166502933Y-99583681D01*
X166502927Y-99583678D01*
X166298572Y-99488386D01*
X166298570Y-99488385D01*
X166293663Y-99486097D01*
X166288438Y-99484697D01*
X166288430Y-99484694D01*
X166070634Y-99426337D01*
X166070630Y-99426336D01*
X166065408Y-99424937D01*
X166060020Y-99424465D01*
X166060017Y-99424465D01*
X165835395Y-99404813D01*
X165830000Y-99404341D01*
X165824605Y-99404813D01*
X165599982Y-99424465D01*
X165599977Y-99424465D01*
X165594592Y-99424937D01*
X165589371Y-99426335D01*
X165589365Y-99426337D01*
X165371569Y-99484694D01*
X165371557Y-99484698D01*
X165366337Y-99486097D01*
X165361432Y-99488383D01*
X165361427Y-99488386D01*
X165157081Y-99583675D01*
X165157077Y-99583677D01*
X165152171Y-99585965D01*
X165147738Y-99589068D01*
X165147731Y-99589073D01*
X164963034Y-99718399D01*
X164963029Y-99718402D01*
X164958599Y-99721505D01*
X164954775Y-99725328D01*
X164954769Y-99725334D01*
X164795334Y-99884769D01*
X164795328Y-99884775D01*
X164791505Y-99888599D01*
X164788402Y-99893029D01*
X164788399Y-99893034D01*
X164659073Y-100077731D01*
X164659068Y-100077738D01*
X164655965Y-100082171D01*
X164653677Y-100087077D01*
X164653675Y-100087081D01*
X164558386Y-100291427D01*
X164558383Y-100291432D01*
X164556097Y-100296337D01*
X164554698Y-100301557D01*
X164554694Y-100301569D01*
X164496337Y-100519365D01*
X164496335Y-100519371D01*
X164494937Y-100524592D01*
X164474341Y-100760000D01*
X164494937Y-100995408D01*
X164496336Y-101000630D01*
X164496337Y-101000634D01*
X164554694Y-101218430D01*
X164554697Y-101218438D01*
X164556097Y-101223663D01*
X164558385Y-101228570D01*
X164558386Y-101228572D01*
X164653678Y-101432927D01*
X164653681Y-101432933D01*
X164655965Y-101437830D01*
X164659064Y-101442257D01*
X164659066Y-101442259D01*
X164788399Y-101626966D01*
X164788402Y-101626970D01*
X164791505Y-101631401D01*
X164958599Y-101798495D01*
X164963032Y-101801599D01*
X164963038Y-101801604D01*
X165144158Y-101928425D01*
X165183024Y-101972743D01*
X165197035Y-102030000D01*
X165183024Y-102087257D01*
X165144159Y-102131575D01*
X164963041Y-102258395D01*
X164958599Y-102261505D01*
X164954775Y-102265328D01*
X164954769Y-102265334D01*
X164795334Y-102424769D01*
X164795328Y-102424775D01*
X164791505Y-102428599D01*
X164788402Y-102433029D01*
X164788399Y-102433034D01*
X164659073Y-102617731D01*
X164659068Y-102617738D01*
X164655965Y-102622171D01*
X164653677Y-102627077D01*
X164653675Y-102627081D01*
X164558386Y-102831427D01*
X164558383Y-102831432D01*
X164556097Y-102836337D01*
X164554698Y-102841557D01*
X164554694Y-102841569D01*
X164496337Y-103059365D01*
X164496335Y-103059371D01*
X164494937Y-103064592D01*
X164474341Y-103300000D01*
X164494937Y-103535408D01*
X164496336Y-103540630D01*
X164496337Y-103540634D01*
X164554694Y-103758430D01*
X164554697Y-103758438D01*
X164556097Y-103763663D01*
X164558385Y-103768570D01*
X164558386Y-103768572D01*
X164653678Y-103972927D01*
X164653681Y-103972933D01*
X164655965Y-103977830D01*
X164659064Y-103982257D01*
X164659066Y-103982259D01*
X164788399Y-104166966D01*
X164788402Y-104166970D01*
X164791505Y-104171401D01*
X164958599Y-104338495D01*
X164963032Y-104341599D01*
X164963038Y-104341604D01*
X165144158Y-104468425D01*
X165183024Y-104512743D01*
X165197035Y-104570000D01*
X165183024Y-104627257D01*
X165144159Y-104671575D01*
X164963041Y-104798395D01*
X164958599Y-104801505D01*
X164954775Y-104805328D01*
X164954769Y-104805334D01*
X164795334Y-104964769D01*
X164795328Y-104964775D01*
X164791505Y-104968599D01*
X164788402Y-104973029D01*
X164788399Y-104973034D01*
X164659073Y-105157731D01*
X164659068Y-105157738D01*
X164655965Y-105162171D01*
X164653677Y-105167077D01*
X164653675Y-105167081D01*
X164558386Y-105371427D01*
X164558383Y-105371432D01*
X164556097Y-105376337D01*
X164554698Y-105381557D01*
X164554694Y-105381569D01*
X164496337Y-105599365D01*
X164496335Y-105599371D01*
X164494937Y-105604592D01*
X164474341Y-105840000D01*
X164494937Y-106075408D01*
X164496336Y-106080630D01*
X164496337Y-106080634D01*
X164554694Y-106298430D01*
X164554697Y-106298438D01*
X164556097Y-106303663D01*
X164558385Y-106308570D01*
X164558386Y-106308572D01*
X164653678Y-106512927D01*
X164653681Y-106512933D01*
X164655965Y-106517830D01*
X164659064Y-106522257D01*
X164659066Y-106522259D01*
X164788399Y-106706966D01*
X164788402Y-106706970D01*
X164791505Y-106711401D01*
X164958599Y-106878495D01*
X164963032Y-106881599D01*
X164963038Y-106881604D01*
X165144158Y-107008425D01*
X165183024Y-107052743D01*
X165197035Y-107110000D01*
X165183024Y-107167257D01*
X165144159Y-107211575D01*
X164963041Y-107338395D01*
X164958599Y-107341505D01*
X164954775Y-107345328D01*
X164954769Y-107345334D01*
X164795334Y-107504769D01*
X164795328Y-107504775D01*
X164791505Y-107508599D01*
X164788402Y-107513029D01*
X164788399Y-107513034D01*
X164659073Y-107697731D01*
X164659068Y-107697738D01*
X164655965Y-107702171D01*
X164653677Y-107707077D01*
X164653675Y-107707081D01*
X164558386Y-107911427D01*
X164558383Y-107911432D01*
X164556097Y-107916337D01*
X164554698Y-107921557D01*
X164554694Y-107921569D01*
X164496337Y-108139365D01*
X164496335Y-108139371D01*
X164494937Y-108144592D01*
X164474341Y-108380000D01*
X149405659Y-108380000D01*
X149385063Y-108144592D01*
X149323903Y-107916337D01*
X149224035Y-107702171D01*
X149088495Y-107508599D01*
X148921401Y-107341505D01*
X148916968Y-107338401D01*
X148916961Y-107338395D01*
X148735842Y-107211575D01*
X148696976Y-107167257D01*
X148682965Y-107110000D01*
X148696976Y-107052743D01*
X148735842Y-107008425D01*
X148916961Y-106881604D01*
X148916961Y-106881603D01*
X148921401Y-106878495D01*
X149088495Y-106711401D01*
X149224035Y-106517830D01*
X149323903Y-106303663D01*
X149385063Y-106075408D01*
X149405659Y-105840000D01*
X149385063Y-105604592D01*
X149323903Y-105376337D01*
X149224035Y-105162171D01*
X149088495Y-104968599D01*
X148921401Y-104801505D01*
X148916968Y-104798401D01*
X148916961Y-104798395D01*
X148735842Y-104671575D01*
X148696976Y-104627257D01*
X148682965Y-104570000D01*
X148696976Y-104512743D01*
X148735842Y-104468425D01*
X148916961Y-104341604D01*
X148916961Y-104341603D01*
X148921401Y-104338495D01*
X149088495Y-104171401D01*
X149224035Y-103977830D01*
X149323903Y-103763663D01*
X149385063Y-103535408D01*
X149405659Y-103300000D01*
X149385063Y-103064592D01*
X149323903Y-102836337D01*
X149224035Y-102622171D01*
X149088495Y-102428599D01*
X148921401Y-102261505D01*
X148916968Y-102258401D01*
X148916961Y-102258395D01*
X148735842Y-102131575D01*
X148696976Y-102087257D01*
X148682965Y-102030000D01*
X148696976Y-101972743D01*
X148735842Y-101928425D01*
X148916961Y-101801604D01*
X148916961Y-101801603D01*
X148921401Y-101798495D01*
X149088495Y-101631401D01*
X149224035Y-101437830D01*
X149323903Y-101223663D01*
X149385063Y-100995408D01*
X149405659Y-100760000D01*
X149385063Y-100524592D01*
X149323903Y-100296337D01*
X149224035Y-100082171D01*
X149088495Y-99888599D01*
X148921401Y-99721505D01*
X148916970Y-99718402D01*
X148916966Y-99718399D01*
X148732259Y-99589066D01*
X148732257Y-99589064D01*
X148727830Y-99585965D01*
X148722933Y-99583681D01*
X148722927Y-99583678D01*
X148518572Y-99488386D01*
X148518570Y-99488385D01*
X148513663Y-99486097D01*
X148508438Y-99484697D01*
X148508430Y-99484694D01*
X148290634Y-99426337D01*
X148290630Y-99426336D01*
X148285408Y-99424937D01*
X148280020Y-99424465D01*
X148280017Y-99424465D01*
X148055395Y-99404813D01*
X148050000Y-99404341D01*
X148044605Y-99404813D01*
X147819982Y-99424465D01*
X147819977Y-99424465D01*
X147814592Y-99424937D01*
X147809371Y-99426335D01*
X147809365Y-99426337D01*
X147591569Y-99484694D01*
X147591557Y-99484698D01*
X147586337Y-99486097D01*
X147581432Y-99488383D01*
X147581427Y-99488386D01*
X147377081Y-99583675D01*
X147377077Y-99583677D01*
X147372171Y-99585965D01*
X147367738Y-99589068D01*
X147367731Y-99589073D01*
X147183034Y-99718399D01*
X147183029Y-99718402D01*
X147178599Y-99721505D01*
X147174775Y-99725328D01*
X147174769Y-99725334D01*
X147015334Y-99884769D01*
X147015328Y-99884775D01*
X147011505Y-99888599D01*
X147008402Y-99893029D01*
X147008399Y-99893034D01*
X146879073Y-100077731D01*
X146879068Y-100077738D01*
X146875965Y-100082171D01*
X146873677Y-100087077D01*
X146873675Y-100087081D01*
X146778386Y-100291427D01*
X146778383Y-100291432D01*
X146776097Y-100296337D01*
X146774698Y-100301557D01*
X146774694Y-100301569D01*
X146716337Y-100519365D01*
X146716335Y-100519371D01*
X146714937Y-100524592D01*
X146694341Y-100760000D01*
X146714937Y-100995408D01*
X146716336Y-101000630D01*
X146716337Y-101000634D01*
X146774694Y-101218430D01*
X146774697Y-101218438D01*
X146776097Y-101223663D01*
X146778385Y-101228570D01*
X146778386Y-101228572D01*
X146873678Y-101432927D01*
X146873681Y-101432933D01*
X146875965Y-101437830D01*
X146879064Y-101442257D01*
X146879066Y-101442259D01*
X147008399Y-101626966D01*
X147008402Y-101626970D01*
X147011505Y-101631401D01*
X147178599Y-101798495D01*
X147183032Y-101801599D01*
X147183038Y-101801604D01*
X147364158Y-101928425D01*
X147403024Y-101972743D01*
X147417035Y-102030000D01*
X147403024Y-102087257D01*
X147364159Y-102131575D01*
X147183041Y-102258395D01*
X147178599Y-102261505D01*
X147174775Y-102265328D01*
X147174769Y-102265334D01*
X147015334Y-102424769D01*
X147015328Y-102424775D01*
X147011505Y-102428599D01*
X147008402Y-102433029D01*
X147008399Y-102433034D01*
X146879073Y-102617731D01*
X146879068Y-102617738D01*
X146875965Y-102622171D01*
X146873677Y-102627077D01*
X146873675Y-102627081D01*
X146778386Y-102831427D01*
X146778383Y-102831432D01*
X146776097Y-102836337D01*
X146774698Y-102841557D01*
X146774694Y-102841569D01*
X146716337Y-103059365D01*
X146716335Y-103059371D01*
X146714937Y-103064592D01*
X146694341Y-103300000D01*
X146714937Y-103535408D01*
X146716336Y-103540630D01*
X146716337Y-103540634D01*
X146774694Y-103758430D01*
X146774697Y-103758438D01*
X146776097Y-103763663D01*
X146778385Y-103768570D01*
X146778386Y-103768572D01*
X146873678Y-103972927D01*
X146873681Y-103972933D01*
X146875965Y-103977830D01*
X146879064Y-103982257D01*
X146879066Y-103982259D01*
X147008399Y-104166966D01*
X147008402Y-104166970D01*
X147011505Y-104171401D01*
X147178599Y-104338495D01*
X147183032Y-104341599D01*
X147183038Y-104341604D01*
X147364158Y-104468425D01*
X147403024Y-104512743D01*
X147417035Y-104570000D01*
X147403024Y-104627257D01*
X147364159Y-104671575D01*
X147183041Y-104798395D01*
X147178599Y-104801505D01*
X147174775Y-104805328D01*
X147174769Y-104805334D01*
X147015334Y-104964769D01*
X147015328Y-104964775D01*
X147011505Y-104968599D01*
X147008402Y-104973029D01*
X147008399Y-104973034D01*
X146879073Y-105157731D01*
X146879068Y-105157738D01*
X146875965Y-105162171D01*
X146873677Y-105167077D01*
X146873675Y-105167081D01*
X146778386Y-105371427D01*
X146778383Y-105371432D01*
X146776097Y-105376337D01*
X146774698Y-105381557D01*
X146774694Y-105381569D01*
X146716337Y-105599365D01*
X146716335Y-105599371D01*
X146714937Y-105604592D01*
X146694341Y-105840000D01*
X146714937Y-106075408D01*
X146716336Y-106080630D01*
X146716337Y-106080634D01*
X146774694Y-106298430D01*
X146774697Y-106298438D01*
X146776097Y-106303663D01*
X146778385Y-106308570D01*
X146778386Y-106308572D01*
X146873678Y-106512927D01*
X146873681Y-106512933D01*
X146875965Y-106517830D01*
X146879064Y-106522257D01*
X146879066Y-106522259D01*
X147008399Y-106706966D01*
X147008402Y-106706970D01*
X147011505Y-106711401D01*
X147178599Y-106878495D01*
X147183032Y-106881599D01*
X147183038Y-106881604D01*
X147364158Y-107008425D01*
X147403024Y-107052743D01*
X147417035Y-107110000D01*
X147403024Y-107167257D01*
X147364159Y-107211575D01*
X147183041Y-107338395D01*
X147178599Y-107341505D01*
X147174775Y-107345328D01*
X147174769Y-107345334D01*
X147015334Y-107504769D01*
X147015328Y-107504775D01*
X147011505Y-107508599D01*
X147008402Y-107513029D01*
X147008399Y-107513034D01*
X146879073Y-107697731D01*
X146879068Y-107697738D01*
X146875965Y-107702171D01*
X146873677Y-107707077D01*
X146873675Y-107707081D01*
X146778386Y-107911427D01*
X146778383Y-107911432D01*
X146776097Y-107916337D01*
X146774698Y-107921557D01*
X146774694Y-107921569D01*
X146716337Y-108139365D01*
X146716335Y-108139371D01*
X146714937Y-108144592D01*
X146694341Y-108380000D01*
X129350000Y-108380000D01*
X129350000Y-95680000D01*
X146694341Y-95680000D01*
X146714937Y-95915408D01*
X146716336Y-95920630D01*
X146716337Y-95920634D01*
X146774694Y-96138430D01*
X146774697Y-96138438D01*
X146776097Y-96143663D01*
X146778385Y-96148570D01*
X146778386Y-96148572D01*
X146873678Y-96352927D01*
X146873681Y-96352933D01*
X146875965Y-96357830D01*
X146879064Y-96362257D01*
X146879066Y-96362259D01*
X147008399Y-96546966D01*
X147008402Y-96546970D01*
X147011505Y-96551401D01*
X147178599Y-96718495D01*
X147372170Y-96854035D01*
X147586337Y-96953903D01*
X147814592Y-97015063D01*
X148050000Y-97035659D01*
X148285408Y-97015063D01*
X148513663Y-96953903D01*
X148727830Y-96854035D01*
X148921401Y-96718495D01*
X149088495Y-96551401D01*
X149224035Y-96357830D01*
X149323903Y-96143663D01*
X149385063Y-95915408D01*
X149405659Y-95680000D01*
X164474341Y-95680000D01*
X164494937Y-95915408D01*
X164496336Y-95920630D01*
X164496337Y-95920634D01*
X164554694Y-96138430D01*
X164554697Y-96138438D01*
X164556097Y-96143663D01*
X164558385Y-96148570D01*
X164558386Y-96148572D01*
X164653678Y-96352927D01*
X164653681Y-96352933D01*
X164655965Y-96357830D01*
X164659064Y-96362257D01*
X164659066Y-96362259D01*
X164788399Y-96546966D01*
X164788402Y-96546970D01*
X164791505Y-96551401D01*
X164958599Y-96718495D01*
X165152170Y-96854035D01*
X165366337Y-96953903D01*
X165594592Y-97015063D01*
X165830000Y-97035659D01*
X166065408Y-97015063D01*
X166293663Y-96953903D01*
X166507830Y-96854035D01*
X166701401Y-96718495D01*
X166868495Y-96551401D01*
X167004035Y-96357830D01*
X167103903Y-96143663D01*
X167165063Y-95915408D01*
X167185659Y-95680000D01*
X167165063Y-95444592D01*
X167103903Y-95216337D01*
X167004035Y-95002171D01*
X166868495Y-94808599D01*
X166701401Y-94641505D01*
X166696970Y-94638402D01*
X166696966Y-94638399D01*
X166515841Y-94511574D01*
X166476976Y-94467256D01*
X166462965Y-94409999D01*
X166476976Y-94352742D01*
X166515839Y-94308426D01*
X166701401Y-94178495D01*
X166868495Y-94011401D01*
X167004035Y-93817830D01*
X167103903Y-93603663D01*
X167165063Y-93375408D01*
X167185659Y-93140000D01*
X167165063Y-92904592D01*
X167103903Y-92676337D01*
X167004035Y-92462171D01*
X166868495Y-92268599D01*
X166701401Y-92101505D01*
X166696970Y-92098402D01*
X166696966Y-92098399D01*
X166512259Y-91969066D01*
X166512257Y-91969064D01*
X166507830Y-91965965D01*
X166502933Y-91963681D01*
X166502927Y-91963678D01*
X166298572Y-91868386D01*
X166298570Y-91868385D01*
X166293663Y-91866097D01*
X166288438Y-91864697D01*
X166288430Y-91864694D01*
X166070634Y-91806337D01*
X166070630Y-91806336D01*
X166065408Y-91804937D01*
X166060020Y-91804465D01*
X166060017Y-91804465D01*
X165835395Y-91784813D01*
X165830000Y-91784341D01*
X165824605Y-91784813D01*
X165599982Y-91804465D01*
X165599977Y-91804465D01*
X165594592Y-91804937D01*
X165589371Y-91806335D01*
X165589365Y-91806337D01*
X165371569Y-91864694D01*
X165371557Y-91864698D01*
X165366337Y-91866097D01*
X165361432Y-91868383D01*
X165361427Y-91868386D01*
X165157081Y-91963675D01*
X165157077Y-91963677D01*
X165152171Y-91965965D01*
X165147738Y-91969068D01*
X165147731Y-91969073D01*
X164963034Y-92098399D01*
X164963029Y-92098402D01*
X164958599Y-92101505D01*
X164954775Y-92105328D01*
X164954769Y-92105334D01*
X164795334Y-92264769D01*
X164795328Y-92264775D01*
X164791505Y-92268599D01*
X164788402Y-92273029D01*
X164788399Y-92273034D01*
X164659073Y-92457731D01*
X164659068Y-92457738D01*
X164655965Y-92462171D01*
X164653677Y-92467077D01*
X164653675Y-92467081D01*
X164558386Y-92671427D01*
X164558383Y-92671432D01*
X164556097Y-92676337D01*
X164554698Y-92681557D01*
X164554694Y-92681569D01*
X164496337Y-92899365D01*
X164496335Y-92899371D01*
X164494937Y-92904592D01*
X164494465Y-92909977D01*
X164494465Y-92909982D01*
X164475271Y-93129365D01*
X164474341Y-93140000D01*
X164494937Y-93375408D01*
X164496336Y-93380630D01*
X164496337Y-93380634D01*
X164554694Y-93598430D01*
X164554697Y-93598438D01*
X164556097Y-93603663D01*
X164558385Y-93608570D01*
X164558386Y-93608572D01*
X164653678Y-93812927D01*
X164653681Y-93812933D01*
X164655965Y-93817830D01*
X164659064Y-93822257D01*
X164659066Y-93822259D01*
X164788399Y-94006966D01*
X164788402Y-94006970D01*
X164791505Y-94011401D01*
X164958599Y-94178495D01*
X164963032Y-94181599D01*
X164963038Y-94181604D01*
X165144158Y-94308425D01*
X165183024Y-94352743D01*
X165197035Y-94410000D01*
X165183024Y-94467257D01*
X165144160Y-94511574D01*
X164958599Y-94641505D01*
X164954775Y-94645328D01*
X164954769Y-94645334D01*
X164795334Y-94804769D01*
X164795328Y-94804775D01*
X164791505Y-94808599D01*
X164788402Y-94813029D01*
X164788399Y-94813034D01*
X164659073Y-94997731D01*
X164659068Y-94997738D01*
X164655965Y-95002171D01*
X164653677Y-95007077D01*
X164653675Y-95007081D01*
X164558386Y-95211427D01*
X164558383Y-95211432D01*
X164556097Y-95216337D01*
X164554698Y-95221557D01*
X164554694Y-95221569D01*
X164496337Y-95439365D01*
X164496335Y-95439371D01*
X164494937Y-95444592D01*
X164474341Y-95680000D01*
X149405659Y-95680000D01*
X149385063Y-95444592D01*
X149323903Y-95216337D01*
X149224035Y-95002171D01*
X149088495Y-94808599D01*
X148921401Y-94641505D01*
X148916970Y-94638402D01*
X148916966Y-94638399D01*
X148735841Y-94511574D01*
X148696976Y-94467256D01*
X148682965Y-94409999D01*
X148696976Y-94352742D01*
X148735839Y-94308426D01*
X148921401Y-94178495D01*
X149088495Y-94011401D01*
X149224035Y-93817830D01*
X149323903Y-93603663D01*
X149385063Y-93375408D01*
X149385536Y-93370000D01*
X153044341Y-93370000D01*
X153064937Y-93605408D01*
X153066336Y-93610630D01*
X153066337Y-93610634D01*
X153124694Y-93828430D01*
X153124697Y-93828438D01*
X153126097Y-93833663D01*
X153128385Y-93838570D01*
X153128386Y-93838572D01*
X153223678Y-94042927D01*
X153223681Y-94042933D01*
X153225965Y-94047830D01*
X153229064Y-94052257D01*
X153229066Y-94052259D01*
X153358399Y-94236966D01*
X153358402Y-94236970D01*
X153361505Y-94241401D01*
X153528599Y-94408495D01*
X153722170Y-94544035D01*
X153936337Y-94643903D01*
X153941567Y-94645304D01*
X153941569Y-94645305D01*
X153941685Y-94645336D01*
X154164592Y-94705063D01*
X154400000Y-94725659D01*
X154635408Y-94705063D01*
X154863663Y-94643903D01*
X155077830Y-94544035D01*
X155271401Y-94408495D01*
X155438495Y-94241401D01*
X155574035Y-94047830D01*
X155673903Y-93833663D01*
X155735063Y-93605408D01*
X155755659Y-93370000D01*
X158124341Y-93370000D01*
X158144937Y-93605408D01*
X158146336Y-93610630D01*
X158146337Y-93610634D01*
X158204694Y-93828430D01*
X158204697Y-93828438D01*
X158206097Y-93833663D01*
X158208385Y-93838570D01*
X158208386Y-93838572D01*
X158303678Y-94042927D01*
X158303681Y-94042933D01*
X158305965Y-94047830D01*
X158309064Y-94052257D01*
X158309066Y-94052259D01*
X158438399Y-94236966D01*
X158438402Y-94236970D01*
X158441505Y-94241401D01*
X158608599Y-94408495D01*
X158802170Y-94544035D01*
X159016337Y-94643903D01*
X159021567Y-94645304D01*
X159021569Y-94645305D01*
X159021685Y-94645336D01*
X159244592Y-94705063D01*
X159480000Y-94725659D01*
X159715408Y-94705063D01*
X159943663Y-94643903D01*
X160157830Y-94544035D01*
X160351401Y-94408495D01*
X160518495Y-94241401D01*
X160654035Y-94047830D01*
X160753903Y-93833663D01*
X160815063Y-93605408D01*
X160835659Y-93370000D01*
X160815063Y-93134592D01*
X160753903Y-92906337D01*
X160654035Y-92692171D01*
X160518495Y-92498599D01*
X160351401Y-92331505D01*
X160346970Y-92328402D01*
X160346966Y-92328399D01*
X160162259Y-92199066D01*
X160162257Y-92199064D01*
X160157830Y-92195965D01*
X160152933Y-92193681D01*
X160152927Y-92193678D01*
X159948572Y-92098386D01*
X159948570Y-92098385D01*
X159943663Y-92096097D01*
X159938438Y-92094697D01*
X159938430Y-92094694D01*
X159720634Y-92036337D01*
X159720630Y-92036336D01*
X159715408Y-92034937D01*
X159710020Y-92034465D01*
X159710017Y-92034465D01*
X159485395Y-92014813D01*
X159480000Y-92014341D01*
X159474605Y-92014813D01*
X159249982Y-92034465D01*
X159249977Y-92034465D01*
X159244592Y-92034937D01*
X159239371Y-92036335D01*
X159239365Y-92036337D01*
X159021569Y-92094694D01*
X159021557Y-92094698D01*
X159016337Y-92096097D01*
X159011432Y-92098383D01*
X159011427Y-92098386D01*
X158807081Y-92193675D01*
X158807077Y-92193677D01*
X158802171Y-92195965D01*
X158797738Y-92199068D01*
X158797731Y-92199073D01*
X158613034Y-92328399D01*
X158613029Y-92328402D01*
X158608599Y-92331505D01*
X158604775Y-92335328D01*
X158604769Y-92335334D01*
X158445334Y-92494769D01*
X158445328Y-92494775D01*
X158441505Y-92498599D01*
X158438402Y-92503029D01*
X158438399Y-92503034D01*
X158309073Y-92687731D01*
X158309068Y-92687738D01*
X158305965Y-92692171D01*
X158303677Y-92697077D01*
X158303675Y-92697081D01*
X158208386Y-92901427D01*
X158208383Y-92901432D01*
X158206097Y-92906337D01*
X158204698Y-92911557D01*
X158204694Y-92911569D01*
X158146337Y-93129365D01*
X158146335Y-93129371D01*
X158144937Y-93134592D01*
X158144465Y-93139977D01*
X158144465Y-93139982D01*
X158124813Y-93364605D01*
X158124341Y-93370000D01*
X155755659Y-93370000D01*
X155735063Y-93134592D01*
X155673903Y-92906337D01*
X155574035Y-92692171D01*
X155438495Y-92498599D01*
X155271401Y-92331505D01*
X155266970Y-92328402D01*
X155266966Y-92328399D01*
X155082259Y-92199066D01*
X155082257Y-92199064D01*
X155077830Y-92195965D01*
X155072933Y-92193681D01*
X155072927Y-92193678D01*
X154868572Y-92098386D01*
X154868570Y-92098385D01*
X154863663Y-92096097D01*
X154858438Y-92094697D01*
X154858430Y-92094694D01*
X154640634Y-92036337D01*
X154640630Y-92036336D01*
X154635408Y-92034937D01*
X154630020Y-92034465D01*
X154630017Y-92034465D01*
X154405395Y-92014813D01*
X154400000Y-92014341D01*
X154394605Y-92014813D01*
X154169982Y-92034465D01*
X154169977Y-92034465D01*
X154164592Y-92034937D01*
X154159371Y-92036335D01*
X154159365Y-92036337D01*
X153941569Y-92094694D01*
X153941557Y-92094698D01*
X153936337Y-92096097D01*
X153931432Y-92098383D01*
X153931427Y-92098386D01*
X153727081Y-92193675D01*
X153727077Y-92193677D01*
X153722171Y-92195965D01*
X153717738Y-92199068D01*
X153717731Y-92199073D01*
X153533034Y-92328399D01*
X153533029Y-92328402D01*
X153528599Y-92331505D01*
X153524775Y-92335328D01*
X153524769Y-92335334D01*
X153365334Y-92494769D01*
X153365328Y-92494775D01*
X153361505Y-92498599D01*
X153358402Y-92503029D01*
X153358399Y-92503034D01*
X153229073Y-92687731D01*
X153229068Y-92687738D01*
X153225965Y-92692171D01*
X153223677Y-92697077D01*
X153223675Y-92697081D01*
X153128386Y-92901427D01*
X153128383Y-92901432D01*
X153126097Y-92906337D01*
X153124698Y-92911557D01*
X153124694Y-92911569D01*
X153066337Y-93129365D01*
X153066335Y-93129371D01*
X153064937Y-93134592D01*
X153064465Y-93139977D01*
X153064465Y-93139982D01*
X153044813Y-93364605D01*
X153044341Y-93370000D01*
X149385536Y-93370000D01*
X149405659Y-93140000D01*
X149385063Y-92904592D01*
X149323903Y-92676337D01*
X149224035Y-92462171D01*
X149088495Y-92268599D01*
X148921401Y-92101505D01*
X148916970Y-92098402D01*
X148916966Y-92098399D01*
X148732259Y-91969066D01*
X148732257Y-91969064D01*
X148727830Y-91965965D01*
X148722933Y-91963681D01*
X148722927Y-91963678D01*
X148518572Y-91868386D01*
X148518570Y-91868385D01*
X148513663Y-91866097D01*
X148508438Y-91864697D01*
X148508430Y-91864694D01*
X148290634Y-91806337D01*
X148290630Y-91806336D01*
X148285408Y-91804937D01*
X148280020Y-91804465D01*
X148280017Y-91804465D01*
X148055395Y-91784813D01*
X148050000Y-91784341D01*
X148044605Y-91784813D01*
X147819982Y-91804465D01*
X147819977Y-91804465D01*
X147814592Y-91804937D01*
X147809371Y-91806335D01*
X147809365Y-91806337D01*
X147591569Y-91864694D01*
X147591557Y-91864698D01*
X147586337Y-91866097D01*
X147581432Y-91868383D01*
X147581427Y-91868386D01*
X147377081Y-91963675D01*
X147377077Y-91963677D01*
X147372171Y-91965965D01*
X147367738Y-91969068D01*
X147367731Y-91969073D01*
X147183034Y-92098399D01*
X147183029Y-92098402D01*
X147178599Y-92101505D01*
X147174775Y-92105328D01*
X147174769Y-92105334D01*
X147015334Y-92264769D01*
X147015328Y-92264775D01*
X147011505Y-92268599D01*
X147008402Y-92273029D01*
X147008399Y-92273034D01*
X146879073Y-92457731D01*
X146879068Y-92457738D01*
X146875965Y-92462171D01*
X146873677Y-92467077D01*
X146873675Y-92467081D01*
X146778386Y-92671427D01*
X146778383Y-92671432D01*
X146776097Y-92676337D01*
X146774698Y-92681557D01*
X146774694Y-92681569D01*
X146716337Y-92899365D01*
X146716335Y-92899371D01*
X146714937Y-92904592D01*
X146714465Y-92909977D01*
X146714465Y-92909982D01*
X146695271Y-93129365D01*
X146694341Y-93140000D01*
X146714937Y-93375408D01*
X146716336Y-93380630D01*
X146716337Y-93380634D01*
X146774694Y-93598430D01*
X146774697Y-93598438D01*
X146776097Y-93603663D01*
X146778385Y-93608570D01*
X146778386Y-93608572D01*
X146873678Y-93812927D01*
X146873681Y-93812933D01*
X146875965Y-93817830D01*
X146879064Y-93822257D01*
X146879066Y-93822259D01*
X147008399Y-94006966D01*
X147008402Y-94006970D01*
X147011505Y-94011401D01*
X147178599Y-94178495D01*
X147183032Y-94181599D01*
X147183038Y-94181604D01*
X147364158Y-94308425D01*
X147403024Y-94352743D01*
X147417035Y-94410000D01*
X147403024Y-94467257D01*
X147364160Y-94511574D01*
X147178599Y-94641505D01*
X147174775Y-94645328D01*
X147174769Y-94645334D01*
X147015334Y-94804769D01*
X147015328Y-94804775D01*
X147011505Y-94808599D01*
X147008402Y-94813029D01*
X147008399Y-94813034D01*
X146879073Y-94997731D01*
X146879068Y-94997738D01*
X146875965Y-95002171D01*
X146873677Y-95007077D01*
X146873675Y-95007081D01*
X146778386Y-95211427D01*
X146778383Y-95211432D01*
X146776097Y-95216337D01*
X146774698Y-95221557D01*
X146774694Y-95221569D01*
X146716337Y-95439365D01*
X146716335Y-95439371D01*
X146714937Y-95444592D01*
X146694341Y-95680000D01*
X129350000Y-95680000D01*
X129350000Y-81250000D01*
X103750000Y-81250000D01*
X89150367Y-81250000D01*
X89150367Y-49150555D01*
X90694355Y-49150555D01*
X90714655Y-49537893D01*
X90715160Y-49541086D01*
X90715162Y-49541098D01*
X90774822Y-49917779D01*
X90774824Y-49917792D01*
X90775331Y-49920988D01*
X90875719Y-50295642D01*
X91014719Y-50657749D01*
X91016188Y-50660632D01*
X91016192Y-50660641D01*
X91189333Y-51000450D01*
X91190808Y-51003344D01*
X91402057Y-51328639D01*
X91646152Y-51630071D01*
X91920417Y-51904336D01*
X92221849Y-52148431D01*
X92547144Y-52359680D01*
X92892739Y-52535769D01*
X93254846Y-52674769D01*
X93629500Y-52775157D01*
X94012595Y-52835833D01*
X94399933Y-52856133D01*
X94787271Y-52835833D01*
X95170366Y-52775157D01*
X95545020Y-52674769D01*
X95907127Y-52535769D01*
X96252722Y-52359680D01*
X96578017Y-52148431D01*
X96879449Y-51904336D01*
X97153714Y-51630071D01*
X97397809Y-51328639D01*
X97609058Y-51003344D01*
X97785147Y-50657749D01*
X97924147Y-50295642D01*
X98024535Y-49920988D01*
X98085211Y-49537893D01*
X98105511Y-49150555D01*
X179194355Y-49150555D01*
X179214655Y-49537893D01*
X179215160Y-49541086D01*
X179215162Y-49541098D01*
X179274822Y-49917779D01*
X179274824Y-49917792D01*
X179275331Y-49920988D01*
X179375719Y-50295642D01*
X179514719Y-50657749D01*
X179516188Y-50660632D01*
X179516192Y-50660641D01*
X179689333Y-51000450D01*
X179690808Y-51003344D01*
X179902057Y-51328639D01*
X180146152Y-51630071D01*
X180420417Y-51904336D01*
X180721849Y-52148431D01*
X181047144Y-52359680D01*
X181392739Y-52535769D01*
X181754846Y-52674769D01*
X182129500Y-52775157D01*
X182512595Y-52835833D01*
X182899933Y-52856133D01*
X183287271Y-52835833D01*
X183670366Y-52775157D01*
X184045020Y-52674769D01*
X184407127Y-52535769D01*
X184752722Y-52359680D01*
X185078017Y-52148431D01*
X185379449Y-51904336D01*
X185653714Y-51630071D01*
X185897809Y-51328639D01*
X186109058Y-51003344D01*
X186285147Y-50657749D01*
X186424147Y-50295642D01*
X186524535Y-49920988D01*
X186585211Y-49537893D01*
X186605511Y-49150555D01*
X186585211Y-48763217D01*
X186524535Y-48380122D01*
X186424147Y-48005468D01*
X186285147Y-47643361D01*
X186109058Y-47297766D01*
X185897809Y-46972471D01*
X185653714Y-46671039D01*
X185379449Y-46396774D01*
X185078017Y-46152679D01*
X184752722Y-45941430D01*
X184749834Y-45939958D01*
X184749828Y-45939955D01*
X184410019Y-45766814D01*
X184410010Y-45766810D01*
X184407127Y-45765341D01*
X184404095Y-45764177D01*
X184048043Y-45627501D01*
X184048035Y-45627498D01*
X184045020Y-45626341D01*
X184041895Y-45625503D01*
X184041890Y-45625502D01*
X183673499Y-45526792D01*
X183673490Y-45526790D01*
X183670366Y-45525953D01*
X183667170Y-45525446D01*
X183667157Y-45525444D01*
X183290476Y-45465784D01*
X183290464Y-45465782D01*
X183287271Y-45465277D01*
X183284036Y-45465107D01*
X183284032Y-45465107D01*
X182903177Y-45445147D01*
X182899933Y-45444977D01*
X182896689Y-45445147D01*
X182515833Y-45465107D01*
X182515827Y-45465107D01*
X182512595Y-45465277D01*
X182509403Y-45465782D01*
X182509389Y-45465784D01*
X182132708Y-45525444D01*
X182132691Y-45525447D01*
X182129500Y-45525953D01*
X182126379Y-45526789D01*
X182126366Y-45526792D01*
X181757975Y-45625502D01*
X181757964Y-45625505D01*
X181754846Y-45626341D01*
X181751835Y-45627496D01*
X181751822Y-45627501D01*
X181395770Y-45764177D01*
X181395761Y-45764180D01*
X181392739Y-45765341D01*
X181389862Y-45766806D01*
X181389846Y-45766814D01*
X181050037Y-45939955D01*
X181050023Y-45939963D01*
X181047144Y-45941430D01*
X181044424Y-45943196D01*
X181044416Y-45943201D01*
X180724577Y-46150907D01*
X180724571Y-46150910D01*
X180721849Y-46152679D01*
X180719329Y-46154719D01*
X180719323Y-46154724D01*
X180422935Y-46394734D01*
X180422924Y-46394743D01*
X180420417Y-46396774D01*
X180418132Y-46399058D01*
X180418122Y-46399068D01*
X180148446Y-46668744D01*
X180148436Y-46668754D01*
X180146152Y-46671039D01*
X180144121Y-46673546D01*
X180144112Y-46673557D01*
X179904102Y-46969945D01*
X179904097Y-46969951D01*
X179902057Y-46972471D01*
X179900288Y-46975193D01*
X179900285Y-46975199D01*
X179692579Y-47295038D01*
X179692574Y-47295046D01*
X179690808Y-47297766D01*
X179689341Y-47300645D01*
X179689333Y-47300659D01*
X179516192Y-47640468D01*
X179516184Y-47640484D01*
X179514719Y-47643361D01*
X179513558Y-47646383D01*
X179513555Y-47646392D01*
X179376879Y-48002444D01*
X179376874Y-48002457D01*
X179375719Y-48005468D01*
X179374883Y-48008586D01*
X179374880Y-48008597D01*
X179276170Y-48376988D01*
X179276167Y-48377001D01*
X179275331Y-48380122D01*
X179274825Y-48383313D01*
X179274822Y-48383330D01*
X179215162Y-48760011D01*
X179215160Y-48760025D01*
X179214655Y-48763217D01*
X179194355Y-49150555D01*
X98105511Y-49150555D01*
X98085211Y-48763217D01*
X98024535Y-48380122D01*
X97924147Y-48005468D01*
X97785147Y-47643361D01*
X97609058Y-47297766D01*
X97397809Y-46972471D01*
X97153714Y-46671039D01*
X96879449Y-46396774D01*
X96578017Y-46152679D01*
X96252722Y-45941430D01*
X96249834Y-45939958D01*
X96249828Y-45939955D01*
X95910019Y-45766814D01*
X95910010Y-45766810D01*
X95907127Y-45765341D01*
X95904095Y-45764177D01*
X95548043Y-45627501D01*
X95548035Y-45627498D01*
X95545020Y-45626341D01*
X95541895Y-45625503D01*
X95541890Y-45625502D01*
X95173499Y-45526792D01*
X95173490Y-45526790D01*
X95170366Y-45525953D01*
X95167170Y-45525446D01*
X95167157Y-45525444D01*
X94790476Y-45465784D01*
X94790464Y-45465782D01*
X94787271Y-45465277D01*
X94784036Y-45465107D01*
X94784032Y-45465107D01*
X94403177Y-45445147D01*
X94399933Y-45444977D01*
X94396689Y-45445147D01*
X94015833Y-45465107D01*
X94015827Y-45465107D01*
X94012595Y-45465277D01*
X94009403Y-45465782D01*
X94009389Y-45465784D01*
X93632708Y-45525444D01*
X93632691Y-45525447D01*
X93629500Y-45525953D01*
X93626379Y-45526789D01*
X93626366Y-45526792D01*
X93257975Y-45625502D01*
X93257964Y-45625505D01*
X93254846Y-45626341D01*
X93251835Y-45627496D01*
X93251822Y-45627501D01*
X92895770Y-45764177D01*
X92895761Y-45764180D01*
X92892739Y-45765341D01*
X92889862Y-45766806D01*
X92889846Y-45766814D01*
X92550037Y-45939955D01*
X92550023Y-45939963D01*
X92547144Y-45941430D01*
X92544424Y-45943196D01*
X92544416Y-45943201D01*
X92224577Y-46150907D01*
X92224571Y-46150910D01*
X92221849Y-46152679D01*
X92219329Y-46154719D01*
X92219323Y-46154724D01*
X91922935Y-46394734D01*
X91922924Y-46394743D01*
X91920417Y-46396774D01*
X91918132Y-46399058D01*
X91918122Y-46399068D01*
X91648446Y-46668744D01*
X91648436Y-46668754D01*
X91646152Y-46671039D01*
X91644121Y-46673546D01*
X91644112Y-46673557D01*
X91404102Y-46969945D01*
X91404097Y-46969951D01*
X91402057Y-46972471D01*
X91400288Y-46975193D01*
X91400285Y-46975199D01*
X91192579Y-47295038D01*
X91192574Y-47295046D01*
X91190808Y-47297766D01*
X91189341Y-47300645D01*
X91189333Y-47300659D01*
X91016192Y-47640468D01*
X91016184Y-47640484D01*
X91014719Y-47643361D01*
X91013558Y-47646383D01*
X91013555Y-47646392D01*
X90876879Y-48002444D01*
X90876874Y-48002457D01*
X90875719Y-48005468D01*
X90874883Y-48008586D01*
X90874880Y-48008597D01*
X90776170Y-48376988D01*
X90776167Y-48377001D01*
X90775331Y-48380122D01*
X90774825Y-48383313D01*
X90774822Y-48383330D01*
X90715162Y-48760011D01*
X90715160Y-48760025D01*
X90714655Y-48763217D01*
X90694355Y-49150555D01*
X89150367Y-49150555D01*
X89150367Y-44966510D01*
X89150368Y-44966506D01*
X89150367Y-44906022D01*
X89150839Y-44895217D01*
X89150850Y-44895092D01*
X89164606Y-44737829D01*
X89168356Y-44716556D01*
X89207842Y-44569188D01*
X89215230Y-44548887D01*
X89279704Y-44410622D01*
X89290507Y-44391910D01*
X89378012Y-44266937D01*
X89391902Y-44250384D01*
X89499775Y-44142509D01*
X89516325Y-44128621D01*
X89641299Y-44041112D01*
X89659998Y-44030315D01*
X89798275Y-43965835D01*
X89818575Y-43958446D01*
X89965937Y-43918960D01*
X89987220Y-43915208D01*
X90144353Y-43901460D01*
X90155160Y-43900989D01*
X187083976Y-43900989D01*
X187083979Y-43900989D01*
X187083986Y-43900991D01*
G37*
%TD.AperFunction*%
%TD*%
M02*
