%TF.GenerationSoftware,KiCad,Pcbnew,(7.0.0)*%
%TF.CreationDate,2023-12-08T15:04:05-05:00*%
%TF.ProjectId,Coaster,436f6173-7465-4722-9e6b-696361645f70,rev?*%
%TF.SameCoordinates,Original*%
%TF.FileFunction,Other,Comment*%
%FSLAX46Y46*%
G04 Gerber Fmt 4.6, Leading zero omitted, Abs format (unit mm)*
G04 Created by KiCad (PCBNEW (7.0.0)) date 2023-12-08 15:04:05*
%MOMM*%
%LPD*%
G01*
G04 APERTURE LIST*
%ADD10C,0.150000*%
G04 APERTURE END LIST*
D10*
%TO.C,U2*%
X143244759Y-147742142D02*
X143197140Y-147789761D01*
X143197140Y-147789761D02*
X143054283Y-147837380D01*
X143054283Y-147837380D02*
X142959045Y-147837380D01*
X142959045Y-147837380D02*
X142816188Y-147789761D01*
X142816188Y-147789761D02*
X142720950Y-147694523D01*
X142720950Y-147694523D02*
X142673331Y-147599285D01*
X142673331Y-147599285D02*
X142625712Y-147408809D01*
X142625712Y-147408809D02*
X142625712Y-147265952D01*
X142625712Y-147265952D02*
X142673331Y-147075476D01*
X142673331Y-147075476D02*
X142720950Y-146980238D01*
X142720950Y-146980238D02*
X142816188Y-146885000D01*
X142816188Y-146885000D02*
X142959045Y-146837380D01*
X142959045Y-146837380D02*
X143054283Y-146837380D01*
X143054283Y-146837380D02*
X143197140Y-146885000D01*
X143197140Y-146885000D02*
X143244759Y-146932619D01*
X143816188Y-147837380D02*
X143720950Y-147789761D01*
X143720950Y-147789761D02*
X143673331Y-147742142D01*
X143673331Y-147742142D02*
X143625712Y-147646904D01*
X143625712Y-147646904D02*
X143625712Y-147361190D01*
X143625712Y-147361190D02*
X143673331Y-147265952D01*
X143673331Y-147265952D02*
X143720950Y-147218333D01*
X143720950Y-147218333D02*
X143816188Y-147170714D01*
X143816188Y-147170714D02*
X143959045Y-147170714D01*
X143959045Y-147170714D02*
X144054283Y-147218333D01*
X144054283Y-147218333D02*
X144101902Y-147265952D01*
X144101902Y-147265952D02*
X144149521Y-147361190D01*
X144149521Y-147361190D02*
X144149521Y-147646904D01*
X144149521Y-147646904D02*
X144101902Y-147742142D01*
X144101902Y-147742142D02*
X144054283Y-147789761D01*
X144054283Y-147789761D02*
X143959045Y-147837380D01*
X143959045Y-147837380D02*
X143816188Y-147837380D01*
X144578093Y-147170714D02*
X144578093Y-148170714D01*
X144578093Y-147218333D02*
X144673331Y-147170714D01*
X144673331Y-147170714D02*
X144863807Y-147170714D01*
X144863807Y-147170714D02*
X144959045Y-147218333D01*
X144959045Y-147218333D02*
X145006664Y-147265952D01*
X145006664Y-147265952D02*
X145054283Y-147361190D01*
X145054283Y-147361190D02*
X145054283Y-147646904D01*
X145054283Y-147646904D02*
X145006664Y-147742142D01*
X145006664Y-147742142D02*
X144959045Y-147789761D01*
X144959045Y-147789761D02*
X144863807Y-147837380D01*
X144863807Y-147837380D02*
X144673331Y-147837380D01*
X144673331Y-147837380D02*
X144578093Y-147789761D01*
X145482855Y-147170714D02*
X145482855Y-148170714D01*
X145482855Y-147218333D02*
X145578093Y-147170714D01*
X145578093Y-147170714D02*
X145768569Y-147170714D01*
X145768569Y-147170714D02*
X145863807Y-147218333D01*
X145863807Y-147218333D02*
X145911426Y-147265952D01*
X145911426Y-147265952D02*
X145959045Y-147361190D01*
X145959045Y-147361190D02*
X145959045Y-147646904D01*
X145959045Y-147646904D02*
X145911426Y-147742142D01*
X145911426Y-147742142D02*
X145863807Y-147789761D01*
X145863807Y-147789761D02*
X145768569Y-147837380D01*
X145768569Y-147837380D02*
X145578093Y-147837380D01*
X145578093Y-147837380D02*
X145482855Y-147789761D01*
X146768569Y-147789761D02*
X146673331Y-147837380D01*
X146673331Y-147837380D02*
X146482855Y-147837380D01*
X146482855Y-147837380D02*
X146387617Y-147789761D01*
X146387617Y-147789761D02*
X146339998Y-147694523D01*
X146339998Y-147694523D02*
X146339998Y-147313571D01*
X146339998Y-147313571D02*
X146387617Y-147218333D01*
X146387617Y-147218333D02*
X146482855Y-147170714D01*
X146482855Y-147170714D02*
X146673331Y-147170714D01*
X146673331Y-147170714D02*
X146768569Y-147218333D01*
X146768569Y-147218333D02*
X146816188Y-147313571D01*
X146816188Y-147313571D02*
X146816188Y-147408809D01*
X146816188Y-147408809D02*
X146339998Y-147504047D01*
X147244760Y-147837380D02*
X147244760Y-147170714D01*
X147244760Y-147361190D02*
X147292379Y-147265952D01*
X147292379Y-147265952D02*
X147339998Y-147218333D01*
X147339998Y-147218333D02*
X147435236Y-147170714D01*
X147435236Y-147170714D02*
X147530474Y-147170714D01*
X148463808Y-147837380D02*
X148463808Y-146837380D01*
X149035236Y-147837380D02*
X148606665Y-147265952D01*
X149035236Y-146837380D02*
X148463808Y-147408809D01*
X149844760Y-147789761D02*
X149749522Y-147837380D01*
X149749522Y-147837380D02*
X149559046Y-147837380D01*
X149559046Y-147837380D02*
X149463808Y-147789761D01*
X149463808Y-147789761D02*
X149416189Y-147694523D01*
X149416189Y-147694523D02*
X149416189Y-147313571D01*
X149416189Y-147313571D02*
X149463808Y-147218333D01*
X149463808Y-147218333D02*
X149559046Y-147170714D01*
X149559046Y-147170714D02*
X149749522Y-147170714D01*
X149749522Y-147170714D02*
X149844760Y-147218333D01*
X149844760Y-147218333D02*
X149892379Y-147313571D01*
X149892379Y-147313571D02*
X149892379Y-147408809D01*
X149892379Y-147408809D02*
X149416189Y-147504047D01*
X150701903Y-147789761D02*
X150606665Y-147837380D01*
X150606665Y-147837380D02*
X150416189Y-147837380D01*
X150416189Y-147837380D02*
X150320951Y-147789761D01*
X150320951Y-147789761D02*
X150273332Y-147694523D01*
X150273332Y-147694523D02*
X150273332Y-147313571D01*
X150273332Y-147313571D02*
X150320951Y-147218333D01*
X150320951Y-147218333D02*
X150416189Y-147170714D01*
X150416189Y-147170714D02*
X150606665Y-147170714D01*
X150606665Y-147170714D02*
X150701903Y-147218333D01*
X150701903Y-147218333D02*
X150749522Y-147313571D01*
X150749522Y-147313571D02*
X150749522Y-147408809D01*
X150749522Y-147408809D02*
X150273332Y-147504047D01*
X151178094Y-147170714D02*
X151178094Y-148170714D01*
X151178094Y-147218333D02*
X151273332Y-147170714D01*
X151273332Y-147170714D02*
X151463808Y-147170714D01*
X151463808Y-147170714D02*
X151559046Y-147218333D01*
X151559046Y-147218333D02*
X151606665Y-147265952D01*
X151606665Y-147265952D02*
X151654284Y-147361190D01*
X151654284Y-147361190D02*
X151654284Y-147646904D01*
X151654284Y-147646904D02*
X151606665Y-147742142D01*
X151606665Y-147742142D02*
X151559046Y-147789761D01*
X151559046Y-147789761D02*
X151463808Y-147837380D01*
X151463808Y-147837380D02*
X151273332Y-147837380D01*
X151273332Y-147837380D02*
X151178094Y-147789761D01*
X152225713Y-147837380D02*
X152130475Y-147789761D01*
X152130475Y-147789761D02*
X152082856Y-147742142D01*
X152082856Y-147742142D02*
X152035237Y-147646904D01*
X152035237Y-147646904D02*
X152035237Y-147361190D01*
X152035237Y-147361190D02*
X152082856Y-147265952D01*
X152082856Y-147265952D02*
X152130475Y-147218333D01*
X152130475Y-147218333D02*
X152225713Y-147170714D01*
X152225713Y-147170714D02*
X152368570Y-147170714D01*
X152368570Y-147170714D02*
X152463808Y-147218333D01*
X152463808Y-147218333D02*
X152511427Y-147265952D01*
X152511427Y-147265952D02*
X152559046Y-147361190D01*
X152559046Y-147361190D02*
X152559046Y-147646904D01*
X152559046Y-147646904D02*
X152511427Y-147742142D01*
X152511427Y-147742142D02*
X152463808Y-147789761D01*
X152463808Y-147789761D02*
X152368570Y-147837380D01*
X152368570Y-147837380D02*
X152225713Y-147837380D01*
X153416189Y-147170714D02*
X153416189Y-147837380D01*
X152987618Y-147170714D02*
X152987618Y-147694523D01*
X152987618Y-147694523D02*
X153035237Y-147789761D01*
X153035237Y-147789761D02*
X153130475Y-147837380D01*
X153130475Y-147837380D02*
X153273332Y-147837380D01*
X153273332Y-147837380D02*
X153368570Y-147789761D01*
X153368570Y-147789761D02*
X153416189Y-147742142D01*
X153749523Y-147170714D02*
X154130475Y-147170714D01*
X153892380Y-146837380D02*
X153892380Y-147694523D01*
X153892380Y-147694523D02*
X153939999Y-147789761D01*
X153939999Y-147789761D02*
X154035237Y-147837380D01*
X154035237Y-147837380D02*
X154130475Y-147837380D01*
X154416190Y-147789761D02*
X154511428Y-147837380D01*
X154511428Y-147837380D02*
X154701904Y-147837380D01*
X154701904Y-147837380D02*
X154797142Y-147789761D01*
X154797142Y-147789761D02*
X154844761Y-147694523D01*
X154844761Y-147694523D02*
X154844761Y-147646904D01*
X154844761Y-147646904D02*
X154797142Y-147551666D01*
X154797142Y-147551666D02*
X154701904Y-147504047D01*
X154701904Y-147504047D02*
X154559047Y-147504047D01*
X154559047Y-147504047D02*
X154463809Y-147456428D01*
X154463809Y-147456428D02*
X154416190Y-147361190D01*
X154416190Y-147361190D02*
X154416190Y-147313571D01*
X154416190Y-147313571D02*
X154463809Y-147218333D01*
X154463809Y-147218333D02*
X154559047Y-147170714D01*
X154559047Y-147170714D02*
X154701904Y-147170714D01*
X154701904Y-147170714D02*
X154797142Y-147218333D01*
X155825714Y-147789761D02*
X155920952Y-147837380D01*
X155920952Y-147837380D02*
X156111428Y-147837380D01*
X156111428Y-147837380D02*
X156206666Y-147789761D01*
X156206666Y-147789761D02*
X156254285Y-147694523D01*
X156254285Y-147694523D02*
X156254285Y-147646904D01*
X156254285Y-147646904D02*
X156206666Y-147551666D01*
X156206666Y-147551666D02*
X156111428Y-147504047D01*
X156111428Y-147504047D02*
X155968571Y-147504047D01*
X155968571Y-147504047D02*
X155873333Y-147456428D01*
X155873333Y-147456428D02*
X155825714Y-147361190D01*
X155825714Y-147361190D02*
X155825714Y-147313571D01*
X155825714Y-147313571D02*
X155873333Y-147218333D01*
X155873333Y-147218333D02*
X155968571Y-147170714D01*
X155968571Y-147170714D02*
X156111428Y-147170714D01*
X156111428Y-147170714D02*
X156206666Y-147218333D01*
X156682857Y-147837380D02*
X156682857Y-146837380D01*
X157111428Y-147837380D02*
X157111428Y-147313571D01*
X157111428Y-147313571D02*
X157063809Y-147218333D01*
X157063809Y-147218333D02*
X156968571Y-147170714D01*
X156968571Y-147170714D02*
X156825714Y-147170714D01*
X156825714Y-147170714D02*
X156730476Y-147218333D01*
X156730476Y-147218333D02*
X156682857Y-147265952D01*
X157730476Y-147837380D02*
X157635238Y-147789761D01*
X157635238Y-147789761D02*
X157587619Y-147742142D01*
X157587619Y-147742142D02*
X157540000Y-147646904D01*
X157540000Y-147646904D02*
X157540000Y-147361190D01*
X157540000Y-147361190D02*
X157587619Y-147265952D01*
X157587619Y-147265952D02*
X157635238Y-147218333D01*
X157635238Y-147218333D02*
X157730476Y-147170714D01*
X157730476Y-147170714D02*
X157873333Y-147170714D01*
X157873333Y-147170714D02*
X157968571Y-147218333D01*
X157968571Y-147218333D02*
X158016190Y-147265952D01*
X158016190Y-147265952D02*
X158063809Y-147361190D01*
X158063809Y-147361190D02*
X158063809Y-147646904D01*
X158063809Y-147646904D02*
X158016190Y-147742142D01*
X158016190Y-147742142D02*
X157968571Y-147789761D01*
X157968571Y-147789761D02*
X157873333Y-147837380D01*
X157873333Y-147837380D02*
X157730476Y-147837380D01*
X158397143Y-147170714D02*
X158587619Y-147837380D01*
X158587619Y-147837380D02*
X158778095Y-147361190D01*
X158778095Y-147361190D02*
X158968571Y-147837380D01*
X158968571Y-147837380D02*
X159159047Y-147170714D01*
X159540000Y-147170714D02*
X159540000Y-147837380D01*
X159540000Y-147265952D02*
X159587619Y-147218333D01*
X159587619Y-147218333D02*
X159682857Y-147170714D01*
X159682857Y-147170714D02*
X159825714Y-147170714D01*
X159825714Y-147170714D02*
X159920952Y-147218333D01*
X159920952Y-147218333D02*
X159968571Y-147313571D01*
X159968571Y-147313571D02*
X159968571Y-147837380D01*
X161187619Y-147837380D02*
X161092381Y-147789761D01*
X161092381Y-147789761D02*
X161044762Y-147742142D01*
X161044762Y-147742142D02*
X160997143Y-147646904D01*
X160997143Y-147646904D02*
X160997143Y-147361190D01*
X160997143Y-147361190D02*
X161044762Y-147265952D01*
X161044762Y-147265952D02*
X161092381Y-147218333D01*
X161092381Y-147218333D02*
X161187619Y-147170714D01*
X161187619Y-147170714D02*
X161330476Y-147170714D01*
X161330476Y-147170714D02*
X161425714Y-147218333D01*
X161425714Y-147218333D02*
X161473333Y-147265952D01*
X161473333Y-147265952D02*
X161520952Y-147361190D01*
X161520952Y-147361190D02*
X161520952Y-147646904D01*
X161520952Y-147646904D02*
X161473333Y-147742142D01*
X161473333Y-147742142D02*
X161425714Y-147789761D01*
X161425714Y-147789761D02*
X161330476Y-147837380D01*
X161330476Y-147837380D02*
X161187619Y-147837380D01*
X161949524Y-147170714D02*
X161949524Y-147837380D01*
X161949524Y-147265952D02*
X161997143Y-147218333D01*
X161997143Y-147218333D02*
X162092381Y-147170714D01*
X162092381Y-147170714D02*
X162235238Y-147170714D01*
X162235238Y-147170714D02*
X162330476Y-147218333D01*
X162330476Y-147218333D02*
X162378095Y-147313571D01*
X162378095Y-147313571D02*
X162378095Y-147837380D01*
X163454286Y-147837380D02*
X163454286Y-146837380D01*
X163454286Y-146837380D02*
X163692381Y-146837380D01*
X163692381Y-146837380D02*
X163835238Y-146885000D01*
X163835238Y-146885000D02*
X163930476Y-146980238D01*
X163930476Y-146980238D02*
X163978095Y-147075476D01*
X163978095Y-147075476D02*
X164025714Y-147265952D01*
X164025714Y-147265952D02*
X164025714Y-147408809D01*
X164025714Y-147408809D02*
X163978095Y-147599285D01*
X163978095Y-147599285D02*
X163930476Y-147694523D01*
X163930476Y-147694523D02*
X163835238Y-147789761D01*
X163835238Y-147789761D02*
X163692381Y-147837380D01*
X163692381Y-147837380D02*
X163454286Y-147837380D01*
X164359048Y-147170714D02*
X164549524Y-147837380D01*
X164549524Y-147837380D02*
X164740000Y-147361190D01*
X164740000Y-147361190D02*
X164930476Y-147837380D01*
X164930476Y-147837380D02*
X165120952Y-147170714D01*
X165930476Y-147170714D02*
X165930476Y-147980238D01*
X165930476Y-147980238D02*
X165882857Y-148075476D01*
X165882857Y-148075476D02*
X165835238Y-148123095D01*
X165835238Y-148123095D02*
X165740000Y-148170714D01*
X165740000Y-148170714D02*
X165597143Y-148170714D01*
X165597143Y-148170714D02*
X165501905Y-148123095D01*
X165930476Y-147789761D02*
X165835238Y-147837380D01*
X165835238Y-147837380D02*
X165644762Y-147837380D01*
X165644762Y-147837380D02*
X165549524Y-147789761D01*
X165549524Y-147789761D02*
X165501905Y-147742142D01*
X165501905Y-147742142D02*
X165454286Y-147646904D01*
X165454286Y-147646904D02*
X165454286Y-147361190D01*
X165454286Y-147361190D02*
X165501905Y-147265952D01*
X165501905Y-147265952D02*
X165549524Y-147218333D01*
X165549524Y-147218333D02*
X165644762Y-147170714D01*
X165644762Y-147170714D02*
X165835238Y-147170714D01*
X165835238Y-147170714D02*
X165930476Y-147218333D01*
X166359048Y-147789761D02*
X166454286Y-147837380D01*
X166454286Y-147837380D02*
X166644762Y-147837380D01*
X166644762Y-147837380D02*
X166740000Y-147789761D01*
X166740000Y-147789761D02*
X166787619Y-147694523D01*
X166787619Y-147694523D02*
X166787619Y-147646904D01*
X166787619Y-147646904D02*
X166740000Y-147551666D01*
X166740000Y-147551666D02*
X166644762Y-147504047D01*
X166644762Y-147504047D02*
X166501905Y-147504047D01*
X166501905Y-147504047D02*
X166406667Y-147456428D01*
X166406667Y-147456428D02*
X166359048Y-147361190D01*
X166359048Y-147361190D02*
X166359048Y-147313571D01*
X166359048Y-147313571D02*
X166406667Y-147218333D01*
X166406667Y-147218333D02*
X166501905Y-147170714D01*
X166501905Y-147170714D02*
X166644762Y-147170714D01*
X166644762Y-147170714D02*
X166740000Y-147218333D01*
X167959048Y-147837380D02*
X167863810Y-147789761D01*
X167863810Y-147789761D02*
X167816191Y-147694523D01*
X167816191Y-147694523D02*
X167816191Y-146837380D01*
X168768572Y-147837380D02*
X168768572Y-147313571D01*
X168768572Y-147313571D02*
X168720953Y-147218333D01*
X168720953Y-147218333D02*
X168625715Y-147170714D01*
X168625715Y-147170714D02*
X168435239Y-147170714D01*
X168435239Y-147170714D02*
X168340001Y-147218333D01*
X168768572Y-147789761D02*
X168673334Y-147837380D01*
X168673334Y-147837380D02*
X168435239Y-147837380D01*
X168435239Y-147837380D02*
X168340001Y-147789761D01*
X168340001Y-147789761D02*
X168292382Y-147694523D01*
X168292382Y-147694523D02*
X168292382Y-147599285D01*
X168292382Y-147599285D02*
X168340001Y-147504047D01*
X168340001Y-147504047D02*
X168435239Y-147456428D01*
X168435239Y-147456428D02*
X168673334Y-147456428D01*
X168673334Y-147456428D02*
X168768572Y-147408809D01*
X169149525Y-147170714D02*
X169387620Y-147837380D01*
X169625715Y-147170714D02*
X169387620Y-147837380D01*
X169387620Y-147837380D02*
X169292382Y-148075476D01*
X169292382Y-148075476D02*
X169244763Y-148123095D01*
X169244763Y-148123095D02*
X169149525Y-148170714D01*
X170387620Y-147789761D02*
X170292382Y-147837380D01*
X170292382Y-147837380D02*
X170101906Y-147837380D01*
X170101906Y-147837380D02*
X170006668Y-147789761D01*
X170006668Y-147789761D02*
X169959049Y-147694523D01*
X169959049Y-147694523D02*
X169959049Y-147313571D01*
X169959049Y-147313571D02*
X170006668Y-147218333D01*
X170006668Y-147218333D02*
X170101906Y-147170714D01*
X170101906Y-147170714D02*
X170292382Y-147170714D01*
X170292382Y-147170714D02*
X170387620Y-147218333D01*
X170387620Y-147218333D02*
X170435239Y-147313571D01*
X170435239Y-147313571D02*
X170435239Y-147408809D01*
X170435239Y-147408809D02*
X169959049Y-147504047D01*
X170863811Y-147837380D02*
X170863811Y-147170714D01*
X170863811Y-147361190D02*
X170911430Y-147265952D01*
X170911430Y-147265952D02*
X170959049Y-147218333D01*
X170959049Y-147218333D02*
X171054287Y-147170714D01*
X171054287Y-147170714D02*
X171149525Y-147170714D01*
%TO.C,H4*%
X186099933Y-49150555D02*
G75*
G03*
X186099933Y-49150555I-3200000J0D01*
G01*
%TO.C,H3*%
X186099933Y-137650555D02*
G75*
G03*
X186099933Y-137650555I-3200000J0D01*
G01*
%TO.C,H2*%
X97599933Y-137650555D02*
G75*
G03*
X97599933Y-137650555I-3200000J0D01*
G01*
%TO.C,H1*%
X97599933Y-49150555D02*
G75*
G03*
X97599933Y-49150555I-3200000J0D01*
G01*
%TD*%
M02*
