%TF.GenerationSoftware,KiCad,Pcbnew,(7.0.0)*%
%TF.CreationDate,2023-12-08T21:12:48-05:00*%
%TF.ProjectId,Coaster-Graphics,436f6173-7465-4722-9d47-726170686963,rev?*%
%TF.SameCoordinates,Original*%
%TF.FileFunction,Copper,L1,Top*%
%TF.FilePolarity,Positive*%
%FSLAX46Y46*%
G04 Gerber Fmt 4.6, Leading zero omitted, Abs format (unit mm)*
G04 Created by KiCad (PCBNEW (7.0.0)) date 2023-12-08 21:12:48*
%MOMM*%
%LPD*%
G01*
G04 APERTURE LIST*
%TA.AperFunction,ComponentPad*%
%ADD10O,1.700000X1.700000*%
%TD*%
%TA.AperFunction,ComponentPad*%
%ADD11R,1.700000X1.700000*%
%TD*%
%TA.AperFunction,ConnectorPad*%
%ADD12C,6.400000*%
%TD*%
%TA.AperFunction,ComponentPad*%
%ADD13C,3.600000*%
%TD*%
%TA.AperFunction,ViaPad*%
%ADD14C,0.600000*%
%TD*%
G04 APERTURE END LIST*
D10*
%TO.P,J3,20,Pin_20*%
%TO.N,/SWY*%
X162924933Y-126279999D03*
%TO.P,J3,19,Pin_19*%
%TO.N,/SWX*%
X160384933Y-126279999D03*
%TO.P,J3,18,Pin_18*%
%TO.N,GND*%
X157844933Y-126279999D03*
%TO.P,J3,17,Pin_17*%
%TO.N,/SWB*%
X155304933Y-126279999D03*
%TO.P,J3,16,Pin_16*%
%TO.N,/SWA*%
X152764933Y-126279999D03*
%TO.P,J3,15,Pin_15*%
%TO.N,unconnected-(J3-Pin_15-Pad15)*%
X150224933Y-126279999D03*
%TO.P,J3,14,Pin_14*%
%TO.N,unconnected-(J3-Pin_14-Pad14)*%
X147684933Y-126279999D03*
%TO.P,J3,13,Pin_13*%
%TO.N,GND*%
X145144933Y-126279999D03*
%TO.P,J3,12,Pin_12*%
%TO.N,unconnected-(J3-Pin_12-Pad12)*%
X142604933Y-126279999D03*
%TO.P,J3,11,Pin_11*%
%TO.N,/LED_B*%
X140064933Y-126279999D03*
%TO.P,J3,10,Pin_10*%
%TO.N,/LED_G*%
X137524933Y-126279999D03*
%TO.P,J3,9,Pin_9*%
%TO.N,/LED_R*%
X134984933Y-126279999D03*
%TO.P,J3,8,Pin_8*%
%TO.N,GND*%
X132444933Y-126279999D03*
%TO.P,J3,7,Pin_7*%
%TO.N,unconnected-(J3-Pin_7-Pad7)*%
X129904933Y-126279999D03*
%TO.P,J3,6,Pin_6*%
%TO.N,unconnected-(J3-Pin_6-Pad6)*%
X127364933Y-126279999D03*
%TO.P,J3,5,Pin_5*%
%TO.N,unconnected-(J3-Pin_5-Pad5)*%
X124824933Y-126279999D03*
%TO.P,J3,4,Pin_4*%
%TO.N,unconnected-(J3-Pin_4-Pad4)*%
X122284933Y-126279999D03*
%TO.P,J3,3,Pin_3*%
%TO.N,GND*%
X119744933Y-126279999D03*
%TO.P,J3,2,Pin_2*%
%TO.N,unconnected-(J3-Pin_2-Pad2)*%
X117204933Y-126279999D03*
D11*
%TO.P,J3,1,Pin_1*%
%TO.N,unconnected-(J3-Pin_1-Pad1)*%
X114664933Y-126279999D03*
%TD*%
D12*
%TO.P,H4,1*%
%TO.N,N/C*%
X183039934Y-55250066D03*
D13*
X183039934Y-55250066D03*
%TD*%
D12*
%TO.P,H3,1*%
%TO.N,N/C*%
X183039934Y-143750066D03*
D13*
X183039934Y-143750066D03*
%TD*%
D12*
%TO.P,H2,1*%
%TO.N,N/C*%
X94539934Y-143750066D03*
D13*
X94539934Y-143750066D03*
%TD*%
%TO.P,H1,1*%
%TO.N,N/C*%
X94539934Y-55250066D03*
D12*
X94539934Y-55250066D03*
%TD*%
D10*
%TO.P,J4,20,Pin_20*%
%TO.N,unconnected-(J4-Pin_20-Pad20)*%
X114664933Y-144059999D03*
%TO.P,J4,19,Pin_19*%
%TO.N,unconnected-(J4-Pin_19-Pad19)*%
X117204933Y-144059999D03*
%TO.P,J4,18,Pin_18*%
%TO.N,GND*%
X119744933Y-144059999D03*
%TO.P,J4,17,Pin_17*%
%TO.N,unconnected-(J4-Pin_17-Pad17)*%
X122284933Y-144059999D03*
%TO.P,J4,16,Pin_16*%
%TO.N,+3.3V*%
X124824933Y-144059999D03*
%TO.P,J4,15,Pin_15*%
%TO.N,unconnected-(J4-Pin_15-Pad15)*%
X127364933Y-144059999D03*
%TO.P,J4,14,Pin_14*%
%TO.N,unconnected-(J4-Pin_14-Pad14)*%
X129904933Y-144059999D03*
%TO.P,J4,13,Pin_13*%
%TO.N,GND*%
X132444933Y-144059999D03*
%TO.P,J4,12,Pin_12*%
%TO.N,unconnected-(J4-Pin_12-Pad12)*%
X134984933Y-144059999D03*
%TO.P,J4,11,Pin_11*%
%TO.N,unconnected-(J4-Pin_11-Pad11)*%
X137524933Y-144059999D03*
%TO.P,J4,10,Pin_10*%
%TO.N,/RESET*%
X140064933Y-144059999D03*
%TO.P,J4,9,Pin_9*%
%TO.N,unconnected-(J4-Pin_9-Pad9)*%
X142604933Y-144059999D03*
%TO.P,J4,8,Pin_8*%
%TO.N,GND*%
X145144933Y-144059999D03*
%TO.P,J4,7,Pin_7*%
%TO.N,unconnected-(J4-Pin_7-Pad7)*%
X147684933Y-144059999D03*
%TO.P,J4,6,Pin_6*%
%TO.N,/BACKLIGHT_EN*%
X150224933Y-144059999D03*
%TO.P,J4,5,Pin_5*%
%TO.N,/LCD_MOSI*%
X152764933Y-144059999D03*
%TO.P,J4,4,Pin_4*%
%TO.N,/LCD_SCLK*%
X155304933Y-144059999D03*
%TO.P,J4,3,Pin_3*%
%TO.N,GND*%
X157844933Y-144059999D03*
%TO.P,J4,2,Pin_2*%
%TO.N,/LCD_CS_n*%
X160384933Y-144059999D03*
D11*
%TO.P,J4,1,Pin_1*%
%TO.N,/LCD_DC*%
X162924933Y-144059999D03*
%TD*%
D14*
%TO.N,GND*%
X178895500Y-95410000D03*
X176765000Y-97105000D03*
X181720000Y-95210000D03*
X179770000Y-103420000D03*
X176855000Y-101375000D03*
%TD*%
%TA.AperFunction,Conductor*%
%TO.N,GND*%
G36*
X187888000Y-91202613D02*
G01*
X187933387Y-91248000D01*
X187950000Y-91310000D01*
X187950000Y-148688937D01*
X187935990Y-148746193D01*
X187897125Y-148790511D01*
X187798561Y-148859529D01*
X187779845Y-148870335D01*
X187641586Y-148934813D01*
X187621274Y-148942207D01*
X187473913Y-148981697D01*
X187452630Y-148985451D01*
X187307134Y-148998187D01*
X187296013Y-148999161D01*
X187285201Y-148999633D01*
X105534000Y-148999633D01*
X105472000Y-148983020D01*
X105426613Y-148937633D01*
X105410000Y-148875633D01*
X105410000Y-144060000D01*
X113309275Y-144060000D01*
X113309747Y-144065395D01*
X113316327Y-144140609D01*
X113329871Y-144295408D01*
X113331270Y-144300630D01*
X113331271Y-144300634D01*
X113389628Y-144518430D01*
X113389631Y-144518438D01*
X113391031Y-144523663D01*
X113393319Y-144528570D01*
X113393320Y-144528572D01*
X113488612Y-144732927D01*
X113488615Y-144732933D01*
X113490899Y-144737830D01*
X113493998Y-144742257D01*
X113494000Y-144742259D01*
X113623333Y-144926966D01*
X113623336Y-144926970D01*
X113626439Y-144931401D01*
X113793533Y-145098495D01*
X113797965Y-145101598D01*
X113797967Y-145101600D01*
X113942194Y-145202589D01*
X113987104Y-145234035D01*
X114201271Y-145333903D01*
X114429526Y-145395063D01*
X114664934Y-145415659D01*
X114900342Y-145395063D01*
X115128597Y-145333903D01*
X115342764Y-145234035D01*
X115536335Y-145098495D01*
X115703429Y-144931401D01*
X115833358Y-144745842D01*
X115877677Y-144706976D01*
X115934934Y-144692965D01*
X115992191Y-144706976D01*
X116036509Y-144745842D01*
X116163329Y-144926961D01*
X116163335Y-144926968D01*
X116166439Y-144931401D01*
X116333533Y-145098495D01*
X116337965Y-145101598D01*
X116337967Y-145101600D01*
X116482194Y-145202589D01*
X116527104Y-145234035D01*
X116741271Y-145333903D01*
X116969526Y-145395063D01*
X117204934Y-145415659D01*
X117440342Y-145395063D01*
X117668597Y-145333903D01*
X117882764Y-145234035D01*
X118076335Y-145098495D01*
X118243429Y-144931401D01*
X118373664Y-144745405D01*
X118417982Y-144706540D01*
X118475239Y-144692529D01*
X118532496Y-144706540D01*
X118576814Y-144745405D01*
X118703718Y-144926643D01*
X118710655Y-144934909D01*
X118870024Y-145094278D01*
X118878290Y-145101215D01*
X119062925Y-145230498D01*
X119072257Y-145235886D01*
X119276536Y-145331143D01*
X119286670Y-145334831D01*
X119481153Y-145386943D01*
X119492382Y-145387311D01*
X119494934Y-145376369D01*
X119994934Y-145376369D01*
X119997485Y-145387311D01*
X120008714Y-145386943D01*
X120203197Y-145334831D01*
X120213331Y-145331143D01*
X120417610Y-145235886D01*
X120426942Y-145230498D01*
X120611577Y-145101215D01*
X120619843Y-145094278D01*
X120779212Y-144934909D01*
X120786153Y-144926638D01*
X120913053Y-144745406D01*
X120957371Y-144706540D01*
X121014628Y-144692529D01*
X121071885Y-144706540D01*
X121116203Y-144745405D01*
X121243333Y-144926966D01*
X121243336Y-144926970D01*
X121246439Y-144931401D01*
X121413533Y-145098495D01*
X121417965Y-145101598D01*
X121417967Y-145101600D01*
X121562194Y-145202589D01*
X121607104Y-145234035D01*
X121821271Y-145333903D01*
X122049526Y-145395063D01*
X122284934Y-145415659D01*
X122520342Y-145395063D01*
X122748597Y-145333903D01*
X122962764Y-145234035D01*
X123156335Y-145098495D01*
X123323429Y-144931401D01*
X123453358Y-144745842D01*
X123497677Y-144706976D01*
X123554934Y-144692965D01*
X123612191Y-144706976D01*
X123656509Y-144745842D01*
X123783329Y-144926961D01*
X123783335Y-144926968D01*
X123786439Y-144931401D01*
X123953533Y-145098495D01*
X123957965Y-145101598D01*
X123957967Y-145101600D01*
X124102194Y-145202589D01*
X124147104Y-145234035D01*
X124361271Y-145333903D01*
X124589526Y-145395063D01*
X124824934Y-145415659D01*
X125060342Y-145395063D01*
X125288597Y-145333903D01*
X125502764Y-145234035D01*
X125696335Y-145098495D01*
X125863429Y-144931401D01*
X125993358Y-144745842D01*
X126037677Y-144706976D01*
X126094934Y-144692965D01*
X126152191Y-144706976D01*
X126196509Y-144745842D01*
X126323329Y-144926961D01*
X126323335Y-144926968D01*
X126326439Y-144931401D01*
X126493533Y-145098495D01*
X126497965Y-145101598D01*
X126497967Y-145101600D01*
X126642194Y-145202589D01*
X126687104Y-145234035D01*
X126901271Y-145333903D01*
X127129526Y-145395063D01*
X127364934Y-145415659D01*
X127600342Y-145395063D01*
X127828597Y-145333903D01*
X128042764Y-145234035D01*
X128236335Y-145098495D01*
X128403429Y-144931401D01*
X128533358Y-144745842D01*
X128577677Y-144706976D01*
X128634934Y-144692965D01*
X128692191Y-144706976D01*
X128736509Y-144745842D01*
X128863329Y-144926961D01*
X128863335Y-144926968D01*
X128866439Y-144931401D01*
X129033533Y-145098495D01*
X129037965Y-145101598D01*
X129037967Y-145101600D01*
X129182194Y-145202589D01*
X129227104Y-145234035D01*
X129441271Y-145333903D01*
X129669526Y-145395063D01*
X129904934Y-145415659D01*
X130140342Y-145395063D01*
X130368597Y-145333903D01*
X130582764Y-145234035D01*
X130776335Y-145098495D01*
X130943429Y-144931401D01*
X131073664Y-144745405D01*
X131117982Y-144706540D01*
X131175239Y-144692529D01*
X131232496Y-144706540D01*
X131276814Y-144745405D01*
X131403718Y-144926643D01*
X131410655Y-144934909D01*
X131570024Y-145094278D01*
X131578290Y-145101215D01*
X131762925Y-145230498D01*
X131772257Y-145235886D01*
X131976536Y-145331143D01*
X131986670Y-145334831D01*
X132181153Y-145386943D01*
X132192382Y-145387311D01*
X132194934Y-145376369D01*
X132694934Y-145376369D01*
X132697485Y-145387311D01*
X132708714Y-145386943D01*
X132903197Y-145334831D01*
X132913331Y-145331143D01*
X133117610Y-145235886D01*
X133126942Y-145230498D01*
X133311577Y-145101215D01*
X133319843Y-145094278D01*
X133479212Y-144934909D01*
X133486153Y-144926638D01*
X133613053Y-144745406D01*
X133657371Y-144706540D01*
X133714628Y-144692529D01*
X133771885Y-144706540D01*
X133816203Y-144745405D01*
X133943333Y-144926966D01*
X133943336Y-144926970D01*
X133946439Y-144931401D01*
X134113533Y-145098495D01*
X134117965Y-145101598D01*
X134117967Y-145101600D01*
X134262194Y-145202589D01*
X134307104Y-145234035D01*
X134521271Y-145333903D01*
X134749526Y-145395063D01*
X134984934Y-145415659D01*
X135220342Y-145395063D01*
X135448597Y-145333903D01*
X135662764Y-145234035D01*
X135856335Y-145098495D01*
X136023429Y-144931401D01*
X136153358Y-144745842D01*
X136197677Y-144706976D01*
X136254934Y-144692965D01*
X136312191Y-144706976D01*
X136356509Y-144745842D01*
X136483329Y-144926961D01*
X136483335Y-144926968D01*
X136486439Y-144931401D01*
X136653533Y-145098495D01*
X136657965Y-145101598D01*
X136657967Y-145101600D01*
X136802194Y-145202589D01*
X136847104Y-145234035D01*
X137061271Y-145333903D01*
X137289526Y-145395063D01*
X137524934Y-145415659D01*
X137760342Y-145395063D01*
X137988597Y-145333903D01*
X138202764Y-145234035D01*
X138396335Y-145098495D01*
X138563429Y-144931401D01*
X138693358Y-144745842D01*
X138737677Y-144706976D01*
X138794934Y-144692965D01*
X138852191Y-144706976D01*
X138896509Y-144745842D01*
X139023329Y-144926961D01*
X139023335Y-144926968D01*
X139026439Y-144931401D01*
X139193533Y-145098495D01*
X139197965Y-145101598D01*
X139197967Y-145101600D01*
X139342194Y-145202589D01*
X139387104Y-145234035D01*
X139601271Y-145333903D01*
X139829526Y-145395063D01*
X140064934Y-145415659D01*
X140300342Y-145395063D01*
X140528597Y-145333903D01*
X140742764Y-145234035D01*
X140936335Y-145098495D01*
X141103429Y-144931401D01*
X141233358Y-144745842D01*
X141277677Y-144706976D01*
X141334934Y-144692965D01*
X141392191Y-144706976D01*
X141436509Y-144745842D01*
X141563329Y-144926961D01*
X141563335Y-144926968D01*
X141566439Y-144931401D01*
X141733533Y-145098495D01*
X141737965Y-145101598D01*
X141737967Y-145101600D01*
X141882194Y-145202589D01*
X141927104Y-145234035D01*
X142141271Y-145333903D01*
X142369526Y-145395063D01*
X142604934Y-145415659D01*
X142840342Y-145395063D01*
X143068597Y-145333903D01*
X143282764Y-145234035D01*
X143476335Y-145098495D01*
X143643429Y-144931401D01*
X143773664Y-144745405D01*
X143817982Y-144706540D01*
X143875239Y-144692529D01*
X143932496Y-144706540D01*
X143976814Y-144745405D01*
X144103718Y-144926643D01*
X144110655Y-144934909D01*
X144270024Y-145094278D01*
X144278290Y-145101215D01*
X144462925Y-145230498D01*
X144472257Y-145235886D01*
X144676536Y-145331143D01*
X144686670Y-145334831D01*
X144881153Y-145386943D01*
X144892382Y-145387311D01*
X144894934Y-145376369D01*
X145394934Y-145376369D01*
X145397485Y-145387311D01*
X145408714Y-145386943D01*
X145603197Y-145334831D01*
X145613331Y-145331143D01*
X145817610Y-145235886D01*
X145826942Y-145230498D01*
X146011577Y-145101215D01*
X146019843Y-145094278D01*
X146179212Y-144934909D01*
X146186153Y-144926638D01*
X146313053Y-144745406D01*
X146357371Y-144706540D01*
X146414628Y-144692529D01*
X146471885Y-144706540D01*
X146516203Y-144745405D01*
X146643333Y-144926966D01*
X146643336Y-144926970D01*
X146646439Y-144931401D01*
X146813533Y-145098495D01*
X146817965Y-145101598D01*
X146817967Y-145101600D01*
X146962194Y-145202589D01*
X147007104Y-145234035D01*
X147221271Y-145333903D01*
X147449526Y-145395063D01*
X147684934Y-145415659D01*
X147920342Y-145395063D01*
X148148597Y-145333903D01*
X148362764Y-145234035D01*
X148556335Y-145098495D01*
X148723429Y-144931401D01*
X148853358Y-144745842D01*
X148897677Y-144706976D01*
X148954934Y-144692965D01*
X149012191Y-144706976D01*
X149056509Y-144745842D01*
X149183329Y-144926961D01*
X149183335Y-144926968D01*
X149186439Y-144931401D01*
X149353533Y-145098495D01*
X149357965Y-145101598D01*
X149357967Y-145101600D01*
X149502194Y-145202589D01*
X149547104Y-145234035D01*
X149761271Y-145333903D01*
X149989526Y-145395063D01*
X150224934Y-145415659D01*
X150460342Y-145395063D01*
X150688597Y-145333903D01*
X150902764Y-145234035D01*
X151096335Y-145098495D01*
X151263429Y-144931401D01*
X151393358Y-144745842D01*
X151437677Y-144706976D01*
X151494934Y-144692965D01*
X151552191Y-144706976D01*
X151596509Y-144745842D01*
X151723329Y-144926961D01*
X151723335Y-144926968D01*
X151726439Y-144931401D01*
X151893533Y-145098495D01*
X151897965Y-145101598D01*
X151897967Y-145101600D01*
X152042194Y-145202589D01*
X152087104Y-145234035D01*
X152301271Y-145333903D01*
X152529526Y-145395063D01*
X152764934Y-145415659D01*
X153000342Y-145395063D01*
X153228597Y-145333903D01*
X153442764Y-145234035D01*
X153636335Y-145098495D01*
X153803429Y-144931401D01*
X153933358Y-144745842D01*
X153977677Y-144706976D01*
X154034934Y-144692965D01*
X154092191Y-144706976D01*
X154136509Y-144745842D01*
X154263329Y-144926961D01*
X154263335Y-144926968D01*
X154266439Y-144931401D01*
X154433533Y-145098495D01*
X154437965Y-145101598D01*
X154437967Y-145101600D01*
X154582194Y-145202589D01*
X154627104Y-145234035D01*
X154841271Y-145333903D01*
X155069526Y-145395063D01*
X155304934Y-145415659D01*
X155540342Y-145395063D01*
X155768597Y-145333903D01*
X155982764Y-145234035D01*
X156176335Y-145098495D01*
X156343429Y-144931401D01*
X156473664Y-144745405D01*
X156517982Y-144706540D01*
X156575239Y-144692529D01*
X156632496Y-144706540D01*
X156676814Y-144745405D01*
X156803718Y-144926643D01*
X156810655Y-144934909D01*
X156970024Y-145094278D01*
X156978290Y-145101215D01*
X157162925Y-145230498D01*
X157172257Y-145235886D01*
X157376536Y-145331143D01*
X157386670Y-145334831D01*
X157581153Y-145386943D01*
X157592382Y-145387311D01*
X157594934Y-145376369D01*
X158094934Y-145376369D01*
X158097485Y-145387311D01*
X158108714Y-145386943D01*
X158303197Y-145334831D01*
X158313331Y-145331143D01*
X158517610Y-145235886D01*
X158526942Y-145230498D01*
X158711577Y-145101215D01*
X158719843Y-145094278D01*
X158879212Y-144934909D01*
X158886153Y-144926638D01*
X159013053Y-144745406D01*
X159057371Y-144706540D01*
X159114628Y-144692529D01*
X159171885Y-144706540D01*
X159216203Y-144745405D01*
X159343333Y-144926966D01*
X159343336Y-144926970D01*
X159346439Y-144931401D01*
X159513533Y-145098495D01*
X159517965Y-145101598D01*
X159517967Y-145101600D01*
X159662194Y-145202589D01*
X159707104Y-145234035D01*
X159921271Y-145333903D01*
X160149526Y-145395063D01*
X160384934Y-145415659D01*
X160620342Y-145395063D01*
X160848597Y-145333903D01*
X161062764Y-145234035D01*
X161256335Y-145098495D01*
X161378263Y-144976566D01*
X161431006Y-144945273D01*
X161492299Y-144943084D01*
X161547144Y-144970537D01*
X161582123Y-145020916D01*
X161631138Y-145152331D01*
X161636452Y-145159430D01*
X161636453Y-145159431D01*
X161692301Y-145234035D01*
X161717388Y-145267546D01*
X161832603Y-145353796D01*
X161967451Y-145404091D01*
X162027061Y-145410500D01*
X163822806Y-145410499D01*
X163882417Y-145404091D01*
X164017265Y-145353796D01*
X164132480Y-145267546D01*
X164218730Y-145152331D01*
X164269025Y-145017483D01*
X164275434Y-144957873D01*
X164275433Y-143750066D01*
X179334356Y-143750066D01*
X179334526Y-143753310D01*
X179351882Y-144084485D01*
X179354656Y-144137404D01*
X179355161Y-144140597D01*
X179355163Y-144140609D01*
X179414823Y-144517290D01*
X179414825Y-144517303D01*
X179415332Y-144520499D01*
X179416169Y-144523623D01*
X179416171Y-144523632D01*
X179475712Y-144745842D01*
X179515720Y-144895153D01*
X179516877Y-144898168D01*
X179516880Y-144898176D01*
X179614441Y-145152331D01*
X179654720Y-145257260D01*
X179656189Y-145260143D01*
X179656193Y-145260152D01*
X179735428Y-145415659D01*
X179830809Y-145602855D01*
X180042058Y-145928150D01*
X180286153Y-146229582D01*
X180560418Y-146503847D01*
X180861850Y-146747942D01*
X181187145Y-146959191D01*
X181532740Y-147135280D01*
X181894847Y-147274280D01*
X182269501Y-147374668D01*
X182652596Y-147435344D01*
X183039934Y-147455644D01*
X183427272Y-147435344D01*
X183810367Y-147374668D01*
X184185021Y-147274280D01*
X184547128Y-147135280D01*
X184892723Y-146959191D01*
X185218018Y-146747942D01*
X185519450Y-146503847D01*
X185793715Y-146229582D01*
X186037810Y-145928150D01*
X186249059Y-145602855D01*
X186425148Y-145257260D01*
X186564148Y-144895153D01*
X186664536Y-144520499D01*
X186725212Y-144137404D01*
X186745512Y-143750066D01*
X186725212Y-143362728D01*
X186664536Y-142979633D01*
X186564148Y-142604979D01*
X186425148Y-142242872D01*
X186249059Y-141897277D01*
X186037810Y-141571982D01*
X185793715Y-141270550D01*
X185519450Y-140996285D01*
X185218018Y-140752190D01*
X184892723Y-140540941D01*
X184889835Y-140539469D01*
X184889829Y-140539466D01*
X184550020Y-140366325D01*
X184550011Y-140366321D01*
X184547128Y-140364852D01*
X184544096Y-140363688D01*
X184188044Y-140227012D01*
X184188036Y-140227009D01*
X184185021Y-140225852D01*
X184181896Y-140225014D01*
X184181891Y-140225013D01*
X183813500Y-140126303D01*
X183813491Y-140126301D01*
X183810367Y-140125464D01*
X183807171Y-140124957D01*
X183807158Y-140124955D01*
X183430477Y-140065295D01*
X183430465Y-140065293D01*
X183427272Y-140064788D01*
X183424037Y-140064618D01*
X183424033Y-140064618D01*
X183043178Y-140044658D01*
X183039934Y-140044488D01*
X183036690Y-140044658D01*
X182655834Y-140064618D01*
X182655828Y-140064618D01*
X182652596Y-140064788D01*
X182649404Y-140065293D01*
X182649390Y-140065295D01*
X182272709Y-140124955D01*
X182272692Y-140124958D01*
X182269501Y-140125464D01*
X182266380Y-140126300D01*
X182266367Y-140126303D01*
X181897976Y-140225013D01*
X181897965Y-140225016D01*
X181894847Y-140225852D01*
X181891836Y-140227007D01*
X181891823Y-140227012D01*
X181535771Y-140363688D01*
X181535762Y-140363691D01*
X181532740Y-140364852D01*
X181529863Y-140366317D01*
X181529847Y-140366325D01*
X181190038Y-140539466D01*
X181190024Y-140539474D01*
X181187145Y-140540941D01*
X181184425Y-140542707D01*
X181184417Y-140542712D01*
X180864578Y-140750418D01*
X180864572Y-140750421D01*
X180861850Y-140752190D01*
X180859330Y-140754230D01*
X180859324Y-140754235D01*
X180562936Y-140994245D01*
X180562925Y-140994254D01*
X180560418Y-140996285D01*
X180558133Y-140998569D01*
X180558123Y-140998579D01*
X180288447Y-141268255D01*
X180288437Y-141268265D01*
X180286153Y-141270550D01*
X180284122Y-141273057D01*
X180284113Y-141273068D01*
X180044103Y-141569456D01*
X180044098Y-141569462D01*
X180042058Y-141571982D01*
X180040289Y-141574704D01*
X180040286Y-141574710D01*
X179832580Y-141894549D01*
X179832575Y-141894557D01*
X179830809Y-141897277D01*
X179829342Y-141900156D01*
X179829334Y-141900170D01*
X179656193Y-142239979D01*
X179656185Y-142239995D01*
X179654720Y-142242872D01*
X179653559Y-142245894D01*
X179653556Y-142245903D01*
X179516880Y-142601955D01*
X179516875Y-142601968D01*
X179515720Y-142604979D01*
X179514884Y-142608097D01*
X179514881Y-142608108D01*
X179416171Y-142976499D01*
X179416168Y-142976512D01*
X179415332Y-142979633D01*
X179414826Y-142982824D01*
X179414823Y-142982841D01*
X179355163Y-143359522D01*
X179355161Y-143359536D01*
X179354656Y-143362728D01*
X179354486Y-143365960D01*
X179354486Y-143365966D01*
X179334526Y-143746822D01*
X179334356Y-143750066D01*
X164275433Y-143750066D01*
X164275433Y-143162128D01*
X164269025Y-143102517D01*
X164218730Y-142967669D01*
X164132480Y-142852454D01*
X164041964Y-142784694D01*
X164024365Y-142771519D01*
X164024364Y-142771518D01*
X164017265Y-142766204D01*
X163910376Y-142726337D01*
X163889686Y-142718620D01*
X163889684Y-142718619D01*
X163882417Y-142715909D01*
X163874704Y-142715079D01*
X163874701Y-142715079D01*
X163826114Y-142709855D01*
X163826103Y-142709854D01*
X163822807Y-142709500D01*
X163819484Y-142709500D01*
X162030373Y-142709500D01*
X162030354Y-142709500D01*
X162027062Y-142709501D01*
X162023784Y-142709853D01*
X162023772Y-142709854D01*
X161975165Y-142715079D01*
X161975159Y-142715080D01*
X161967451Y-142715909D01*
X161960186Y-142718618D01*
X161960180Y-142718620D01*
X161840914Y-142763104D01*
X161840912Y-142763104D01*
X161832603Y-142766204D01*
X161825506Y-142771516D01*
X161825502Y-142771519D01*
X161724484Y-142847141D01*
X161724480Y-142847144D01*
X161717388Y-142852454D01*
X161712078Y-142859546D01*
X161712075Y-142859550D01*
X161636453Y-142960568D01*
X161636450Y-142960572D01*
X161631138Y-142967669D01*
X161628038Y-142975978D01*
X161628039Y-142975978D01*
X161582123Y-143099083D01*
X161547144Y-143149462D01*
X161492299Y-143176915D01*
X161431006Y-143174726D01*
X161378260Y-143143430D01*
X161260166Y-143025336D01*
X161260164Y-143025334D01*
X161256335Y-143021505D01*
X161251904Y-143018402D01*
X161251900Y-143018399D01*
X161067193Y-142889066D01*
X161067191Y-142889064D01*
X161062764Y-142885965D01*
X161057867Y-142883681D01*
X161057861Y-142883678D01*
X160853506Y-142788386D01*
X160853504Y-142788385D01*
X160848597Y-142786097D01*
X160843372Y-142784697D01*
X160843364Y-142784694D01*
X160625568Y-142726337D01*
X160625564Y-142726336D01*
X160620342Y-142724937D01*
X160614954Y-142724465D01*
X160614951Y-142724465D01*
X160390329Y-142704813D01*
X160384934Y-142704341D01*
X160379539Y-142704813D01*
X160154916Y-142724465D01*
X160154911Y-142724465D01*
X160149526Y-142724937D01*
X160144305Y-142726335D01*
X160144299Y-142726337D01*
X159926503Y-142784694D01*
X159926491Y-142784698D01*
X159921271Y-142786097D01*
X159916366Y-142788383D01*
X159916361Y-142788386D01*
X159712015Y-142883675D01*
X159712011Y-142883677D01*
X159707105Y-142885965D01*
X159702672Y-142889068D01*
X159702665Y-142889073D01*
X159517968Y-143018399D01*
X159517963Y-143018402D01*
X159513533Y-143021505D01*
X159509709Y-143025328D01*
X159509703Y-143025334D01*
X159350268Y-143184769D01*
X159350262Y-143184775D01*
X159346439Y-143188599D01*
X159343337Y-143193028D01*
X159343337Y-143193029D01*
X159216203Y-143374596D01*
X159171885Y-143413461D01*
X159114628Y-143427472D01*
X159057371Y-143413461D01*
X159013053Y-143374595D01*
X158886149Y-143193357D01*
X158879214Y-143185092D01*
X158719843Y-143025721D01*
X158711577Y-143018784D01*
X158526942Y-142889501D01*
X158517610Y-142884113D01*
X158313331Y-142788856D01*
X158303197Y-142785168D01*
X158108714Y-142733056D01*
X158097485Y-142732688D01*
X158094934Y-142743631D01*
X158094934Y-145376369D01*
X157594934Y-145376369D01*
X157594934Y-142743631D01*
X157592382Y-142732688D01*
X157581153Y-142733056D01*
X157386670Y-142785168D01*
X157376536Y-142788856D01*
X157172266Y-142884110D01*
X157162916Y-142889508D01*
X156978291Y-143018784D01*
X156970026Y-143025719D01*
X156810653Y-143185092D01*
X156803722Y-143193352D01*
X156676814Y-143374596D01*
X156632496Y-143413461D01*
X156575239Y-143427472D01*
X156517982Y-143413461D01*
X156473664Y-143374595D01*
X156463110Y-143359522D01*
X156343429Y-143188599D01*
X156176335Y-143021505D01*
X156171904Y-143018402D01*
X156171900Y-143018399D01*
X155987193Y-142889066D01*
X155987191Y-142889064D01*
X155982764Y-142885965D01*
X155977867Y-142883681D01*
X155977861Y-142883678D01*
X155773506Y-142788386D01*
X155773504Y-142788385D01*
X155768597Y-142786097D01*
X155763372Y-142784697D01*
X155763364Y-142784694D01*
X155545568Y-142726337D01*
X155545564Y-142726336D01*
X155540342Y-142724937D01*
X155534954Y-142724465D01*
X155534951Y-142724465D01*
X155310329Y-142704813D01*
X155304934Y-142704341D01*
X155299539Y-142704813D01*
X155074916Y-142724465D01*
X155074911Y-142724465D01*
X155069526Y-142724937D01*
X155064305Y-142726335D01*
X155064299Y-142726337D01*
X154846503Y-142784694D01*
X154846491Y-142784698D01*
X154841271Y-142786097D01*
X154836366Y-142788383D01*
X154836361Y-142788386D01*
X154632015Y-142883675D01*
X154632011Y-142883677D01*
X154627105Y-142885965D01*
X154622672Y-142889068D01*
X154622665Y-142889073D01*
X154437968Y-143018399D01*
X154437963Y-143018402D01*
X154433533Y-143021505D01*
X154429709Y-143025328D01*
X154429703Y-143025334D01*
X154270268Y-143184769D01*
X154270262Y-143184775D01*
X154266439Y-143188599D01*
X154263336Y-143193029D01*
X154263333Y-143193034D01*
X154136509Y-143374159D01*
X154092191Y-143413025D01*
X154034934Y-143427036D01*
X153977677Y-143413025D01*
X153933359Y-143374159D01*
X153922261Y-143358310D01*
X153803429Y-143188599D01*
X153636335Y-143021505D01*
X153631904Y-143018402D01*
X153631900Y-143018399D01*
X153447193Y-142889066D01*
X153447191Y-142889064D01*
X153442764Y-142885965D01*
X153437867Y-142883681D01*
X153437861Y-142883678D01*
X153233506Y-142788386D01*
X153233504Y-142788385D01*
X153228597Y-142786097D01*
X153223372Y-142784697D01*
X153223364Y-142784694D01*
X153005568Y-142726337D01*
X153005564Y-142726336D01*
X153000342Y-142724937D01*
X152994954Y-142724465D01*
X152994951Y-142724465D01*
X152770329Y-142704813D01*
X152764934Y-142704341D01*
X152759539Y-142704813D01*
X152534916Y-142724465D01*
X152534911Y-142724465D01*
X152529526Y-142724937D01*
X152524305Y-142726335D01*
X152524299Y-142726337D01*
X152306503Y-142784694D01*
X152306491Y-142784698D01*
X152301271Y-142786097D01*
X152296366Y-142788383D01*
X152296361Y-142788386D01*
X152092015Y-142883675D01*
X152092011Y-142883677D01*
X152087105Y-142885965D01*
X152082672Y-142889068D01*
X152082665Y-142889073D01*
X151897968Y-143018399D01*
X151897963Y-143018402D01*
X151893533Y-143021505D01*
X151889709Y-143025328D01*
X151889703Y-143025334D01*
X151730268Y-143184769D01*
X151730262Y-143184775D01*
X151726439Y-143188599D01*
X151723336Y-143193029D01*
X151723333Y-143193034D01*
X151596509Y-143374159D01*
X151552191Y-143413025D01*
X151494934Y-143427036D01*
X151437677Y-143413025D01*
X151393359Y-143374159D01*
X151382261Y-143358310D01*
X151263429Y-143188599D01*
X151096335Y-143021505D01*
X151091904Y-143018402D01*
X151091900Y-143018399D01*
X150907193Y-142889066D01*
X150907191Y-142889064D01*
X150902764Y-142885965D01*
X150897867Y-142883681D01*
X150897861Y-142883678D01*
X150693506Y-142788386D01*
X150693504Y-142788385D01*
X150688597Y-142786097D01*
X150683372Y-142784697D01*
X150683364Y-142784694D01*
X150465568Y-142726337D01*
X150465564Y-142726336D01*
X150460342Y-142724937D01*
X150454954Y-142724465D01*
X150454951Y-142724465D01*
X150230329Y-142704813D01*
X150224934Y-142704341D01*
X150219539Y-142704813D01*
X149994916Y-142724465D01*
X149994911Y-142724465D01*
X149989526Y-142724937D01*
X149984305Y-142726335D01*
X149984299Y-142726337D01*
X149766503Y-142784694D01*
X149766491Y-142784698D01*
X149761271Y-142786097D01*
X149756366Y-142788383D01*
X149756361Y-142788386D01*
X149552015Y-142883675D01*
X149552011Y-142883677D01*
X149547105Y-142885965D01*
X149542672Y-142889068D01*
X149542665Y-142889073D01*
X149357968Y-143018399D01*
X149357963Y-143018402D01*
X149353533Y-143021505D01*
X149349709Y-143025328D01*
X149349703Y-143025334D01*
X149190268Y-143184769D01*
X149190262Y-143184775D01*
X149186439Y-143188599D01*
X149183336Y-143193029D01*
X149183333Y-143193034D01*
X149056509Y-143374159D01*
X149012191Y-143413025D01*
X148954934Y-143427036D01*
X148897677Y-143413025D01*
X148853359Y-143374159D01*
X148842261Y-143358310D01*
X148723429Y-143188599D01*
X148556335Y-143021505D01*
X148551904Y-143018402D01*
X148551900Y-143018399D01*
X148367193Y-142889066D01*
X148367191Y-142889064D01*
X148362764Y-142885965D01*
X148357867Y-142883681D01*
X148357861Y-142883678D01*
X148153506Y-142788386D01*
X148153504Y-142788385D01*
X148148597Y-142786097D01*
X148143372Y-142784697D01*
X148143364Y-142784694D01*
X147925568Y-142726337D01*
X147925564Y-142726336D01*
X147920342Y-142724937D01*
X147914954Y-142724465D01*
X147914951Y-142724465D01*
X147690329Y-142704813D01*
X147684934Y-142704341D01*
X147679539Y-142704813D01*
X147454916Y-142724465D01*
X147454911Y-142724465D01*
X147449526Y-142724937D01*
X147444305Y-142726335D01*
X147444299Y-142726337D01*
X147226503Y-142784694D01*
X147226491Y-142784698D01*
X147221271Y-142786097D01*
X147216366Y-142788383D01*
X147216361Y-142788386D01*
X147012015Y-142883675D01*
X147012011Y-142883677D01*
X147007105Y-142885965D01*
X147002672Y-142889068D01*
X147002665Y-142889073D01*
X146817968Y-143018399D01*
X146817963Y-143018402D01*
X146813533Y-143021505D01*
X146809709Y-143025328D01*
X146809703Y-143025334D01*
X146650268Y-143184769D01*
X146650262Y-143184775D01*
X146646439Y-143188599D01*
X146643337Y-143193028D01*
X146643337Y-143193029D01*
X146516203Y-143374596D01*
X146471885Y-143413461D01*
X146414628Y-143427472D01*
X146357371Y-143413461D01*
X146313053Y-143374595D01*
X146186149Y-143193357D01*
X146179214Y-143185092D01*
X146019843Y-143025721D01*
X146011577Y-143018784D01*
X145826942Y-142889501D01*
X145817610Y-142884113D01*
X145613331Y-142788856D01*
X145603197Y-142785168D01*
X145408714Y-142733056D01*
X145397485Y-142732688D01*
X145394934Y-142743631D01*
X145394934Y-145376369D01*
X144894934Y-145376369D01*
X144894934Y-142743631D01*
X144892382Y-142732688D01*
X144881153Y-142733056D01*
X144686670Y-142785168D01*
X144676536Y-142788856D01*
X144472266Y-142884110D01*
X144462916Y-142889508D01*
X144278291Y-143018784D01*
X144270026Y-143025719D01*
X144110653Y-143185092D01*
X144103722Y-143193352D01*
X143976814Y-143374596D01*
X143932496Y-143413461D01*
X143875239Y-143427472D01*
X143817982Y-143413461D01*
X143773664Y-143374595D01*
X143763110Y-143359522D01*
X143643429Y-143188599D01*
X143476335Y-143021505D01*
X143471904Y-143018402D01*
X143471900Y-143018399D01*
X143287193Y-142889066D01*
X143287191Y-142889064D01*
X143282764Y-142885965D01*
X143277867Y-142883681D01*
X143277861Y-142883678D01*
X143073506Y-142788386D01*
X143073504Y-142788385D01*
X143068597Y-142786097D01*
X143063372Y-142784697D01*
X143063364Y-142784694D01*
X142845568Y-142726337D01*
X142845564Y-142726336D01*
X142840342Y-142724937D01*
X142834954Y-142724465D01*
X142834951Y-142724465D01*
X142610329Y-142704813D01*
X142604934Y-142704341D01*
X142599539Y-142704813D01*
X142374916Y-142724465D01*
X142374911Y-142724465D01*
X142369526Y-142724937D01*
X142364305Y-142726335D01*
X142364299Y-142726337D01*
X142146503Y-142784694D01*
X142146491Y-142784698D01*
X142141271Y-142786097D01*
X142136366Y-142788383D01*
X142136361Y-142788386D01*
X141932015Y-142883675D01*
X141932011Y-142883677D01*
X141927105Y-142885965D01*
X141922672Y-142889068D01*
X141922665Y-142889073D01*
X141737968Y-143018399D01*
X141737963Y-143018402D01*
X141733533Y-143021505D01*
X141729709Y-143025328D01*
X141729703Y-143025334D01*
X141570268Y-143184769D01*
X141570262Y-143184775D01*
X141566439Y-143188599D01*
X141563336Y-143193029D01*
X141563333Y-143193034D01*
X141436509Y-143374159D01*
X141392191Y-143413025D01*
X141334934Y-143427036D01*
X141277677Y-143413025D01*
X141233359Y-143374159D01*
X141222261Y-143358310D01*
X141103429Y-143188599D01*
X140936335Y-143021505D01*
X140931904Y-143018402D01*
X140931900Y-143018399D01*
X140747193Y-142889066D01*
X140747191Y-142889064D01*
X140742764Y-142885965D01*
X140737867Y-142883681D01*
X140737861Y-142883678D01*
X140533506Y-142788386D01*
X140533504Y-142788385D01*
X140528597Y-142786097D01*
X140523372Y-142784697D01*
X140523364Y-142784694D01*
X140305568Y-142726337D01*
X140305564Y-142726336D01*
X140300342Y-142724937D01*
X140294954Y-142724465D01*
X140294951Y-142724465D01*
X140070329Y-142704813D01*
X140064934Y-142704341D01*
X140059539Y-142704813D01*
X139834916Y-142724465D01*
X139834911Y-142724465D01*
X139829526Y-142724937D01*
X139824305Y-142726335D01*
X139824299Y-142726337D01*
X139606503Y-142784694D01*
X139606491Y-142784698D01*
X139601271Y-142786097D01*
X139596366Y-142788383D01*
X139596361Y-142788386D01*
X139392015Y-142883675D01*
X139392011Y-142883677D01*
X139387105Y-142885965D01*
X139382672Y-142889068D01*
X139382665Y-142889073D01*
X139197968Y-143018399D01*
X139197963Y-143018402D01*
X139193533Y-143021505D01*
X139189709Y-143025328D01*
X139189703Y-143025334D01*
X139030268Y-143184769D01*
X139030262Y-143184775D01*
X139026439Y-143188599D01*
X139023336Y-143193029D01*
X139023333Y-143193034D01*
X138896509Y-143374159D01*
X138852191Y-143413025D01*
X138794934Y-143427036D01*
X138737677Y-143413025D01*
X138693359Y-143374159D01*
X138682261Y-143358310D01*
X138563429Y-143188599D01*
X138396335Y-143021505D01*
X138391904Y-143018402D01*
X138391900Y-143018399D01*
X138207193Y-142889066D01*
X138207191Y-142889064D01*
X138202764Y-142885965D01*
X138197867Y-142883681D01*
X138197861Y-142883678D01*
X137993506Y-142788386D01*
X137993504Y-142788385D01*
X137988597Y-142786097D01*
X137983372Y-142784697D01*
X137983364Y-142784694D01*
X137765568Y-142726337D01*
X137765564Y-142726336D01*
X137760342Y-142724937D01*
X137754954Y-142724465D01*
X137754951Y-142724465D01*
X137530329Y-142704813D01*
X137524934Y-142704341D01*
X137519539Y-142704813D01*
X137294916Y-142724465D01*
X137294911Y-142724465D01*
X137289526Y-142724937D01*
X137284305Y-142726335D01*
X137284299Y-142726337D01*
X137066503Y-142784694D01*
X137066491Y-142784698D01*
X137061271Y-142786097D01*
X137056366Y-142788383D01*
X137056361Y-142788386D01*
X136852015Y-142883675D01*
X136852011Y-142883677D01*
X136847105Y-142885965D01*
X136842672Y-142889068D01*
X136842665Y-142889073D01*
X136657968Y-143018399D01*
X136657963Y-143018402D01*
X136653533Y-143021505D01*
X136649709Y-143025328D01*
X136649703Y-143025334D01*
X136490268Y-143184769D01*
X136490262Y-143184775D01*
X136486439Y-143188599D01*
X136483336Y-143193029D01*
X136483333Y-143193034D01*
X136356509Y-143374159D01*
X136312191Y-143413025D01*
X136254934Y-143427036D01*
X136197677Y-143413025D01*
X136153359Y-143374159D01*
X136142261Y-143358310D01*
X136023429Y-143188599D01*
X135856335Y-143021505D01*
X135851904Y-143018402D01*
X135851900Y-143018399D01*
X135667193Y-142889066D01*
X135667191Y-142889064D01*
X135662764Y-142885965D01*
X135657867Y-142883681D01*
X135657861Y-142883678D01*
X135453506Y-142788386D01*
X135453504Y-142788385D01*
X135448597Y-142786097D01*
X135443372Y-142784697D01*
X135443364Y-142784694D01*
X135225568Y-142726337D01*
X135225564Y-142726336D01*
X135220342Y-142724937D01*
X135214954Y-142724465D01*
X135214951Y-142724465D01*
X134990329Y-142704813D01*
X134984934Y-142704341D01*
X134979539Y-142704813D01*
X134754916Y-142724465D01*
X134754911Y-142724465D01*
X134749526Y-142724937D01*
X134744305Y-142726335D01*
X134744299Y-142726337D01*
X134526503Y-142784694D01*
X134526491Y-142784698D01*
X134521271Y-142786097D01*
X134516366Y-142788383D01*
X134516361Y-142788386D01*
X134312015Y-142883675D01*
X134312011Y-142883677D01*
X134307105Y-142885965D01*
X134302672Y-142889068D01*
X134302665Y-142889073D01*
X134117968Y-143018399D01*
X134117963Y-143018402D01*
X134113533Y-143021505D01*
X134109709Y-143025328D01*
X134109703Y-143025334D01*
X133950268Y-143184769D01*
X133950262Y-143184775D01*
X133946439Y-143188599D01*
X133943337Y-143193028D01*
X133943337Y-143193029D01*
X133816203Y-143374596D01*
X133771885Y-143413461D01*
X133714628Y-143427472D01*
X133657371Y-143413461D01*
X133613053Y-143374595D01*
X133486149Y-143193357D01*
X133479214Y-143185092D01*
X133319843Y-143025721D01*
X133311577Y-143018784D01*
X133126942Y-142889501D01*
X133117610Y-142884113D01*
X132913331Y-142788856D01*
X132903197Y-142785168D01*
X132708714Y-142733056D01*
X132697485Y-142732688D01*
X132694934Y-142743631D01*
X132694934Y-145376369D01*
X132194934Y-145376369D01*
X132194934Y-142743631D01*
X132192382Y-142732688D01*
X132181153Y-142733056D01*
X131986670Y-142785168D01*
X131976536Y-142788856D01*
X131772266Y-142884110D01*
X131762916Y-142889508D01*
X131578291Y-143018784D01*
X131570026Y-143025719D01*
X131410653Y-143185092D01*
X131403722Y-143193352D01*
X131276814Y-143374596D01*
X131232496Y-143413461D01*
X131175239Y-143427472D01*
X131117982Y-143413461D01*
X131073664Y-143374595D01*
X131063110Y-143359522D01*
X130943429Y-143188599D01*
X130776335Y-143021505D01*
X130771904Y-143018402D01*
X130771900Y-143018399D01*
X130587193Y-142889066D01*
X130587191Y-142889064D01*
X130582764Y-142885965D01*
X130577867Y-142883681D01*
X130577861Y-142883678D01*
X130373506Y-142788386D01*
X130373504Y-142788385D01*
X130368597Y-142786097D01*
X130363372Y-142784697D01*
X130363364Y-142784694D01*
X130145568Y-142726337D01*
X130145564Y-142726336D01*
X130140342Y-142724937D01*
X130134954Y-142724465D01*
X130134951Y-142724465D01*
X129910329Y-142704813D01*
X129904934Y-142704341D01*
X129899539Y-142704813D01*
X129674916Y-142724465D01*
X129674911Y-142724465D01*
X129669526Y-142724937D01*
X129664305Y-142726335D01*
X129664299Y-142726337D01*
X129446503Y-142784694D01*
X129446491Y-142784698D01*
X129441271Y-142786097D01*
X129436366Y-142788383D01*
X129436361Y-142788386D01*
X129232015Y-142883675D01*
X129232011Y-142883677D01*
X129227105Y-142885965D01*
X129222672Y-142889068D01*
X129222665Y-142889073D01*
X129037968Y-143018399D01*
X129037963Y-143018402D01*
X129033533Y-143021505D01*
X129029709Y-143025328D01*
X129029703Y-143025334D01*
X128870268Y-143184769D01*
X128870262Y-143184775D01*
X128866439Y-143188599D01*
X128863336Y-143193029D01*
X128863333Y-143193034D01*
X128736509Y-143374159D01*
X128692191Y-143413025D01*
X128634934Y-143427036D01*
X128577677Y-143413025D01*
X128533359Y-143374159D01*
X128522261Y-143358310D01*
X128403429Y-143188599D01*
X128236335Y-143021505D01*
X128231904Y-143018402D01*
X128231900Y-143018399D01*
X128047193Y-142889066D01*
X128047191Y-142889064D01*
X128042764Y-142885965D01*
X128037867Y-142883681D01*
X128037861Y-142883678D01*
X127833506Y-142788386D01*
X127833504Y-142788385D01*
X127828597Y-142786097D01*
X127823372Y-142784697D01*
X127823364Y-142784694D01*
X127605568Y-142726337D01*
X127605564Y-142726336D01*
X127600342Y-142724937D01*
X127594954Y-142724465D01*
X127594951Y-142724465D01*
X127370329Y-142704813D01*
X127364934Y-142704341D01*
X127359539Y-142704813D01*
X127134916Y-142724465D01*
X127134911Y-142724465D01*
X127129526Y-142724937D01*
X127124305Y-142726335D01*
X127124299Y-142726337D01*
X126906503Y-142784694D01*
X126906491Y-142784698D01*
X126901271Y-142786097D01*
X126896366Y-142788383D01*
X126896361Y-142788386D01*
X126692015Y-142883675D01*
X126692011Y-142883677D01*
X126687105Y-142885965D01*
X126682672Y-142889068D01*
X126682665Y-142889073D01*
X126497968Y-143018399D01*
X126497963Y-143018402D01*
X126493533Y-143021505D01*
X126489709Y-143025328D01*
X126489703Y-143025334D01*
X126330268Y-143184769D01*
X126330262Y-143184775D01*
X126326439Y-143188599D01*
X126323336Y-143193029D01*
X126323333Y-143193034D01*
X126196509Y-143374159D01*
X126152191Y-143413025D01*
X126094934Y-143427036D01*
X126037677Y-143413025D01*
X125993359Y-143374159D01*
X125982261Y-143358310D01*
X125863429Y-143188599D01*
X125696335Y-143021505D01*
X125691904Y-143018402D01*
X125691900Y-143018399D01*
X125507193Y-142889066D01*
X125507191Y-142889064D01*
X125502764Y-142885965D01*
X125497867Y-142883681D01*
X125497861Y-142883678D01*
X125293506Y-142788386D01*
X125293504Y-142788385D01*
X125288597Y-142786097D01*
X125283372Y-142784697D01*
X125283364Y-142784694D01*
X125065568Y-142726337D01*
X125065564Y-142726336D01*
X125060342Y-142724937D01*
X125054954Y-142724465D01*
X125054951Y-142724465D01*
X124830329Y-142704813D01*
X124824934Y-142704341D01*
X124819539Y-142704813D01*
X124594916Y-142724465D01*
X124594911Y-142724465D01*
X124589526Y-142724937D01*
X124584305Y-142726335D01*
X124584299Y-142726337D01*
X124366503Y-142784694D01*
X124366491Y-142784698D01*
X124361271Y-142786097D01*
X124356366Y-142788383D01*
X124356361Y-142788386D01*
X124152015Y-142883675D01*
X124152011Y-142883677D01*
X124147105Y-142885965D01*
X124142672Y-142889068D01*
X124142665Y-142889073D01*
X123957968Y-143018399D01*
X123957963Y-143018402D01*
X123953533Y-143021505D01*
X123949709Y-143025328D01*
X123949703Y-143025334D01*
X123790268Y-143184769D01*
X123790262Y-143184775D01*
X123786439Y-143188599D01*
X123783336Y-143193029D01*
X123783333Y-143193034D01*
X123656509Y-143374159D01*
X123612191Y-143413025D01*
X123554934Y-143427036D01*
X123497677Y-143413025D01*
X123453359Y-143374159D01*
X123442261Y-143358310D01*
X123323429Y-143188599D01*
X123156335Y-143021505D01*
X123151904Y-143018402D01*
X123151900Y-143018399D01*
X122967193Y-142889066D01*
X122967191Y-142889064D01*
X122962764Y-142885965D01*
X122957867Y-142883681D01*
X122957861Y-142883678D01*
X122753506Y-142788386D01*
X122753504Y-142788385D01*
X122748597Y-142786097D01*
X122743372Y-142784697D01*
X122743364Y-142784694D01*
X122525568Y-142726337D01*
X122525564Y-142726336D01*
X122520342Y-142724937D01*
X122514954Y-142724465D01*
X122514951Y-142724465D01*
X122290329Y-142704813D01*
X122284934Y-142704341D01*
X122279539Y-142704813D01*
X122054916Y-142724465D01*
X122054911Y-142724465D01*
X122049526Y-142724937D01*
X122044305Y-142726335D01*
X122044299Y-142726337D01*
X121826503Y-142784694D01*
X121826491Y-142784698D01*
X121821271Y-142786097D01*
X121816366Y-142788383D01*
X121816361Y-142788386D01*
X121612015Y-142883675D01*
X121612011Y-142883677D01*
X121607105Y-142885965D01*
X121602672Y-142889068D01*
X121602665Y-142889073D01*
X121417968Y-143018399D01*
X121417963Y-143018402D01*
X121413533Y-143021505D01*
X121409709Y-143025328D01*
X121409703Y-143025334D01*
X121250268Y-143184769D01*
X121250262Y-143184775D01*
X121246439Y-143188599D01*
X121243337Y-143193028D01*
X121243337Y-143193029D01*
X121116203Y-143374596D01*
X121071885Y-143413461D01*
X121014628Y-143427472D01*
X120957371Y-143413461D01*
X120913053Y-143374595D01*
X120786149Y-143193357D01*
X120779214Y-143185092D01*
X120619843Y-143025721D01*
X120611577Y-143018784D01*
X120426942Y-142889501D01*
X120417610Y-142884113D01*
X120213331Y-142788856D01*
X120203197Y-142785168D01*
X120008714Y-142733056D01*
X119997485Y-142732688D01*
X119994934Y-142743631D01*
X119994934Y-145376369D01*
X119494934Y-145376369D01*
X119494934Y-142743631D01*
X119492382Y-142732688D01*
X119481153Y-142733056D01*
X119286670Y-142785168D01*
X119276536Y-142788856D01*
X119072266Y-142884110D01*
X119062916Y-142889508D01*
X118878291Y-143018784D01*
X118870026Y-143025719D01*
X118710653Y-143185092D01*
X118703722Y-143193352D01*
X118576814Y-143374596D01*
X118532496Y-143413461D01*
X118475239Y-143427472D01*
X118417982Y-143413461D01*
X118373664Y-143374595D01*
X118363110Y-143359522D01*
X118243429Y-143188599D01*
X118076335Y-143021505D01*
X118071904Y-143018402D01*
X118071900Y-143018399D01*
X117887193Y-142889066D01*
X117887191Y-142889064D01*
X117882764Y-142885965D01*
X117877867Y-142883681D01*
X117877861Y-142883678D01*
X117673506Y-142788386D01*
X117673504Y-142788385D01*
X117668597Y-142786097D01*
X117663372Y-142784697D01*
X117663364Y-142784694D01*
X117445568Y-142726337D01*
X117445564Y-142726336D01*
X117440342Y-142724937D01*
X117434954Y-142724465D01*
X117434951Y-142724465D01*
X117210329Y-142704813D01*
X117204934Y-142704341D01*
X117199539Y-142704813D01*
X116974916Y-142724465D01*
X116974911Y-142724465D01*
X116969526Y-142724937D01*
X116964305Y-142726335D01*
X116964299Y-142726337D01*
X116746503Y-142784694D01*
X116746491Y-142784698D01*
X116741271Y-142786097D01*
X116736366Y-142788383D01*
X116736361Y-142788386D01*
X116532015Y-142883675D01*
X116532011Y-142883677D01*
X116527105Y-142885965D01*
X116522672Y-142889068D01*
X116522665Y-142889073D01*
X116337968Y-143018399D01*
X116337963Y-143018402D01*
X116333533Y-143021505D01*
X116329709Y-143025328D01*
X116329703Y-143025334D01*
X116170268Y-143184769D01*
X116170262Y-143184775D01*
X116166439Y-143188599D01*
X116163336Y-143193029D01*
X116163333Y-143193034D01*
X116036509Y-143374159D01*
X115992191Y-143413025D01*
X115934934Y-143427036D01*
X115877677Y-143413025D01*
X115833359Y-143374159D01*
X115822261Y-143358310D01*
X115703429Y-143188599D01*
X115536335Y-143021505D01*
X115531904Y-143018402D01*
X115531900Y-143018399D01*
X115347193Y-142889066D01*
X115347191Y-142889064D01*
X115342764Y-142885965D01*
X115337867Y-142883681D01*
X115337861Y-142883678D01*
X115133506Y-142788386D01*
X115133504Y-142788385D01*
X115128597Y-142786097D01*
X115123372Y-142784697D01*
X115123364Y-142784694D01*
X114905568Y-142726337D01*
X114905564Y-142726336D01*
X114900342Y-142724937D01*
X114894954Y-142724465D01*
X114894951Y-142724465D01*
X114670329Y-142704813D01*
X114664934Y-142704341D01*
X114659539Y-142704813D01*
X114434916Y-142724465D01*
X114434911Y-142724465D01*
X114429526Y-142724937D01*
X114424305Y-142726335D01*
X114424299Y-142726337D01*
X114206503Y-142784694D01*
X114206491Y-142784698D01*
X114201271Y-142786097D01*
X114196366Y-142788383D01*
X114196361Y-142788386D01*
X113992015Y-142883675D01*
X113992011Y-142883677D01*
X113987105Y-142885965D01*
X113982672Y-142889068D01*
X113982665Y-142889073D01*
X113797968Y-143018399D01*
X113797963Y-143018402D01*
X113793533Y-143021505D01*
X113789709Y-143025328D01*
X113789703Y-143025334D01*
X113630268Y-143184769D01*
X113630262Y-143184775D01*
X113626439Y-143188599D01*
X113623336Y-143193029D01*
X113623333Y-143193034D01*
X113494007Y-143377731D01*
X113494002Y-143377738D01*
X113490899Y-143382171D01*
X113488611Y-143387077D01*
X113488609Y-143387081D01*
X113393320Y-143591427D01*
X113393317Y-143591432D01*
X113391031Y-143596337D01*
X113389632Y-143601557D01*
X113389628Y-143601569D01*
X113331271Y-143819365D01*
X113331269Y-143819371D01*
X113329871Y-143824592D01*
X113309275Y-144060000D01*
X105410000Y-144060000D01*
X105410000Y-127174578D01*
X113314434Y-127174578D01*
X113314435Y-127177872D01*
X113314787Y-127181150D01*
X113314788Y-127181161D01*
X113320013Y-127229768D01*
X113320014Y-127229773D01*
X113320843Y-127237483D01*
X113323553Y-127244749D01*
X113323554Y-127244753D01*
X113349486Y-127314278D01*
X113371138Y-127372331D01*
X113376452Y-127379430D01*
X113376453Y-127379431D01*
X113432301Y-127454035D01*
X113457388Y-127487546D01*
X113572603Y-127573796D01*
X113707451Y-127624091D01*
X113767061Y-127630500D01*
X115562806Y-127630499D01*
X115622417Y-127624091D01*
X115757265Y-127573796D01*
X115872480Y-127487546D01*
X115958730Y-127372331D01*
X116007744Y-127240916D01*
X116042723Y-127190537D01*
X116097568Y-127163084D01*
X116158861Y-127165273D01*
X116211606Y-127196568D01*
X116333533Y-127318495D01*
X116337965Y-127321598D01*
X116337967Y-127321600D01*
X116482194Y-127422589D01*
X116527104Y-127454035D01*
X116741271Y-127553903D01*
X116969526Y-127615063D01*
X117204934Y-127635659D01*
X117440342Y-127615063D01*
X117668597Y-127553903D01*
X117882764Y-127454035D01*
X118076335Y-127318495D01*
X118243429Y-127151401D01*
X118373664Y-126965405D01*
X118417982Y-126926540D01*
X118475239Y-126912529D01*
X118532496Y-126926540D01*
X118576814Y-126965405D01*
X118703718Y-127146643D01*
X118710655Y-127154909D01*
X118870024Y-127314278D01*
X118878290Y-127321215D01*
X119062925Y-127450498D01*
X119072257Y-127455886D01*
X119276536Y-127551143D01*
X119286670Y-127554831D01*
X119481153Y-127606943D01*
X119492382Y-127607311D01*
X119494934Y-127596369D01*
X119994934Y-127596369D01*
X119997485Y-127607311D01*
X120008714Y-127606943D01*
X120203197Y-127554831D01*
X120213331Y-127551143D01*
X120417610Y-127455886D01*
X120426942Y-127450498D01*
X120611577Y-127321215D01*
X120619843Y-127314278D01*
X120779212Y-127154909D01*
X120786153Y-127146638D01*
X120913053Y-126965406D01*
X120957371Y-126926540D01*
X121014628Y-126912529D01*
X121071885Y-126926540D01*
X121116203Y-126965405D01*
X121243333Y-127146966D01*
X121243336Y-127146970D01*
X121246439Y-127151401D01*
X121413533Y-127318495D01*
X121417965Y-127321598D01*
X121417967Y-127321600D01*
X121562194Y-127422589D01*
X121607104Y-127454035D01*
X121821271Y-127553903D01*
X122049526Y-127615063D01*
X122284934Y-127635659D01*
X122520342Y-127615063D01*
X122748597Y-127553903D01*
X122962764Y-127454035D01*
X123156335Y-127318495D01*
X123323429Y-127151401D01*
X123453358Y-126965842D01*
X123497677Y-126926976D01*
X123554934Y-126912965D01*
X123612191Y-126926976D01*
X123656509Y-126965842D01*
X123783329Y-127146961D01*
X123783335Y-127146968D01*
X123786439Y-127151401D01*
X123953533Y-127318495D01*
X123957965Y-127321598D01*
X123957967Y-127321600D01*
X124102194Y-127422589D01*
X124147104Y-127454035D01*
X124361271Y-127553903D01*
X124589526Y-127615063D01*
X124824934Y-127635659D01*
X125060342Y-127615063D01*
X125288597Y-127553903D01*
X125502764Y-127454035D01*
X125696335Y-127318495D01*
X125863429Y-127151401D01*
X125993358Y-126965842D01*
X126037677Y-126926976D01*
X126094934Y-126912965D01*
X126152191Y-126926976D01*
X126196509Y-126965842D01*
X126323329Y-127146961D01*
X126323335Y-127146968D01*
X126326439Y-127151401D01*
X126493533Y-127318495D01*
X126497965Y-127321598D01*
X126497967Y-127321600D01*
X126642194Y-127422589D01*
X126687104Y-127454035D01*
X126901271Y-127553903D01*
X127129526Y-127615063D01*
X127364934Y-127635659D01*
X127600342Y-127615063D01*
X127828597Y-127553903D01*
X128042764Y-127454035D01*
X128236335Y-127318495D01*
X128403429Y-127151401D01*
X128533358Y-126965842D01*
X128577677Y-126926976D01*
X128634934Y-126912965D01*
X128692191Y-126926976D01*
X128736509Y-126965842D01*
X128863329Y-127146961D01*
X128863335Y-127146968D01*
X128866439Y-127151401D01*
X129033533Y-127318495D01*
X129037965Y-127321598D01*
X129037967Y-127321600D01*
X129182194Y-127422589D01*
X129227104Y-127454035D01*
X129441271Y-127553903D01*
X129669526Y-127615063D01*
X129904934Y-127635659D01*
X130140342Y-127615063D01*
X130368597Y-127553903D01*
X130582764Y-127454035D01*
X130776335Y-127318495D01*
X130943429Y-127151401D01*
X131073664Y-126965405D01*
X131117982Y-126926540D01*
X131175239Y-126912529D01*
X131232496Y-126926540D01*
X131276814Y-126965405D01*
X131403718Y-127146643D01*
X131410655Y-127154909D01*
X131570024Y-127314278D01*
X131578290Y-127321215D01*
X131762925Y-127450498D01*
X131772257Y-127455886D01*
X131976536Y-127551143D01*
X131986670Y-127554831D01*
X132181153Y-127606943D01*
X132192382Y-127607311D01*
X132194934Y-127596369D01*
X132694934Y-127596369D01*
X132697485Y-127607311D01*
X132708714Y-127606943D01*
X132903197Y-127554831D01*
X132913331Y-127551143D01*
X133117610Y-127455886D01*
X133126942Y-127450498D01*
X133311577Y-127321215D01*
X133319843Y-127314278D01*
X133479212Y-127154909D01*
X133486153Y-127146638D01*
X133613053Y-126965406D01*
X133657371Y-126926540D01*
X133714628Y-126912529D01*
X133771885Y-126926540D01*
X133816203Y-126965405D01*
X133943333Y-127146966D01*
X133943336Y-127146970D01*
X133946439Y-127151401D01*
X134113533Y-127318495D01*
X134117965Y-127321598D01*
X134117967Y-127321600D01*
X134262194Y-127422589D01*
X134307104Y-127454035D01*
X134521271Y-127553903D01*
X134749526Y-127615063D01*
X134984934Y-127635659D01*
X135220342Y-127615063D01*
X135448597Y-127553903D01*
X135662764Y-127454035D01*
X135856335Y-127318495D01*
X136023429Y-127151401D01*
X136153358Y-126965842D01*
X136197677Y-126926976D01*
X136254934Y-126912965D01*
X136312191Y-126926976D01*
X136356509Y-126965842D01*
X136483329Y-127146961D01*
X136483335Y-127146968D01*
X136486439Y-127151401D01*
X136653533Y-127318495D01*
X136657965Y-127321598D01*
X136657967Y-127321600D01*
X136802194Y-127422589D01*
X136847104Y-127454035D01*
X137061271Y-127553903D01*
X137289526Y-127615063D01*
X137524934Y-127635659D01*
X137760342Y-127615063D01*
X137988597Y-127553903D01*
X138202764Y-127454035D01*
X138396335Y-127318495D01*
X138563429Y-127151401D01*
X138693358Y-126965842D01*
X138737677Y-126926976D01*
X138794934Y-126912965D01*
X138852191Y-126926976D01*
X138896509Y-126965842D01*
X139023329Y-127146961D01*
X139023335Y-127146968D01*
X139026439Y-127151401D01*
X139193533Y-127318495D01*
X139197965Y-127321598D01*
X139197967Y-127321600D01*
X139342194Y-127422589D01*
X139387104Y-127454035D01*
X139601271Y-127553903D01*
X139829526Y-127615063D01*
X140064934Y-127635659D01*
X140300342Y-127615063D01*
X140528597Y-127553903D01*
X140742764Y-127454035D01*
X140936335Y-127318495D01*
X141103429Y-127151401D01*
X141233358Y-126965842D01*
X141277677Y-126926976D01*
X141334934Y-126912965D01*
X141392191Y-126926976D01*
X141436509Y-126965842D01*
X141563329Y-127146961D01*
X141563335Y-127146968D01*
X141566439Y-127151401D01*
X141733533Y-127318495D01*
X141737965Y-127321598D01*
X141737967Y-127321600D01*
X141882194Y-127422589D01*
X141927104Y-127454035D01*
X142141271Y-127553903D01*
X142369526Y-127615063D01*
X142604934Y-127635659D01*
X142840342Y-127615063D01*
X143068597Y-127553903D01*
X143282764Y-127454035D01*
X143476335Y-127318495D01*
X143643429Y-127151401D01*
X143773664Y-126965405D01*
X143817982Y-126926540D01*
X143875239Y-126912529D01*
X143932496Y-126926540D01*
X143976814Y-126965405D01*
X144103718Y-127146643D01*
X144110655Y-127154909D01*
X144270024Y-127314278D01*
X144278290Y-127321215D01*
X144462925Y-127450498D01*
X144472257Y-127455886D01*
X144676536Y-127551143D01*
X144686670Y-127554831D01*
X144881153Y-127606943D01*
X144892382Y-127607311D01*
X144894934Y-127596369D01*
X145394934Y-127596369D01*
X145397485Y-127607311D01*
X145408714Y-127606943D01*
X145603197Y-127554831D01*
X145613331Y-127551143D01*
X145817610Y-127455886D01*
X145826942Y-127450498D01*
X146011577Y-127321215D01*
X146019843Y-127314278D01*
X146179212Y-127154909D01*
X146186153Y-127146638D01*
X146313053Y-126965406D01*
X146357371Y-126926540D01*
X146414628Y-126912529D01*
X146471885Y-126926540D01*
X146516203Y-126965405D01*
X146643333Y-127146966D01*
X146643336Y-127146970D01*
X146646439Y-127151401D01*
X146813533Y-127318495D01*
X146817965Y-127321598D01*
X146817967Y-127321600D01*
X146962194Y-127422589D01*
X147007104Y-127454035D01*
X147221271Y-127553903D01*
X147449526Y-127615063D01*
X147684934Y-127635659D01*
X147920342Y-127615063D01*
X148148597Y-127553903D01*
X148362764Y-127454035D01*
X148556335Y-127318495D01*
X148723429Y-127151401D01*
X148853358Y-126965842D01*
X148897677Y-126926976D01*
X148954934Y-126912965D01*
X149012191Y-126926976D01*
X149056509Y-126965842D01*
X149183329Y-127146961D01*
X149183335Y-127146968D01*
X149186439Y-127151401D01*
X149353533Y-127318495D01*
X149357965Y-127321598D01*
X149357967Y-127321600D01*
X149502194Y-127422589D01*
X149547104Y-127454035D01*
X149761271Y-127553903D01*
X149989526Y-127615063D01*
X150224934Y-127635659D01*
X150460342Y-127615063D01*
X150688597Y-127553903D01*
X150902764Y-127454035D01*
X151096335Y-127318495D01*
X151263429Y-127151401D01*
X151393358Y-126965842D01*
X151437677Y-126926976D01*
X151494934Y-126912965D01*
X151552191Y-126926976D01*
X151596509Y-126965842D01*
X151723329Y-127146961D01*
X151723335Y-127146968D01*
X151726439Y-127151401D01*
X151893533Y-127318495D01*
X151897965Y-127321598D01*
X151897967Y-127321600D01*
X152042194Y-127422589D01*
X152087104Y-127454035D01*
X152301271Y-127553903D01*
X152529526Y-127615063D01*
X152764934Y-127635659D01*
X153000342Y-127615063D01*
X153228597Y-127553903D01*
X153442764Y-127454035D01*
X153636335Y-127318495D01*
X153803429Y-127151401D01*
X153933358Y-126965842D01*
X153977677Y-126926976D01*
X154034934Y-126912965D01*
X154092191Y-126926976D01*
X154136509Y-126965842D01*
X154263329Y-127146961D01*
X154263335Y-127146968D01*
X154266439Y-127151401D01*
X154433533Y-127318495D01*
X154437965Y-127321598D01*
X154437967Y-127321600D01*
X154582194Y-127422589D01*
X154627104Y-127454035D01*
X154841271Y-127553903D01*
X155069526Y-127615063D01*
X155304934Y-127635659D01*
X155540342Y-127615063D01*
X155768597Y-127553903D01*
X155982764Y-127454035D01*
X156176335Y-127318495D01*
X156343429Y-127151401D01*
X156473664Y-126965405D01*
X156517982Y-126926540D01*
X156575239Y-126912529D01*
X156632496Y-126926540D01*
X156676814Y-126965405D01*
X156803718Y-127146643D01*
X156810655Y-127154909D01*
X156970024Y-127314278D01*
X156978290Y-127321215D01*
X157162925Y-127450498D01*
X157172257Y-127455886D01*
X157376536Y-127551143D01*
X157386670Y-127554831D01*
X157581153Y-127606943D01*
X157592382Y-127607311D01*
X157594934Y-127596369D01*
X158094934Y-127596369D01*
X158097485Y-127607311D01*
X158108714Y-127606943D01*
X158303197Y-127554831D01*
X158313331Y-127551143D01*
X158517610Y-127455886D01*
X158526942Y-127450498D01*
X158711577Y-127321215D01*
X158719843Y-127314278D01*
X158879212Y-127154909D01*
X158886153Y-127146638D01*
X159013053Y-126965406D01*
X159057371Y-126926540D01*
X159114628Y-126912529D01*
X159171885Y-126926540D01*
X159216203Y-126965405D01*
X159343333Y-127146966D01*
X159343336Y-127146970D01*
X159346439Y-127151401D01*
X159513533Y-127318495D01*
X159517965Y-127321598D01*
X159517967Y-127321600D01*
X159662194Y-127422589D01*
X159707104Y-127454035D01*
X159921271Y-127553903D01*
X160149526Y-127615063D01*
X160384934Y-127635659D01*
X160620342Y-127615063D01*
X160848597Y-127553903D01*
X161062764Y-127454035D01*
X161256335Y-127318495D01*
X161423429Y-127151401D01*
X161553358Y-126965842D01*
X161597677Y-126926976D01*
X161654934Y-126912965D01*
X161712191Y-126926976D01*
X161756509Y-126965842D01*
X161883329Y-127146961D01*
X161883335Y-127146968D01*
X161886439Y-127151401D01*
X162053533Y-127318495D01*
X162057965Y-127321598D01*
X162057967Y-127321600D01*
X162202194Y-127422589D01*
X162247104Y-127454035D01*
X162461271Y-127553903D01*
X162689526Y-127615063D01*
X162924934Y-127635659D01*
X163160342Y-127615063D01*
X163388597Y-127553903D01*
X163602764Y-127454035D01*
X163796335Y-127318495D01*
X163963429Y-127151401D01*
X164098969Y-126957830D01*
X164198837Y-126743663D01*
X164259997Y-126515408D01*
X164280593Y-126280000D01*
X164259997Y-126044592D01*
X164198837Y-125816337D01*
X164098969Y-125602171D01*
X163963429Y-125408599D01*
X163796335Y-125241505D01*
X163791904Y-125238402D01*
X163791900Y-125238399D01*
X163607193Y-125109066D01*
X163607191Y-125109064D01*
X163602764Y-125105965D01*
X163597867Y-125103681D01*
X163597861Y-125103678D01*
X163393506Y-125008386D01*
X163393504Y-125008385D01*
X163388597Y-125006097D01*
X163383372Y-125004697D01*
X163383364Y-125004694D01*
X163165568Y-124946337D01*
X163165564Y-124946336D01*
X163160342Y-124944937D01*
X163154954Y-124944465D01*
X163154951Y-124944465D01*
X162930329Y-124924813D01*
X162924934Y-124924341D01*
X162919539Y-124924813D01*
X162694916Y-124944465D01*
X162694911Y-124944465D01*
X162689526Y-124944937D01*
X162684305Y-124946335D01*
X162684299Y-124946337D01*
X162466503Y-125004694D01*
X162466491Y-125004698D01*
X162461271Y-125006097D01*
X162456366Y-125008383D01*
X162456361Y-125008386D01*
X162252015Y-125103675D01*
X162252011Y-125103677D01*
X162247105Y-125105965D01*
X162242672Y-125109068D01*
X162242665Y-125109073D01*
X162057968Y-125238399D01*
X162057963Y-125238402D01*
X162053533Y-125241505D01*
X162049709Y-125245328D01*
X162049703Y-125245334D01*
X161890268Y-125404769D01*
X161890262Y-125404775D01*
X161886439Y-125408599D01*
X161883336Y-125413029D01*
X161883333Y-125413034D01*
X161756509Y-125594159D01*
X161712191Y-125633025D01*
X161654934Y-125647036D01*
X161597677Y-125633025D01*
X161553359Y-125594159D01*
X161542261Y-125578310D01*
X161423429Y-125408599D01*
X161256335Y-125241505D01*
X161251904Y-125238402D01*
X161251900Y-125238399D01*
X161067193Y-125109066D01*
X161067191Y-125109064D01*
X161062764Y-125105965D01*
X161057867Y-125103681D01*
X161057861Y-125103678D01*
X160853506Y-125008386D01*
X160853504Y-125008385D01*
X160848597Y-125006097D01*
X160843372Y-125004697D01*
X160843364Y-125004694D01*
X160625568Y-124946337D01*
X160625564Y-124946336D01*
X160620342Y-124944937D01*
X160614954Y-124944465D01*
X160614951Y-124944465D01*
X160390329Y-124924813D01*
X160384934Y-124924341D01*
X160379539Y-124924813D01*
X160154916Y-124944465D01*
X160154911Y-124944465D01*
X160149526Y-124944937D01*
X160144305Y-124946335D01*
X160144299Y-124946337D01*
X159926503Y-125004694D01*
X159926491Y-125004698D01*
X159921271Y-125006097D01*
X159916366Y-125008383D01*
X159916361Y-125008386D01*
X159712015Y-125103675D01*
X159712011Y-125103677D01*
X159707105Y-125105965D01*
X159702672Y-125109068D01*
X159702665Y-125109073D01*
X159517968Y-125238399D01*
X159517963Y-125238402D01*
X159513533Y-125241505D01*
X159509709Y-125245328D01*
X159509703Y-125245334D01*
X159350268Y-125404769D01*
X159350262Y-125404775D01*
X159346439Y-125408599D01*
X159343337Y-125413028D01*
X159343337Y-125413029D01*
X159216203Y-125594596D01*
X159171885Y-125633461D01*
X159114628Y-125647472D01*
X159057371Y-125633461D01*
X159013053Y-125594595D01*
X158886149Y-125413357D01*
X158879214Y-125405092D01*
X158719843Y-125245721D01*
X158711577Y-125238784D01*
X158526942Y-125109501D01*
X158517610Y-125104113D01*
X158313331Y-125008856D01*
X158303197Y-125005168D01*
X158108714Y-124953056D01*
X158097485Y-124952688D01*
X158094934Y-124963631D01*
X158094934Y-127596369D01*
X157594934Y-127596369D01*
X157594934Y-124963631D01*
X157592382Y-124952688D01*
X157581153Y-124953056D01*
X157386670Y-125005168D01*
X157376536Y-125008856D01*
X157172266Y-125104110D01*
X157162916Y-125109508D01*
X156978291Y-125238784D01*
X156970026Y-125245719D01*
X156810653Y-125405092D01*
X156803722Y-125413352D01*
X156676814Y-125594596D01*
X156632496Y-125633461D01*
X156575239Y-125647472D01*
X156517982Y-125633461D01*
X156473664Y-125594595D01*
X156473359Y-125594159D01*
X156343429Y-125408599D01*
X156176335Y-125241505D01*
X156171904Y-125238402D01*
X156171900Y-125238399D01*
X155987193Y-125109066D01*
X155987191Y-125109064D01*
X155982764Y-125105965D01*
X155977867Y-125103681D01*
X155977861Y-125103678D01*
X155773506Y-125008386D01*
X155773504Y-125008385D01*
X155768597Y-125006097D01*
X155763372Y-125004697D01*
X155763364Y-125004694D01*
X155545568Y-124946337D01*
X155545564Y-124946336D01*
X155540342Y-124944937D01*
X155534954Y-124944465D01*
X155534951Y-124944465D01*
X155310329Y-124924813D01*
X155304934Y-124924341D01*
X155299539Y-124924813D01*
X155074916Y-124944465D01*
X155074911Y-124944465D01*
X155069526Y-124944937D01*
X155064305Y-124946335D01*
X155064299Y-124946337D01*
X154846503Y-125004694D01*
X154846491Y-125004698D01*
X154841271Y-125006097D01*
X154836366Y-125008383D01*
X154836361Y-125008386D01*
X154632015Y-125103675D01*
X154632011Y-125103677D01*
X154627105Y-125105965D01*
X154622672Y-125109068D01*
X154622665Y-125109073D01*
X154437968Y-125238399D01*
X154437963Y-125238402D01*
X154433533Y-125241505D01*
X154429709Y-125245328D01*
X154429703Y-125245334D01*
X154270268Y-125404769D01*
X154270262Y-125404775D01*
X154266439Y-125408599D01*
X154263336Y-125413029D01*
X154263333Y-125413034D01*
X154136509Y-125594159D01*
X154092191Y-125633025D01*
X154034934Y-125647036D01*
X153977677Y-125633025D01*
X153933359Y-125594159D01*
X153922261Y-125578310D01*
X153803429Y-125408599D01*
X153636335Y-125241505D01*
X153631904Y-125238402D01*
X153631900Y-125238399D01*
X153447193Y-125109066D01*
X153447191Y-125109064D01*
X153442764Y-125105965D01*
X153437867Y-125103681D01*
X153437861Y-125103678D01*
X153233506Y-125008386D01*
X153233504Y-125008385D01*
X153228597Y-125006097D01*
X153223372Y-125004697D01*
X153223364Y-125004694D01*
X153005568Y-124946337D01*
X153005564Y-124946336D01*
X153000342Y-124944937D01*
X152994954Y-124944465D01*
X152994951Y-124944465D01*
X152770329Y-124924813D01*
X152764934Y-124924341D01*
X152759539Y-124924813D01*
X152534916Y-124944465D01*
X152534911Y-124944465D01*
X152529526Y-124944937D01*
X152524305Y-124946335D01*
X152524299Y-124946337D01*
X152306503Y-125004694D01*
X152306491Y-125004698D01*
X152301271Y-125006097D01*
X152296366Y-125008383D01*
X152296361Y-125008386D01*
X152092015Y-125103675D01*
X152092011Y-125103677D01*
X152087105Y-125105965D01*
X152082672Y-125109068D01*
X152082665Y-125109073D01*
X151897968Y-125238399D01*
X151897963Y-125238402D01*
X151893533Y-125241505D01*
X151889709Y-125245328D01*
X151889703Y-125245334D01*
X151730268Y-125404769D01*
X151730262Y-125404775D01*
X151726439Y-125408599D01*
X151723336Y-125413029D01*
X151723333Y-125413034D01*
X151596509Y-125594159D01*
X151552191Y-125633025D01*
X151494934Y-125647036D01*
X151437677Y-125633025D01*
X151393359Y-125594159D01*
X151382261Y-125578310D01*
X151263429Y-125408599D01*
X151096335Y-125241505D01*
X151091904Y-125238402D01*
X151091900Y-125238399D01*
X150907193Y-125109066D01*
X150907191Y-125109064D01*
X150902764Y-125105965D01*
X150897867Y-125103681D01*
X150897861Y-125103678D01*
X150693506Y-125008386D01*
X150693504Y-125008385D01*
X150688597Y-125006097D01*
X150683372Y-125004697D01*
X150683364Y-125004694D01*
X150465568Y-124946337D01*
X150465564Y-124946336D01*
X150460342Y-124944937D01*
X150454954Y-124944465D01*
X150454951Y-124944465D01*
X150230329Y-124924813D01*
X150224934Y-124924341D01*
X150219539Y-124924813D01*
X149994916Y-124944465D01*
X149994911Y-124944465D01*
X149989526Y-124944937D01*
X149984305Y-124946335D01*
X149984299Y-124946337D01*
X149766503Y-125004694D01*
X149766491Y-125004698D01*
X149761271Y-125006097D01*
X149756366Y-125008383D01*
X149756361Y-125008386D01*
X149552015Y-125103675D01*
X149552011Y-125103677D01*
X149547105Y-125105965D01*
X149542672Y-125109068D01*
X149542665Y-125109073D01*
X149357968Y-125238399D01*
X149357963Y-125238402D01*
X149353533Y-125241505D01*
X149349709Y-125245328D01*
X149349703Y-125245334D01*
X149190268Y-125404769D01*
X149190262Y-125404775D01*
X149186439Y-125408599D01*
X149183336Y-125413029D01*
X149183333Y-125413034D01*
X149056509Y-125594159D01*
X149012191Y-125633025D01*
X148954934Y-125647036D01*
X148897677Y-125633025D01*
X148853359Y-125594159D01*
X148842261Y-125578310D01*
X148723429Y-125408599D01*
X148556335Y-125241505D01*
X148551904Y-125238402D01*
X148551900Y-125238399D01*
X148367193Y-125109066D01*
X148367191Y-125109064D01*
X148362764Y-125105965D01*
X148357867Y-125103681D01*
X148357861Y-125103678D01*
X148153506Y-125008386D01*
X148153504Y-125008385D01*
X148148597Y-125006097D01*
X148143372Y-125004697D01*
X148143364Y-125004694D01*
X147925568Y-124946337D01*
X147925564Y-124946336D01*
X147920342Y-124944937D01*
X147914954Y-124944465D01*
X147914951Y-124944465D01*
X147690329Y-124924813D01*
X147684934Y-124924341D01*
X147679539Y-124924813D01*
X147454916Y-124944465D01*
X147454911Y-124944465D01*
X147449526Y-124944937D01*
X147444305Y-124946335D01*
X147444299Y-124946337D01*
X147226503Y-125004694D01*
X147226491Y-125004698D01*
X147221271Y-125006097D01*
X147216366Y-125008383D01*
X147216361Y-125008386D01*
X147012015Y-125103675D01*
X147012011Y-125103677D01*
X147007105Y-125105965D01*
X147002672Y-125109068D01*
X147002665Y-125109073D01*
X146817968Y-125238399D01*
X146817963Y-125238402D01*
X146813533Y-125241505D01*
X146809709Y-125245328D01*
X146809703Y-125245334D01*
X146650268Y-125404769D01*
X146650262Y-125404775D01*
X146646439Y-125408599D01*
X146643337Y-125413028D01*
X146643337Y-125413029D01*
X146516203Y-125594596D01*
X146471885Y-125633461D01*
X146414628Y-125647472D01*
X146357371Y-125633461D01*
X146313053Y-125594595D01*
X146186149Y-125413357D01*
X146179214Y-125405092D01*
X146019843Y-125245721D01*
X146011577Y-125238784D01*
X145826942Y-125109501D01*
X145817610Y-125104113D01*
X145613331Y-125008856D01*
X145603197Y-125005168D01*
X145408714Y-124953056D01*
X145397485Y-124952688D01*
X145394934Y-124963631D01*
X145394934Y-127596369D01*
X144894934Y-127596369D01*
X144894934Y-124963631D01*
X144892382Y-124952688D01*
X144881153Y-124953056D01*
X144686670Y-125005168D01*
X144676536Y-125008856D01*
X144472266Y-125104110D01*
X144462916Y-125109508D01*
X144278291Y-125238784D01*
X144270026Y-125245719D01*
X144110653Y-125405092D01*
X144103722Y-125413352D01*
X143976814Y-125594596D01*
X143932496Y-125633461D01*
X143875239Y-125647472D01*
X143817982Y-125633461D01*
X143773664Y-125594595D01*
X143773359Y-125594159D01*
X143643429Y-125408599D01*
X143476335Y-125241505D01*
X143471904Y-125238402D01*
X143471900Y-125238399D01*
X143287193Y-125109066D01*
X143287191Y-125109064D01*
X143282764Y-125105965D01*
X143277867Y-125103681D01*
X143277861Y-125103678D01*
X143073506Y-125008386D01*
X143073504Y-125008385D01*
X143068597Y-125006097D01*
X143063372Y-125004697D01*
X143063364Y-125004694D01*
X142845568Y-124946337D01*
X142845564Y-124946336D01*
X142840342Y-124944937D01*
X142834954Y-124944465D01*
X142834951Y-124944465D01*
X142610329Y-124924813D01*
X142604934Y-124924341D01*
X142599539Y-124924813D01*
X142374916Y-124944465D01*
X142374911Y-124944465D01*
X142369526Y-124944937D01*
X142364305Y-124946335D01*
X142364299Y-124946337D01*
X142146503Y-125004694D01*
X142146491Y-125004698D01*
X142141271Y-125006097D01*
X142136366Y-125008383D01*
X142136361Y-125008386D01*
X141932015Y-125103675D01*
X141932011Y-125103677D01*
X141927105Y-125105965D01*
X141922672Y-125109068D01*
X141922665Y-125109073D01*
X141737968Y-125238399D01*
X141737963Y-125238402D01*
X141733533Y-125241505D01*
X141729709Y-125245328D01*
X141729703Y-125245334D01*
X141570268Y-125404769D01*
X141570262Y-125404775D01*
X141566439Y-125408599D01*
X141563336Y-125413029D01*
X141563333Y-125413034D01*
X141436509Y-125594159D01*
X141392191Y-125633025D01*
X141334934Y-125647036D01*
X141277677Y-125633025D01*
X141233359Y-125594159D01*
X141222261Y-125578310D01*
X141103429Y-125408599D01*
X140936335Y-125241505D01*
X140931904Y-125238402D01*
X140931900Y-125238399D01*
X140747193Y-125109066D01*
X140747191Y-125109064D01*
X140742764Y-125105965D01*
X140737867Y-125103681D01*
X140737861Y-125103678D01*
X140533506Y-125008386D01*
X140533504Y-125008385D01*
X140528597Y-125006097D01*
X140523372Y-125004697D01*
X140523364Y-125004694D01*
X140305568Y-124946337D01*
X140305564Y-124946336D01*
X140300342Y-124944937D01*
X140294954Y-124944465D01*
X140294951Y-124944465D01*
X140070329Y-124924813D01*
X140064934Y-124924341D01*
X140059539Y-124924813D01*
X139834916Y-124944465D01*
X139834911Y-124944465D01*
X139829526Y-124944937D01*
X139824305Y-124946335D01*
X139824299Y-124946337D01*
X139606503Y-125004694D01*
X139606491Y-125004698D01*
X139601271Y-125006097D01*
X139596366Y-125008383D01*
X139596361Y-125008386D01*
X139392015Y-125103675D01*
X139392011Y-125103677D01*
X139387105Y-125105965D01*
X139382672Y-125109068D01*
X139382665Y-125109073D01*
X139197968Y-125238399D01*
X139197963Y-125238402D01*
X139193533Y-125241505D01*
X139189709Y-125245328D01*
X139189703Y-125245334D01*
X139030268Y-125404769D01*
X139030262Y-125404775D01*
X139026439Y-125408599D01*
X139023336Y-125413029D01*
X139023333Y-125413034D01*
X138896509Y-125594159D01*
X138852191Y-125633025D01*
X138794934Y-125647036D01*
X138737677Y-125633025D01*
X138693359Y-125594159D01*
X138682261Y-125578310D01*
X138563429Y-125408599D01*
X138396335Y-125241505D01*
X138391904Y-125238402D01*
X138391900Y-125238399D01*
X138207193Y-125109066D01*
X138207191Y-125109064D01*
X138202764Y-125105965D01*
X138197867Y-125103681D01*
X138197861Y-125103678D01*
X137993506Y-125008386D01*
X137993504Y-125008385D01*
X137988597Y-125006097D01*
X137983372Y-125004697D01*
X137983364Y-125004694D01*
X137765568Y-124946337D01*
X137765564Y-124946336D01*
X137760342Y-124944937D01*
X137754954Y-124944465D01*
X137754951Y-124944465D01*
X137530329Y-124924813D01*
X137524934Y-124924341D01*
X137519539Y-124924813D01*
X137294916Y-124944465D01*
X137294911Y-124944465D01*
X137289526Y-124944937D01*
X137284305Y-124946335D01*
X137284299Y-124946337D01*
X137066503Y-125004694D01*
X137066491Y-125004698D01*
X137061271Y-125006097D01*
X137056366Y-125008383D01*
X137056361Y-125008386D01*
X136852015Y-125103675D01*
X136852011Y-125103677D01*
X136847105Y-125105965D01*
X136842672Y-125109068D01*
X136842665Y-125109073D01*
X136657968Y-125238399D01*
X136657963Y-125238402D01*
X136653533Y-125241505D01*
X136649709Y-125245328D01*
X136649703Y-125245334D01*
X136490268Y-125404769D01*
X136490262Y-125404775D01*
X136486439Y-125408599D01*
X136483336Y-125413029D01*
X136483333Y-125413034D01*
X136356509Y-125594159D01*
X136312191Y-125633025D01*
X136254934Y-125647036D01*
X136197677Y-125633025D01*
X136153359Y-125594159D01*
X136142261Y-125578310D01*
X136023429Y-125408599D01*
X135856335Y-125241505D01*
X135851904Y-125238402D01*
X135851900Y-125238399D01*
X135667193Y-125109066D01*
X135667191Y-125109064D01*
X135662764Y-125105965D01*
X135657867Y-125103681D01*
X135657861Y-125103678D01*
X135453506Y-125008386D01*
X135453504Y-125008385D01*
X135448597Y-125006097D01*
X135443372Y-125004697D01*
X135443364Y-125004694D01*
X135225568Y-124946337D01*
X135225564Y-124946336D01*
X135220342Y-124944937D01*
X135214954Y-124944465D01*
X135214951Y-124944465D01*
X134990329Y-124924813D01*
X134984934Y-124924341D01*
X134979539Y-124924813D01*
X134754916Y-124944465D01*
X134754911Y-124944465D01*
X134749526Y-124944937D01*
X134744305Y-124946335D01*
X134744299Y-124946337D01*
X134526503Y-125004694D01*
X134526491Y-125004698D01*
X134521271Y-125006097D01*
X134516366Y-125008383D01*
X134516361Y-125008386D01*
X134312015Y-125103675D01*
X134312011Y-125103677D01*
X134307105Y-125105965D01*
X134302672Y-125109068D01*
X134302665Y-125109073D01*
X134117968Y-125238399D01*
X134117963Y-125238402D01*
X134113533Y-125241505D01*
X134109709Y-125245328D01*
X134109703Y-125245334D01*
X133950268Y-125404769D01*
X133950262Y-125404775D01*
X133946439Y-125408599D01*
X133943337Y-125413028D01*
X133943337Y-125413029D01*
X133816203Y-125594596D01*
X133771885Y-125633461D01*
X133714628Y-125647472D01*
X133657371Y-125633461D01*
X133613053Y-125594595D01*
X133486149Y-125413357D01*
X133479214Y-125405092D01*
X133319843Y-125245721D01*
X133311577Y-125238784D01*
X133126942Y-125109501D01*
X133117610Y-125104113D01*
X132913331Y-125008856D01*
X132903197Y-125005168D01*
X132708714Y-124953056D01*
X132697485Y-124952688D01*
X132694934Y-124963631D01*
X132694934Y-127596369D01*
X132194934Y-127596369D01*
X132194934Y-124963631D01*
X132192382Y-124952688D01*
X132181153Y-124953056D01*
X131986670Y-125005168D01*
X131976536Y-125008856D01*
X131772266Y-125104110D01*
X131762916Y-125109508D01*
X131578291Y-125238784D01*
X131570026Y-125245719D01*
X131410653Y-125405092D01*
X131403722Y-125413352D01*
X131276814Y-125594596D01*
X131232496Y-125633461D01*
X131175239Y-125647472D01*
X131117982Y-125633461D01*
X131073664Y-125594595D01*
X131073359Y-125594159D01*
X130943429Y-125408599D01*
X130776335Y-125241505D01*
X130771904Y-125238402D01*
X130771900Y-125238399D01*
X130587193Y-125109066D01*
X130587191Y-125109064D01*
X130582764Y-125105965D01*
X130577867Y-125103681D01*
X130577861Y-125103678D01*
X130373506Y-125008386D01*
X130373504Y-125008385D01*
X130368597Y-125006097D01*
X130363372Y-125004697D01*
X130363364Y-125004694D01*
X130145568Y-124946337D01*
X130145564Y-124946336D01*
X130140342Y-124944937D01*
X130134954Y-124944465D01*
X130134951Y-124944465D01*
X129910329Y-124924813D01*
X129904934Y-124924341D01*
X129899539Y-124924813D01*
X129674916Y-124944465D01*
X129674911Y-124944465D01*
X129669526Y-124944937D01*
X129664305Y-124946335D01*
X129664299Y-124946337D01*
X129446503Y-125004694D01*
X129446491Y-125004698D01*
X129441271Y-125006097D01*
X129436366Y-125008383D01*
X129436361Y-125008386D01*
X129232015Y-125103675D01*
X129232011Y-125103677D01*
X129227105Y-125105965D01*
X129222672Y-125109068D01*
X129222665Y-125109073D01*
X129037968Y-125238399D01*
X129037963Y-125238402D01*
X129033533Y-125241505D01*
X129029709Y-125245328D01*
X129029703Y-125245334D01*
X128870268Y-125404769D01*
X128870262Y-125404775D01*
X128866439Y-125408599D01*
X128863336Y-125413029D01*
X128863333Y-125413034D01*
X128736509Y-125594159D01*
X128692191Y-125633025D01*
X128634934Y-125647036D01*
X128577677Y-125633025D01*
X128533359Y-125594159D01*
X128522261Y-125578310D01*
X128403429Y-125408599D01*
X128236335Y-125241505D01*
X128231904Y-125238402D01*
X128231900Y-125238399D01*
X128047193Y-125109066D01*
X128047191Y-125109064D01*
X128042764Y-125105965D01*
X128037867Y-125103681D01*
X128037861Y-125103678D01*
X127833506Y-125008386D01*
X127833504Y-125008385D01*
X127828597Y-125006097D01*
X127823372Y-125004697D01*
X127823364Y-125004694D01*
X127605568Y-124946337D01*
X127605564Y-124946336D01*
X127600342Y-124944937D01*
X127594954Y-124944465D01*
X127594951Y-124944465D01*
X127370329Y-124924813D01*
X127364934Y-124924341D01*
X127359539Y-124924813D01*
X127134916Y-124944465D01*
X127134911Y-124944465D01*
X127129526Y-124944937D01*
X127124305Y-124946335D01*
X127124299Y-124946337D01*
X126906503Y-125004694D01*
X126906491Y-125004698D01*
X126901271Y-125006097D01*
X126896366Y-125008383D01*
X126896361Y-125008386D01*
X126692015Y-125103675D01*
X126692011Y-125103677D01*
X126687105Y-125105965D01*
X126682672Y-125109068D01*
X126682665Y-125109073D01*
X126497968Y-125238399D01*
X126497963Y-125238402D01*
X126493533Y-125241505D01*
X126489709Y-125245328D01*
X126489703Y-125245334D01*
X126330268Y-125404769D01*
X126330262Y-125404775D01*
X126326439Y-125408599D01*
X126323336Y-125413029D01*
X126323333Y-125413034D01*
X126196509Y-125594159D01*
X126152191Y-125633025D01*
X126094934Y-125647036D01*
X126037677Y-125633025D01*
X125993359Y-125594159D01*
X125982261Y-125578310D01*
X125863429Y-125408599D01*
X125696335Y-125241505D01*
X125691904Y-125238402D01*
X125691900Y-125238399D01*
X125507193Y-125109066D01*
X125507191Y-125109064D01*
X125502764Y-125105965D01*
X125497867Y-125103681D01*
X125497861Y-125103678D01*
X125293506Y-125008386D01*
X125293504Y-125008385D01*
X125288597Y-125006097D01*
X125283372Y-125004697D01*
X125283364Y-125004694D01*
X125065568Y-124946337D01*
X125065564Y-124946336D01*
X125060342Y-124944937D01*
X125054954Y-124944465D01*
X125054951Y-124944465D01*
X124830329Y-124924813D01*
X124824934Y-124924341D01*
X124819539Y-124924813D01*
X124594916Y-124944465D01*
X124594911Y-124944465D01*
X124589526Y-124944937D01*
X124584305Y-124946335D01*
X124584299Y-124946337D01*
X124366503Y-125004694D01*
X124366491Y-125004698D01*
X124361271Y-125006097D01*
X124356366Y-125008383D01*
X124356361Y-125008386D01*
X124152015Y-125103675D01*
X124152011Y-125103677D01*
X124147105Y-125105965D01*
X124142672Y-125109068D01*
X124142665Y-125109073D01*
X123957968Y-125238399D01*
X123957963Y-125238402D01*
X123953533Y-125241505D01*
X123949709Y-125245328D01*
X123949703Y-125245334D01*
X123790268Y-125404769D01*
X123790262Y-125404775D01*
X123786439Y-125408599D01*
X123783336Y-125413029D01*
X123783333Y-125413034D01*
X123656509Y-125594159D01*
X123612191Y-125633025D01*
X123554934Y-125647036D01*
X123497677Y-125633025D01*
X123453359Y-125594159D01*
X123442261Y-125578310D01*
X123323429Y-125408599D01*
X123156335Y-125241505D01*
X123151904Y-125238402D01*
X123151900Y-125238399D01*
X122967193Y-125109066D01*
X122967191Y-125109064D01*
X122962764Y-125105965D01*
X122957867Y-125103681D01*
X122957861Y-125103678D01*
X122753506Y-125008386D01*
X122753504Y-125008385D01*
X122748597Y-125006097D01*
X122743372Y-125004697D01*
X122743364Y-125004694D01*
X122525568Y-124946337D01*
X122525564Y-124946336D01*
X122520342Y-124944937D01*
X122514954Y-124944465D01*
X122514951Y-124944465D01*
X122290329Y-124924813D01*
X122284934Y-124924341D01*
X122279539Y-124924813D01*
X122054916Y-124944465D01*
X122054911Y-124944465D01*
X122049526Y-124944937D01*
X122044305Y-124946335D01*
X122044299Y-124946337D01*
X121826503Y-125004694D01*
X121826491Y-125004698D01*
X121821271Y-125006097D01*
X121816366Y-125008383D01*
X121816361Y-125008386D01*
X121612015Y-125103675D01*
X121612011Y-125103677D01*
X121607105Y-125105965D01*
X121602672Y-125109068D01*
X121602665Y-125109073D01*
X121417968Y-125238399D01*
X121417963Y-125238402D01*
X121413533Y-125241505D01*
X121409709Y-125245328D01*
X121409703Y-125245334D01*
X121250268Y-125404769D01*
X121250262Y-125404775D01*
X121246439Y-125408599D01*
X121243337Y-125413028D01*
X121243337Y-125413029D01*
X121116203Y-125594596D01*
X121071885Y-125633461D01*
X121014628Y-125647472D01*
X120957371Y-125633461D01*
X120913053Y-125594595D01*
X120786149Y-125413357D01*
X120779214Y-125405092D01*
X120619843Y-125245721D01*
X120611577Y-125238784D01*
X120426942Y-125109501D01*
X120417610Y-125104113D01*
X120213331Y-125008856D01*
X120203197Y-125005168D01*
X120008714Y-124953056D01*
X119997485Y-124952688D01*
X119994934Y-124963631D01*
X119994934Y-127596369D01*
X119494934Y-127596369D01*
X119494934Y-124963631D01*
X119492382Y-124952688D01*
X119481153Y-124953056D01*
X119286670Y-125005168D01*
X119276536Y-125008856D01*
X119072266Y-125104110D01*
X119062916Y-125109508D01*
X118878291Y-125238784D01*
X118870026Y-125245719D01*
X118710653Y-125405092D01*
X118703722Y-125413352D01*
X118576814Y-125594596D01*
X118532496Y-125633461D01*
X118475239Y-125647472D01*
X118417982Y-125633461D01*
X118373664Y-125594595D01*
X118373359Y-125594159D01*
X118243429Y-125408599D01*
X118076335Y-125241505D01*
X118071904Y-125238402D01*
X118071900Y-125238399D01*
X117887193Y-125109066D01*
X117887191Y-125109064D01*
X117882764Y-125105965D01*
X117877867Y-125103681D01*
X117877861Y-125103678D01*
X117673506Y-125008386D01*
X117673504Y-125008385D01*
X117668597Y-125006097D01*
X117663372Y-125004697D01*
X117663364Y-125004694D01*
X117445568Y-124946337D01*
X117445564Y-124946336D01*
X117440342Y-124944937D01*
X117434954Y-124944465D01*
X117434951Y-124944465D01*
X117210329Y-124924813D01*
X117204934Y-124924341D01*
X117199539Y-124924813D01*
X116974916Y-124944465D01*
X116974911Y-124944465D01*
X116969526Y-124944937D01*
X116964305Y-124946335D01*
X116964299Y-124946337D01*
X116746503Y-125004694D01*
X116746491Y-125004698D01*
X116741271Y-125006097D01*
X116736366Y-125008383D01*
X116736361Y-125008386D01*
X116532015Y-125103675D01*
X116532011Y-125103677D01*
X116527105Y-125105965D01*
X116522672Y-125109068D01*
X116522665Y-125109073D01*
X116337968Y-125238399D01*
X116337963Y-125238402D01*
X116333533Y-125241505D01*
X116329709Y-125245329D01*
X116211607Y-125363431D01*
X116158860Y-125394726D01*
X116097567Y-125396915D01*
X116042723Y-125369462D01*
X116007744Y-125319082D01*
X115980238Y-125245336D01*
X115958730Y-125187669D01*
X115872480Y-125072454D01*
X115781964Y-125004694D01*
X115764365Y-124991519D01*
X115764364Y-124991518D01*
X115757265Y-124986204D01*
X115650376Y-124946337D01*
X115629686Y-124938620D01*
X115629684Y-124938619D01*
X115622417Y-124935909D01*
X115614704Y-124935079D01*
X115614701Y-124935079D01*
X115566114Y-124929855D01*
X115566103Y-124929854D01*
X115562807Y-124929500D01*
X115559484Y-124929500D01*
X113770373Y-124929500D01*
X113770354Y-124929500D01*
X113767062Y-124929501D01*
X113763784Y-124929853D01*
X113763772Y-124929854D01*
X113715165Y-124935079D01*
X113715159Y-124935080D01*
X113707451Y-124935909D01*
X113700186Y-124938618D01*
X113700180Y-124938620D01*
X113580914Y-124983104D01*
X113580912Y-124983104D01*
X113572603Y-124986204D01*
X113565506Y-124991516D01*
X113565502Y-124991519D01*
X113464484Y-125067141D01*
X113464480Y-125067144D01*
X113457388Y-125072454D01*
X113452078Y-125079546D01*
X113452075Y-125079550D01*
X113376453Y-125180568D01*
X113376450Y-125180572D01*
X113371138Y-125187669D01*
X113368038Y-125195978D01*
X113368038Y-125195980D01*
X113323554Y-125315247D01*
X113323553Y-125315250D01*
X113320843Y-125322517D01*
X113320013Y-125330227D01*
X113320013Y-125330232D01*
X113314789Y-125378819D01*
X113314788Y-125378831D01*
X113314434Y-125382127D01*
X113314434Y-125385448D01*
X113314434Y-125385449D01*
X113314434Y-127174560D01*
X113314434Y-127174578D01*
X105410000Y-127174578D01*
X105410000Y-91523685D01*
X105426558Y-91461780D01*
X105471810Y-91416408D01*
X105533670Y-91399685D01*
X185842668Y-91186000D01*
X187826000Y-91186000D01*
X187888000Y-91202613D01*
G37*
%TD.AperFunction*%
%TD*%
%TA.AperFunction,NonConductor*%
G36*
X187223987Y-22000502D02*
G01*
X187284471Y-22000500D01*
X187295274Y-22000971D01*
X187452657Y-22014737D01*
X187473935Y-22018489D01*
X187613911Y-22055993D01*
X187621288Y-22057970D01*
X187641602Y-22065362D01*
X187779866Y-22129835D01*
X187798583Y-22140642D01*
X187923543Y-22228139D01*
X187940101Y-22242033D01*
X188047967Y-22349899D01*
X188061861Y-22366457D01*
X188149358Y-22491417D01*
X188160166Y-22510136D01*
X188224637Y-22648398D01*
X188232029Y-22668710D01*
X188271509Y-22816059D01*
X188275262Y-22837347D01*
X188289028Y-22994736D01*
X188289500Y-23005542D01*
X188289499Y-23065997D01*
X188289499Y-23066014D01*
X188289500Y-23066020D01*
X188289501Y-23066021D01*
X188289501Y-90550317D01*
X188272943Y-90612222D01*
X188227691Y-90657594D01*
X188165831Y-90674317D01*
X104664295Y-90896495D01*
X104664292Y-90896495D01*
X104648000Y-90896539D01*
X104648000Y-90912835D01*
X104648000Y-148875633D01*
X104631387Y-148937633D01*
X104586000Y-148983020D01*
X104524000Y-148999633D01*
X90295414Y-148999633D01*
X90284606Y-148999161D01*
X90127223Y-148985391D01*
X90105938Y-148981638D01*
X89958584Y-148942155D01*
X89938273Y-148934762D01*
X89800015Y-148870292D01*
X89781304Y-148859490D01*
X89656329Y-148771981D01*
X89639777Y-148758092D01*
X89531908Y-148650223D01*
X89518014Y-148633665D01*
X89430515Y-148508703D01*
X89419708Y-148489985D01*
X89355237Y-148351727D01*
X89347844Y-148331415D01*
X89308361Y-148184062D01*
X89304608Y-148162776D01*
X89301839Y-148131129D01*
X89290839Y-148005405D01*
X89290368Y-147994599D01*
X89290368Y-143750066D01*
X90834356Y-143750066D01*
X90854656Y-144137404D01*
X90855161Y-144140597D01*
X90855163Y-144140609D01*
X90914823Y-144517290D01*
X90914825Y-144517303D01*
X90915332Y-144520499D01*
X90916169Y-144523623D01*
X90916171Y-144523632D01*
X91014881Y-144892023D01*
X91015720Y-144895153D01*
X91016877Y-144898168D01*
X91016880Y-144898176D01*
X91039796Y-144957873D01*
X91154720Y-145257260D01*
X91156189Y-145260143D01*
X91156193Y-145260152D01*
X91232799Y-145410500D01*
X91330809Y-145602855D01*
X91542058Y-145928150D01*
X91786153Y-146229582D01*
X92060418Y-146503847D01*
X92361850Y-146747942D01*
X92687145Y-146959191D01*
X93032740Y-147135280D01*
X93394847Y-147274280D01*
X93769501Y-147374668D01*
X94152596Y-147435344D01*
X94539934Y-147455644D01*
X94927272Y-147435344D01*
X95310367Y-147374668D01*
X95685021Y-147274280D01*
X96047128Y-147135280D01*
X96392723Y-146959191D01*
X96718018Y-146747942D01*
X97019450Y-146503847D01*
X97293715Y-146229582D01*
X97537810Y-145928150D01*
X97749059Y-145602855D01*
X97925148Y-145257260D01*
X98064148Y-144895153D01*
X98164536Y-144520499D01*
X98225212Y-144137404D01*
X98245512Y-143750066D01*
X98225212Y-143362728D01*
X98164536Y-142979633D01*
X98064148Y-142604979D01*
X97925148Y-142242872D01*
X97749059Y-141897277D01*
X97537810Y-141571982D01*
X97293715Y-141270550D01*
X97019450Y-140996285D01*
X96718018Y-140752190D01*
X96392723Y-140540941D01*
X96389835Y-140539469D01*
X96389829Y-140539466D01*
X96050020Y-140366325D01*
X96050011Y-140366321D01*
X96047128Y-140364852D01*
X96044096Y-140363688D01*
X95688044Y-140227012D01*
X95688036Y-140227009D01*
X95685021Y-140225852D01*
X95681896Y-140225014D01*
X95681891Y-140225013D01*
X95313500Y-140126303D01*
X95313491Y-140126301D01*
X95310367Y-140125464D01*
X95307171Y-140124957D01*
X95307158Y-140124955D01*
X94930477Y-140065295D01*
X94930465Y-140065293D01*
X94927272Y-140064788D01*
X94924037Y-140064618D01*
X94924033Y-140064618D01*
X94543178Y-140044658D01*
X94539934Y-140044488D01*
X94536690Y-140044658D01*
X94155834Y-140064618D01*
X94155828Y-140064618D01*
X94152596Y-140064788D01*
X94149404Y-140065293D01*
X94149390Y-140065295D01*
X93772709Y-140124955D01*
X93772692Y-140124958D01*
X93769501Y-140125464D01*
X93766380Y-140126300D01*
X93766367Y-140126303D01*
X93397976Y-140225013D01*
X93397965Y-140225016D01*
X93394847Y-140225852D01*
X93391836Y-140227007D01*
X93391823Y-140227012D01*
X93035771Y-140363688D01*
X93035762Y-140363691D01*
X93032740Y-140364852D01*
X93029863Y-140366317D01*
X93029847Y-140366325D01*
X92690038Y-140539466D01*
X92690024Y-140539474D01*
X92687145Y-140540941D01*
X92684425Y-140542707D01*
X92684417Y-140542712D01*
X92364578Y-140750418D01*
X92364572Y-140750421D01*
X92361850Y-140752190D01*
X92359330Y-140754230D01*
X92359324Y-140754235D01*
X92062936Y-140994245D01*
X92062925Y-140994254D01*
X92060418Y-140996285D01*
X92058133Y-140998569D01*
X92058123Y-140998579D01*
X91788447Y-141268255D01*
X91788437Y-141268265D01*
X91786153Y-141270550D01*
X91784122Y-141273057D01*
X91784113Y-141273068D01*
X91544103Y-141569456D01*
X91544098Y-141569462D01*
X91542058Y-141571982D01*
X91540289Y-141574704D01*
X91540286Y-141574710D01*
X91332580Y-141894549D01*
X91332575Y-141894557D01*
X91330809Y-141897277D01*
X91329342Y-141900156D01*
X91329334Y-141900170D01*
X91156193Y-142239979D01*
X91156185Y-142239995D01*
X91154720Y-142242872D01*
X91153559Y-142245894D01*
X91153556Y-142245903D01*
X91016880Y-142601955D01*
X91016875Y-142601968D01*
X91015720Y-142604979D01*
X91014884Y-142608097D01*
X91014881Y-142608108D01*
X90916171Y-142976499D01*
X90916168Y-142976512D01*
X90915332Y-142979633D01*
X90914826Y-142982824D01*
X90914823Y-142982841D01*
X90855163Y-143359522D01*
X90855161Y-143359536D01*
X90854656Y-143362728D01*
X90834356Y-143750066D01*
X89290368Y-143750066D01*
X89290368Y-67677281D01*
X135339434Y-67677281D01*
X135379888Y-68049249D01*
X135380609Y-68052526D01*
X135380611Y-68052536D01*
X135459597Y-68411375D01*
X135460321Y-68414662D01*
X135461395Y-68417849D01*
X135578718Y-68766052D01*
X135578721Y-68766060D01*
X135579792Y-68769238D01*
X135736898Y-69108817D01*
X135929798Y-69429420D01*
X135931826Y-69432088D01*
X135931833Y-69432098D01*
X136152459Y-69722326D01*
X136156231Y-69727287D01*
X136158539Y-69729724D01*
X136158542Y-69729727D01*
X136411232Y-69996489D01*
X136411237Y-69996494D01*
X136413542Y-69998927D01*
X136698713Y-70241154D01*
X137008403Y-70451128D01*
X137338979Y-70626389D01*
X137686566Y-70764880D01*
X138047089Y-70864979D01*
X138416321Y-70925511D01*
X138696462Y-70940700D01*
X138881742Y-70940700D01*
X138883406Y-70940700D01*
X139163547Y-70925511D01*
X139532779Y-70864979D01*
X139893302Y-70764880D01*
X140240889Y-70626389D01*
X140571465Y-70451128D01*
X140881155Y-70241154D01*
X141166326Y-69998927D01*
X141423637Y-69727287D01*
X141650070Y-69429420D01*
X141842970Y-69108817D01*
X142000076Y-68769238D01*
X142119547Y-68414662D01*
X142199980Y-68049249D01*
X142240434Y-67677281D01*
X142240434Y-67303119D01*
X142199980Y-66931151D01*
X142119547Y-66565738D01*
X142000076Y-66211162D01*
X141842970Y-65871583D01*
X141650070Y-65550980D01*
X141648038Y-65548307D01*
X141648034Y-65548301D01*
X141425671Y-65255789D01*
X141423637Y-65253113D01*
X141421325Y-65250672D01*
X141168635Y-64983910D01*
X141168629Y-64983904D01*
X141166326Y-64981473D01*
X140881155Y-64739246D01*
X140878375Y-64737361D01*
X140574240Y-64531153D01*
X140574233Y-64531149D01*
X140571465Y-64529272D01*
X140568503Y-64527701D01*
X140568497Y-64527698D01*
X140243860Y-64355586D01*
X140243858Y-64355585D01*
X140240889Y-64354011D01*
X140237769Y-64352768D01*
X140237765Y-64352766D01*
X139896428Y-64216765D01*
X139896419Y-64216762D01*
X139893302Y-64215520D01*
X139821844Y-64195679D01*
X139536019Y-64116320D01*
X139536008Y-64116317D01*
X139532779Y-64115421D01*
X139529477Y-64114879D01*
X139529465Y-64114877D01*
X139166860Y-64055432D01*
X139166857Y-64055431D01*
X139163547Y-64054889D01*
X139160202Y-64054707D01*
X139160187Y-64054706D01*
X138885070Y-64039790D01*
X138885061Y-64039789D01*
X138883406Y-64039700D01*
X138696462Y-64039700D01*
X138694807Y-64039789D01*
X138694797Y-64039790D01*
X138419680Y-64054706D01*
X138419663Y-64054707D01*
X138416321Y-64054889D01*
X138413012Y-64055431D01*
X138413007Y-64055432D01*
X138050402Y-64114877D01*
X138050386Y-64114880D01*
X138047089Y-64115421D01*
X138043862Y-64116316D01*
X138043848Y-64116320D01*
X137689807Y-64214620D01*
X137686566Y-64215520D01*
X137683453Y-64216760D01*
X137683439Y-64216765D01*
X137342102Y-64352766D01*
X137342091Y-64352770D01*
X137338979Y-64354011D01*
X137336016Y-64355581D01*
X137336007Y-64355586D01*
X137011370Y-64527698D01*
X137011356Y-64527706D01*
X137008403Y-64529272D01*
X137005642Y-64531143D01*
X137005627Y-64531153D01*
X136701492Y-64737361D01*
X136701482Y-64737368D01*
X136698713Y-64739246D01*
X136696161Y-64741413D01*
X136696150Y-64741422D01*
X136416100Y-64979299D01*
X136416087Y-64979310D01*
X136413542Y-64981473D01*
X136411247Y-64983895D01*
X136411232Y-64983910D01*
X136158542Y-65250672D01*
X136158531Y-65250684D01*
X136156231Y-65253113D01*
X136154203Y-65255780D01*
X136154196Y-65255789D01*
X135931833Y-65548301D01*
X135931820Y-65548319D01*
X135929798Y-65550980D01*
X135928069Y-65553853D01*
X135928064Y-65553861D01*
X135738632Y-65868700D01*
X135738627Y-65868708D01*
X135736898Y-65871583D01*
X135735488Y-65874629D01*
X135735484Y-65874638D01*
X135581206Y-66208105D01*
X135579792Y-66211162D01*
X135578723Y-66214333D01*
X135578718Y-66214347D01*
X135461395Y-66562550D01*
X135460321Y-66565738D01*
X135459600Y-66569011D01*
X135459597Y-66569024D01*
X135380611Y-66927863D01*
X135380608Y-66927876D01*
X135379888Y-66931151D01*
X135339434Y-67303119D01*
X135339434Y-67677281D01*
X89290368Y-67677281D01*
X89290368Y-55250066D01*
X90834356Y-55250066D01*
X90854656Y-55637404D01*
X90855161Y-55640597D01*
X90855163Y-55640609D01*
X90914823Y-56017290D01*
X90914825Y-56017303D01*
X90915332Y-56020499D01*
X91015720Y-56395153D01*
X91154720Y-56757260D01*
X91156189Y-56760143D01*
X91156193Y-56760152D01*
X91329334Y-57099961D01*
X91330809Y-57102855D01*
X91542058Y-57428150D01*
X91786153Y-57729582D01*
X92060418Y-58003847D01*
X92361850Y-58247942D01*
X92687145Y-58459191D01*
X93032740Y-58635280D01*
X93394847Y-58774280D01*
X93769501Y-58874668D01*
X94152596Y-58935344D01*
X94539934Y-58955644D01*
X94927272Y-58935344D01*
X95310367Y-58874668D01*
X95685021Y-58774280D01*
X96047128Y-58635280D01*
X96392723Y-58459191D01*
X96718018Y-58247942D01*
X97019450Y-58003847D01*
X97293715Y-57729582D01*
X97537810Y-57428150D01*
X97749059Y-57102855D01*
X97925148Y-56757260D01*
X98064148Y-56395153D01*
X98164536Y-56020499D01*
X98225212Y-55637404D01*
X98245512Y-55250066D01*
X179334356Y-55250066D01*
X179354656Y-55637404D01*
X179355161Y-55640597D01*
X179355163Y-55640609D01*
X179414823Y-56017290D01*
X179414825Y-56017303D01*
X179415332Y-56020499D01*
X179515720Y-56395153D01*
X179654720Y-56757260D01*
X179656189Y-56760143D01*
X179656193Y-56760152D01*
X179829334Y-57099961D01*
X179830809Y-57102855D01*
X180042058Y-57428150D01*
X180286153Y-57729582D01*
X180560418Y-58003847D01*
X180861850Y-58247942D01*
X181187145Y-58459191D01*
X181532740Y-58635280D01*
X181894847Y-58774280D01*
X182269501Y-58874668D01*
X182652596Y-58935344D01*
X183039934Y-58955644D01*
X183427272Y-58935344D01*
X183810367Y-58874668D01*
X184185021Y-58774280D01*
X184547128Y-58635280D01*
X184892723Y-58459191D01*
X185218018Y-58247942D01*
X185519450Y-58003847D01*
X185793715Y-57729582D01*
X186037810Y-57428150D01*
X186249059Y-57102855D01*
X186425148Y-56757260D01*
X186564148Y-56395153D01*
X186664536Y-56020499D01*
X186725212Y-55637404D01*
X186745512Y-55250066D01*
X186725212Y-54862728D01*
X186664536Y-54479633D01*
X186564148Y-54104979D01*
X186425148Y-53742872D01*
X186249059Y-53397277D01*
X186037810Y-53071982D01*
X185793715Y-52770550D01*
X185519450Y-52496285D01*
X185218018Y-52252190D01*
X184892723Y-52040941D01*
X184889835Y-52039469D01*
X184889829Y-52039466D01*
X184550020Y-51866325D01*
X184550011Y-51866321D01*
X184547128Y-51864852D01*
X184544096Y-51863688D01*
X184188044Y-51727012D01*
X184188036Y-51727009D01*
X184185021Y-51725852D01*
X184181896Y-51725014D01*
X184181891Y-51725013D01*
X183813500Y-51626303D01*
X183813491Y-51626301D01*
X183810367Y-51625464D01*
X183807171Y-51624957D01*
X183807158Y-51624955D01*
X183430477Y-51565295D01*
X183430465Y-51565293D01*
X183427272Y-51564788D01*
X183424037Y-51564618D01*
X183424033Y-51564618D01*
X183043178Y-51544658D01*
X183039934Y-51544488D01*
X183036690Y-51544658D01*
X182655834Y-51564618D01*
X182655828Y-51564618D01*
X182652596Y-51564788D01*
X182649404Y-51565293D01*
X182649390Y-51565295D01*
X182272709Y-51624955D01*
X182272692Y-51624958D01*
X182269501Y-51625464D01*
X182266380Y-51626300D01*
X182266367Y-51626303D01*
X181897976Y-51725013D01*
X181897965Y-51725016D01*
X181894847Y-51725852D01*
X181891836Y-51727007D01*
X181891823Y-51727012D01*
X181535771Y-51863688D01*
X181535762Y-51863691D01*
X181532740Y-51864852D01*
X181529863Y-51866317D01*
X181529847Y-51866325D01*
X181190038Y-52039466D01*
X181190024Y-52039474D01*
X181187145Y-52040941D01*
X181184425Y-52042707D01*
X181184417Y-52042712D01*
X180864578Y-52250418D01*
X180864572Y-52250421D01*
X180861850Y-52252190D01*
X180859330Y-52254230D01*
X180859324Y-52254235D01*
X180562936Y-52494245D01*
X180562925Y-52494254D01*
X180560418Y-52496285D01*
X180558133Y-52498569D01*
X180558123Y-52498579D01*
X180288447Y-52768255D01*
X180288437Y-52768265D01*
X180286153Y-52770550D01*
X180284122Y-52773057D01*
X180284113Y-52773068D01*
X180044103Y-53069456D01*
X180044098Y-53069462D01*
X180042058Y-53071982D01*
X180040289Y-53074704D01*
X180040286Y-53074710D01*
X179832580Y-53394549D01*
X179832575Y-53394557D01*
X179830809Y-53397277D01*
X179829342Y-53400156D01*
X179829334Y-53400170D01*
X179656193Y-53739979D01*
X179656185Y-53739995D01*
X179654720Y-53742872D01*
X179653559Y-53745894D01*
X179653556Y-53745903D01*
X179516880Y-54101955D01*
X179516875Y-54101968D01*
X179515720Y-54104979D01*
X179514884Y-54108097D01*
X179514881Y-54108108D01*
X179416171Y-54476499D01*
X179416168Y-54476512D01*
X179415332Y-54479633D01*
X179414826Y-54482824D01*
X179414823Y-54482841D01*
X179355163Y-54859522D01*
X179355161Y-54859536D01*
X179354656Y-54862728D01*
X179334356Y-55250066D01*
X98245512Y-55250066D01*
X98225212Y-54862728D01*
X98164536Y-54479633D01*
X98064148Y-54104979D01*
X97925148Y-53742872D01*
X97749059Y-53397277D01*
X97537810Y-53071982D01*
X97293715Y-52770550D01*
X97019450Y-52496285D01*
X96718018Y-52252190D01*
X96392723Y-52040941D01*
X96389835Y-52039469D01*
X96389829Y-52039466D01*
X96050020Y-51866325D01*
X96050011Y-51866321D01*
X96047128Y-51864852D01*
X96044096Y-51863688D01*
X95688044Y-51727012D01*
X95688036Y-51727009D01*
X95685021Y-51725852D01*
X95681896Y-51725014D01*
X95681891Y-51725013D01*
X95313500Y-51626303D01*
X95313491Y-51626301D01*
X95310367Y-51625464D01*
X95307171Y-51624957D01*
X95307158Y-51624955D01*
X94930477Y-51565295D01*
X94930465Y-51565293D01*
X94927272Y-51564788D01*
X94924037Y-51564618D01*
X94924033Y-51564618D01*
X94543178Y-51544658D01*
X94539934Y-51544488D01*
X94536690Y-51544658D01*
X94155834Y-51564618D01*
X94155828Y-51564618D01*
X94152596Y-51564788D01*
X94149404Y-51565293D01*
X94149390Y-51565295D01*
X93772709Y-51624955D01*
X93772692Y-51624958D01*
X93769501Y-51625464D01*
X93766380Y-51626300D01*
X93766367Y-51626303D01*
X93397976Y-51725013D01*
X93397965Y-51725016D01*
X93394847Y-51725852D01*
X93391836Y-51727007D01*
X93391823Y-51727012D01*
X93035771Y-51863688D01*
X93035762Y-51863691D01*
X93032740Y-51864852D01*
X93029863Y-51866317D01*
X93029847Y-51866325D01*
X92690038Y-52039466D01*
X92690024Y-52039474D01*
X92687145Y-52040941D01*
X92684425Y-52042707D01*
X92684417Y-52042712D01*
X92364578Y-52250418D01*
X92364572Y-52250421D01*
X92361850Y-52252190D01*
X92359330Y-52254230D01*
X92359324Y-52254235D01*
X92062936Y-52494245D01*
X92062925Y-52494254D01*
X92060418Y-52496285D01*
X92058133Y-52498569D01*
X92058123Y-52498579D01*
X91788447Y-52768255D01*
X91788437Y-52768265D01*
X91786153Y-52770550D01*
X91784122Y-52773057D01*
X91784113Y-52773068D01*
X91544103Y-53069456D01*
X91544098Y-53069462D01*
X91542058Y-53071982D01*
X91540289Y-53074704D01*
X91540286Y-53074710D01*
X91332580Y-53394549D01*
X91332575Y-53394557D01*
X91330809Y-53397277D01*
X91329342Y-53400156D01*
X91329334Y-53400170D01*
X91156193Y-53739979D01*
X91156185Y-53739995D01*
X91154720Y-53742872D01*
X91153559Y-53745894D01*
X91153556Y-53745903D01*
X91016880Y-54101955D01*
X91016875Y-54101968D01*
X91015720Y-54104979D01*
X91014884Y-54108097D01*
X91014881Y-54108108D01*
X90916171Y-54476499D01*
X90916168Y-54476512D01*
X90915332Y-54479633D01*
X90914826Y-54482824D01*
X90914823Y-54482841D01*
X90855163Y-54859522D01*
X90855161Y-54859536D01*
X90854656Y-54862728D01*
X90834356Y-55250066D01*
X89290368Y-55250066D01*
X89290368Y-23066020D01*
X89290370Y-23066013D01*
X89290368Y-23005527D01*
X89290840Y-22994723D01*
X89301835Y-22869014D01*
X89304606Y-22837336D01*
X89308356Y-22816064D01*
X89347841Y-22668696D01*
X89355232Y-22648391D01*
X89419701Y-22510129D01*
X89430505Y-22491413D01*
X89518010Y-22366441D01*
X89531895Y-22349892D01*
X89639772Y-22242013D01*
X89656329Y-22228121D01*
X89781298Y-22140614D01*
X89800004Y-22129814D01*
X89938274Y-22065337D01*
X89958571Y-22057949D01*
X90105939Y-22018461D01*
X90127220Y-22014709D01*
X90284239Y-22000971D01*
X90295046Y-22000500D01*
X187223977Y-22000500D01*
X187223980Y-22000500D01*
X187223987Y-22000502D01*
G37*
%TD.AperFunction*%
M02*
