M48
; DRILL file {KiCad (7.0.0)} date Fri Dec  8 21:12:49 2023
; FORMAT={-:-/ absolute / metric / decimal}
; #@! TF.CreationDate,2023-12-08T21:12:49-05:00
; #@! TF.GenerationSoftware,Kicad,Pcbnew,(7.0.0)
; #@! TF.FileFunction,Plated,1,2,PTH
FMAT,2
METRIC
; #@! TA.AperFunction,Plated,PTH,ViaDrill
T1C0.300
; #@! TA.AperFunction,Plated,PTH,ComponentDrill
T2C1.000
; #@! TA.AperFunction,Plated,PTH,ComponentDrill
T3C3.200
%
G90
G05
T1
X176.765Y-97.105
X176.855Y-101.375
X178.895Y-95.41
X179.77Y-103.42
X181.72Y-95.21
T2
X114.665Y-126.28
X114.665Y-144.06
X117.205Y-126.28
X117.205Y-144.06
X119.745Y-126.28
X119.745Y-144.06
X122.285Y-126.28
X122.285Y-144.06
X124.825Y-126.28
X124.825Y-144.06
X127.365Y-126.28
X127.365Y-144.06
X129.905Y-126.28
X129.905Y-144.06
X132.445Y-126.28
X132.445Y-144.06
X134.985Y-126.28
X134.985Y-144.06
X137.525Y-126.28
X137.525Y-144.06
X140.065Y-126.28
X140.065Y-144.06
X142.605Y-126.28
X142.605Y-144.06
X145.145Y-126.28
X145.145Y-144.06
X147.685Y-126.28
X147.685Y-144.06
X150.225Y-126.28
X150.225Y-144.06
X152.765Y-126.28
X152.765Y-144.06
X155.305Y-126.28
X155.305Y-144.06
X157.845Y-126.28
X157.845Y-144.06
X160.385Y-126.28
X160.385Y-144.06
X162.925Y-126.28
X162.925Y-144.06
T3
X94.54Y-55.25
X94.54Y-143.75
X183.04Y-55.25
X183.04Y-143.75
T0
M30
