%TF.GenerationSoftware,KiCad,Pcbnew,(7.0.0)*%
%TF.CreationDate,2023-12-08T21:12:49-05:00*%
%TF.ProjectId,Coaster-Graphics,436f6173-7465-4722-9d47-726170686963,rev?*%
%TF.SameCoordinates,Original*%
%TF.FileFunction,Paste,Bot*%
%TF.FilePolarity,Positive*%
%FSLAX46Y46*%
G04 Gerber Fmt 4.6, Leading zero omitted, Abs format (unit mm)*
G04 Created by KiCad (PCBNEW (7.0.0)) date 2023-12-08 21:12:49*
%MOMM*%
%LPD*%
G01*
G04 APERTURE LIST*
%ADD10C,0.010000*%
G04 APERTURE END LIST*
%TO.C,J2*%
G36*
X177680000Y-101762566D02*
G01*
X177400000Y-101762566D01*
X177400000Y-100562566D01*
X177680000Y-100562566D01*
X177680000Y-101762566D01*
G37*
D10*
X177680000Y-101762566D02*
X177400000Y-101762566D01*
X177400000Y-100562566D01*
X177680000Y-100562566D01*
X177680000Y-101762566D01*
G36*
X177680000Y-97762566D02*
G01*
X177400000Y-97762566D01*
X177400000Y-96562566D01*
X177680000Y-96562566D01*
X177680000Y-97762566D01*
G37*
X177680000Y-97762566D02*
X177400000Y-97762566D01*
X177400000Y-96562566D01*
X177680000Y-96562566D01*
X177680000Y-97762566D01*
G36*
X178180000Y-101762566D02*
G01*
X177900000Y-101762566D01*
X177900000Y-100562566D01*
X178180000Y-100562566D01*
X178180000Y-101762566D01*
G37*
X178180000Y-101762566D02*
X177900000Y-101762566D01*
X177900000Y-100562566D01*
X178180000Y-100562566D01*
X178180000Y-101762566D01*
G36*
X178180000Y-97762566D02*
G01*
X177900000Y-97762566D01*
X177900000Y-96562566D01*
X178180000Y-96562566D01*
X178180000Y-97762566D01*
G37*
X178180000Y-97762566D02*
X177900000Y-97762566D01*
X177900000Y-96562566D01*
X178180000Y-96562566D01*
X178180000Y-97762566D01*
G36*
X178680000Y-101762566D02*
G01*
X178400000Y-101762566D01*
X178400000Y-100562566D01*
X178680000Y-100562566D01*
X178680000Y-101762566D01*
G37*
X178680000Y-101762566D02*
X178400000Y-101762566D01*
X178400000Y-100562566D01*
X178680000Y-100562566D01*
X178680000Y-101762566D01*
G36*
X178680000Y-97762566D02*
G01*
X178400000Y-97762566D01*
X178400000Y-96562566D01*
X178680000Y-96562566D01*
X178680000Y-97762566D01*
G37*
X178680000Y-97762566D02*
X178400000Y-97762566D01*
X178400000Y-96562566D01*
X178680000Y-96562566D01*
X178680000Y-97762566D01*
G36*
X179180000Y-101762566D02*
G01*
X178900000Y-101762566D01*
X178900000Y-100562566D01*
X179180000Y-100562566D01*
X179180000Y-101762566D01*
G37*
X179180000Y-101762566D02*
X178900000Y-101762566D01*
X178900000Y-100562566D01*
X179180000Y-100562566D01*
X179180000Y-101762566D01*
G36*
X179180000Y-97762566D02*
G01*
X178900000Y-97762566D01*
X178900000Y-96562566D01*
X179180000Y-96562566D01*
X179180000Y-97762566D01*
G37*
X179180000Y-97762566D02*
X178900000Y-97762566D01*
X178900000Y-96562566D01*
X179180000Y-96562566D01*
X179180000Y-97762566D01*
G36*
X179680000Y-101762566D02*
G01*
X179400000Y-101762566D01*
X179400000Y-100562566D01*
X179680000Y-100562566D01*
X179680000Y-101762566D01*
G37*
X179680000Y-101762566D02*
X179400000Y-101762566D01*
X179400000Y-100562566D01*
X179680000Y-100562566D01*
X179680000Y-101762566D01*
G36*
X179680000Y-97762566D02*
G01*
X179400000Y-97762566D01*
X179400000Y-96562566D01*
X179680000Y-96562566D01*
X179680000Y-97762566D01*
G37*
X179680000Y-97762566D02*
X179400000Y-97762566D01*
X179400000Y-96562566D01*
X179680000Y-96562566D01*
X179680000Y-97762566D01*
G36*
X180180000Y-101762566D02*
G01*
X179900000Y-101762566D01*
X179900000Y-100562566D01*
X180180000Y-100562566D01*
X180180000Y-101762566D01*
G37*
X180180000Y-101762566D02*
X179900000Y-101762566D01*
X179900000Y-100562566D01*
X180180000Y-100562566D01*
X180180000Y-101762566D01*
G36*
X180180000Y-97762566D02*
G01*
X179900000Y-97762566D01*
X179900000Y-96562566D01*
X180180000Y-96562566D01*
X180180000Y-97762566D01*
G37*
X180180000Y-97762566D02*
X179900000Y-97762566D01*
X179900000Y-96562566D01*
X180180000Y-96562566D01*
X180180000Y-97762566D01*
G36*
X180680000Y-101762566D02*
G01*
X180400000Y-101762566D01*
X180400000Y-100562566D01*
X180680000Y-100562566D01*
X180680000Y-101762566D01*
G37*
X180680000Y-101762566D02*
X180400000Y-101762566D01*
X180400000Y-100562566D01*
X180680000Y-100562566D01*
X180680000Y-101762566D01*
G36*
X180680000Y-97762566D02*
G01*
X180400000Y-97762566D01*
X180400000Y-96562566D01*
X180680000Y-96562566D01*
X180680000Y-97762566D01*
G37*
X180680000Y-97762566D02*
X180400000Y-97762566D01*
X180400000Y-96562566D01*
X180680000Y-96562566D01*
X180680000Y-97762566D01*
G36*
X181180000Y-101762566D02*
G01*
X180900000Y-101762566D01*
X180900000Y-100562566D01*
X181180000Y-100562566D01*
X181180000Y-101762566D01*
G37*
X181180000Y-101762566D02*
X180900000Y-101762566D01*
X180900000Y-100562566D01*
X181180000Y-100562566D01*
X181180000Y-101762566D01*
G36*
X181180000Y-97762566D02*
G01*
X180900000Y-97762566D01*
X180900000Y-96562566D01*
X181180000Y-96562566D01*
X181180000Y-97762566D01*
G37*
X181180000Y-97762566D02*
X180900000Y-97762566D01*
X180900000Y-96562566D01*
X181180000Y-96562566D01*
X181180000Y-97762566D01*
G36*
X181680000Y-101762566D02*
G01*
X181400000Y-101762566D01*
X181400000Y-100562566D01*
X181680000Y-100562566D01*
X181680000Y-101762566D01*
G37*
X181680000Y-101762566D02*
X181400000Y-101762566D01*
X181400000Y-100562566D01*
X181680000Y-100562566D01*
X181680000Y-101762566D01*
G36*
X181680000Y-97762566D02*
G01*
X181400000Y-97762566D01*
X181400000Y-96562566D01*
X181680000Y-96562566D01*
X181680000Y-97762566D01*
G37*
X181680000Y-97762566D02*
X181400000Y-97762566D01*
X181400000Y-96562566D01*
X181680000Y-96562566D01*
X181680000Y-97762566D01*
G36*
X182180000Y-101762566D02*
G01*
X181900000Y-101762566D01*
X181900000Y-100562566D01*
X182180000Y-100562566D01*
X182180000Y-101762566D01*
G37*
X182180000Y-101762566D02*
X181900000Y-101762566D01*
X181900000Y-100562566D01*
X182180000Y-100562566D01*
X182180000Y-101762566D01*
G36*
X182180000Y-97762566D02*
G01*
X181900000Y-97762566D01*
X181900000Y-96562566D01*
X182180000Y-96562566D01*
X182180000Y-97762566D01*
G37*
X182180000Y-97762566D02*
X181900000Y-97762566D01*
X181900000Y-96562566D01*
X182180000Y-96562566D01*
X182180000Y-97762566D01*
%TO.C,J1*%
G36*
X141179934Y-57480000D02*
G01*
X140899934Y-57480000D01*
X140899934Y-56280000D01*
X141179934Y-56280000D01*
X141179934Y-57480000D01*
G37*
X141179934Y-57480000D02*
X140899934Y-57480000D01*
X140899934Y-56280000D01*
X141179934Y-56280000D01*
X141179934Y-57480000D01*
G36*
X141179934Y-61480000D02*
G01*
X140899934Y-61480000D01*
X140899934Y-60280000D01*
X141179934Y-60280000D01*
X141179934Y-61480000D01*
G37*
X141179934Y-61480000D02*
X140899934Y-61480000D01*
X140899934Y-60280000D01*
X141179934Y-60280000D01*
X141179934Y-61480000D01*
G36*
X140679934Y-57480000D02*
G01*
X140399934Y-57480000D01*
X140399934Y-56280000D01*
X140679934Y-56280000D01*
X140679934Y-57480000D01*
G37*
X140679934Y-57480000D02*
X140399934Y-57480000D01*
X140399934Y-56280000D01*
X140679934Y-56280000D01*
X140679934Y-57480000D01*
G36*
X140679934Y-61480000D02*
G01*
X140399934Y-61480000D01*
X140399934Y-60280000D01*
X140679934Y-60280000D01*
X140679934Y-61480000D01*
G37*
X140679934Y-61480000D02*
X140399934Y-61480000D01*
X140399934Y-60280000D01*
X140679934Y-60280000D01*
X140679934Y-61480000D01*
G36*
X140179934Y-57480000D02*
G01*
X139899934Y-57480000D01*
X139899934Y-56280000D01*
X140179934Y-56280000D01*
X140179934Y-57480000D01*
G37*
X140179934Y-57480000D02*
X139899934Y-57480000D01*
X139899934Y-56280000D01*
X140179934Y-56280000D01*
X140179934Y-57480000D01*
G36*
X140179934Y-61480000D02*
G01*
X139899934Y-61480000D01*
X139899934Y-60280000D01*
X140179934Y-60280000D01*
X140179934Y-61480000D01*
G37*
X140179934Y-61480000D02*
X139899934Y-61480000D01*
X139899934Y-60280000D01*
X140179934Y-60280000D01*
X140179934Y-61480000D01*
G36*
X139679934Y-57480000D02*
G01*
X139399934Y-57480000D01*
X139399934Y-56280000D01*
X139679934Y-56280000D01*
X139679934Y-57480000D01*
G37*
X139679934Y-57480000D02*
X139399934Y-57480000D01*
X139399934Y-56280000D01*
X139679934Y-56280000D01*
X139679934Y-57480000D01*
G36*
X139679934Y-61480000D02*
G01*
X139399934Y-61480000D01*
X139399934Y-60280000D01*
X139679934Y-60280000D01*
X139679934Y-61480000D01*
G37*
X139679934Y-61480000D02*
X139399934Y-61480000D01*
X139399934Y-60280000D01*
X139679934Y-60280000D01*
X139679934Y-61480000D01*
G36*
X139179934Y-57480000D02*
G01*
X138899934Y-57480000D01*
X138899934Y-56280000D01*
X139179934Y-56280000D01*
X139179934Y-57480000D01*
G37*
X139179934Y-57480000D02*
X138899934Y-57480000D01*
X138899934Y-56280000D01*
X139179934Y-56280000D01*
X139179934Y-57480000D01*
G36*
X139179934Y-61480000D02*
G01*
X138899934Y-61480000D01*
X138899934Y-60280000D01*
X139179934Y-60280000D01*
X139179934Y-61480000D01*
G37*
X139179934Y-61480000D02*
X138899934Y-61480000D01*
X138899934Y-60280000D01*
X139179934Y-60280000D01*
X139179934Y-61480000D01*
G36*
X138679934Y-57480000D02*
G01*
X138399934Y-57480000D01*
X138399934Y-56280000D01*
X138679934Y-56280000D01*
X138679934Y-57480000D01*
G37*
X138679934Y-57480000D02*
X138399934Y-57480000D01*
X138399934Y-56280000D01*
X138679934Y-56280000D01*
X138679934Y-57480000D01*
G36*
X138679934Y-61480000D02*
G01*
X138399934Y-61480000D01*
X138399934Y-60280000D01*
X138679934Y-60280000D01*
X138679934Y-61480000D01*
G37*
X138679934Y-61480000D02*
X138399934Y-61480000D01*
X138399934Y-60280000D01*
X138679934Y-60280000D01*
X138679934Y-61480000D01*
G36*
X138179934Y-57480000D02*
G01*
X137899934Y-57480000D01*
X137899934Y-56280000D01*
X138179934Y-56280000D01*
X138179934Y-57480000D01*
G37*
X138179934Y-57480000D02*
X137899934Y-57480000D01*
X137899934Y-56280000D01*
X138179934Y-56280000D01*
X138179934Y-57480000D01*
G36*
X138179934Y-61480000D02*
G01*
X137899934Y-61480000D01*
X137899934Y-60280000D01*
X138179934Y-60280000D01*
X138179934Y-61480000D01*
G37*
X138179934Y-61480000D02*
X137899934Y-61480000D01*
X137899934Y-60280000D01*
X138179934Y-60280000D01*
X138179934Y-61480000D01*
G36*
X137679934Y-57480000D02*
G01*
X137399934Y-57480000D01*
X137399934Y-56280000D01*
X137679934Y-56280000D01*
X137679934Y-57480000D01*
G37*
X137679934Y-57480000D02*
X137399934Y-57480000D01*
X137399934Y-56280000D01*
X137679934Y-56280000D01*
X137679934Y-57480000D01*
G36*
X137679934Y-61480000D02*
G01*
X137399934Y-61480000D01*
X137399934Y-60280000D01*
X137679934Y-60280000D01*
X137679934Y-61480000D01*
G37*
X137679934Y-61480000D02*
X137399934Y-61480000D01*
X137399934Y-60280000D01*
X137679934Y-60280000D01*
X137679934Y-61480000D01*
G36*
X137179934Y-57480000D02*
G01*
X136899934Y-57480000D01*
X136899934Y-56280000D01*
X137179934Y-56280000D01*
X137179934Y-57480000D01*
G37*
X137179934Y-57480000D02*
X136899934Y-57480000D01*
X136899934Y-56280000D01*
X137179934Y-56280000D01*
X137179934Y-57480000D01*
G36*
X137179934Y-61480000D02*
G01*
X136899934Y-61480000D01*
X136899934Y-60280000D01*
X137179934Y-60280000D01*
X137179934Y-61480000D01*
G37*
X137179934Y-61480000D02*
X136899934Y-61480000D01*
X136899934Y-60280000D01*
X137179934Y-60280000D01*
X137179934Y-61480000D01*
G36*
X136679934Y-57480000D02*
G01*
X136399934Y-57480000D01*
X136399934Y-56280000D01*
X136679934Y-56280000D01*
X136679934Y-57480000D01*
G37*
X136679934Y-57480000D02*
X136399934Y-57480000D01*
X136399934Y-56280000D01*
X136679934Y-56280000D01*
X136679934Y-57480000D01*
G36*
X136679934Y-61480000D02*
G01*
X136399934Y-61480000D01*
X136399934Y-60280000D01*
X136679934Y-60280000D01*
X136679934Y-61480000D01*
G37*
X136679934Y-61480000D02*
X136399934Y-61480000D01*
X136399934Y-60280000D01*
X136679934Y-60280000D01*
X136679934Y-61480000D01*
%TD*%
M02*
